<svg width="275" height="170" viewBox="0 0 275 170" fill="none" xmlns="http://www.w3.org/2000/svg">
<rect width="275" height="170" fill="white"/>
<path d="M19.9262 97.5H13.5029L21.846 72.7727H29.8026L38.1457 97.5H31.7224L25.9149 79.0028H25.7217L19.9262 97.5ZM19.069 87.7685H32.4951V92.3082H19.069V87.7685ZM46.4193 97.7656C45.0509 97.7656 43.8073 97.4115 42.6885 96.7031C41.5696 95.9948 40.6762 94.9323 40.0081 93.5156C39.34 92.099 39.0059 90.3402 39.0059 88.2393C39.0059 86.058 39.3521 84.263 40.0443 82.8544C40.7365 81.4458 41.6421 80.4034 42.7609 79.7273C43.8878 79.0511 45.0992 78.7131 46.3952 78.7131C47.3691 78.7131 48.2022 78.8821 48.8944 79.2202C49.5867 79.5502 50.1582 79.9768 50.6089 80.5C51.0597 81.0232 51.4018 81.5665 51.6352 82.13H51.7559V72.7727H57.6601V97.5H51.8163V94.4936H51.6352C51.3857 95.0651 51.0315 95.6004 50.5727 96.0994C50.1139 96.5985 49.5384 97.0009 48.8461 97.3068C48.162 97.6127 47.353 97.7656 46.4193 97.7656ZM48.4719 93.1655C49.1882 93.1655 49.8 92.9643 50.3071 92.5618C50.8142 92.1513 51.2046 91.5758 51.4783 90.8352C51.7519 90.0947 51.8888 89.2254 51.8888 88.2273C51.8888 87.2131 51.7519 86.3397 51.4783 85.6072C51.2126 84.8748 50.8222 84.3113 50.3071 83.9169C49.8 83.5225 49.1882 83.3253 48.4719 83.3253C47.7394 83.3253 47.1196 83.5265 46.6125 83.929C46.1054 84.3314 45.719 84.8989 45.4534 85.6314C45.1958 86.3639 45.067 87.2292 45.067 88.2273C45.067 89.2254 45.1998 90.0947 45.4655 90.8352C45.7311 91.5758 46.1134 92.1513 46.6125 92.5618C47.1196 92.9643 47.7394 93.1655 48.4719 93.1655ZM61.3939 97.5V78.9545H67.0083V82.3594H67.2135C67.5999 81.2325 68.2519 80.343 69.1695 79.6911C70.0871 79.0391 71.1818 78.7131 72.4536 78.7131C73.7414 78.7131 74.8442 79.0431 75.7618 79.7031C76.6794 80.3632 77.263 81.2486 77.5125 82.3594H77.7057C78.0518 81.2566 78.728 80.3752 79.7341 79.7152C80.7403 79.0471 81.9275 78.7131 83.2959 78.7131C85.0506 78.7131 86.4754 79.2765 87.57 80.4034C88.6647 81.5223 89.2121 83.0597 89.2121 85.0156V97.5H83.308V86.3679C83.308 85.4422 83.0705 84.7379 82.5956 84.255C82.1207 83.764 81.5049 83.5185 80.7483 83.5185C79.9353 83.5185 79.2954 83.7841 78.8286 84.3153C78.3698 84.8385 78.1404 85.5428 78.1404 86.4283V97.5H72.4656V86.3075C72.4656 85.4463 72.2322 84.7661 71.7654 84.267C71.2985 83.768 70.6827 83.5185 69.9181 83.5185C69.4029 83.5185 68.9481 83.6432 68.5537 83.8928C68.1593 84.1342 67.8494 84.4804 67.624 84.9311C67.4067 85.3819 67.298 85.9131 67.298 86.5249V97.5H61.3939ZM92.8705 97.5V78.9545H98.7746V97.5H92.8705ZM95.8286 76.7933C94.9995 76.7933 94.2871 76.5196 93.6915 75.9723C93.0959 75.4169 92.798 74.7488 92.798 73.968C92.798 73.1953 93.0959 72.5353 93.6915 71.9879C94.2871 71.4325 94.9995 71.1548 95.8286 71.1548C96.6657 71.1548 97.378 71.4325 97.9656 71.9879C98.5613 72.5353 98.8591 73.1953 98.8591 73.968C98.8591 74.7488 98.5613 75.4169 97.9656 75.9723C97.378 76.5196 96.6657 76.7933 95.8286 76.7933ZM108.437 86.9233V97.5H102.533V78.9545H108.147V82.3594H108.352C108.763 81.2244 109.463 80.335 110.453 79.6911C111.443 79.0391 112.622 78.7131 113.991 78.7131C115.295 78.7131 116.426 79.0069 117.383 79.5945C118.349 80.174 119.098 80.987 119.629 82.0334C120.168 83.0717 120.434 84.2872 120.426 85.6797V97.5H114.522V86.8388C114.53 85.8085 114.268 85.0036 113.737 84.424C113.214 83.8445 112.485 83.5547 111.552 83.5547C110.932 83.5547 110.385 83.6915 109.91 83.9652C109.443 84.2308 109.081 84.6132 108.823 85.1122C108.574 85.6113 108.445 86.215 108.437 86.9233ZM124.081 97.5V78.9545H129.986V97.5H124.081ZM127.04 76.7933C126.21 76.7933 125.498 76.5196 124.902 75.9723C124.307 75.4169 124.009 74.7488 124.009 73.968C124.009 73.1953 124.307 72.5353 124.902 71.9879C125.498 71.4325 126.21 71.1548 127.04 71.1548C127.877 71.1548 128.589 71.4325 129.177 71.9879C129.772 72.5353 130.07 73.1953 130.07 73.968C130.07 74.7488 129.772 75.4169 129.177 75.9723C128.589 76.5196 127.877 76.7933 127.04 76.7933ZM149.935 84.6172L144.513 84.7621C144.457 84.3757 144.304 84.0336 144.055 83.7358C143.805 83.4299 143.479 83.1925 143.077 83.0234C142.682 82.8464 142.223 82.7578 141.7 82.7578C141.016 82.7578 140.432 82.8946 139.949 83.1683C139.475 83.442 139.241 83.8123 139.249 84.2791C139.241 84.6413 139.386 84.9553 139.684 85.2209C139.99 85.4865 140.533 85.6998 141.314 85.8608L144.888 86.5369C146.739 86.8911 148.115 87.4787 149.017 88.2997C149.927 89.1207 150.385 90.2074 150.393 91.5597C150.385 92.8314 150.007 93.9382 149.258 94.88C148.518 95.8217 147.504 96.5542 146.216 97.0774C144.928 97.5926 143.455 97.8501 141.797 97.8501C139.149 97.8501 137.06 97.3068 135.53 96.2202C134.009 95.1255 133.14 93.6605 132.922 91.8253L138.754 91.6804C138.883 92.3565 139.217 92.8717 139.756 93.2259C140.296 93.58 140.984 93.7571 141.821 93.7571C142.578 93.7571 143.193 93.6162 143.668 93.3345C144.143 93.0528 144.385 92.6785 144.393 92.2116C144.385 91.7931 144.199 91.459 143.837 91.2095C143.475 90.9519 142.908 90.7507 142.135 90.6058L138.899 89.9901C137.04 89.652 135.655 89.0282 134.746 88.1186C133.836 87.201 133.385 86.0339 133.393 84.6172C133.385 83.3776 133.715 82.3191 134.383 81.4418C135.052 80.5563 136.001 79.8802 137.233 79.4134C138.464 78.9465 139.917 78.7131 141.592 78.7131C144.103 78.7131 146.083 79.2403 147.532 80.2947C148.981 81.3411 149.782 82.782 149.935 84.6172ZM163.768 78.9545V83.3011H152.069V78.9545H163.768ZM154.52 74.5114H160.424V91.6683C160.424 92.0305 160.48 92.3243 160.593 92.5497C160.714 92.767 160.887 92.924 161.112 93.0206C161.337 93.1091 161.607 93.1534 161.921 93.1534C162.146 93.1534 162.384 93.1333 162.633 93.093C162.891 93.0447 163.084 93.0045 163.213 92.9723L164.106 97.2344C163.825 97.3149 163.426 97.4155 162.911 97.5362C162.404 97.657 161.796 97.7334 161.088 97.7656C159.703 97.83 158.516 97.669 157.526 97.2827C156.544 96.8883 155.791 96.2765 155.268 95.4474C154.753 94.6184 154.504 93.576 154.52 92.3203V74.5114ZM166.781 97.5V78.9545H172.516V82.3352H172.709C173.047 81.1117 173.598 80.2022 174.363 79.6065C175.128 79.0028 176.017 78.701 177.031 78.701C177.305 78.701 177.587 78.7211 177.877 78.7614C178.166 78.7936 178.436 78.8459 178.685 78.9183V84.0497C178.404 83.9531 178.033 83.8767 177.575 83.8203C177.124 83.764 176.721 83.7358 176.367 83.7358C175.667 83.7358 175.035 83.8928 174.472 84.2067C173.916 84.5125 173.478 84.9432 173.156 85.4986C172.842 86.0459 172.685 86.6899 172.685 87.4304V97.5H166.781ZM185.622 97.8139C184.439 97.8139 183.388 97.6167 182.471 97.2223C181.561 96.8198 180.841 96.2161 180.309 95.4112C179.786 94.5982 179.525 93.58 179.525 92.3565C179.525 91.3262 179.706 90.4569 180.068 89.7486C180.43 89.0402 180.929 88.4647 181.565 88.022C182.201 87.5793 182.933 87.2453 183.763 87.0199C184.592 86.7865 185.477 86.6295 186.419 86.549C187.473 86.4524 188.322 86.3518 188.966 86.2472C189.61 86.1345 190.077 85.9775 190.367 85.7763C190.665 85.567 190.814 85.2732 190.814 84.8949V84.8345C190.814 84.2147 190.6 83.7358 190.174 83.3977C189.747 83.0597 189.172 82.8906 188.447 82.8906C187.666 82.8906 187.039 83.0597 186.564 83.3977C186.089 83.7358 185.787 84.2027 185.658 84.7983L180.213 84.6051C180.374 83.4782 180.788 82.4721 181.456 81.5866C182.133 80.6932 183.058 79.9929 184.233 79.4858C185.417 78.9706 186.837 78.7131 188.495 78.7131C189.679 78.7131 190.769 78.8539 191.767 79.1357C192.766 79.4093 193.635 79.8118 194.375 80.343C195.116 80.8662 195.687 81.5102 196.09 82.2749C196.5 83.0395 196.706 83.9129 196.706 84.8949V97.5H191.152V94.9162H191.007C190.677 95.544 190.254 96.0753 189.739 96.5099C189.232 96.9446 188.632 97.2706 187.94 97.4879C187.256 97.7053 186.483 97.8139 185.622 97.8139ZM187.445 93.9503C188.081 93.9503 188.652 93.8215 189.16 93.5639C189.675 93.3063 190.085 92.9522 190.391 92.5014C190.697 92.0426 190.85 91.5114 190.85 90.9077V89.1449C190.681 89.2334 190.476 89.3139 190.234 89.3864C190.001 89.4588 189.743 89.5272 189.461 89.5916C189.18 89.656 188.89 89.7124 188.592 89.7607C188.294 89.8089 188.008 89.8532 187.735 89.8935C187.179 89.982 186.705 90.1188 186.31 90.304C185.924 90.4891 185.626 90.7306 185.417 91.0284C185.215 91.3182 185.115 91.6643 185.115 92.0668C185.115 92.6785 185.332 93.1454 185.767 93.4673C186.209 93.7893 186.769 93.9503 187.445 93.9503ZM210.784 78.9545V83.3011H199.084V78.9545H210.784ZM201.535 74.5114H207.439V91.6683C207.439 92.0305 207.496 92.3243 207.608 92.5497C207.729 92.767 207.902 92.924 208.128 93.0206C208.353 93.1091 208.623 93.1534 208.937 93.1534C209.162 93.1534 209.399 93.1333 209.649 93.093C209.906 93.0447 210.1 93.0045 210.228 92.9723L211.122 97.2344C210.84 97.3149 210.442 97.4155 209.927 97.5362C209.419 97.657 208.812 97.7334 208.103 97.7656C206.719 97.83 205.532 97.669 204.542 97.2827C203.56 96.8883 202.807 96.2765 202.284 95.4474C201.769 94.6184 201.519 93.576 201.535 92.3203V74.5114ZM213.796 97.5V78.9545H219.7V97.5H213.796ZM216.754 76.7933C215.925 76.7933 215.213 76.5196 214.617 75.9723C214.022 75.4169 213.724 74.7488 213.724 73.968C213.724 73.1953 214.022 72.5353 214.617 71.9879C215.213 71.4325 215.925 71.1548 216.754 71.1548C217.591 71.1548 218.304 71.4325 218.891 71.9879C219.487 72.5353 219.785 73.1953 219.785 73.968C219.785 74.7488 219.487 75.4169 218.891 75.9723C218.304 76.5196 217.591 76.7933 216.754 76.7933ZM241.448 78.9545L235.085 97.5H228.324L221.973 78.9545H228.191L231.608 91.7287H231.801L235.23 78.9545H241.448ZM251.772 97.8501C249.824 97.8501 248.149 97.4517 246.749 96.6548C245.356 95.8499 244.282 94.7311 243.525 93.2983C242.777 91.8575 242.402 90.1873 242.402 88.2876C242.402 86.38 242.777 84.7098 243.525 83.277C244.282 81.8362 245.356 80.7173 246.749 79.9205C248.149 79.1155 249.824 78.7131 251.772 78.7131C253.719 78.7131 255.39 79.1155 256.782 79.9205C258.183 80.7173 259.257 81.8362 260.006 83.277C260.763 84.7098 261.141 86.38 261.141 88.2876C261.141 90.1873 260.763 91.8575 260.006 93.2983C259.257 94.7311 258.183 95.8499 256.782 96.6548C255.39 97.4517 253.719 97.8501 251.772 97.8501ZM251.808 93.3949C252.516 93.3949 253.116 93.1776 253.607 92.7429C254.098 92.3082 254.472 91.7045 254.73 90.9318C254.995 90.1591 255.128 89.2656 255.128 88.2514C255.128 87.2211 254.995 86.3196 254.73 85.5469C254.472 84.7741 254.098 84.1705 253.607 83.7358C253.116 83.3011 252.516 83.0838 251.808 83.0838C251.075 83.0838 250.456 83.3011 249.948 83.7358C249.449 84.1705 249.067 84.7741 248.801 85.5469C248.544 86.3196 248.415 87.2211 248.415 88.2514C248.415 89.2656 248.544 90.1591 248.801 90.9318C249.067 91.7045 249.449 92.3082 249.948 92.7429C250.456 93.1776 251.075 93.3949 251.808 93.3949Z" fill="black"/>
</svg>
