<svg width="275" height="170" viewBox="0 0 275 170" fill="none" xmlns="http://www.w3.org/2000/svg">
<rect width="275" height="170" fill="white"/>
<path d="M111.563 95V74.6364H119.359C120.83 74.6364 122.053 74.8684 123.028 75.3324C124.009 75.7898 124.741 76.4162 125.225 77.2116C125.716 78.0071 125.961 78.9086 125.961 79.9162C125.961 80.7448 125.802 81.4541 125.484 82.044C125.165 82.6274 124.738 83.1013 124.201 83.4659C123.664 83.8305 123.064 84.0923 122.401 84.2514V84.4503C123.124 84.4901 123.817 84.7121 124.479 85.1165C125.149 85.5142 125.696 86.0777 126.12 86.8068C126.544 87.536 126.756 88.4176 126.756 89.4517C126.756 90.5057 126.501 91.4536 125.991 92.2955C125.48 93.1307 124.711 93.7902 123.684 94.2741C122.656 94.758 121.364 95 119.806 95H111.563ZM115.252 91.9176H119.219C120.558 91.9176 121.523 91.6624 122.113 91.152C122.71 90.6349 123.008 89.9721 123.008 89.1634C123.008 88.5601 122.859 88.0166 122.56 87.5327C122.262 87.0421 121.838 86.6577 121.288 86.3793C120.737 86.0942 120.081 85.9517 119.319 85.9517H115.252V91.9176ZM115.252 83.2969H118.901C119.538 83.2969 120.111 83.1809 120.621 82.9489C121.132 82.7102 121.533 82.3755 121.825 81.9446C122.123 81.5071 122.272 80.9901 122.272 80.3935C122.272 79.6046 121.994 78.955 121.437 78.4446C120.887 77.9342 120.068 77.679 118.981 77.679H115.252V83.2969ZM132.024 95.2188C131.421 95.2188 130.904 95.0066 130.473 94.5824C130.042 94.1581 129.83 93.6411 129.836 93.0312C129.83 92.4347 130.042 91.9242 130.473 91.5C130.904 91.0758 131.421 90.8636 132.024 90.8636C132.607 90.8636 133.114 91.0758 133.545 91.5C133.983 91.9242 134.205 92.4347 134.211 93.0312C134.205 93.4356 134.099 93.8035 133.893 94.1349C133.694 94.4664 133.429 94.7315 133.098 94.9304C132.773 95.1226 132.415 95.2188 132.024 95.2188ZM141.776 74.6364V95H138.087V74.6364H141.776ZM163.966 84.8182C163.966 87.0123 163.555 88.8916 162.733 90.456C161.918 92.0137 160.804 93.2069 159.392 94.0355C157.987 94.8641 156.393 95.2784 154.61 95.2784C152.827 95.2784 151.229 94.8641 149.817 94.0355C148.412 93.2003 147.298 92.0038 146.476 90.446C145.661 88.8816 145.253 87.0057 145.253 84.8182C145.253 82.6241 145.661 80.7481 146.476 79.1903C147.298 77.6259 148.412 76.4295 149.817 75.6009C151.229 74.7723 152.827 74.358 154.61 74.358C156.393 74.358 157.987 74.7723 159.392 75.6009C160.804 76.4295 161.918 77.6259 162.733 79.1903C163.555 80.7481 163.966 82.6241 163.966 84.8182ZM160.257 84.8182C160.257 83.2737 160.016 81.9711 159.532 80.9105C159.054 79.8433 158.391 79.0379 157.543 78.4943C156.694 77.9441 155.717 77.669 154.61 77.669C153.503 77.669 152.525 77.9441 151.676 78.4943C150.828 79.0379 150.162 79.8433 149.678 80.9105C149.201 81.9711 148.962 83.2737 148.962 84.8182C148.962 86.3627 149.201 87.6686 149.678 88.7358C150.162 89.7964 150.828 90.6018 151.676 91.152C152.525 91.6955 153.503 91.9673 154.61 91.9673C155.717 91.9673 156.694 91.6955 157.543 91.152C158.391 90.6018 159.054 89.7964 159.532 88.7358C160.016 87.6686 160.257 86.3627 160.257 84.8182Z" fill="black"/>
</svg>
