<svg width="275" height="170" viewBox="0 0 275 170" fill="none" xmlns="http://www.w3.org/2000/svg">
<rect width="275" height="170" fill="white"/>
<path d="M104.624 97.5V72.7727H114.935C116.787 72.7727 118.336 73.0343 119.584 73.5575C120.84 74.0807 121.781 74.8132 122.409 75.755C123.045 76.6967 123.363 77.7874 123.363 79.027C123.363 79.9688 123.166 80.8099 122.771 81.5504C122.377 82.2829 121.834 82.8906 121.141 83.3736C120.449 83.8565 119.648 84.1946 118.739 84.3878V84.6293C119.737 84.6776 120.658 84.9472 121.504 85.4382C122.357 85.9292 123.041 86.6134 123.556 87.4908C124.071 88.3601 124.329 89.3904 124.329 90.5817C124.329 91.9098 123.991 93.0971 123.315 94.1435C122.639 95.1818 121.661 96.0028 120.381 96.6065C119.101 97.2022 117.547 97.5 115.72 97.5H104.624ZM110.601 92.6825H114.296C115.591 92.6825 116.545 92.437 117.157 91.946C117.777 91.455 118.087 90.7708 118.087 89.8935C118.087 89.2576 117.938 88.7102 117.64 88.2514C117.342 87.7846 116.92 87.4264 116.372 87.1768C115.825 86.9193 115.169 86.7905 114.404 86.7905H110.601V92.6825ZM110.601 82.9389H113.909C114.561 82.9389 115.141 82.8303 115.648 82.6129C116.155 82.3956 116.549 82.0817 116.831 81.6712C117.121 81.2607 117.266 80.7656 117.266 80.1861C117.266 79.357 116.972 78.705 116.384 78.2301C115.797 77.7552 115.004 77.5178 114.006 77.5178H110.601V82.9389ZM130.523 97.8501C129.653 97.8501 128.909 97.5443 128.289 96.9325C127.677 96.3208 127.376 95.5803 127.384 94.7109C127.376 93.8577 127.677 93.1293 128.289 92.5256C128.909 91.9138 129.653 91.608 130.523 91.608C131.344 91.608 132.068 91.9138 132.696 92.5256C133.332 93.1293 133.654 93.8577 133.662 94.7109C133.654 95.2905 133.501 95.8177 133.203 96.2926C132.913 96.7675 132.531 97.1458 132.056 97.4276C131.589 97.7093 131.078 97.8501 130.523 97.8501ZM143.538 72.7727V97.5H137.562V72.7727H143.538ZM170.629 85.1364C170.629 87.857 170.106 90.1631 169.06 92.0547C168.013 93.9463 166.597 95.383 164.81 96.3651C163.031 97.3471 161.034 97.8381 158.821 97.8381C156.599 97.8381 154.599 97.343 152.82 96.353C151.041 95.3629 149.629 93.9261 148.582 92.0426C147.544 90.151 147.025 87.849 147.025 85.1364C147.025 82.4157 147.544 80.1096 148.582 78.218C149.629 76.3265 151.041 74.8897 152.82 73.9077C154.599 72.9257 156.599 72.4347 158.821 72.4347C161.034 72.4347 163.031 72.9257 164.81 73.9077C166.597 74.8897 168.013 76.3265 169.06 78.218C170.106 80.1096 170.629 82.4157 170.629 85.1364ZM164.52 85.1364C164.52 83.5265 164.29 82.1662 163.832 81.0554C163.381 79.9446 162.729 79.1035 161.876 78.532C161.03 77.9605 160.012 77.6747 158.821 77.6747C157.638 77.6747 156.619 77.9605 155.766 78.532C154.913 79.1035 154.257 79.9446 153.798 81.0554C153.347 82.1662 153.122 83.5265 153.122 85.1364C153.122 86.7462 153.347 88.1065 153.798 89.2173C154.257 90.3281 154.913 91.1693 155.766 91.7408C156.619 92.3123 157.638 92.598 158.821 92.598C160.012 92.598 161.03 92.3123 161.876 91.7408C162.729 91.1693 163.381 90.3281 163.832 89.2173C164.29 88.1065 164.52 86.7462 164.52 85.1364Z" fill="black"/>
</svg>
