<svg width="275" height="170" viewBox="0 0 275 170" fill="none" xmlns="http://www.w3.org/2000/svg">
<rect width="275" height="170" fill="white"/>
<path d="M112.014 95V74.6364H119.81C121.281 74.6364 122.504 74.8684 123.479 75.3324C124.46 75.7898 125.192 76.4162 125.676 77.2116C126.167 78.0071 126.412 78.9086 126.412 79.9162C126.412 80.7448 126.253 81.4541 125.935 82.044C125.617 82.6274 125.189 83.1013 124.652 83.4659C124.115 83.8305 123.515 84.0923 122.852 84.2514V84.4503C123.575 84.4901 124.268 84.7121 124.931 85.1165C125.6 85.5142 126.147 86.0777 126.571 86.8068C126.995 87.536 127.208 88.4176 127.208 89.4517C127.208 90.5057 126.952 91.4536 126.442 92.2955C125.932 93.1307 125.163 93.7902 124.135 94.2741C123.108 94.758 121.815 95 120.257 95H112.014ZM115.703 91.9176H119.671C121.01 91.9176 121.974 91.6624 122.564 91.152C123.161 90.6349 123.459 89.9721 123.459 89.1634C123.459 88.5601 123.31 88.0166 123.012 87.5327C122.713 87.0421 122.289 86.6577 121.739 86.3793C121.189 86.0942 120.532 85.9517 119.77 85.9517H115.703V91.9176ZM115.703 83.2969H119.352C119.989 83.2969 120.562 83.1809 121.073 82.9489C121.583 82.7102 121.984 82.3755 122.276 81.9446C122.574 81.5071 122.723 80.9901 122.723 80.3935C122.723 79.6046 122.445 78.955 121.888 78.4446C121.338 77.9342 120.519 77.679 119.432 77.679H115.703V83.2969ZM130.417 95V74.6364H138.212C139.684 74.6364 140.907 74.8684 141.881 75.3324C142.862 75.7898 143.595 76.4162 144.079 77.2116C144.569 78.0071 144.814 78.9086 144.814 79.9162C144.814 80.7448 144.655 81.4541 144.337 82.044C144.019 82.6274 143.591 83.1013 143.055 83.4659C142.518 83.8305 141.918 84.0923 141.255 84.2514V84.4503C141.977 84.4901 142.67 84.7121 143.333 85.1165C144.002 85.5142 144.549 86.0777 144.974 86.8068C145.398 87.536 145.61 88.4176 145.61 89.4517C145.61 90.5057 145.355 91.4536 144.844 92.2955C144.334 93.1307 143.565 93.7902 142.537 94.2741C141.51 94.758 140.217 95 138.66 95H130.417ZM134.106 91.9176H138.073C139.412 91.9176 140.376 91.6624 140.966 91.152C141.563 90.6349 141.861 89.9721 141.861 89.1634C141.861 88.5601 141.712 88.0166 141.414 87.5327C141.116 87.0421 140.691 86.6577 140.141 86.3793C139.591 86.0942 138.935 85.9517 138.172 85.9517H134.106V91.9176ZM134.106 83.2969H137.755C138.391 83.2969 138.965 83.1809 139.475 82.9489C139.985 82.7102 140.386 82.3755 140.678 81.9446C140.976 81.5071 141.126 80.9901 141.126 80.3935C141.126 79.6046 140.847 78.955 140.29 78.4446C139.74 77.9342 138.921 77.679 137.834 77.679H134.106V83.2969ZM159.886 80.2344C159.793 79.366 159.402 78.6899 158.713 78.206C158.03 77.7221 157.142 77.4801 156.048 77.4801C155.279 77.4801 154.619 77.5961 154.069 77.8281C153.519 78.0601 153.098 78.375 152.806 78.7727C152.515 79.1705 152.365 79.6245 152.359 80.1349C152.359 80.5592 152.455 80.9271 152.647 81.2386C152.846 81.5502 153.115 81.8153 153.453 82.0341C153.791 82.2462 154.165 82.4252 154.576 82.571C154.987 82.7169 155.401 82.8395 155.819 82.9389L157.728 83.4162C158.497 83.5952 159.236 83.8371 159.945 84.142C160.661 84.447 161.301 84.8314 161.865 85.2955C162.435 85.7595 162.885 86.3196 163.217 86.9759C163.548 87.6321 163.714 88.401 163.714 89.2827C163.714 90.4759 163.409 91.5265 162.799 92.4347C162.189 93.3362 161.308 94.0421 160.154 94.5526C159.008 95.0563 157.619 95.3082 155.988 95.3082C154.404 95.3082 153.028 95.063 151.862 94.5724C150.702 94.0819 149.794 93.366 149.137 92.4247C148.488 91.4834 148.136 90.3366 148.083 88.9844H151.713C151.766 89.6937 151.984 90.2836 152.369 90.7543C152.753 91.2249 153.254 91.5762 153.87 91.8082C154.493 92.0402 155.189 92.1562 155.958 92.1562C156.76 92.1562 157.463 92.0369 158.066 91.7983C158.676 91.553 159.153 91.215 159.498 90.7841C159.843 90.3466 160.018 89.8362 160.025 89.2528C160.018 88.7225 159.863 88.285 159.558 87.9403C159.253 87.589 158.825 87.2973 158.275 87.0653C157.731 86.8267 157.095 86.6146 156.366 86.429L154.049 85.8324C152.372 85.4015 151.046 84.7486 150.072 83.8736C149.104 82.992 148.62 81.822 148.62 80.3636C148.62 79.1638 148.945 78.1132 149.595 77.2116C150.251 76.3101 151.142 75.6108 152.269 75.1136C153.396 74.6098 154.672 74.358 156.097 74.358C157.543 74.358 158.809 74.6098 159.896 75.1136C160.99 75.6108 161.848 76.3035 162.471 77.1918C163.094 78.0734 163.416 79.0876 163.436 80.2344H159.886Z" fill="black"/>
</svg>
