<svg width="275" height="170" viewBox="0 0 275 170" fill="none" xmlns="http://www.w3.org/2000/svg">
<rect width="275" height="170" fill="white"/>
<path d="M105.571 97.5V72.7727H115.882C117.733 72.7727 119.283 73.0343 120.53 73.5575C121.786 74.0807 122.728 74.8132 123.355 75.755C123.991 76.6967 124.309 77.7874 124.309 79.027C124.309 79.9688 124.112 80.8099 123.718 81.5504C123.323 82.2829 122.78 82.8906 122.088 83.3736C121.395 83.8565 120.595 84.1946 119.685 84.3878V84.6293C120.683 84.6776 121.605 84.9472 122.45 85.4382C123.303 85.9292 123.987 86.6134 124.502 87.4908C125.018 88.3601 125.275 89.3904 125.275 90.5817C125.275 91.9098 124.937 93.0971 124.261 94.1435C123.585 95.1818 122.607 96.0028 121.327 96.6065C120.047 97.2022 118.494 97.5 116.667 97.5H105.571ZM111.547 92.6825H115.242C116.538 92.6825 117.492 92.437 118.103 91.946C118.723 91.455 119.033 90.7708 119.033 89.8935C119.033 89.2576 118.884 88.7102 118.586 88.2514C118.288 87.7846 117.866 87.4264 117.319 87.1768C116.771 86.9193 116.115 86.7905 115.35 86.7905H111.547V92.6825ZM111.547 82.9389H114.855C115.507 82.9389 116.087 82.8303 116.594 82.6129C117.101 82.3956 117.496 82.0817 117.777 81.6712C118.067 81.2607 118.212 80.7656 118.212 80.1861C118.212 79.357 117.918 78.705 117.331 78.2301C116.743 77.7552 115.95 77.5178 114.952 77.5178H111.547V82.9389ZM128.149 97.5V72.7727H138.46C140.311 72.7727 141.861 73.0343 143.108 73.5575C144.364 74.0807 145.306 74.8132 145.934 75.755C146.569 76.6967 146.887 77.7874 146.887 79.027C146.887 79.9688 146.69 80.8099 146.296 81.5504C145.901 82.2829 145.358 82.8906 144.666 83.3736C143.974 83.8565 143.173 84.1946 142.263 84.3878V84.6293C143.261 84.6776 144.183 84.9472 145.028 85.4382C145.881 85.9292 146.565 86.6134 147.081 87.4908C147.596 88.3601 147.853 89.3904 147.853 90.5817C147.853 91.9098 147.515 93.0971 146.839 94.1435C146.163 95.1818 145.185 96.0028 143.905 96.6065C142.625 97.2022 141.072 97.5 139.245 97.5H128.149ZM134.125 92.6825H137.82C139.116 92.6825 140.07 92.437 140.681 91.946C141.301 91.455 141.611 90.7708 141.611 89.8935C141.611 89.2576 141.462 88.7102 141.164 88.2514C140.867 87.7846 140.444 87.4264 139.897 87.1768C139.349 86.9193 138.693 86.7905 137.929 86.7905H134.125V92.6825ZM134.125 82.9389H137.434C138.086 82.9389 138.665 82.8303 139.172 82.6129C139.679 82.3956 140.074 82.0817 140.355 81.6712C140.645 81.2607 140.79 80.7656 140.79 80.1861C140.79 79.357 140.496 78.705 139.909 78.2301C139.321 77.7552 138.528 77.5178 137.53 77.5178H134.125V82.9389ZM164.093 80.1861C164.012 79.3007 163.654 78.6125 163.018 78.1214C162.39 77.6224 161.493 77.3729 160.326 77.3729C159.553 77.3729 158.909 77.4735 158.394 77.6747C157.879 77.8759 157.492 78.1536 157.235 78.5078C156.977 78.8539 156.844 79.2524 156.836 79.7031C156.82 80.0734 156.893 80.3994 157.054 80.6811C157.223 80.9628 157.464 81.2124 157.778 81.4297C158.1 81.639 158.486 81.8241 158.937 81.9851C159.388 82.1461 159.895 82.2869 160.458 82.4077L162.583 82.8906C163.807 83.1562 164.886 83.5104 165.819 83.9531C166.761 84.3958 167.55 84.9231 168.186 85.5348C168.83 86.1465 169.317 86.8509 169.647 87.6477C169.977 88.4446 170.146 89.3381 170.154 90.3281C170.146 91.8897 169.751 93.2299 168.971 94.3487C168.19 95.4676 167.067 96.3248 165.602 96.9205C164.145 97.5161 162.386 97.8139 160.326 97.8139C158.257 97.8139 156.454 97.504 154.917 96.8842C153.379 96.2644 152.184 95.3227 151.331 94.0589C150.477 92.7952 150.039 91.1974 150.015 89.2656H155.738C155.786 90.0625 155.999 90.7266 156.377 91.2578C156.756 91.7891 157.275 92.1915 157.935 92.4652C158.603 92.7389 159.376 92.8757 160.253 92.8757C161.058 92.8757 161.742 92.767 162.306 92.5497C162.877 92.3324 163.316 92.0305 163.622 91.6442C163.928 91.2578 164.085 90.8151 164.093 90.3161C164.085 89.8492 163.94 89.4508 163.658 89.1207C163.376 88.7827 162.942 88.4929 162.354 88.2514C161.775 88.0019 161.034 87.7725 160.132 87.5632L157.549 86.9595C155.408 86.4685 153.721 85.6757 152.49 84.581C151.258 83.4782 150.646 81.9891 150.654 80.1136C150.646 78.5843 151.057 77.2441 151.886 76.093C152.715 74.942 153.862 74.0445 155.327 73.4006C156.792 72.7566 158.462 72.4347 160.338 72.4347C162.253 72.4347 163.916 72.7607 165.324 73.4126C166.741 74.0566 167.84 74.9621 168.62 76.1293C169.401 77.2964 169.8 78.6487 169.816 80.1861H164.093Z" fill="black"/>
</svg>
