<svg width="275" height="186" viewBox="0 0 275 186" fill="none" xmlns="http://www.w3.org/2000/svg">
<rect width="275" height="170" transform="translate(0 8)" fill="white"/>
<g clip-path="url(#clip0_15_19)">
<path d="M200.043 79.2605C196.429 79.2605 192.919 79.5621 189.56 80.295L176.176 48.7292H180.537C187.4 48.7292 193.891 46.5133 198.815 42.3206L203.434 38.4346C205.533 36.6474 205.582 33.7296 203.545 31.8879C201.508 30.0462 198.156 30.0146 196.057 31.8018L191.439 35.6463C188.502 38.1472 184.63 39.4363 180.538 39.4363H168.549C166.814 39.4363 165.188 40.2763 164.199 41.5271C163.21 42.7784 162.981 44.4219 163.588 45.848L168.682 57.8486C168.649 57.848 168.616 57.936 168.584 57.936C168.572 57.936 168.561 58.0208 168.549 58.0208H100.785L91.6331 44.4932L101.573 41.4608C104.021 40.723 105.502 38.6421 105.076 36.4021C104.65 34.1627 102.442 32.6226 99.8533 32.6226H70.7558C66.6782 32.6226 63.3596 35.414 63.3596 38.9915C63.3596 44.5303 68.49 48.9776 74.7953 48.9776C76.0592 48.9776 77.3124 48.7626 78.5213 48.399L81.4183 47.5113L90.7004 61.1375L83.5711 79.8985C81.2326 79.4841 78.8305 79.2233 76.3741 79.1545C63.9549 78.8058 52.3286 82.9569 43.7398 90.737C35.483 98.2167 31.1434 108.078 31.5226 118.504C32.2512 138.536 50.7081 154.728 73.5406 155.368C74.0158 155.381 74.4867 155.388 74.9584 155.388C86.8283 155.388 97.9151 151.227 106.176 143.745C112.858 137.691 116.972 129.881 118.098 121.828H126.607C128.441 123.067 130.816 124.079 133.412 124.079C139.2 124.079 143.908 119.968 143.908 114.89C143.908 113.242 143.405 111.707 142.536 110.366L172.221 66.1937L179.673 83.7183C165.95 90.1355 156.585 102.818 156.585 117.386C156.585 138.41 176.08 155.515 200.043 155.515C224.006 155.515 243.5 138.411 243.5 117.387C243.5 96.3638 224.006 79.2605 200.043 79.2605ZM159.285 67.3137L133.439 105.778C133.429 105.778 133.421 105.74 133.412 105.74C133.382 105.74 133.353 105.799 133.323 105.8L107.105 67.3143L159.285 67.3137ZM97.8657 71.655L124.257 110.381C123.821 111.064 123.489 111.917 123.26 112.536H118.088C116.258 99.5269 106.745 88.3012 93.6165 82.8002L97.8657 71.655ZM84.0654 112.536C83.7102 111.917 83.3021 111.591 82.8453 111.153L89.1047 94.6583C96.6738 98.3288 102.211 105.102 103.815 112.536H84.0654ZM96.032 135.125C90.2316 140.379 82.3969 143.204 73.9918 142.965C58.5837 142.534 46.1292 131.617 45.6378 118.098C45.3815 111.055 48.3096 104.4 53.8841 99.3516C59.4607 94.3003 66.9444 91.52 74.957 91.52C75.2782 91.52 75.5995 91.5262 75.9236 91.5349C76.9841 91.5646 78.0284 91.6495 79.0579 91.7759L72.7272 108.44C68.0889 109.392 64.6207 113.043 64.6207 117.398C64.6207 122.476 69.3288 126.567 75.1151 126.567C79.0353 126.567 82.4548 124.926 84.2567 121.828H103.814C102.79 126.784 100.129 131.414 96.032 135.125ZM200.043 143.127C183.867 143.127 170.707 131.58 170.707 117.388C170.707 108.138 176.3 100.016 184.672 95.4779L194.627 118.885C195.421 120.754 197.441 121.908 199.588 121.908C200.203 121.908 200.829 121.814 201.439 121.613C204.179 120.717 205.572 118.04 204.548 115.637L194.544 92.1104C196.326 91.8124 198.163 91.6501 200.043 91.6501C216.219 91.6501 229.378 103.197 229.378 117.388C229.378 131.58 216.219 143.127 200.043 143.127Z" fill="black"/>
</g>
<defs>
<clipPath id="clip0_15_19">
<rect width="212" height="186" fill="white" transform="translate(31.5)"/>
</clipPath>
</defs>
</svg>
