<svg width="275" height="170" viewBox="0 0 275 170" fill="none" xmlns="http://www.w3.org/2000/svg">
<rect width="275" height="170" fill="white"/>
<path d="M117.29 81.5071H113.572C113.466 80.8973 113.27 80.357 112.985 79.8864C112.7 79.4091 112.345 79.0047 111.921 78.6733C111.497 78.3419 111.013 78.0933 110.469 77.9276C109.933 77.7552 109.353 77.669 108.729 77.669C107.622 77.669 106.641 77.9474 105.786 78.5043C104.931 79.0544 104.262 79.8632 103.778 80.9304C103.294 81.991 103.052 83.2869 103.052 84.8182C103.052 86.3759 103.294 87.6884 103.778 88.7557C104.268 89.8163 104.938 90.6184 105.786 91.1619C106.641 91.6989 107.619 91.9673 108.719 91.9673C109.329 91.9673 109.899 91.8878 110.43 91.7287C110.967 91.563 111.447 91.321 111.871 91.0028C112.302 90.6847 112.664 90.2936 112.955 89.8295C113.254 89.3655 113.459 88.8352 113.572 88.2386L117.29 88.2585C117.151 89.2263 116.85 90.1345 116.386 90.983C115.928 91.8314 115.328 92.5805 114.586 93.2301C113.844 93.8731 112.975 94.3769 111.981 94.7415C110.987 95.0994 109.883 95.2784 108.67 95.2784C106.88 95.2784 105.282 94.8641 103.877 94.0355C102.472 93.2069 101.365 92.0104 100.556 90.446C99.7474 88.8816 99.343 87.0057 99.343 84.8182C99.343 82.6241 99.7507 80.7481 100.566 79.1903C101.381 77.6259 102.492 76.4295 103.897 75.6009C105.302 74.7723 106.893 74.358 108.67 74.358C109.803 74.358 110.857 74.517 111.832 74.8352C112.806 75.1534 113.674 75.6207 114.437 76.2372C115.199 76.8471 115.826 77.5961 116.316 78.4844C116.813 79.366 117.138 80.3736 117.29 81.5071ZM123.038 95H119.1L126.269 74.6364H130.823L138.002 95H134.065L128.626 78.8125H128.467L123.038 95ZM123.167 87.0156H133.906V89.9787H123.167V87.0156ZM140.684 95V74.6364H148.321C149.885 74.6364 151.198 74.9081 152.258 75.4517C153.325 75.9953 154.131 76.7576 154.674 77.7386C155.225 78.7131 155.5 79.8499 155.5 81.1491C155.5 82.455 155.221 83.5885 154.664 84.5497C154.114 85.5043 153.302 86.2434 152.228 86.767C151.154 87.2841 149.835 87.5426 148.271 87.5426H142.832V84.4801H147.774C148.689 84.4801 149.438 84.3542 150.021 84.1023C150.604 83.8437 151.035 83.4692 151.314 82.9787C151.599 82.4815 151.741 81.8717 151.741 81.1491C151.741 80.4266 151.599 79.8101 151.314 79.2997C151.029 78.7827 150.594 78.3916 150.011 78.1264C149.428 77.8546 148.675 77.7188 147.754 77.7188H144.373V95H140.684ZM151.204 85.7727L156.245 95H152.129L147.177 85.7727H151.204ZM161.51 95H157.573L164.742 74.6364H169.296L176.475 95H172.537L167.098 78.8125H166.939L161.51 95ZM161.64 87.0156H172.378V89.9787H161.64V87.0156Z" fill="black"/>
</svg>
