<svg width="275" height="170" viewBox="0 0 275 170" fill="none" xmlns="http://www.w3.org/2000/svg">
<rect width="275" height="170" fill="white"/>
<path d="M113.23 81.6591H107.548C107.473 81.0758 107.317 80.5492 107.082 80.0795C106.848 79.6098 106.537 79.2083 106.151 78.875C105.764 78.5417 105.306 78.2879 104.776 78.1136C104.253 77.9318 103.673 77.8409 103.037 77.8409C101.908 77.8409 100.935 78.1174 100.116 78.6705C99.3059 79.2235 98.6809 80.0227 98.2415 81.0682C97.8097 82.1136 97.5938 83.3788 97.5938 84.8636C97.5938 86.4091 97.8134 87.7045 98.2528 88.75C98.6998 89.7879 99.3248 90.572 100.128 91.1023C100.938 91.625 101.897 91.8864 103.003 91.8864C103.624 91.8864 104.188 91.8068 104.696 91.6477C105.211 91.4886 105.662 91.2576 106.048 90.9545C106.442 90.6439 106.764 90.2689 107.014 89.8295C107.272 89.3826 107.45 88.8788 107.548 88.3182L113.23 88.3523C113.132 89.3826 112.832 90.3977 112.332 91.3977C111.84 92.3977 111.162 93.3106 110.298 94.1364C109.435 94.9545 108.382 95.6061 107.139 96.0909C105.904 96.5758 104.488 96.8182 102.889 96.8182C100.783 96.8182 98.8968 96.3561 97.2301 95.4318C95.571 94.5 94.2604 93.1439 93.2983 91.3636C92.3362 89.5833 91.8551 87.4167 91.8551 84.8636C91.8551 82.303 92.3438 80.1326 93.321 78.3523C94.2983 76.572 95.6203 75.2197 97.2869 74.2955C98.9536 73.3712 100.821 72.9091 102.889 72.9091C104.298 72.9091 105.601 73.1061 106.798 73.5C107.995 73.8864 109.048 74.4545 109.957 75.2045C110.866 75.947 111.605 76.8598 112.173 77.9432C112.741 79.0265 113.094 80.2652 113.23 81.6591ZM120.889 96.5H114.844L122.696 73.2273H130.185L138.037 96.5H131.991L126.526 79.0909H126.344L120.889 96.5ZM120.082 87.3409H132.719V91.6136H120.082V87.3409ZM140.543 96.5V73.2273H150.156C151.899 73.2273 153.402 73.5417 154.668 74.1705C155.94 74.7917 156.921 75.6856 157.611 76.8523C158.3 78.0114 158.645 79.3864 158.645 80.9773C158.645 82.5909 158.293 83.9621 157.588 85.0909C156.884 86.2121 155.884 87.0682 154.588 87.6591C153.293 88.2424 151.759 88.5341 149.986 88.5341H143.906V84.1023H148.94C149.789 84.1023 150.497 83.9924 151.065 83.7727C151.641 83.5455 152.077 83.2045 152.372 82.75C152.668 82.2879 152.815 81.697 152.815 80.9773C152.815 80.2576 152.668 79.6629 152.372 79.1932C152.077 78.7159 151.641 78.3598 151.065 78.125C150.49 77.8826 149.781 77.7614 148.94 77.7614H146.168V96.5H140.543ZM153.645 85.8636L159.44 96.5H153.304L147.622 85.8636H153.645ZM166.764 96.5H160.719L168.571 73.2273H176.06L183.912 96.5H177.866L172.401 79.0909H172.219L166.764 96.5ZM165.957 87.3409H178.594V91.6136H165.957V87.3409Z" fill="black"/>
</svg>
