<svg width="275" height="170" viewBox="0 0 275 170" fill="none" xmlns="http://www.w3.org/2000/svg">
<rect width="275" height="170" fill="white"/>
<path d="M68.631 65.0142H63.6594C63.5932 64.5038 63.4573 64.0431 63.2518 63.6321C63.0463 63.2211 62.7745 62.8698 62.4364 62.5781C62.0984 62.2865 61.6973 62.0644 61.2333 61.9119C60.7759 61.7528 60.2688 61.6733 59.712 61.6733C58.7243 61.6733 57.8725 61.9152 57.1566 62.3991C56.4473 62.883 55.9004 63.5824 55.516 64.4972C55.1381 65.4119 54.9492 66.5189 54.9492 67.8182C54.9492 69.1705 55.1415 70.304 55.5259 71.2188C55.917 72.1269 56.4639 72.813 57.1665 73.277C57.8758 73.7344 58.7144 73.9631 59.6822 73.9631C60.2257 73.9631 60.7196 73.8935 61.1637 73.7543C61.6145 73.6151 62.0089 73.4129 62.3469 73.1477C62.6916 72.8759 62.9734 72.5478 63.1921 72.1634C63.4175 71.7723 63.5733 71.3314 63.6594 70.8409L68.631 70.8707C68.5449 71.7723 68.283 72.6605 67.8455 73.5355C67.4147 74.4105 66.8214 75.2093 66.0657 75.9318C65.31 76.6477 64.3886 77.2178 63.3015 77.642C62.221 78.0663 60.9814 78.2784 59.5827 78.2784C57.7399 78.2784 56.0894 77.8741 54.631 77.0653C53.1793 76.25 52.0326 75.0634 51.1907 73.5057C50.3488 71.9479 49.9279 70.0521 49.9279 67.8182C49.9279 65.5777 50.3555 63.6785 51.2106 62.1207C52.0657 60.563 53.2224 59.3797 54.6808 58.571C56.1391 57.7623 57.7731 57.358 59.5827 57.358C60.8157 57.358 61.9558 57.5303 63.0032 57.875C64.0505 58.2131 64.9719 58.7102 65.7674 59.3665C66.5629 60.0161 67.2092 60.8149 67.7063 61.7628C68.2035 62.7107 68.5117 63.7945 68.631 65.0142ZM71.4474 78V57.6364H85.6463V61.6335H76.3693V65.8097H84.9205V69.8168H76.3693V74.0028H85.6463V78H71.4474ZM106.06 57.6364V78H101.884L93.7798 66.2472H93.6506V78H88.7287V57.6364H92.9645L100.979 69.3693H101.148V57.6364H106.06ZM108.488 61.6335V57.6364H125.7V61.6335H119.525V78H114.673V61.6335H108.488ZM128.104 78V57.6364H136.516C138.04 57.6364 139.356 57.9115 140.463 58.4616C141.577 59.0052 142.435 59.7874 143.038 60.8082C143.642 61.8224 143.943 63.0256 143.943 64.4176C143.943 65.8295 143.635 67.0294 143.018 68.017C142.402 68.9981 141.527 69.7472 140.393 70.2642C139.26 70.7746 137.918 71.0298 136.366 71.0298H131.047V67.152H135.452C136.194 67.152 136.814 67.0559 137.311 66.8636C137.815 66.6648 138.196 66.3665 138.455 65.9688C138.713 65.5644 138.842 65.0473 138.842 64.4176C138.842 63.7879 138.713 63.2675 138.455 62.8565C138.196 62.4389 137.815 62.1274 137.311 61.9219C136.807 61.7098 136.188 61.6037 135.452 61.6037H133.026V78H128.104ZM139.568 68.6932L144.639 78H139.27L134.298 68.6932H139.568ZM151.048 78H145.758L152.629 57.6364H159.181L166.052 78H160.762L155.979 62.767H155.82L151.048 78ZM150.342 69.9858H161.398V73.7244H150.342V69.9858ZM168.244 78V57.6364H173.166V74.0028H181.638V78H168.244ZM197.728 78H190.201V57.6364H197.718C199.793 57.6364 201.58 58.044 203.078 58.8594C204.583 59.6681 205.743 60.8348 206.558 62.3594C207.373 63.8774 207.781 65.6937 207.781 67.8082C207.781 69.9295 207.373 71.7524 206.558 73.277C205.749 74.8016 204.592 75.9716 203.088 76.7869C201.583 77.5956 199.797 78 197.728 78ZM195.123 73.804H197.539C198.68 73.804 199.644 73.6117 200.433 73.2273C201.228 72.8362 201.828 72.2031 202.233 71.3281C202.644 70.4465 202.849 69.2732 202.849 67.8082C202.849 66.3433 202.644 65.1766 202.233 64.3082C201.822 63.4332 201.215 62.8035 200.413 62.419C199.618 62.0279 198.636 61.8324 197.47 61.8324H195.123V73.804ZM210.654 78V57.6364H224.853V61.6335H215.576V65.8097H224.127V69.8168H215.576V74.0028H224.853V78H210.654ZM76.7385 112V91.6364H90.9373V95.6335H81.6603V99.8097H90.2115V103.817H81.6603V108.003H90.9373V112H76.7385ZM111.351 91.6364V112H107.175L99.0708 100.247H98.9416V112H94.0197V91.6364H98.2555L106.27 103.369H106.439V91.6364H111.351ZM114.445 112V91.6364H128.644V95.6335H119.367V99.8097H127.919V103.817H119.367V108.003H128.644V112H114.445ZM131.727 112V91.6364H140.139C141.663 91.6364 142.979 91.9115 144.086 92.4616C145.2 93.0052 146.058 93.7874 146.661 94.8082C147.265 95.8224 147.566 97.0256 147.566 98.4176C147.566 99.8295 147.258 101.029 146.642 102.017C146.025 102.998 145.15 103.747 144.017 104.264C142.883 104.775 141.541 105.03 139.99 105.03H134.67V101.152H139.075C139.817 101.152 140.437 101.056 140.934 100.864C141.438 100.665 141.819 100.366 142.078 99.9688C142.336 99.5644 142.465 99.0473 142.465 98.4176C142.465 97.7879 142.336 97.2675 142.078 96.8565C141.819 96.4389 141.438 96.1274 140.934 95.9219C140.43 95.7098 139.811 95.6037 139.075 95.6037H136.649V112H131.727ZM143.191 102.693L148.262 112H142.893L137.921 102.693H143.191ZM163.629 98.2884C163.517 97.8707 163.351 97.5028 163.132 97.1847C162.914 96.8598 162.645 96.5848 162.327 96.3594C162.009 96.134 161.644 95.965 161.233 95.8523C160.822 95.733 160.371 95.6733 159.881 95.6733C158.893 95.6733 158.038 95.9119 157.316 96.3892C156.6 96.8665 156.046 97.5625 155.655 98.4773C155.264 99.3854 155.068 100.489 155.068 101.788C155.068 103.094 155.257 104.208 155.635 105.129C156.013 106.051 156.56 106.753 157.276 107.237C157.992 107.721 158.86 107.963 159.881 107.963C160.782 107.963 161.545 107.817 162.168 107.526C162.798 107.227 163.275 106.806 163.6 106.263C163.924 105.719 164.087 105.08 164.087 104.344L165.002 104.453H160.05V100.864H168.83V103.558C168.83 105.381 168.442 106.942 167.666 108.241C166.897 109.541 165.837 110.538 164.485 111.234C163.139 111.93 161.591 112.278 159.841 112.278C157.899 112.278 156.192 111.857 154.72 111.016C153.249 110.174 152.102 108.974 151.28 107.416C150.458 105.852 150.047 103.996 150.047 101.848C150.047 100.178 150.296 98.696 150.793 97.4034C151.29 96.1042 151.983 95.0038 152.871 94.1023C153.766 93.2008 154.8 92.518 155.973 92.054C157.153 91.59 158.423 91.358 159.781 91.358C160.961 91.358 162.058 91.527 163.073 91.8651C164.093 92.2031 164.995 92.6804 165.777 93.2969C166.566 93.9134 167.206 94.6458 167.696 95.4943C168.187 96.3428 168.492 97.2741 168.611 98.2884H163.629ZM176.653 91.6364V112H171.731V91.6364H176.653ZM184.147 112H178.857L185.728 91.6364H192.281L199.151 112H193.862L189.079 96.767H188.92L184.147 112ZM183.441 103.986H194.498V107.724H183.441V103.986Z" fill="black"/>
</svg>
