<svg width="283" height="178" viewBox="0 0 283 178" fill="none" xmlns="http://www.w3.org/2000/svg">
<g filter="url(#filter0_dd_102_15)">
<rect width="275" height="170" transform="translate(4)" fill="white"/>
<path d="M70.0256 65.0142H65.054C64.9877 64.5038 64.8518 64.0431 64.6463 63.6321C64.4408 63.2211 64.169 62.8698 63.831 62.5781C63.4929 62.2865 63.0919 62.0644 62.6278 61.9119C62.1705 61.7528 61.6634 61.6733 61.1065 61.6733C60.1188 61.6733 59.267 61.9152 58.5511 62.3991C57.8419 62.883 57.295 63.5824 56.9105 64.4972C56.5327 65.4119 56.3438 66.5189 56.3438 67.8182C56.3438 69.1705 56.536 70.304 56.9205 71.2188C57.3116 72.1269 57.8584 72.813 58.5611 73.277C59.2704 73.7344 60.1089 73.9631 61.0767 73.9631C61.6203 73.9631 62.1141 73.8935 62.5582 73.7543C63.009 73.6151 63.4034 73.4129 63.7415 73.1477C64.0862 72.8759 64.3679 72.5478 64.5866 72.1634C64.812 71.7723 64.9678 71.3314 65.054 70.8409L70.0256 70.8707C69.9394 71.7723 69.6776 72.6605 69.2401 73.5355C68.8092 74.4105 68.2159 75.2093 67.4602 75.9318C66.7045 76.6477 65.7831 77.2178 64.696 77.642C63.6155 78.0663 62.3759 78.2784 60.9773 78.2784C59.1345 78.2784 57.4839 77.8741 56.0256 77.0653C54.5739 76.25 53.4271 75.0634 52.5852 73.5057C51.7434 71.9479 51.3224 70.0521 51.3224 67.8182C51.3224 65.5777 51.75 63.6785 52.6051 62.1207C53.4602 60.563 54.617 59.3797 56.0753 58.571C57.5336 57.7623 59.1676 57.358 60.9773 57.358C62.2102 57.358 63.3504 57.5303 64.3977 57.875C65.4451 58.2131 66.3665 58.7102 67.1619 59.3665C67.9574 60.0161 68.6037 60.8149 69.1009 61.7628C69.598 62.7107 69.9062 63.7945 70.0256 65.0142ZM72.842 78V57.6364H87.0408V61.6335H77.7638V65.8097H86.315V69.8168H77.7638V74.0028H87.0408V78H72.842ZM107.454 57.6364V78H103.278L95.1744 66.2472H95.0451V78H90.1232V57.6364H94.359L102.373 69.3693H102.542V57.6364H107.454ZM109.883 61.6335V57.6364H127.094V61.6335H120.92V78H116.067V61.6335H109.883ZM129.498 78V57.6364H137.91C139.435 57.6364 140.751 57.9115 141.858 58.4616C142.971 59.0052 143.83 59.7874 144.433 60.8082C145.036 61.8224 145.338 63.0256 145.338 64.4176C145.338 65.8295 145.029 67.0294 144.413 68.017C143.797 68.9981 142.922 69.7472 141.788 70.2642C140.654 70.7746 139.312 71.0298 137.761 71.0298H132.441V67.152H136.846C137.589 67.152 138.208 67.0559 138.706 66.8636C139.209 66.6648 139.591 66.3665 139.849 65.9688C140.108 65.5644 140.237 65.0473 140.237 64.4176C140.237 63.7879 140.108 63.2675 139.849 62.8565C139.591 62.4389 139.209 62.1274 138.706 61.9219C138.202 61.7098 137.582 61.6037 136.846 61.6037H134.42V78H129.498ZM140.963 68.6932L146.034 78H140.664L135.693 68.6932H140.963ZM152.442 78H147.152L154.023 57.6364H160.576L167.446 78H162.157L157.374 62.767H157.215L152.442 78ZM151.736 69.9858H162.793V73.7244H151.736V69.9858ZM169.639 78V57.6364H174.561V74.0028H183.032V78H169.639ZM199.123 78H191.596V57.6364H199.113C201.188 57.6364 202.974 58.044 204.472 58.8594C205.977 59.6681 207.137 60.8348 207.952 62.3594C208.768 63.8774 209.175 65.6937 209.175 67.8082C209.175 69.9295 208.768 71.7524 207.952 73.277C207.144 74.8016 205.987 75.9716 204.482 76.7869C202.978 77.5956 201.191 78 199.123 78ZM196.518 73.804H198.934C200.074 73.804 201.039 73.6117 201.827 73.2273C202.623 72.8362 203.223 72.2031 203.627 71.3281C204.038 70.4465 204.244 69.2732 204.244 67.8082C204.244 66.3433 204.038 65.1766 203.627 64.3082C203.216 63.4332 202.61 62.8035 201.808 62.419C201.012 62.0279 200.031 61.8324 198.864 61.8324H196.518V73.804ZM212.049 78V57.6364H226.248V61.6335H216.971V65.8097H225.522V69.8168H216.971V74.0028H226.248V78H212.049ZM51.5412 112V91.6364H65.7401V95.6335H56.4631V99.8097H65.0142V103.817H56.4631V108.003H65.7401V112H51.5412ZM86.1534 91.6364V112H81.9773L73.8736 100.247H73.7443V112H68.8224V91.6364H73.0582L81.0724 103.369H81.2415V91.6364H86.1534ZM89.2482 112V91.6364H103.447V95.6335H94.1701V99.8097H102.721V103.817H94.1701V108.003H103.447V112H89.2482ZM106.529 112V91.6364H114.941C116.466 91.6364 117.782 91.9115 118.889 92.4616C120.002 93.0052 120.861 93.7874 121.464 94.8082C122.067 95.8224 122.369 97.0256 122.369 98.4176C122.369 99.8295 122.061 101.029 121.444 102.017C120.828 102.998 119.953 103.747 118.819 104.264C117.686 104.775 116.343 105.03 114.792 105.03H109.473V101.152H113.877C114.62 101.152 115.24 101.056 115.737 100.864C116.241 100.665 116.622 100.366 116.88 99.9688C117.139 99.5644 117.268 99.0473 117.268 98.4176C117.268 97.7879 117.139 97.2675 116.88 96.8565C116.622 96.4389 116.241 96.1274 115.737 95.9219C115.233 95.7098 114.613 95.6037 113.877 95.6037H111.451V112H106.529ZM117.994 102.693L123.065 112H117.696L112.724 102.693H117.994ZM138.432 98.2884C138.319 97.8707 138.154 97.5028 137.935 97.1847C137.716 96.8598 137.448 96.5848 137.13 96.3594C136.811 96.134 136.447 95.965 136.036 95.8523C135.625 95.733 135.174 95.6733 134.684 95.6733C133.696 95.6733 132.841 95.9119 132.118 96.3892C131.402 96.8665 130.849 97.5625 130.458 98.4773C130.067 99.3854 129.871 100.489 129.871 101.788C129.871 103.094 130.06 104.208 130.438 105.129C130.816 106.051 131.363 106.753 132.078 107.237C132.794 107.721 133.663 107.963 134.684 107.963C135.585 107.963 136.347 107.817 136.971 107.526C137.6 107.227 138.078 106.806 138.402 106.263C138.727 105.719 138.89 105.08 138.89 104.344L139.804 104.453H134.853V100.864H143.632V103.558C143.632 105.381 143.245 106.942 142.469 108.241C141.7 109.541 140.64 110.538 139.287 111.234C137.942 111.93 136.394 112.278 134.644 112.278C132.702 112.278 130.995 111.857 129.523 111.016C128.051 110.174 126.905 108.974 126.083 107.416C125.261 105.852 124.85 103.996 124.85 101.848C124.85 100.178 125.098 98.696 125.596 97.4034C126.093 96.1042 126.785 95.0038 127.674 94.1023C128.569 93.2008 129.603 92.518 130.776 92.054C131.956 91.59 133.225 91.358 134.584 91.358C135.764 91.358 136.861 91.527 137.875 91.8651C138.896 92.2031 139.798 92.6804 140.58 93.2969C141.369 93.9134 142.008 94.6458 142.499 95.4943C142.989 96.3428 143.294 97.2741 143.414 98.2884H138.432ZM151.455 91.6364V112H146.533V91.6364H151.455ZM158.95 112H153.66L160.531 91.6364H167.083L173.954 112H168.664L163.882 96.767H163.723L158.95 112ZM158.244 103.986H169.301V107.724H158.244V103.986Z" fill="black"/>
</g>
<defs>
<filter id="filter0_dd_102_15" x="0" y="0" width="283" height="178" filterUnits="userSpaceOnUse" color-interpolation-filters="sRGB">
<feFlood flood-opacity="0" result="BackgroundImageFix"/>
<feColorMatrix in="SourceAlpha" type="matrix" values="0 0 0 0 0 0 0 0 0 0 0 0 0 0 0 0 0 0 127 0" result="hardAlpha"/>
<feOffset dy="4"/>
<feGaussianBlur stdDeviation="2"/>
<feComposite in2="hardAlpha" operator="out"/>
<feColorMatrix type="matrix" values="0 0 0 0 0 0 0 0 0 0 0 0 0 0 0 0 0 0 0.25 0"/>
<feBlend mode="normal" in2="BackgroundImageFix" result="effect1_dropShadow_102_15"/>
<feColorMatrix in="SourceAlpha" type="matrix" values="0 0 0 0 0 0 0 0 0 0 0 0 0 0 0 0 0 0 127 0" result="hardAlpha"/>
<feOffset dy="4"/>
<feGaussianBlur stdDeviation="2"/>
<feComposite in2="hardAlpha" operator="out"/>
<feColorMatrix type="matrix" values="0 0 0 0 0 0 0 0 0 0 0 0 0 0 0 0 0 0 0.25 0"/>
<feBlend mode="normal" in2="effect1_dropShadow_102_15" result="effect2_dropShadow_102_15"/>
<feBlend mode="normal" in="SourceGraphic" in2="effect2_dropShadow_102_15" result="shape"/>
</filter>
</defs>
</svg>
