<svg width="275" height="170" viewBox="0 0 275 170" fill="none" xmlns="http://www.w3.org/2000/svg">
<rect width="275" height="170" fill="white"/>
<path d="M57.9389 64.5071H54.2202C54.1141 63.8973 53.9186 63.357 53.6335 62.8864C53.3485 62.4091 52.9938 62.0047 52.5696 61.6733C52.1454 61.3419 51.6615 61.0933 51.1179 60.9276C50.581 60.7552 50.0009 60.669 49.3778 60.669C48.2708 60.669 47.2898 60.9474 46.4347 61.5043C45.5795 62.0544 44.91 62.8632 44.4261 63.9304C43.9422 64.991 43.7003 66.2869 43.7003 67.8182C43.7003 69.3759 43.9422 70.6884 44.4261 71.7557C44.9167 72.8163 45.5862 73.6184 46.4347 74.1619C47.2898 74.6989 48.2675 74.9673 49.3679 74.9673C49.9777 74.9673 50.5478 74.8878 51.0781 74.7287C51.6151 74.563 52.0956 74.321 52.5199 74.0028C52.9508 73.6847 53.312 73.2936 53.6037 72.8295C53.902 72.3655 54.1075 71.8352 54.2202 71.2386L57.9389 71.2585C57.7997 72.2263 57.4981 73.1345 57.0341 73.983C56.5767 74.8314 55.9768 75.5805 55.2344 76.2301C54.492 76.8731 53.6236 77.3769 52.6293 77.7415C51.6349 78.0994 50.5313 78.2784 49.3182 78.2784C47.5284 78.2784 45.9309 77.8641 44.5256 77.0355C43.1203 76.2069 42.0133 75.0104 41.2045 73.446C40.3958 71.8816 39.9915 70.0057 39.9915 67.8182C39.9915 65.6241 40.3991 63.7481 41.2145 62.1903C42.0298 60.6259 43.1402 59.4295 44.5455 58.6009C45.9508 57.7723 47.5417 57.358 49.3182 57.358C50.4517 57.358 51.5057 57.517 52.4801 57.8352C53.4545 58.1534 54.3229 58.6207 55.0852 59.2372C55.8475 59.8471 56.474 60.5961 56.9645 61.4844C57.4616 62.366 57.7865 63.3736 57.9389 64.5071ZM61.3171 78V57.6364H74.5614V60.7287H65.006V66.2571H73.8754V69.3494H65.006V74.9077H74.641V78H61.3171ZM95.0593 57.6364V78H91.7781L82.1829 64.1293H82.0138V78H78.3249V57.6364H81.6261L91.2113 71.517H91.3903V57.6364H95.0593ZM98.1839 60.7287V57.6364H114.431V60.7287H108.137V78H104.478V60.7287H98.1839ZM117.563 78V57.6364H125.2C126.764 57.6364 128.076 57.9081 129.137 58.4517C130.204 58.9953 131.01 59.7576 131.553 60.7386C132.103 61.7131 132.379 62.8499 132.379 64.1491C132.379 65.455 132.1 66.5885 131.543 67.5497C130.993 68.5043 130.181 69.2434 129.107 69.767C128.033 70.2841 126.714 70.5426 125.15 70.5426H119.711V67.4801H124.653C125.567 67.4801 126.317 67.3542 126.9 67.1023C127.483 66.8437 127.914 66.4692 128.192 65.9787C128.478 65.4815 128.62 64.8717 128.62 64.1491C128.62 63.4266 128.478 62.8101 128.192 62.2997C127.907 61.7827 127.473 61.3916 126.89 61.1264C126.307 60.8546 125.554 60.7188 124.633 60.7188H121.252V78H117.563ZM128.083 68.7727L133.124 78H129.008L124.056 68.7727H128.083ZM138.389 78H134.452L141.621 57.6364H146.175L153.354 78H149.416L143.977 61.8125H143.818L138.389 78ZM138.518 70.0156H149.257V72.9787H138.518V70.0156ZM156.036 78V57.6364H159.725V74.9077H168.694V78H156.036ZM185.741 78H178.841V57.6364H185.88C187.902 57.6364 189.639 58.044 191.091 58.8594C192.549 59.6681 193.669 60.8314 194.451 62.3494C195.234 63.8674 195.625 65.6837 195.625 67.7983C195.625 69.9195 195.23 71.7424 194.441 73.267C193.659 74.7917 192.529 75.9616 191.051 76.777C189.579 77.5923 187.809 78 185.741 78ZM182.529 74.8082H185.562C186.981 74.8082 188.164 74.5497 189.112 74.0327C190.06 73.509 190.772 72.7301 191.25 71.696C191.727 70.6553 191.966 69.3561 191.966 67.7983C191.966 66.2405 191.727 64.9479 191.25 63.9205C190.772 62.8864 190.066 62.1141 189.132 61.6037C188.204 61.0866 187.05 60.8281 185.672 60.8281H182.529V74.8082ZM199.13 78V57.6364H212.374V60.7287H202.819V66.2571H211.688V69.3494H202.819V74.9077H212.453V78H199.13ZM40.5085 112V91.6364H53.7528V94.7287H44.1974V100.257H53.0668V103.349H44.1974V108.908H53.8324V112H40.5085ZM74.2507 91.6364V112H70.9695L61.3743 98.1293H61.2053V112H57.5163V91.6364H60.8175L70.4027 105.517H70.5817V91.6364H74.2507ZM78.2702 112V91.6364H91.5146V94.7287H81.9592V100.257H90.8285V103.349H81.9592V108.908H91.5941V112H78.2702ZM95.2781 112V91.6364H102.914C104.479 91.6364 105.791 91.9081 106.852 92.4517C107.919 92.9953 108.725 93.7576 109.268 94.7386C109.818 95.7131 110.093 96.8499 110.093 98.1491C110.093 99.455 109.815 100.589 109.258 101.55C108.708 102.504 107.896 103.243 106.822 103.767C105.748 104.284 104.429 104.543 102.865 104.543H97.4258V101.48H102.368C103.282 101.48 104.031 101.354 104.615 101.102C105.198 100.844 105.629 100.469 105.907 99.9787C106.192 99.4815 106.335 98.8717 106.335 98.1491C106.335 97.4266 106.192 96.8101 105.907 96.2997C105.622 95.7827 105.188 95.3916 104.605 95.1264C104.021 94.8546 103.269 94.7188 102.348 94.7188H98.967V112H95.2781ZM105.798 102.773L110.839 112H106.723L101.771 102.773H105.798ZM127.131 98.1392C126.965 97.6023 126.737 97.1217 126.445 96.6974C126.16 96.2666 125.815 95.8987 125.411 95.5938C125.013 95.2888 124.556 95.0601 124.039 94.9077C123.522 94.7486 122.958 94.669 122.348 94.669C121.255 94.669 120.28 94.9441 119.425 95.4943C118.57 96.0445 117.897 96.8532 117.407 97.9205C116.923 98.9811 116.681 100.274 116.681 101.798C116.681 103.336 116.923 104.639 117.407 105.706C117.891 106.773 118.563 107.585 119.425 108.142C120.287 108.692 121.288 108.967 122.428 108.967C123.462 108.967 124.357 108.768 125.113 108.371C125.875 107.973 126.462 107.41 126.873 106.68C127.284 105.945 127.489 105.083 127.489 104.095L128.324 104.224H122.796V101.341H131.059V103.787C131.059 105.53 130.687 107.038 129.945 108.311C129.203 109.584 128.182 110.565 126.882 111.254C125.583 111.937 124.092 112.278 122.408 112.278C120.532 112.278 118.885 111.857 117.466 111.016C116.054 110.167 114.951 108.964 114.155 107.406C113.366 105.842 112.972 103.986 112.972 101.838C112.972 100.194 113.204 98.7259 113.668 97.4332C114.139 96.1406 114.795 95.0436 115.637 94.142C116.479 93.2339 117.466 92.5445 118.6 92.0739C119.733 91.5966 120.966 91.358 122.299 91.358C123.426 91.358 124.476 91.5237 125.451 91.8551C126.425 92.1799 127.29 92.6439 128.046 93.2472C128.808 93.8504 129.435 94.5663 129.925 95.3949C130.416 96.2235 130.737 97.1383 130.89 98.1392H127.131ZM138.315 91.6364V112H134.626V91.6364H138.315ZM144.924 112H140.987L148.156 91.6364H152.71L159.889 112H155.951L150.512 95.8125H150.353L144.924 112ZM145.054 104.016H155.792V106.979H145.054V104.016Z" fill="black"/>
</svg>
