<svg width="275" height="170" viewBox="0 0 275 170" fill="none" xmlns="http://www.w3.org/2000/svg">
<rect width="275" height="170" fill="white"/>
<path d="M58.5256 65.0142H53.554C53.4877 64.5038 53.3518 64.0431 53.1463 63.6321C52.9408 63.2211 52.669 62.8698 52.331 62.5781C51.9929 62.2865 51.5919 62.0644 51.1278 61.9119C50.6705 61.7528 50.1634 61.6733 49.6065 61.6733C48.6188 61.6733 47.767 61.9152 47.0511 62.3991C46.3419 62.883 45.795 63.5824 45.4105 64.4972C45.0327 65.4119 44.8438 66.5189 44.8438 67.8182C44.8438 69.1705 45.036 70.304 45.4205 71.2188C45.8116 72.1269 46.3584 72.813 47.0611 73.277C47.7704 73.7344 48.6089 73.9631 49.5767 73.9631C50.1203 73.9631 50.6141 73.8935 51.0582 73.7543C51.509 73.6151 51.9034 73.4129 52.2415 73.1477C52.5862 72.8759 52.8679 72.5478 53.0866 72.1634C53.312 71.7723 53.4678 71.3314 53.554 70.8409L58.5256 70.8707C58.4394 71.7723 58.1776 72.6605 57.7401 73.5355C57.3092 74.4105 56.7159 75.2093 55.9602 75.9318C55.2045 76.6477 54.2831 77.2178 53.196 77.642C52.1155 78.0663 50.8759 78.2784 49.4773 78.2784C47.6345 78.2784 45.9839 77.8741 44.5256 77.0653C43.0739 76.25 41.9271 75.0634 41.0852 73.5057C40.2434 71.9479 39.8224 70.0521 39.8224 67.8182C39.8224 65.5777 40.25 63.6785 41.1051 62.1207C41.9602 60.563 43.117 59.3797 44.5753 58.571C46.0336 57.7623 47.6676 57.358 49.4773 57.358C50.7102 57.358 51.8504 57.5303 52.8977 57.875C53.9451 58.2131 54.8665 58.7102 55.6619 59.3665C56.4574 60.0161 57.1037 60.8149 57.6009 61.7628C58.098 62.7107 58.4062 63.7945 58.5256 65.0142ZM61.342 78V57.6364H75.5408V61.6335H66.2638V65.8097H74.815V69.8168H66.2638V74.0028H75.5408V78H61.342ZM95.9542 57.6364V78H91.7781L83.6744 66.2472H83.5451V78H78.6232V57.6364H82.859L90.8732 69.3693H91.0423V57.6364H95.9542ZM98.3828 61.6335V57.6364H115.594V61.6335H109.42V78H104.567V61.6335H98.3828ZM117.998 78V57.6364H126.41C127.935 57.6364 129.251 57.9115 130.358 58.4616C131.471 59.0052 132.33 59.7874 132.933 60.8082C133.536 61.8224 133.838 63.0256 133.838 64.4176C133.838 65.8295 133.529 67.0294 132.913 68.017C132.297 68.9981 131.422 69.7472 130.288 70.2642C129.154 70.7746 127.812 71.0298 126.261 71.0298H120.941V67.152H125.346C126.089 67.152 126.708 67.0559 127.206 66.8636C127.709 66.6648 128.091 66.3665 128.349 65.9688C128.608 65.5644 128.737 65.0473 128.737 64.4176C128.737 63.7879 128.608 63.2675 128.349 62.8565C128.091 62.4389 127.709 62.1274 127.206 61.9219C126.702 61.7098 126.082 61.6037 125.346 61.6037H122.92V78H117.998ZM129.463 68.6932L134.534 78H129.164L124.193 68.6932H129.463ZM140.942 78H135.652L142.523 57.6364H149.076L155.946 78H150.657L145.874 62.767H145.715L140.942 78ZM140.236 69.9858H151.293V73.7244H140.236V69.9858ZM158.139 78V57.6364H163.061V74.0028H171.532V78H158.139ZM187.623 78H180.096V57.6364H187.613C189.688 57.6364 191.474 58.044 192.972 58.8594C194.477 59.6681 195.637 60.8348 196.452 62.3594C197.268 63.8774 197.675 65.6937 197.675 67.8082C197.675 69.9295 197.268 71.7524 196.452 73.277C195.644 74.8016 194.487 75.9716 192.982 76.7869C191.478 77.5956 189.691 78 187.623 78ZM185.018 73.804H187.434C188.574 73.804 189.539 73.6117 190.327 73.2273C191.123 72.8362 191.723 72.2031 192.127 71.3281C192.538 70.4465 192.744 69.2732 192.744 67.8082C192.744 66.3433 192.538 65.1766 192.127 64.3082C191.716 63.4332 191.11 62.8035 190.308 62.419C189.512 62.0279 188.531 61.8324 187.364 61.8324H185.018V73.804ZM200.549 78V57.6364H214.748V61.6335H205.471V65.8097H214.022V69.8168H205.471V74.0028H214.748V78H200.549ZM40.0412 112V91.6364H54.2401V95.6335H44.9631V99.8097H53.5142V103.817H44.9631V108.003H54.2401V112H40.0412ZM74.6534 91.6364V112H70.4773L62.3736 100.247H62.2443V112H57.3224V91.6364H61.5582L69.5724 103.369H69.7415V91.6364H74.6534ZM77.7482 112V91.6364H91.9471V95.6335H82.6701V99.8097H91.2212V103.817H82.6701V108.003H91.9471V112H77.7482ZM95.0295 112V91.6364H103.441C104.966 91.6364 106.282 91.9115 107.389 92.4616C108.502 93.0052 109.361 93.7874 109.964 94.8082C110.567 95.8224 110.869 97.0256 110.869 98.4176C110.869 99.8295 110.561 101.029 109.944 102.017C109.328 102.998 108.453 103.747 107.319 104.264C106.186 104.775 104.843 105.03 103.292 105.03H97.9727V101.152H102.377C103.12 101.152 103.74 101.056 104.237 100.864C104.741 100.665 105.122 100.366 105.38 99.9688C105.639 99.5644 105.768 99.0473 105.768 98.4176C105.768 97.7879 105.639 97.2675 105.38 96.8565C105.122 96.4389 104.741 96.1274 104.237 95.9219C103.733 95.7098 103.113 95.6037 102.377 95.6037H99.9513V112H95.0295ZM106.494 102.693L111.565 112H106.196L101.224 102.693H106.494ZM126.932 98.2884C126.819 97.8707 126.654 97.5028 126.435 97.1847C126.216 96.8598 125.948 96.5848 125.63 96.3594C125.311 96.134 124.947 95.965 124.536 95.8523C124.125 95.733 123.674 95.6733 123.184 95.6733C122.196 95.6733 121.341 95.9119 120.618 96.3892C119.902 96.8665 119.349 97.5625 118.958 98.4773C118.567 99.3854 118.371 100.489 118.371 101.788C118.371 103.094 118.56 104.208 118.938 105.129C119.316 106.051 119.863 106.753 120.578 107.237C121.294 107.721 122.163 107.963 123.184 107.963C124.085 107.963 124.847 107.817 125.471 107.526C126.1 107.227 126.578 106.806 126.902 106.263C127.227 105.719 127.39 105.08 127.39 104.344L128.304 104.453H123.353V100.864H132.132V103.558C132.132 105.381 131.745 106.942 130.969 108.241C130.2 109.541 129.14 110.538 127.787 111.234C126.442 111.93 124.894 112.278 123.144 112.278C121.202 112.278 119.495 111.857 118.023 111.016C116.551 110.174 115.405 108.974 114.583 107.416C113.761 105.852 113.35 103.996 113.35 101.848C113.35 100.178 113.598 98.696 114.096 97.4034C114.593 96.1042 115.285 95.0038 116.174 94.1023C117.069 93.2008 118.103 92.518 119.276 92.054C120.456 91.59 121.725 91.358 123.084 91.358C124.264 91.358 125.361 91.527 126.375 91.8651C127.396 92.2031 128.298 92.6804 129.08 93.2969C129.869 93.9134 130.508 94.6458 130.999 95.4943C131.489 96.3428 131.794 97.2741 131.914 98.2884H126.932ZM139.955 91.6364V112H135.033V91.6364H139.955ZM147.45 112H142.16L149.031 91.6364H155.583L162.454 112H157.164L152.382 96.767H152.223L147.45 112ZM146.744 103.986H157.801V107.724H146.744V103.986Z" fill="black"/>
</svg>
