<svg width="275" height="170" viewBox="0 0 275 170" fill="none" xmlns="http://www.w3.org/2000/svg">
<rect width="275" height="170" fill="white"/>
<path d="M75.9369 81.7315H69.8999C69.8195 81.1117 69.6544 80.5523 69.4049 80.0533C69.1554 79.5542 68.8254 79.1276 68.4149 78.7734C68.0044 78.4193 67.5174 78.1496 66.9539 77.9645C66.3985 77.7713 65.7828 77.6747 65.1066 77.6747C63.9073 77.6747 62.873 77.9685 62.0036 78.5561C61.1424 79.1437 60.4783 79.9929 60.0115 81.1037C59.5526 82.2145 59.3232 83.5587 59.3232 85.1364C59.3232 86.7784 59.5567 88.1548 60.0235 89.2656C60.4984 90.3684 61.1625 91.2015 62.0157 91.7649C62.877 92.3203 63.8952 92.598 65.0704 92.598C65.7304 92.598 66.3301 92.5135 66.8694 92.3445C67.4168 92.1754 67.8957 91.9299 68.3062 91.608C68.7248 91.2779 69.0669 90.8795 69.3325 90.4126C69.6061 89.9377 69.7953 89.4025 69.8999 88.8068L75.9369 88.843C75.8322 89.9377 75.5143 91.0163 74.983 92.0788C74.4598 93.1413 73.7394 94.1113 72.8218 94.9886C71.9042 95.858 70.7854 96.5502 69.4653 97.0653C68.1533 97.5805 66.6481 97.8381 64.9497 97.8381C62.712 97.8381 60.7077 97.3471 58.9369 96.3651C57.1741 95.375 55.7816 93.9342 54.7593 92.0426C53.7371 90.151 53.2259 87.849 53.2259 85.1364C53.2259 82.4157 53.7451 80.1096 54.7835 78.218C55.8218 76.3265 57.2264 74.8897 58.9972 73.9077C60.7681 72.9257 62.7522 72.4347 64.9497 72.4347C66.4468 72.4347 67.8313 72.6439 69.1031 73.0625C70.3749 73.473 71.4937 74.0767 72.4596 74.8736C73.4255 75.6624 74.2103 76.6323 74.814 77.7834C75.4177 78.9344 75.792 80.2505 75.9369 81.7315ZM88.0138 97.8501C86.0658 97.8501 84.3916 97.4517 82.991 96.6548C81.5985 95.8499 80.5239 94.7311 79.7673 93.2983C79.0187 91.8575 78.6444 90.1873 78.6444 88.2876C78.6444 86.38 79.0187 84.7098 79.7673 83.277C80.5239 81.8362 81.5985 80.7173 82.991 79.9205C84.3916 79.1155 86.0658 78.7131 88.0138 78.7131C89.9617 78.7131 91.6319 79.1155 93.0244 79.9205C94.425 80.7173 95.4996 81.8362 96.2481 83.277C97.0048 84.7098 97.3831 86.38 97.3831 88.2876C97.3831 90.1873 97.0048 91.8575 96.2481 93.2983C95.4996 94.7311 94.425 95.8499 93.0244 96.6548C91.6319 97.4517 89.9617 97.8501 88.0138 97.8501ZM88.05 93.3949C88.7583 93.3949 89.358 93.1776 89.849 92.7429C90.34 92.3082 90.7143 91.7045 90.9719 90.9318C91.2375 90.1591 91.3703 89.2656 91.3703 88.2514C91.3703 87.2211 91.2375 86.3196 90.9719 85.5469C90.7143 84.7741 90.34 84.1705 89.849 83.7358C89.358 83.3011 88.7583 83.0838 88.05 83.0838C87.3175 83.0838 86.6977 83.3011 86.1906 83.7358C85.6916 84.1705 85.3092 84.7741 85.0436 85.5469C84.786 86.3196 84.6572 87.2211 84.6572 88.2514C84.6572 89.2656 84.786 90.1591 85.0436 90.9318C85.3092 91.7045 85.6916 92.3082 86.1906 92.7429C86.6977 93.1776 87.3175 93.3949 88.05 93.3949ZM100.408 97.5V78.9545H106.022V82.3594H106.227C106.614 81.2325 107.266 80.343 108.183 79.6911C109.101 79.0391 110.195 78.7131 111.467 78.7131C112.755 78.7131 113.858 79.0431 114.775 79.7031C115.693 80.3632 116.277 81.2486 116.526 82.3594H116.719C117.065 81.2566 117.742 80.3752 118.748 79.7152C119.754 79.0471 120.941 78.7131 122.31 78.7131C124.064 78.7131 125.489 79.2765 126.584 80.4034C127.678 81.5223 128.226 83.0597 128.226 85.0156V97.5H122.322V86.3679C122.322 85.4422 122.084 84.7379 121.609 84.255C121.134 83.764 120.519 83.5185 119.762 83.5185C118.949 83.5185 118.309 83.7841 117.842 84.3153C117.383 84.8385 117.154 85.5428 117.154 86.4283V97.5H111.479V86.3075C111.479 85.4463 111.246 84.7661 110.779 84.267C110.312 83.768 109.696 83.5185 108.932 83.5185C108.417 83.5185 107.962 83.6432 107.567 83.8928C107.173 84.1342 106.863 84.4804 106.638 84.9311C106.42 85.3819 106.312 85.9131 106.312 86.5249V97.5H100.408ZM140.553 97.8501C138.613 97.8501 136.939 97.4678 135.53 96.7031C134.13 95.9304 133.051 94.8317 132.295 93.407C131.546 91.9742 131.172 90.2718 131.172 88.2997C131.172 86.384 131.55 84.7098 132.307 83.277C133.063 81.8362 134.13 80.7173 135.506 79.9205C136.883 79.1155 138.505 78.7131 140.372 78.7131C141.692 78.7131 142.9 78.9183 143.994 79.3288C145.089 79.7393 146.035 80.3471 146.832 81.152C147.628 81.9569 148.248 82.951 148.691 84.1342C149.134 85.3094 149.355 86.6577 149.355 88.179V89.652H133.236V86.223H143.861C143.853 85.5952 143.704 85.0357 143.415 84.5447C143.125 84.0537 142.726 83.6714 142.219 83.3977C141.72 83.116 141.145 82.9751 140.493 82.9751C139.833 82.9751 139.241 83.1241 138.718 83.4219C138.195 83.7116 137.78 84.1101 137.474 84.6172C137.168 85.1162 137.007 85.6837 136.991 86.3196V89.8089C136.991 90.5656 137.14 91.2296 137.438 91.8011C137.736 92.3646 138.159 92.8033 138.706 93.1172C139.253 93.4311 139.905 93.5881 140.662 93.5881C141.185 93.5881 141.66 93.5156 142.087 93.3707C142.513 93.2259 142.879 93.0125 143.185 92.7308C143.491 92.4491 143.721 92.103 143.873 91.6925L149.295 91.8494C149.069 93.0649 148.574 94.1233 147.81 95.0249C147.053 95.9183 146.059 96.6146 144.827 97.1136C143.596 97.6046 142.171 97.8501 140.553 97.8501ZM152.37 97.5V78.9545H158.106V82.3352H158.299C158.637 81.1117 159.188 80.2022 159.953 79.6065C160.718 79.0028 161.607 78.701 162.621 78.701C162.895 78.701 163.177 78.7211 163.466 78.7614C163.756 78.7936 164.026 78.8459 164.275 78.9183V84.0497C163.994 83.9531 163.623 83.8767 163.165 83.8203C162.714 83.764 162.311 83.7358 161.957 83.7358C161.257 83.7358 160.625 83.8928 160.062 84.2067C159.506 84.5125 159.067 84.9432 158.745 85.4986C158.432 86.0459 158.275 86.6899 158.275 87.4304V97.5H152.37ZM174.375 97.8501C172.419 97.8501 170.741 97.4477 169.34 96.6428C167.948 95.8378 166.877 94.719 166.129 93.2862C165.38 91.8454 165.006 90.1792 165.006 88.2876C165.006 86.388 165.38 84.7218 166.129 83.2891C166.885 81.8482 167.96 80.7254 169.352 79.9205C170.753 79.1155 172.423 78.7131 174.363 78.7131C176.078 78.7131 177.571 79.023 178.842 79.6428C180.122 80.2625 181.12 81.1399 181.837 82.2749C182.561 83.4018 182.944 84.7259 182.984 86.2472H177.466C177.353 85.2973 177.031 84.5528 176.5 84.0135C175.977 83.4742 175.293 83.2045 174.448 83.2045C173.763 83.2045 173.164 83.3977 172.649 83.7841C172.133 84.1624 171.731 84.7259 171.441 85.4744C171.159 86.215 171.019 87.1326 171.019 88.2273C171.019 89.322 171.159 90.2476 171.441 91.0043C171.731 91.7528 172.133 92.3203 172.649 92.7067C173.164 93.085 173.763 93.2741 174.448 93.2741C174.995 93.2741 175.478 93.1574 175.896 92.924C176.323 92.6906 176.673 92.3485 176.947 91.8977C177.22 91.4389 177.394 90.8835 177.466 90.2315H182.984C182.927 91.7609 182.545 93.0971 181.837 94.2401C181.136 95.383 180.15 96.2725 178.879 96.9084C177.615 97.5362 176.114 97.8501 174.375 97.8501ZM186.005 97.5V78.9545H191.909V97.5H186.005ZM188.963 76.7933C188.134 76.7933 187.422 76.5196 186.826 75.9723C186.231 75.4169 185.933 74.7488 185.933 73.968C185.933 73.1953 186.231 72.5353 186.826 71.9879C187.422 71.4325 188.134 71.1548 188.963 71.1548C189.8 71.1548 190.513 71.4325 191.1 71.9879C191.696 72.5353 191.994 73.1953 191.994 73.968C191.994 74.7488 191.696 75.4169 191.1 75.9723C190.513 76.5196 189.8 76.7933 188.963 76.7933ZM200.895 97.8139C199.712 97.8139 198.662 97.6167 197.744 97.2223C196.834 96.8198 196.114 96.2161 195.583 95.4112C195.06 94.5982 194.798 93.58 194.798 92.3565C194.798 91.3262 194.979 90.4569 195.341 89.7486C195.704 89.0402 196.203 88.4647 196.839 88.022C197.474 87.5793 198.207 87.2453 199.036 87.0199C199.865 86.7865 200.75 86.6295 201.692 86.549C202.747 86.4524 203.596 86.3518 204.24 86.2472C204.884 86.1345 205.351 85.9775 205.64 85.7763C205.938 85.567 206.087 85.2732 206.087 84.8949V84.8345C206.087 84.2147 205.874 83.7358 205.447 83.3977C205.021 83.0597 204.445 82.8906 203.721 82.8906C202.94 82.8906 202.312 83.0597 201.837 83.3977C201.362 83.7358 201.06 84.2027 200.932 84.7983L195.486 84.6051C195.647 83.4782 196.062 82.4721 196.73 81.5866C197.406 80.6932 198.332 79.9929 199.507 79.4858C200.69 78.9706 202.111 78.7131 203.769 78.7131C204.952 78.7131 206.043 78.8539 207.041 79.1357C208.039 79.4093 208.908 79.8118 209.649 80.343C210.389 80.8662 210.961 81.5102 211.363 82.2749C211.774 83.0395 211.979 83.9129 211.979 84.8949V97.5H206.425V94.9162H206.28C205.95 95.544 205.528 96.0753 205.013 96.5099C204.505 96.9446 203.906 97.2706 203.214 97.4879C202.529 97.7053 201.757 97.8139 200.895 97.8139ZM202.718 93.9503C203.354 93.9503 203.926 93.8215 204.433 93.5639C204.948 93.3063 205.359 92.9522 205.665 92.5014C205.97 92.0426 206.123 91.5114 206.123 90.9077V89.1449C205.954 89.2334 205.749 89.3139 205.508 89.3864C205.274 89.4588 205.017 89.5272 204.735 89.5916C204.453 89.656 204.163 89.7124 203.866 89.7607C203.568 89.8089 203.282 89.8532 203.008 89.8935C202.453 89.982 201.978 90.1188 201.584 90.304C201.197 90.4891 200.899 90.7306 200.69 91.0284C200.489 91.3182 200.388 91.6643 200.388 92.0668C200.388 92.6785 200.606 93.1454 201.04 93.4673C201.483 93.7893 202.042 93.9503 202.718 93.9503ZM221.493 72.7727V97.5H215.589V72.7727H221.493Z" fill="black"/>
</svg>
