<svg width="275" height="170" viewBox="0 0 275 170" fill="none" xmlns="http://www.w3.org/2000/svg">
<rect width="275" height="170" fill="white"/>
<path d="M56.6383 97.5H47.4984V72.7727H56.6262C59.1457 72.7727 61.3149 73.2678 63.1341 74.2578C64.9612 75.2398 66.3699 76.6565 67.3599 78.5078C68.35 80.3511 68.845 82.5566 68.845 85.1243C68.845 87.7 68.35 89.9136 67.3599 91.7649C66.3779 93.6162 64.9733 95.0369 63.1461 96.027C61.319 97.009 59.1497 97.5 56.6383 97.5ZM53.475 92.4048H56.4089C57.7934 92.4048 58.9645 92.1714 59.9224 91.7045C60.8883 91.2296 61.6168 90.4609 62.1078 89.3984C62.6068 88.3279 62.8564 86.9032 62.8564 85.1243C62.8564 83.3454 62.6068 81.9287 62.1078 80.8743C61.6087 79.8118 60.8722 79.0471 59.8983 78.5803C58.9324 78.1053 57.7411 77.8679 56.3244 77.8679H53.475V92.4048ZM77.5623 97.8139C76.3791 97.8139 75.3287 97.6167 74.411 97.2223C73.5015 96.8198 72.7811 96.2161 72.2498 95.4112C71.7266 94.5982 71.465 93.58 71.465 92.3565C71.465 91.3262 71.6461 90.4569 72.0083 89.7486C72.3706 89.0402 72.8696 88.4647 73.5055 88.022C74.1414 87.5793 74.8739 87.2453 75.7029 87.0199C76.532 86.7865 77.4174 86.6295 78.3592 86.549C79.4136 86.4524 80.2628 86.3518 80.9068 86.2472C81.5507 86.1345 82.0176 85.9775 82.3074 85.7763C82.6052 85.567 82.7541 85.2732 82.7541 84.8949V84.8345C82.7541 84.2147 82.5408 83.7358 82.1142 83.3977C81.6876 83.0597 81.112 82.8906 80.3876 82.8906C79.6068 82.8906 78.979 83.0597 78.5041 83.3977C78.0292 83.7358 77.7273 84.2027 77.5985 84.7983L72.1532 84.6051C72.3142 83.4782 72.7288 82.4721 73.3968 81.5866C74.073 80.6932 74.9986 79.9929 76.1738 79.4858C77.3571 78.9706 78.7778 78.7131 80.4359 78.7131C81.6191 78.7131 82.7098 78.8539 83.7079 79.1357C84.706 79.4093 85.5753 79.8118 86.3159 80.343C87.0564 80.8662 87.6279 81.5102 88.0304 82.2749C88.4409 83.0395 88.6461 83.9129 88.6461 84.8949V97.5H83.0922V94.9162H82.9473C82.6172 95.544 82.1947 96.0753 81.6795 96.5099C81.1724 96.9446 80.5727 97.2706 79.8805 97.4879C79.1963 97.7053 78.4236 97.8139 77.5623 97.8139ZM79.3855 93.9503C80.0214 93.9503 80.5929 93.8215 81.1 93.5639C81.6151 93.3063 82.0256 92.9522 82.3315 92.5014C82.6374 92.0426 82.7903 91.5114 82.7903 90.9077V89.1449C82.6213 89.2334 82.416 89.3139 82.1745 89.3864C81.9411 89.4588 81.6835 89.5272 81.4018 89.5916C81.1201 89.656 80.8303 89.7124 80.5325 89.7607C80.2347 89.8089 79.9489 89.8532 79.6752 89.8935C79.1199 89.982 78.6449 90.1188 78.2505 90.304C77.8642 90.4891 77.5663 90.7306 77.3571 91.0284C77.1558 91.3182 77.0552 91.6643 77.0552 92.0668C77.0552 92.6785 77.2725 93.1454 77.7072 93.4673C78.1499 93.7893 78.7093 93.9503 79.3855 93.9503ZM108.447 84.6172L103.026 84.7621C102.97 84.3757 102.817 84.0336 102.567 83.7358C102.318 83.4299 101.992 83.1925 101.589 83.0234C101.195 82.8464 100.736 82.7578 100.213 82.7578C99.5287 82.7578 98.9451 82.8946 98.4622 83.1683C97.9873 83.442 97.7538 83.8123 97.7619 84.2791C97.7538 84.6413 97.8987 84.9553 98.1966 85.2209C98.5024 85.4865 99.0458 85.6998 99.8265 85.8608L103.4 86.5369C105.252 86.8911 106.628 87.4787 107.53 88.2997C108.439 89.1207 108.898 90.2074 108.906 91.5597C108.898 92.8314 108.52 93.9382 107.771 94.88C107.031 95.8217 106.016 96.5542 104.729 97.0774C103.441 97.5926 101.968 97.8501 100.309 97.8501C97.6613 97.8501 95.5725 97.3068 94.0431 96.2202C92.5218 95.1255 91.6525 93.6605 91.4352 91.8253L97.2669 91.6804C97.3957 92.3565 97.7297 92.8717 98.269 93.2259C98.8083 93.58 99.4965 93.7571 100.334 93.7571C101.09 93.7571 101.706 93.6162 102.181 93.3345C102.656 93.0528 102.897 92.6785 102.905 92.2116C102.897 91.7931 102.712 91.459 102.35 91.2095C101.988 90.9519 101.42 90.7507 100.648 90.6058L97.4118 89.9901C95.5524 89.652 94.1679 89.0282 93.2583 88.1186C92.3488 87.201 91.898 86.0339 91.9061 84.6172C91.898 83.3776 92.228 82.3191 92.8961 81.4418C93.5642 80.5563 94.514 79.8802 95.7456 79.4134C96.9771 78.9465 98.43 78.7131 100.104 78.7131C102.616 78.7131 104.596 79.2403 106.045 80.2947C107.493 81.3411 108.294 82.782 108.447 84.6172ZM117.717 86.9233V97.5H111.813V72.7727H117.524V82.3594H117.729C118.148 81.2164 118.832 80.3229 119.782 79.679C120.739 79.035 121.911 78.7131 123.295 78.7131C124.599 78.7131 125.734 79.0028 126.7 79.5824C127.666 80.1539 128.414 80.9628 128.946 82.0092C129.485 83.0556 129.751 84.2791 129.743 85.6797V97.5H123.838V86.8388C123.846 85.8085 123.589 85.0036 123.066 84.424C122.542 83.8445 121.806 83.5547 120.856 83.5547C120.236 83.5547 119.689 83.6915 119.214 83.9652C118.747 84.2308 118.381 84.6132 118.115 85.1122C117.858 85.6113 117.725 86.215 117.717 86.9233ZM133.428 97.5V72.7727H139.332V82.13H139.453C139.694 81.5665 140.037 81.0232 140.479 80.5C140.93 79.9768 141.501 79.5502 142.194 79.2202C142.894 78.8821 143.731 78.7131 144.705 78.7131C145.993 78.7131 147.196 79.0511 148.315 79.7273C149.442 80.4034 150.352 81.4458 151.044 82.8544C151.736 84.263 152.082 86.058 152.082 88.2393C152.082 90.3402 151.748 92.099 151.08 93.5156C150.42 94.9323 149.527 95.9948 148.4 96.7031C147.281 97.4115 146.037 97.7656 144.669 97.7656C143.735 97.7656 142.926 97.6127 142.242 97.3068C141.558 97.0009 140.982 96.5985 140.515 96.0994C140.057 95.6004 139.702 95.0651 139.453 94.4936H139.272V97.5H133.428ZM139.211 88.2273C139.211 89.2254 139.344 90.0947 139.61 90.8352C139.884 91.5758 140.274 92.1513 140.781 92.5618C141.296 92.9643 141.912 93.1655 142.628 93.1655C143.353 93.1655 143.969 92.9643 144.476 92.5618C144.983 92.1513 145.365 91.5758 145.623 90.8352C145.888 90.0947 146.021 89.2254 146.021 88.2273C146.021 87.2292 145.888 86.3639 145.623 85.6314C145.365 84.8989 144.983 84.3314 144.476 83.929C143.977 83.5265 143.361 83.3253 142.628 83.3253C141.904 83.3253 141.288 83.5225 140.781 83.9169C140.274 84.3113 139.884 84.8748 139.61 85.6072C139.344 86.3397 139.211 87.2131 139.211 88.2273ZM163.833 97.8501C161.885 97.8501 160.211 97.4517 158.81 96.6548C157.418 95.8499 156.343 94.7311 155.587 93.2983C154.838 91.8575 154.464 90.1873 154.464 88.2876C154.464 86.38 154.838 84.7098 155.587 83.277C156.343 81.8362 157.418 80.7173 158.81 79.9205C160.211 79.1155 161.885 78.7131 163.833 78.7131C165.781 78.7131 167.451 79.1155 168.844 79.9205C170.244 80.7173 171.319 81.8362 172.067 83.277C172.824 84.7098 173.202 86.38 173.202 88.2876C173.202 90.1873 172.824 91.8575 172.067 93.2983C171.319 94.7311 170.244 95.8499 168.844 96.6548C167.451 97.4517 165.781 97.8501 163.833 97.8501ZM163.869 93.3949C164.578 93.3949 165.177 93.1776 165.668 92.7429C166.159 92.3082 166.534 91.7045 166.791 90.9318C167.057 90.1591 167.19 89.2656 167.19 88.2514C167.19 87.2211 167.057 86.3196 166.791 85.5469C166.534 84.7741 166.159 84.1705 165.668 83.7358C165.177 83.3011 164.578 83.0838 163.869 83.0838C163.137 83.0838 162.517 83.3011 162.01 83.7358C161.511 84.1705 161.129 84.7741 160.863 85.5469C160.605 86.3196 160.477 87.2211 160.477 88.2514C160.477 89.2656 160.605 90.1591 160.863 90.9318C161.129 91.7045 161.511 92.3082 162.01 92.7429C162.517 93.1776 163.137 93.3949 163.869 93.3949ZM181.455 97.8139C180.272 97.8139 179.221 97.6167 178.304 97.2223C177.394 96.8198 176.674 96.2161 176.142 95.4112C175.619 94.5982 175.358 93.58 175.358 92.3565C175.358 91.3262 175.539 90.4569 175.901 89.7486C176.263 89.0402 176.762 88.4647 177.398 88.022C178.034 87.5793 178.766 87.2453 179.596 87.0199C180.425 86.7865 181.31 86.6295 182.252 86.549C183.306 86.4524 184.155 86.3518 184.799 86.2472C185.443 86.1345 185.91 85.9775 186.2 85.7763C186.498 85.567 186.647 85.2732 186.647 84.8949V84.8345C186.647 84.2147 186.433 83.7358 186.007 83.3977C185.58 83.0597 185.005 82.8906 184.28 82.8906C183.499 82.8906 182.872 83.0597 182.397 83.3977C181.922 83.7358 181.62 84.2027 181.491 84.7983L176.046 84.6051C176.207 83.4782 176.621 82.4721 177.289 81.5866C177.966 80.6932 178.891 79.9929 180.066 79.4858C181.25 78.9706 182.67 78.7131 184.328 78.7131C185.512 78.7131 186.602 78.8539 187.6 79.1357C188.599 79.4093 189.468 79.8118 190.208 80.343C190.949 80.8662 191.52 81.5102 191.923 82.2749C192.333 83.0395 192.539 83.9129 192.539 84.8949V97.5H186.985V94.9162H186.84C186.51 95.544 186.087 96.0753 185.572 96.5099C185.065 96.9446 184.465 97.2706 183.773 97.4879C183.089 97.7053 182.316 97.8139 181.455 97.8139ZM183.278 93.9503C183.914 93.9503 184.485 93.8215 184.993 93.5639C185.508 93.3063 185.918 92.9522 186.224 92.5014C186.53 92.0426 186.683 91.5114 186.683 90.9077V89.1449C186.514 89.2334 186.309 89.3139 186.067 89.3864C185.834 89.4588 185.576 89.5272 185.294 89.5916C185.013 89.656 184.723 89.7124 184.425 89.7607C184.127 89.8089 183.842 89.8532 183.568 89.8935C183.012 89.982 182.538 90.1188 182.143 90.304C181.757 90.4891 181.459 90.7306 181.25 91.0284C181.048 91.3182 180.948 91.6643 180.948 92.0668C180.948 92.6785 181.165 93.1454 181.6 93.4673C182.042 93.7893 182.602 93.9503 183.278 93.9503ZM196.149 97.5V78.9545H201.884V82.3352H202.077C202.415 81.1117 202.967 80.2022 203.731 79.6065C204.496 79.0028 205.385 78.701 206.4 78.701C206.673 78.701 206.955 78.7211 207.245 78.7614C207.534 78.7936 207.804 78.8459 208.054 78.9183V84.0497C207.772 83.9531 207.402 83.8767 206.943 83.8203C206.492 83.764 206.09 83.7358 205.735 83.7358C205.035 83.7358 204.403 83.8928 203.84 84.2067C203.284 84.5125 202.846 84.9432 202.524 85.4986C202.21 86.0459 202.053 86.6899 202.053 87.4304V97.5H196.149ZM216.27 97.7656C214.902 97.7656 213.658 97.4115 212.539 96.7031C211.42 95.9948 210.527 94.9323 209.859 93.5156C209.191 92.099 208.857 90.3402 208.857 88.2393C208.857 86.058 209.203 84.263 209.895 82.8544C210.587 81.4458 211.493 80.4034 212.612 79.7273C213.738 79.0511 214.95 78.7131 216.246 78.7131C217.22 78.7131 218.053 78.8821 218.745 79.2202C219.437 79.5502 220.009 79.9768 220.46 80.5C220.91 81.0232 221.252 81.5665 221.486 82.13H221.607V72.7727H227.511V97.5H221.667V94.4936H221.486C221.236 95.0651 220.882 95.6004 220.423 96.0994C219.964 96.5985 219.389 97.0009 218.697 97.3068C218.013 97.6127 217.204 97.7656 216.27 97.7656ZM218.322 93.1655C219.039 93.1655 219.651 92.9643 220.158 92.5618C220.665 92.1513 221.055 91.5758 221.329 90.8352C221.603 90.0947 221.739 89.2254 221.739 88.2273C221.739 87.2131 221.603 86.3397 221.329 85.6072C221.063 84.8748 220.673 84.3113 220.158 83.9169C219.651 83.5225 219.039 83.3253 218.322 83.3253C217.59 83.3253 216.97 83.5265 216.463 83.929C215.956 84.3314 215.57 84.8989 215.304 85.6314C215.046 86.3639 214.918 87.2292 214.918 88.2273C214.918 89.2254 215.05 90.0947 215.316 90.8352C215.582 91.5758 215.964 92.1513 216.463 92.5618C216.97 92.9643 217.59 93.1655 218.322 93.1655Z" fill="black"/>
</svg>
