<svg width="275" height="170" viewBox="0 0 275 170" fill="none" xmlns="http://www.w3.org/2000/svg">
<rect width="275" height="170" fill="white"/>
<path d="M58.4579 95H51.5574V74.6364H58.5971C60.6189 74.6364 62.3556 75.044 63.8074 75.8594C65.2657 76.6681 66.386 77.8314 67.1681 79.3494C67.9503 80.8674 68.3414 82.6837 68.3414 84.7983C68.3414 86.9195 67.947 88.7424 67.1582 90.267C66.376 91.7917 65.2458 92.9616 63.7676 93.777C62.296 94.5923 60.5261 95 58.4579 95ZM55.2463 91.8082H58.2789C59.6975 91.8082 60.8807 91.5497 61.8287 91.0327C62.7766 90.509 63.4892 89.7301 63.9664 88.696C64.4437 87.6553 64.6824 86.3561 64.6824 84.7983C64.6824 83.2405 64.4437 81.9479 63.9664 80.9205C63.4892 79.8864 62.7832 79.1141 61.8485 78.6037C60.9205 78.0866 59.7671 77.8281 58.3883 77.8281H55.2463V91.8082ZM73.3677 95H69.4302L76.5993 74.6364H81.1532L88.3322 95H84.3947L78.9558 78.8125H78.7967L73.3677 95ZM73.497 87.0156H84.2356V89.9787H73.497V87.0156ZM101.753 80.2344C101.66 79.366 101.269 78.6899 100.58 78.206C99.897 77.7221 99.0087 77.4801 97.915 77.4801C97.146 77.4801 96.4864 77.5961 95.9363 77.8281C95.3861 78.0601 94.9651 78.375 94.6735 78.7727C94.3818 79.1705 94.2327 79.6245 94.226 80.1349C94.226 80.5592 94.3221 80.9271 94.5144 81.2386C94.7132 81.5502 94.9817 81.8153 95.3198 82.0341C95.6578 82.2462 96.0324 82.4252 96.4434 82.571C96.8543 82.7169 97.2686 82.8395 97.6863 82.9389L99.5953 83.4162C100.364 83.5952 101.103 83.8371 101.813 84.142C102.529 84.447 103.168 84.8314 103.732 85.2955C104.302 85.7595 104.753 86.3196 105.084 86.9759C105.415 87.6321 105.581 88.401 105.581 89.2827C105.581 90.4759 105.276 91.5265 104.666 92.4347C104.057 93.3362 103.175 94.0421 102.021 94.5526C100.875 95.0563 99.486 95.3082 97.8553 95.3082C96.271 95.3082 94.8955 95.063 93.7289 94.5724C92.5688 94.0819 91.6607 93.366 91.0044 92.4247C90.3548 91.4834 90.0035 90.3366 89.9505 88.9844H93.5797C93.6328 89.6937 93.8515 90.2836 94.236 90.7543C94.6204 91.2249 95.1209 91.5762 95.7374 91.8082C96.3605 92.0402 97.0565 92.1562 97.8255 92.1562C98.6275 92.1562 99.3302 92.0369 99.9334 91.7983C100.543 91.553 101.021 91.215 101.365 90.7841C101.71 90.3466 101.886 89.8362 101.892 89.2528C101.886 88.7225 101.73 88.285 101.425 87.9403C101.12 87.589 100.692 87.2973 100.142 87.0653C99.5987 86.8267 98.9623 86.6146 98.2331 86.429L95.9164 85.8324C94.2393 85.4015 92.9135 84.7486 91.9391 83.8736C90.9713 82.992 90.4874 81.822 90.4874 80.3636C90.4874 79.1638 90.8122 78.1132 91.4618 77.2116C92.1181 76.3101 93.0096 75.6108 94.1365 75.1136C95.2634 74.6098 96.5395 74.358 97.9647 74.358C99.4097 74.358 100.676 74.6098 101.763 75.1136C102.857 75.6108 103.715 76.3035 104.338 77.1918C104.961 78.0734 105.283 79.0876 105.303 80.2344H101.753ZM108.87 95V74.6364H112.559V83.2571H121.995V74.6364H125.694V95H121.995V86.3494H112.559V95H108.87ZM129.706 95V74.6364H137.501C138.973 74.6364 140.196 74.8684 141.17 75.3324C142.151 75.7898 142.884 76.4162 143.368 77.2116C143.858 78.0071 144.104 78.9086 144.104 79.9162C144.104 80.7448 143.944 81.4541 143.626 82.044C143.308 82.6274 142.881 83.1013 142.344 83.4659C141.807 83.8305 141.207 84.0923 140.544 84.2514V84.4503C141.266 84.4901 141.959 84.7121 142.622 85.1165C143.291 85.5142 143.838 86.0777 144.263 86.8068C144.687 87.536 144.899 88.4176 144.899 89.4517C144.899 90.5057 144.644 91.4536 144.133 92.2955C143.623 93.1307 142.854 93.7902 141.827 94.2741C140.799 94.758 139.506 95 137.949 95H129.706ZM133.395 91.9176H137.362C138.701 91.9176 139.666 91.6624 140.256 91.152C140.852 90.6349 141.15 89.9721 141.15 89.1634C141.15 88.5601 141.001 88.0166 140.703 87.5327C140.405 87.0421 139.98 86.6577 139.43 86.3793C138.88 86.0942 138.224 85.9517 137.461 85.9517H133.395V91.9176ZM133.395 83.2969H137.044C137.68 83.2969 138.254 83.1809 138.764 82.9489C139.274 82.7102 139.675 82.3755 139.967 81.9446C140.265 81.5071 140.415 80.9901 140.415 80.3935C140.415 79.6046 140.136 78.955 139.579 78.4446C139.029 77.9342 138.211 77.679 137.123 77.679H133.395V83.2969ZM166.304 84.8182C166.304 87.0123 165.893 88.8916 165.071 90.456C164.256 92.0137 163.142 93.2069 161.73 94.0355C160.325 94.8641 158.731 95.2784 156.948 95.2784C155.164 95.2784 153.567 94.8641 152.155 94.0355C150.75 93.2003 149.636 92.0038 148.814 90.446C147.999 88.8816 147.591 87.0057 147.591 84.8182C147.591 82.6241 147.999 80.7481 148.814 79.1903C149.636 77.6259 150.75 76.4295 152.155 75.6009C153.567 74.7723 155.164 74.358 156.948 74.358C158.731 74.358 160.325 74.7723 161.73 75.6009C163.142 76.4295 164.256 77.6259 165.071 79.1903C165.893 80.7481 166.304 82.6241 166.304 84.8182ZM162.595 84.8182C162.595 83.2737 162.353 81.9711 161.869 80.9105C161.392 79.8433 160.729 79.0379 159.881 78.4943C159.032 77.9441 158.055 77.669 156.948 77.669C155.841 77.669 154.863 77.9441 154.014 78.4943C153.166 79.0379 152.5 79.8433 152.016 80.9105C151.539 81.9711 151.3 83.2737 151.3 84.8182C151.3 86.3627 151.539 87.6686 152.016 88.7358C152.5 89.7964 153.166 90.6018 154.014 91.152C154.863 91.6955 155.841 91.9673 156.948 91.9673C158.055 91.9673 159.032 91.6955 159.881 91.152C160.729 90.6018 161.392 89.7964 161.869 88.7358C162.353 87.6686 162.595 86.3627 162.595 84.8182ZM171.313 95H167.376L174.545 74.6364H179.099L186.278 95H182.34L176.901 78.8125H176.742L171.313 95ZM171.442 87.0156H182.181V89.9787H171.442V87.0156ZM188.96 95V74.6364H196.596C198.16 74.6364 199.473 74.9081 200.534 75.4517C201.601 75.9953 202.406 76.7576 202.95 77.7386C203.5 78.7131 203.775 79.8499 203.775 81.1491C203.775 82.455 203.497 83.5885 202.94 84.5497C202.39 85.5043 201.578 86.2434 200.504 86.767C199.43 87.2841 198.111 87.5426 196.546 87.5426H191.107V84.4801H196.049C196.964 84.4801 197.713 84.3542 198.296 84.1023C198.88 83.8437 199.311 83.4692 199.589 82.9787C199.874 82.4815 200.017 81.8717 200.017 81.1491C200.017 80.4266 199.874 79.8101 199.589 79.2997C199.304 78.7827 198.87 78.3916 198.286 78.1264C197.703 77.8546 196.951 77.7188 196.029 77.7188H192.649V95H188.96ZM199.48 85.7727L204.521 95H200.404L195.453 85.7727H199.48ZM214.071 95H207.171V74.6364H214.21C216.232 74.6364 217.969 75.044 219.421 75.8594C220.879 76.6681 221.999 77.8314 222.781 79.3494C223.564 80.8674 223.955 82.6837 223.955 84.7983C223.955 86.9195 223.56 88.7424 222.771 90.267C221.989 91.7917 220.859 92.9616 219.381 93.777C217.909 94.5923 216.139 95 214.071 95ZM210.86 91.8082H213.892C215.311 91.8082 216.494 91.5497 217.442 91.0327C218.39 90.509 219.102 89.7301 219.58 88.696C220.057 87.6553 220.296 86.3561 220.296 84.7983C220.296 83.2405 220.057 81.9479 219.58 80.9205C219.102 79.8864 218.396 79.1141 217.462 78.6037C216.534 78.0866 215.38 77.8281 214.002 77.8281H210.86V91.8082Z" fill="black"/>
</svg>
