<svg width="275" height="170" viewBox="0 0 275 170" fill="none" xmlns="http://www.w3.org/2000/svg">
<rect width="275" height="170" fill="white"/>
<path d="M39.3893 97.5H30.2494V72.7727H39.3772C41.8966 72.7727 44.0659 73.2678 45.885 74.2578C47.7122 75.2398 49.1208 76.6565 50.1109 78.5078C51.1009 80.3511 51.596 82.5566 51.596 85.1243C51.596 87.7 51.1009 89.9136 50.1109 91.7649C49.1289 93.6162 47.7243 95.0369 45.8971 96.027C44.0699 97.009 41.9007 97.5 39.3893 97.5ZM36.2259 92.4048H39.1599C40.5444 92.4048 41.7155 92.1714 42.6734 91.7045C43.6393 91.2296 44.3678 90.4609 44.8588 89.3984C45.3578 88.3279 45.6073 86.9032 45.6073 85.1243C45.6073 83.3454 45.3578 81.9287 44.8588 80.8743C44.3597 79.8118 43.6232 79.0471 42.6492 78.5803C41.6833 78.1053 40.492 77.8679 39.0754 77.8679H36.2259V92.4048ZM58.9731 97.5H52.5498L60.8928 72.7727H68.8495L77.1926 97.5H70.7693L64.9617 79.0028H64.7686L58.9731 97.5ZM58.1159 87.7685H71.542V92.3082H58.1159V87.7685ZM92.4569 80.1861C92.3765 79.3007 92.0183 78.6125 91.3824 78.1214C90.7545 77.6224 89.857 77.3729 88.6899 77.3729C87.9172 77.3729 87.2732 77.4735 86.7581 77.6747C86.2429 77.8759 85.8566 78.1536 85.599 78.5078C85.3414 78.8539 85.2086 79.2524 85.2006 79.7031C85.1845 80.0734 85.2569 80.3994 85.4179 80.6811C85.5869 80.9628 85.8284 81.2124 86.1423 81.4297C86.4643 81.639 86.8506 81.8241 87.3014 81.9851C87.7522 82.1461 88.2593 82.2869 88.8227 82.4077L90.9477 82.8906C92.1712 83.1562 93.2498 83.5104 94.1835 83.9531C95.1253 84.3958 95.9141 84.9231 96.55 85.5348C97.1939 86.1465 97.6809 86.8509 98.0109 87.6477C98.3409 88.4446 98.51 89.3381 98.518 90.3281C98.51 91.8897 98.1156 93.2299 97.3348 94.3487C96.554 95.4676 95.4311 96.3248 93.9662 96.9205C92.5093 97.5161 90.7505 97.8139 88.6899 97.8139C86.6212 97.8139 84.8182 97.504 83.2808 96.8842C81.7434 96.2644 80.5481 95.3227 79.6949 94.0589C78.8416 92.7952 78.403 91.1974 78.3788 89.2656H84.1018C84.1501 90.0625 84.3634 90.7266 84.7417 91.2578C85.1201 91.7891 85.6392 92.1915 86.2993 92.4652C86.9674 92.7389 87.7401 92.8757 88.6175 92.8757C89.4224 92.8757 90.1066 92.767 90.67 92.5497C91.2415 92.3324 91.6802 92.0305 91.9861 91.6442C92.2919 91.2578 92.4489 90.8151 92.4569 90.3161C92.4489 89.8492 92.304 89.4508 92.0223 89.1207C91.7406 88.7827 91.3059 88.4929 90.7183 88.2514C90.1388 88.0019 89.3982 87.7725 88.4967 87.5632L85.9129 86.9595C83.7718 86.4685 82.0855 85.6757 80.854 84.581C79.6224 83.4782 79.0107 81.9891 79.0187 80.1136C79.0107 78.5843 79.4212 77.2441 80.2503 76.093C81.0793 74.942 82.2264 74.0445 83.6913 73.4006C85.1563 72.7566 86.8265 72.4347 88.702 72.4347C90.6177 72.4347 92.2799 72.7607 93.6885 73.4126C95.1051 74.0566 96.2039 74.9621 96.9846 76.1293C97.7654 77.2964 98.1639 78.6487 98.18 80.1861H92.4569ZM101.536 97.5V72.7727H107.513V82.6974H117.257V72.7727H123.221V97.5H117.257V87.5632H107.513V97.5H101.536ZM126.97 97.5V72.7727H137.281C139.132 72.7727 140.682 73.0343 141.93 73.5575C143.185 74.0807 144.127 74.8132 144.755 75.755C145.391 76.6967 145.709 77.7874 145.709 79.027C145.709 79.9688 145.512 80.8099 145.117 81.5504C144.723 82.2829 144.179 82.8906 143.487 83.3736C142.795 83.8565 141.994 84.1946 141.084 84.3878V84.6293C142.083 84.6776 143.004 84.9472 143.849 85.4382C144.703 85.9292 145.387 86.6134 145.902 87.4908C146.417 88.3601 146.675 89.3904 146.675 90.5817C146.675 91.9098 146.337 93.0971 145.66 94.1435C144.984 95.1818 144.006 96.0028 142.726 96.6065C141.447 97.2022 139.893 97.5 138.066 97.5H126.97ZM132.947 92.6825H136.641C137.937 92.6825 138.891 92.437 139.503 91.946C140.123 91.455 140.432 90.7708 140.432 89.8935C140.432 89.2576 140.284 88.7102 139.986 88.2514C139.688 87.7846 139.265 87.4264 138.718 87.1768C138.171 86.9193 137.515 86.7905 136.75 86.7905H132.947V92.6825ZM132.947 82.9389H136.255C136.907 82.9389 137.486 82.8303 137.994 82.6129C138.501 82.3956 138.895 82.0817 139.177 81.6712C139.467 81.2607 139.611 80.7656 139.611 80.1861C139.611 79.357 139.318 78.705 138.73 78.2301C138.142 77.7552 137.35 77.5178 136.351 77.5178H132.947V82.9389ZM172.887 85.1364C172.887 87.857 172.364 90.1631 171.317 92.0547C170.271 93.9463 168.854 95.383 167.067 96.3651C165.289 97.3471 163.292 97.8381 161.079 97.8381C158.857 97.8381 156.857 97.343 155.078 96.353C153.299 95.3629 151.887 93.9261 150.84 92.0426C149.802 90.151 149.283 87.849 149.283 85.1364C149.283 82.4157 149.802 80.1096 150.84 78.218C151.887 76.3265 153.299 74.8897 155.078 73.9077C156.857 72.9257 158.857 72.4347 161.079 72.4347C163.292 72.4347 165.289 72.9257 167.067 73.9077C168.854 74.8897 170.271 76.3265 171.317 78.218C172.364 80.1096 172.887 82.4157 172.887 85.1364ZM166.778 85.1364C166.778 83.5265 166.548 82.1662 166.089 81.0554C165.639 79.9446 164.987 79.1035 164.133 78.532C163.288 77.9605 162.27 77.6747 161.079 77.6747C159.896 77.6747 158.877 77.9605 158.024 78.532C157.171 79.1035 156.515 79.9446 156.056 81.0554C155.605 82.1662 155.38 83.5265 155.38 85.1364C155.38 86.7462 155.605 88.1065 156.056 89.2173C156.515 90.3281 157.171 91.1693 158.024 91.7408C158.877 92.3123 159.896 92.598 161.079 92.598C162.27 92.598 163.288 92.3123 164.133 91.7408C164.987 91.1693 165.639 90.3281 166.089 89.2173C166.548 88.1065 166.778 86.7462 166.778 85.1364ZM180.264 97.5H173.841L182.184 72.7727H190.141L198.484 97.5H192.06L186.253 79.0028H186.06L180.264 97.5ZM179.407 87.7685H192.833V92.3082H179.407V87.7685ZM201.146 97.5V72.7727H211.36C213.212 72.7727 214.809 73.1068 216.154 73.7749C217.506 74.4349 218.548 75.3847 219.281 76.6243C220.013 77.8558 220.38 79.3168 220.38 81.0071C220.38 82.7216 220.005 84.1785 219.257 85.3778C218.508 86.5691 217.446 87.4787 216.069 88.1065C214.693 88.7263 213.063 89.0362 211.179 89.0362H204.72V84.3274H210.068C210.97 84.3274 211.723 84.2107 212.326 83.9773C212.938 83.7358 213.401 83.3736 213.715 82.8906C214.029 82.3996 214.186 81.7718 214.186 81.0071C214.186 80.2424 214.029 79.6106 213.715 79.1115C213.401 78.6044 212.938 78.2261 212.326 77.9766C211.715 77.719 210.962 77.5902 210.068 77.5902H207.122V97.5H201.146ZM215.067 86.1989L221.225 97.5H214.705L208.668 86.1989H215.067ZM232.797 97.5H223.658V72.7727H232.785C235.305 72.7727 237.474 73.2678 239.293 74.2578C241.12 75.2398 242.529 76.6565 243.519 78.5078C244.509 80.3511 245.004 82.5566 245.004 85.1243C245.004 87.7 244.509 89.9136 243.519 91.7649C242.537 93.6162 241.132 95.0369 239.305 96.027C237.478 97.009 235.309 97.5 232.797 97.5ZM229.634 92.4048H232.568C233.953 92.4048 235.124 92.1714 236.082 91.7045C237.047 91.2296 237.776 90.4609 238.267 89.3984C238.766 88.3279 239.016 86.9032 239.016 85.1243C239.016 83.3454 238.766 81.9287 238.267 80.8743C237.768 79.8118 237.031 79.0471 236.057 78.5803C235.092 78.1053 233.9 77.8679 232.484 77.8679H229.634V92.4048Z" fill="black"/>
</svg>
