<svg width="275" height="170" viewBox="0 0 275 170" fill="none" xmlns="http://www.w3.org/2000/svg">
<rect width="275" height="170" fill="white"/>
<path d="M47.5515 95V74.6364H60.7958V77.7287H51.2404V83.2571H60.1097V86.3494H51.2404V91.9077H60.8754V95H47.5515ZM81.2937 74.6364V95H78.0124L68.4173 81.1293H68.2482V95H64.5593V74.6364H67.8604L77.4457 88.517H77.6246V74.6364H81.2937ZM98.9553 81.1392C98.7895 80.6023 98.5608 80.1217 98.2692 79.6974C97.9841 79.2666 97.6394 78.8987 97.2351 78.5938C96.8374 78.2888 96.38 78.0601 95.8629 77.9077C95.3459 77.7486 94.7824 77.669 94.1726 77.669C93.0788 77.669 92.1044 77.9441 91.2493 78.4943C90.3942 79.0445 89.7214 79.8532 89.2308 80.9205C88.7469 81.9811 88.505 83.2737 88.505 84.7983C88.505 86.3362 88.7469 87.6387 89.2308 88.706C89.7147 89.7732 90.3875 90.5852 91.2493 91.142C92.111 91.6922 93.112 91.9673 94.2521 91.9673C95.2862 91.9673 96.1811 91.7685 96.9368 91.3707C97.6991 90.973 98.2857 90.4096 98.6967 89.6804C99.1077 88.9446 99.3132 88.0829 99.3132 87.0952L100.148 87.2244H94.62V84.3409H102.883V86.7869C102.883 88.5303 102.512 90.0384 101.769 91.3111C101.027 92.5838 100.006 93.5649 98.7067 94.2543C97.4074 94.937 95.916 95.2784 94.2322 95.2784C92.3563 95.2784 90.709 94.8575 89.2905 94.0156C87.8786 93.1671 86.7749 91.964 85.9794 90.4062C85.1906 88.8419 84.7962 86.9858 84.7962 84.8381C84.7962 83.1941 85.0282 81.7259 85.4922 80.4332C85.9628 79.1406 86.6191 78.0436 87.4609 77.142C88.3028 76.2339 89.2905 75.5445 90.424 75.0739C91.5575 74.5966 92.7905 74.358 94.1229 74.358C95.2498 74.358 96.3004 74.5237 97.2749 74.8551C98.2493 75.1799 99.1143 75.6439 99.87 76.2472C100.632 76.8504 101.259 77.5663 101.749 78.3949C102.24 79.2235 102.561 80.1383 102.714 81.1392H98.9553ZM106.45 95V74.6364H119.694V77.7287H110.139V83.2571H119.008V86.3494H110.139V91.9077H119.774V95H106.45ZM140.192 74.6364V95H136.911L127.316 81.1293H127.147V95H123.458V74.6364H126.759L136.344 88.517H136.523V74.6364H140.192ZM144.212 95V74.6364H147.901V83.2571H157.337V74.6364H161.036V95H157.337V86.3494H147.901V95H144.212ZM167.663 95H163.725L170.894 74.6364H175.448L182.627 95H178.69L173.251 78.8125H173.092L167.663 95ZM167.792 87.0156H178.531V89.9787H167.792V87.0156ZM185.309 95V74.6364H192.946C194.51 74.6364 195.823 74.9081 196.883 75.4517C197.95 75.9953 198.756 76.7576 199.299 77.7386C199.85 78.7131 200.125 79.8499 200.125 81.1491C200.125 82.455 199.846 83.5885 199.289 84.5497C198.739 85.5043 197.927 86.2434 196.853 86.767C195.779 87.2841 194.46 87.5426 192.896 87.5426H187.457V84.4801H192.399C193.314 84.4801 194.063 84.3542 194.646 84.1023C195.229 83.8437 195.66 83.4692 195.939 82.9787C196.224 82.4815 196.366 81.8717 196.366 81.1491C196.366 80.4266 196.224 79.8101 195.939 79.2997C195.654 78.7827 195.219 78.3916 194.636 78.1264C194.053 77.8546 193.3 77.7188 192.379 77.7188H188.998V95H185.309ZM195.829 85.7727L200.87 95H196.754L191.802 85.7727H195.829ZM207.209 74.6364V95H203.52V74.6364H207.209ZM213.819 95H209.881L217.05 74.6364H221.604L228.783 95H224.846L219.407 78.8125H219.248L213.819 95ZM213.948 87.0156H224.687V89.9787H213.948V87.0156Z" fill="black"/>
</svg>
