<svg width="275" height="170" viewBox="0 0 275 170" fill="none" xmlns="http://www.w3.org/2000/svg">
<rect width="275" height="170" fill="white"/>
<path d="M45.2521 95V74.6364H59.451V78.6335H50.174V82.8097H58.7251V86.8168H50.174V91.0028H59.451V95H45.2521ZM79.8643 74.6364V95H75.6882L67.5845 83.2472H67.4553V95H62.5334V74.6364H66.7692L74.7834 86.3693H74.9524V74.6364H79.8643ZM96.3228 81.2884C96.2101 80.8707 96.0444 80.5028 95.8256 80.1847C95.6069 79.8598 95.3384 79.5848 95.0202 79.3594C94.7021 79.134 94.3375 78.965 93.9265 78.8523C93.5155 78.733 93.0647 78.6733 92.5742 78.6733C91.5865 78.6733 90.7314 78.9119 90.0089 79.3892C89.293 79.8665 88.7395 80.5625 88.3484 81.4773C87.9573 82.3854 87.7617 83.4891 87.7617 84.7884C87.7617 86.0942 87.9506 87.2079 88.3285 88.1293C88.7063 89.0507 89.2532 89.7533 89.9691 90.2372C90.685 90.7211 91.5534 90.9631 92.5742 90.9631C93.4757 90.9631 94.238 90.8172 94.8612 90.5256C95.4909 90.2273 95.9682 89.8063 96.293 89.2628C96.6178 88.7192 96.7802 88.0795 96.7802 87.3438L97.695 87.4531H92.7433V83.8636H101.523V86.5582C101.523 88.3812 101.135 89.9422 100.36 91.2415C99.5908 92.5407 98.5302 93.5384 97.1779 94.2344C95.8323 94.9304 94.2844 95.2784 92.5344 95.2784C90.5922 95.2784 88.8853 94.8575 87.4137 94.0156C85.9421 93.1738 84.7953 91.974 83.9734 90.4162C83.1514 88.8518 82.7404 86.9957 82.7404 84.848C82.7404 83.1776 82.989 81.696 83.4862 80.4034C83.9833 79.1042 84.676 78.0038 85.5643 77.1023C86.4592 76.2008 87.4933 75.518 88.6665 75.054C89.8465 74.59 91.1159 74.358 92.4748 74.358C93.6547 74.358 94.7518 74.527 95.766 74.8651C96.7868 75.2031 97.6883 75.6804 98.4705 76.2969C99.2594 76.9134 99.899 77.6458 100.39 78.4943C100.88 79.3428 101.185 80.2741 101.304 81.2884H96.3228ZM104.424 95V74.6364H118.623V78.6335H109.346V82.8097H117.897V86.8168H109.346V91.0028H118.623V95H104.424ZM139.036 74.6364V95H134.86L126.756 83.2472H126.627V95H121.705V74.6364H125.941L133.955 86.3693H134.124V74.6364H139.036ZM142.131 95V74.6364H147.053V82.8097H155.077V74.6364H159.989V95H155.077V86.8168H147.053V95H142.131ZM167.481 95H162.191L169.062 74.6364H175.615L182.485 95H177.196L172.413 79.767H172.254L167.481 95ZM166.775 86.9858H177.832V90.7244H166.775V86.9858ZM184.678 95V74.6364H193.09C194.614 74.6364 195.93 74.9115 197.037 75.4616C198.151 76.0052 199.009 76.7874 199.613 77.8082C200.216 78.8224 200.517 80.0256 200.517 81.4176C200.517 82.8295 200.209 84.0294 199.593 85.017C198.976 85.9981 198.101 86.7472 196.968 87.2642C195.834 87.7746 194.492 88.0298 192.941 88.0298H187.621V84.152H192.026C192.768 84.152 193.388 84.0559 193.885 83.8636C194.389 83.6648 194.77 83.3665 195.029 82.9688C195.287 82.5644 195.417 82.0473 195.417 81.4176C195.417 80.7879 195.287 80.2675 195.029 79.8565C194.77 79.4389 194.389 79.1274 193.885 78.9219C193.382 78.7098 192.762 78.6037 192.026 78.6037H189.6V95H184.678ZM196.142 85.6932L201.213 95H195.844L190.873 85.6932H196.142ZM208.139 74.6364V95H203.217V74.6364H208.139ZM215.634 95H210.344L217.214 74.6364H223.767L230.638 95H225.348L220.565 79.767H220.406L215.634 95ZM214.928 86.9858H225.984V90.7244H214.928V86.9858Z" fill="black"/>
</svg>
