<svg width="275" height="170" viewBox="0 0 275 170" fill="none" xmlns="http://www.w3.org/2000/svg">
<rect width="275" height="170" fill="white"/>
<path d="M60.0895 96.5V73.2273H76.3168V77.7955H65.7145V82.5682H75.4872V87.1477H65.7145V91.9318H76.3168V96.5H60.0895ZM95.0781 84.375L89.9759 84.5114C89.9228 84.1477 89.7789 83.8258 89.544 83.5455C89.3092 83.2576 89.0024 83.0341 88.6236 82.875C88.2524 82.7083 87.8205 82.625 87.3281 82.625C86.6842 82.625 86.1349 82.7538 85.6804 83.0114C85.2334 83.2689 85.0137 83.6174 85.0213 84.0568C85.0137 84.3977 85.1501 84.6932 85.4304 84.9432C85.7183 85.1932 86.2296 85.3939 86.9645 85.5455L90.3281 86.1818C92.0705 86.5152 93.366 87.0682 94.2145 87.8409C95.0706 88.6136 95.5024 89.6364 95.5099 90.9091C95.5024 92.1061 95.1463 93.1477 94.4418 94.0341C93.7448 94.9205 92.7902 95.6098 91.5781 96.1023C90.366 96.5871 88.9796 96.8295 87.419 96.8295C84.9266 96.8295 82.9607 96.3182 81.5213 95.2955C80.0895 94.2652 79.2713 92.8864 79.0668 91.1591L84.5554 91.0227C84.6766 91.6591 84.991 92.1439 85.4986 92.4773C86.0062 92.8106 86.6539 92.9773 87.4418 92.9773C88.1539 92.9773 88.7334 92.8447 89.1804 92.5795C89.6274 92.3144 89.8546 91.9621 89.8622 91.5227C89.8546 91.1288 89.6804 90.8144 89.3395 90.5795C88.9986 90.3371 88.4645 90.1477 87.7372 90.0114L84.6918 89.4318C82.9418 89.1136 81.6387 88.5265 80.7827 87.6705C79.9266 86.8068 79.5024 85.7083 79.5099 84.375C79.5024 83.2083 79.813 82.2121 80.4418 81.3864C81.0705 80.553 81.9645 79.9167 83.1236 79.4773C84.2827 79.0379 85.6501 78.8182 87.2259 78.8182C89.5895 78.8182 91.4531 79.3144 92.8168 80.3068C94.1804 81.2917 94.9342 82.6477 95.0781 84.375ZM108.098 79.0455V83.1364H97.0866V79.0455H108.098ZM99.3935 74.8636H104.95V91.0114C104.95 91.3523 105.003 91.6288 105.109 91.8409C105.223 92.0455 105.386 92.1932 105.598 92.2841C105.81 92.3674 106.064 92.4091 106.359 92.4091C106.571 92.4091 106.795 92.3902 107.03 92.3523C107.272 92.3068 107.454 92.2689 107.575 92.2386L108.416 96.25C108.151 96.3258 107.776 96.4205 107.291 96.5341C106.814 96.6477 106.242 96.7197 105.575 96.75C104.272 96.8106 103.155 96.6591 102.223 96.2955C101.299 95.9242 100.59 95.3485 100.098 94.5682C99.6132 93.7879 99.3783 92.8068 99.3935 91.625V74.8636ZM110.933 96.5V79.0455H116.331V82.2273H116.513C116.831 81.0758 117.35 80.2197 118.07 79.6591C118.789 79.0909 119.626 78.8068 120.581 78.8068C120.839 78.8068 121.104 78.8258 121.376 78.8636C121.649 78.8939 121.903 78.9432 122.138 79.0114V83.8409C121.873 83.75 121.524 83.678 121.092 83.625C120.668 83.572 120.289 83.5455 119.956 83.5455C119.297 83.5455 118.702 83.6932 118.172 83.9886C117.649 84.2765 117.236 84.6818 116.933 85.2045C116.638 85.7197 116.49 86.3258 116.49 87.0227V96.5H110.933ZM135.663 88.9659V79.0455H141.209V96.5H135.913V93.25H135.732C135.345 94.3182 134.686 95.1667 133.754 95.7955C132.83 96.4167 131.713 96.7273 130.402 96.7273C129.213 96.7273 128.167 96.4545 127.266 95.9091C126.364 95.3636 125.663 94.6023 125.163 93.625C124.663 92.6402 124.41 91.4886 124.402 90.1705V79.0455H129.959V89.0795C129.966 90.0265 130.216 90.7727 130.709 91.3182C131.201 91.8636 131.872 92.1364 132.72 92.1364C133.273 92.1364 133.769 92.0152 134.209 91.7727C134.656 91.5227 135.008 91.1629 135.266 90.6932C135.531 90.2159 135.663 89.6402 135.663 88.9659ZM154.598 79.0455V83.1364H143.587V79.0455H154.598ZM145.893 74.8636H151.45V91.0114C151.45 91.3523 151.503 91.6288 151.609 91.8409C151.723 92.0455 151.886 92.1932 152.098 92.2841C152.31 92.3674 152.564 92.4091 152.859 92.4091C153.071 92.4091 153.295 92.3902 153.53 92.3523C153.772 92.3068 153.954 92.2689 154.075 92.2386L154.916 96.25C154.651 96.3258 154.276 96.4205 153.791 96.5341C153.314 96.6477 152.742 96.7197 152.075 96.75C150.772 96.8106 149.655 96.6591 148.723 96.2955C147.799 95.9242 147.09 95.3485 146.598 94.5682C146.113 93.7879 145.878 92.8068 145.893 91.625V74.8636ZM168.695 88.9659V79.0455H174.24V96.5H168.945V93.25H168.763C168.376 94.3182 167.717 95.1667 166.786 95.7955C165.861 96.4167 164.744 96.7273 163.433 96.7273C162.244 96.7273 161.198 96.4545 160.297 95.9091C159.395 95.3636 158.695 94.6023 158.195 93.625C157.695 92.6402 157.441 91.4886 157.433 90.1705V79.0455H162.99V89.0795C162.998 90.0265 163.248 90.7727 163.74 91.3182C164.232 91.8636 164.903 92.1364 165.751 92.1364C166.304 92.1364 166.801 92.0152 167.24 91.7727C167.687 91.5227 168.039 91.1629 168.297 90.6932C168.562 90.2159 168.695 89.6402 168.695 88.9659ZM177.777 96.5V79.0455H183.175V82.2273H183.357C183.675 81.0758 184.194 80.2197 184.913 79.6591C185.633 79.0909 186.47 78.8068 187.425 78.8068C187.682 78.8068 187.947 78.8258 188.22 78.8636C188.493 78.8939 188.747 78.9432 188.982 79.0114V83.8409C188.716 83.75 188.368 83.678 187.936 83.625C187.512 83.572 187.133 83.5455 186.8 83.5455C186.141 83.5455 185.546 83.6932 185.016 83.9886C184.493 84.2765 184.08 84.6818 183.777 85.2045C183.482 85.7197 183.334 86.3258 183.334 87.0227V96.5H177.777ZM195.51 96.7955C194.396 96.7955 193.408 96.6098 192.544 96.2386C191.688 95.8598 191.01 95.2917 190.51 94.5341C190.018 93.7689 189.771 92.8106 189.771 91.6591C189.771 90.6894 189.942 89.8712 190.283 89.2045C190.624 88.5379 191.093 87.9962 191.692 87.5795C192.29 87.1629 192.98 86.8485 193.76 86.6364C194.54 86.4167 195.374 86.2689 196.26 86.1932C197.252 86.1023 198.052 86.0076 198.658 85.9091C199.264 85.803 199.703 85.6553 199.976 85.4659C200.256 85.2689 200.396 84.9924 200.396 84.6364V84.5795C200.396 83.9962 200.196 83.5455 199.794 83.2273C199.393 82.9091 198.851 82.75 198.169 82.75C197.434 82.75 196.843 82.9091 196.396 83.2273C195.949 83.5455 195.665 83.9848 195.544 84.5455L190.419 84.3636C190.571 83.303 190.961 82.3561 191.589 81.5227C192.226 80.6818 193.097 80.0227 194.203 79.5455C195.317 79.0606 196.654 78.8182 198.214 78.8182C199.328 78.8182 200.355 78.9508 201.294 79.2159C202.233 79.4735 203.052 79.8523 203.749 80.3523C204.446 80.8447 204.983 81.4508 205.362 82.1705C205.749 82.8902 205.942 83.7121 205.942 84.6364V96.5H200.714V94.0682H200.578C200.268 94.6591 199.87 95.1591 199.385 95.5682C198.908 95.9773 198.343 96.2841 197.692 96.4886C197.048 96.6932 196.321 96.7955 195.51 96.7955ZM197.226 93.1591C197.824 93.1591 198.362 93.0379 198.839 92.7955C199.324 92.553 199.711 92.2197 199.999 91.7955C200.286 91.3636 200.43 90.8636 200.43 90.2955V88.6364C200.271 88.7197 200.078 88.7955 199.851 88.8636C199.631 88.9318 199.389 88.9962 199.124 89.0568C198.858 89.1174 198.586 89.1705 198.305 89.2159C198.025 89.2614 197.756 89.303 197.499 89.3409C196.976 89.4242 196.529 89.553 196.158 89.7273C195.794 89.9015 195.514 90.1288 195.317 90.4091C195.127 90.6818 195.033 91.0076 195.033 91.3864C195.033 91.9621 195.237 92.4015 195.646 92.7045C196.063 93.0076 196.589 93.1591 197.226 93.1591ZM214.896 73.2273V96.5H209.339V73.2273H214.896Z" fill="black"/>
</svg>
