<svg width="275" height="170" viewBox="0 0 275 170" fill="none" xmlns="http://www.w3.org/2000/svg">
<rect width="275" height="170" fill="white"/>
<path d="M50.6693 97.5V72.7727H67.5486V77.6264H56.6459V82.6974H66.474V87.5632H56.6459V97.5H50.6693ZM70.558 97.5V78.9545H76.4621V97.5H70.558ZM73.5161 76.7933C72.687 76.7933 71.9746 76.5196 71.379 75.9723C70.7834 75.4169 70.4855 74.7488 70.4855 73.968C70.4855 73.1953 70.7834 72.5353 71.379 71.9879C71.9746 71.4325 72.687 71.1548 73.5161 71.1548C74.3532 71.1548 75.0655 71.4325 75.6531 71.9879C76.2488 72.5353 76.5466 73.1953 76.5466 73.968C76.5466 74.7488 76.2488 75.4169 75.6531 75.9723C75.0655 76.5196 74.3532 76.7933 73.5161 76.7933ZM86.1242 86.9233V97.5H80.2201V78.9545H85.8344V82.3594H86.0397C86.4502 81.2244 87.1505 80.335 88.1405 79.6911C89.1306 79.0391 90.3098 78.7131 91.6782 78.7131C92.9822 78.7131 94.1131 79.0069 95.0709 79.5945C96.0368 80.174 96.7854 80.987 97.3167 82.0334C97.856 83.0717 98.1216 84.2872 98.1135 85.6797V97.5H92.2094V86.8388C92.2175 85.8085 91.9559 85.0036 91.4246 84.424C90.9014 83.8445 90.173 83.5547 89.2393 83.5547C88.6195 83.5547 88.0721 83.6915 87.5972 83.9652C87.1304 84.2308 86.7681 84.6132 86.5106 85.1122C86.261 85.6113 86.1323 86.215 86.1242 86.9233ZM106.997 97.8139C105.814 97.8139 104.763 97.6167 103.846 97.2223C102.936 96.8198 102.216 96.2161 101.684 95.4112C101.161 94.5982 100.9 93.58 100.9 92.3565C100.9 91.3262 101.081 90.4569 101.443 89.7486C101.805 89.0402 102.304 88.4647 102.94 88.022C103.576 87.5793 104.308 87.2453 105.138 87.0199C105.967 86.7865 106.852 86.6295 107.794 86.549C108.848 86.4524 109.697 86.3518 110.341 86.2472C110.985 86.1345 111.452 85.9775 111.742 85.7763C112.04 85.567 112.189 85.2732 112.189 84.8949V84.8345C112.189 84.2147 111.975 83.7358 111.549 83.3977C111.122 83.0597 110.547 82.8906 109.822 82.8906C109.041 82.8906 108.414 83.0597 107.939 83.3977C107.464 83.7358 107.162 84.2027 107.033 84.7983L101.588 84.6051C101.749 83.4782 102.163 82.4721 102.831 81.5866C103.508 80.6932 104.433 79.9929 105.608 79.4858C106.792 78.9706 108.212 78.7131 109.87 78.7131C111.054 78.7131 112.144 78.8539 113.142 79.1357C114.141 79.4093 115.01 79.8118 115.75 80.343C116.491 80.8662 117.062 81.5102 117.465 82.2749C117.875 83.0395 118.081 83.9129 118.081 84.8949V97.5H112.527V94.9162H112.382C112.052 95.544 111.629 96.0753 111.114 96.5099C110.607 96.9446 110.007 97.2706 109.315 97.4879C108.631 97.7053 107.858 97.8139 106.997 97.8139ZM108.82 93.9503C109.456 93.9503 110.027 93.8215 110.535 93.5639C111.05 93.3063 111.46 92.9522 111.766 92.5014C112.072 92.0426 112.225 91.5114 112.225 90.9077V89.1449C112.056 89.2334 111.851 89.3139 111.609 89.3864C111.376 89.4588 111.118 89.5272 110.836 89.5916C110.555 89.656 110.265 89.7124 109.967 89.7607C109.669 89.8089 109.383 89.8532 109.11 89.8935C108.554 89.982 108.08 90.1188 107.685 90.304C107.299 90.4891 107.001 90.7306 106.792 91.0284C106.59 91.3182 106.49 91.6643 106.49 92.0668C106.49 92.6785 106.707 93.1454 107.142 93.4673C107.584 93.7893 108.144 93.9503 108.82 93.9503ZM127.595 86.9233V97.5H121.691V78.9545H127.305V82.3594H127.51C127.921 81.2244 128.621 80.335 129.611 79.6911C130.601 79.0391 131.781 78.7131 133.149 78.7131C134.453 78.7131 135.584 79.0069 136.542 79.5945C137.508 80.174 138.256 80.987 138.787 82.0334C139.327 83.0717 139.592 84.2872 139.584 85.6797V97.5H133.68V86.8388C133.688 85.8085 133.427 85.0036 132.895 84.424C132.372 83.8445 131.644 83.5547 130.71 83.5547C130.09 83.5547 129.543 83.6915 129.068 83.9652C128.601 84.2308 128.239 84.6132 127.981 85.1122C127.732 85.6113 127.603 86.215 127.595 86.9233ZM151.897 97.8501C149.941 97.8501 148.262 97.4477 146.862 96.6428C145.469 95.8378 144.399 94.719 143.65 93.2862C142.902 91.8454 142.527 90.1792 142.527 88.2876C142.527 86.388 142.902 84.7218 143.65 83.2891C144.407 81.8482 145.481 80.7254 146.874 79.9205C148.274 79.1155 149.945 78.7131 151.885 78.7131C153.599 78.7131 155.092 79.023 156.364 79.6428C157.644 80.2625 158.642 81.1399 159.358 82.2749C160.083 83.4018 160.465 84.7259 160.505 86.2472H154.987C154.875 85.2973 154.553 84.5528 154.022 84.0135C153.498 83.4742 152.814 83.2045 151.969 83.2045C151.285 83.2045 150.685 83.3977 150.17 83.7841C149.655 84.1624 149.252 84.7259 148.963 85.4744C148.681 86.215 148.54 87.1326 148.54 88.2273C148.54 89.322 148.681 90.2476 148.963 91.0043C149.252 91.7528 149.655 92.3203 150.17 92.7067C150.685 93.085 151.285 93.2741 151.969 93.2741C152.516 93.2741 152.999 93.1574 153.418 92.924C153.844 92.6906 154.195 92.3485 154.468 91.8977C154.742 91.4389 154.915 90.8835 154.987 90.2315H160.505C160.449 91.7609 160.067 93.0971 159.358 94.2401C158.658 95.383 157.672 96.2725 156.4 96.9084C155.136 97.5362 153.635 97.8501 151.897 97.8501ZM172.196 97.8501C170.256 97.8501 168.582 97.4678 167.173 96.7031C165.772 95.9304 164.694 94.8317 163.937 93.407C163.189 91.9742 162.814 90.2718 162.814 88.2997C162.814 86.384 163.193 84.7098 163.949 83.277C164.706 81.8362 165.772 80.7173 167.149 79.9205C168.525 79.1155 170.147 78.7131 172.015 78.7131C173.335 78.7131 174.542 78.9183 175.637 79.3288C176.732 79.7393 177.677 80.3471 178.474 81.152C179.271 81.9569 179.891 82.951 180.334 84.1342C180.776 85.3094 180.998 86.6577 180.998 88.179V89.652H164.879V86.223H175.504C175.496 85.5952 175.347 85.0357 175.057 84.5447C174.767 84.0537 174.369 83.6714 173.862 83.3977C173.363 83.116 172.787 82.9751 172.135 82.9751C171.475 82.9751 170.884 83.1241 170.361 83.4219C169.837 83.7116 169.423 84.1101 169.117 84.6172C168.811 85.1162 168.65 85.6837 168.634 86.3196V89.8089C168.634 90.5656 168.783 91.2296 169.081 91.8011C169.379 92.3646 169.801 92.8033 170.348 93.1172C170.896 93.4311 171.548 93.5881 172.304 93.5881C172.828 93.5881 173.303 93.5156 173.729 93.3707C174.156 93.2259 174.522 93.0125 174.828 92.7308C175.134 92.4491 175.363 92.103 175.516 91.6925L180.937 91.8494C180.712 93.0649 180.217 94.1233 179.452 95.0249C178.696 95.9183 177.701 96.6146 176.47 97.1136C175.238 97.6046 173.814 97.8501 172.196 97.8501ZM184.013 97.5V78.9545H189.917V97.5H184.013ZM186.971 76.7933C186.142 76.7933 185.43 76.5196 184.834 75.9723C184.238 75.4169 183.941 74.7488 183.941 73.968C183.941 73.1953 184.238 72.5353 184.834 71.9879C185.43 71.4325 186.142 71.1548 186.971 71.1548C187.808 71.1548 188.521 71.4325 189.108 71.9879C189.704 72.5353 190.002 73.1953 190.002 73.968C190.002 74.7488 189.704 75.4169 189.108 75.9723C188.521 76.5196 187.808 76.7933 186.971 76.7933ZM193.675 97.5V78.9545H199.41V82.3352H199.603C199.941 81.1117 200.493 80.2022 201.258 79.6065C202.022 79.0028 202.912 78.701 203.926 78.701C204.2 78.701 204.481 78.7211 204.771 78.7614C205.061 78.7936 205.33 78.8459 205.58 78.9183V84.0497C205.298 83.9531 204.928 83.8767 204.469 83.8203C204.018 83.764 203.616 83.7358 203.262 83.7358C202.562 83.7358 201.93 83.8928 201.366 84.2067C200.811 84.5125 200.372 84.9432 200.05 85.4986C199.736 86.0459 199.579 86.6899 199.579 87.4304V97.5H193.675ZM215.68 97.8501C213.732 97.8501 212.058 97.4517 210.657 96.6548C209.265 95.8499 208.19 94.7311 207.433 93.2983C206.685 91.8575 206.31 90.1873 206.31 88.2876C206.31 86.38 206.685 84.7098 207.433 83.277C208.19 81.8362 209.265 80.7173 210.657 79.9205C212.058 79.1155 213.732 78.7131 215.68 78.7131C217.628 78.7131 219.298 79.1155 220.69 79.9205C222.091 80.7173 223.166 81.8362 223.914 83.277C224.671 84.7098 225.049 86.38 225.049 88.2876C225.049 90.1873 224.671 91.8575 223.914 93.2983C223.166 94.7311 222.091 95.8499 220.69 96.6548C219.298 97.4517 217.628 97.8501 215.68 97.8501ZM215.716 93.3949C216.424 93.3949 217.024 93.1776 217.515 92.7429C218.006 92.3082 218.38 91.7045 218.638 90.9318C218.903 90.1591 219.036 89.2656 219.036 88.2514C219.036 87.2211 218.903 86.3196 218.638 85.5469C218.38 84.7741 218.006 84.1705 217.515 83.7358C217.024 83.3011 216.424 83.0838 215.716 83.0838C214.984 83.0838 214.364 83.3011 213.857 83.7358C213.358 84.1705 212.975 84.7741 212.71 85.5469C212.452 86.3196 212.323 87.2211 212.323 88.2514C212.323 89.2656 212.452 90.1591 212.71 90.9318C212.975 91.7045 213.358 92.3082 213.857 92.7429C214.364 93.1776 214.984 93.3949 215.716 93.3949Z" fill="black"/>
</svg>
