<svg width="275" height="170" viewBox="0 0 275 170" fill="none" xmlns="http://www.w3.org/2000/svg">
<rect width="275" height="170" fill="white"/>
<path d="M14.9155 102V67.0909H38.745V73.9432H23.353V81.1023H37.228V87.9716H23.353V102H14.9155ZM42.9936 102V75.8182H51.3288V102H42.9936ZM47.1697 72.767C45.9993 72.767 44.9936 72.3807 44.1527 71.608C43.3118 70.8239 42.8913 69.8807 42.8913 68.7784C42.8913 67.6875 43.3118 66.7557 44.1527 65.983C44.9936 65.1989 45.9993 64.8068 47.1697 64.8068C48.3516 64.8068 49.3572 65.1989 50.1868 65.983C51.0277 66.7557 51.4482 67.6875 51.4482 68.7784C51.4482 69.8807 51.0277 70.8239 50.1868 71.608C49.3572 72.3807 48.3516 72.767 47.1697 72.767ZM64.9695 87.0682V102H56.6342V75.8182H64.5604V80.625H64.8501C65.4297 79.0227 66.4183 77.767 67.8161 76.858C69.2138 75.9375 70.8786 75.4773 72.8104 75.4773C74.6513 75.4773 76.2479 75.892 77.6001 76.7216C78.9638 77.5398 80.0206 78.6875 80.7706 80.1648C81.532 81.6307 81.907 83.3466 81.8956 85.3125V102H73.5604V86.9489C73.5717 85.4943 73.2024 84.358 72.4524 83.5398C71.7138 82.7216 70.6854 82.3125 69.3672 82.3125C68.4922 82.3125 67.7195 82.5057 67.049 82.892C66.3899 83.267 65.8786 83.8068 65.5149 84.5114C65.1626 85.2159 64.9808 86.0682 64.9695 87.0682ZM94.4368 102.443C92.7663 102.443 91.2834 102.165 89.9879 101.608C88.7038 101.04 87.6868 100.187 86.9368 99.0511C86.1982 97.9034 85.8288 96.4659 85.8288 94.7386C85.8288 93.2841 86.0845 92.0568 86.5959 91.0568C87.1072 90.0568 87.8118 89.2443 88.7095 88.6193C89.6072 87.9943 90.6413 87.5227 91.8118 87.2045C92.9822 86.875 94.2322 86.6534 95.5618 86.5398C97.0504 86.4034 98.2493 86.2614 99.1584 86.1136C100.067 85.9545 100.727 85.733 101.136 85.4489C101.556 85.1534 101.766 84.7386 101.766 84.2045V84.1193C101.766 83.2443 101.465 82.5682 100.863 82.0909C100.261 81.6136 99.4482 81.375 98.4254 81.375C97.3232 81.375 96.4368 81.6136 95.7663 82.0909C95.0959 82.5682 94.6697 83.2273 94.4879 84.0682L86.8004 83.7955C87.0277 82.2045 87.6129 80.7841 88.5561 79.5341C89.5107 78.2727 90.8175 77.2841 92.4766 76.5682C94.147 75.8409 96.1527 75.4773 98.4936 75.4773C100.164 75.4773 101.704 75.6761 103.113 76.0739C104.522 76.4602 105.749 77.0284 106.795 77.7784C107.84 78.517 108.647 79.4261 109.215 80.5057C109.795 81.5852 110.085 82.8182 110.085 84.2045V102H102.244V98.3523H102.039C101.573 99.2386 100.977 99.9886 100.249 100.602C99.5334 101.216 98.6868 101.676 97.7095 101.983C96.7436 102.29 95.6527 102.443 94.4368 102.443ZM97.0107 96.9886C97.9084 96.9886 98.7152 96.8068 99.4311 96.4432C100.158 96.0795 100.738 95.5795 101.17 94.9432C101.602 94.2955 101.817 93.5455 101.817 92.6932V90.2045C101.579 90.3295 101.289 90.4432 100.948 90.5455C100.619 90.6477 100.255 90.7443 99.8572 90.8352C99.4595 90.9261 99.0504 91.0057 98.63 91.0739C98.2095 91.142 97.8061 91.2045 97.4197 91.2614C96.6357 91.3864 95.9652 91.5795 95.4084 91.8409C94.8629 92.1023 94.4425 92.4432 94.147 92.8636C93.8629 93.2727 93.7209 93.7614 93.7209 94.3295C93.7209 95.1932 94.0277 95.8523 94.6413 96.3068C95.2663 96.7614 96.0561 96.9886 97.0107 96.9886ZM123.516 87.0682V102H115.181V75.8182H123.107V80.625H123.397C123.977 79.0227 124.965 77.767 126.363 76.858C127.761 75.9375 129.425 75.4773 131.357 75.4773C133.198 75.4773 134.795 75.892 136.147 76.7216C137.511 77.5398 138.567 78.6875 139.317 80.1648C140.079 81.6307 140.454 83.3466 140.442 85.3125V102H132.107V86.9489C132.119 85.4943 131.749 84.358 130.999 83.5398C130.261 82.7216 129.232 82.3125 127.914 82.3125C127.039 82.3125 126.266 82.5057 125.596 82.892C124.937 83.267 124.425 83.8068 124.062 84.5114C123.71 85.2159 123.528 86.0682 123.516 87.0682ZM157.825 102.494C155.063 102.494 152.694 101.926 150.717 100.79C148.751 99.6534 147.239 98.0739 146.183 96.0511C145.126 94.017 144.597 91.6648 144.597 88.9943C144.597 86.3125 145.126 83.9602 146.183 81.9375C147.251 79.9034 148.768 78.3182 150.734 77.1818C152.711 76.0455 155.069 75.4773 157.808 75.4773C160.228 75.4773 162.336 75.9148 164.131 76.7898C165.938 77.6648 167.347 78.9034 168.359 80.5057C169.381 82.0966 169.921 83.9659 169.978 86.1136H162.188C162.029 84.7727 161.575 83.7216 160.825 82.9602C160.086 82.1989 159.12 81.8182 157.927 81.8182C156.961 81.8182 156.114 82.0909 155.387 82.6364C154.66 83.1705 154.092 83.9659 153.683 85.0227C153.285 86.0682 153.086 87.3636 153.086 88.9091C153.086 90.4545 153.285 91.7614 153.683 92.8295C154.092 93.8864 154.66 94.6875 155.387 95.233C156.114 95.767 156.961 96.0341 157.927 96.0341C158.7 96.0341 159.381 95.8693 159.972 95.5398C160.575 95.2102 161.069 94.7273 161.455 94.0909C161.842 93.4432 162.086 92.6591 162.188 91.7386H169.978C169.898 93.8977 169.359 95.7841 168.359 97.3977C167.37 99.0114 165.978 100.267 164.183 101.165C162.398 102.051 160.279 102.494 157.825 102.494ZM186.482 102.494C183.744 102.494 181.38 101.955 179.391 100.875C177.414 99.7841 175.891 98.233 174.823 96.2216C173.766 94.1989 173.238 91.7955 173.238 89.0114C173.238 86.3068 173.772 83.9432 174.84 81.9205C175.908 79.8864 177.414 78.3068 179.357 77.1818C181.3 76.0455 183.59 75.4773 186.227 75.4773C188.09 75.4773 189.795 75.767 191.34 76.3466C192.886 76.9261 194.221 77.7841 195.346 78.9205C196.471 80.0568 197.346 81.4602 197.971 83.1307C198.596 84.7898 198.908 86.6932 198.908 88.8409V90.9205H176.153V86.0795H191.153C191.141 85.1932 190.931 84.4034 190.522 83.7102C190.113 83.017 189.55 82.4773 188.835 82.0909C188.13 81.6932 187.317 81.4943 186.397 81.4943C185.465 81.4943 184.63 81.7045 183.891 82.125C183.153 82.5341 182.567 83.0966 182.136 83.8125C181.704 84.517 181.477 85.3182 181.454 86.2159V91.142C181.454 92.2102 181.664 93.1477 182.085 93.9545C182.505 94.75 183.102 95.3693 183.874 95.8125C184.647 96.2557 185.567 96.4773 186.636 96.4773C187.374 96.4773 188.045 96.375 188.647 96.1705C189.249 95.9659 189.766 95.6648 190.198 95.267C190.63 94.8693 190.954 94.3807 191.17 93.8011L198.823 94.0227C198.505 95.7386 197.806 97.233 196.727 98.5057C195.658 99.767 194.255 100.75 192.516 101.455C190.778 102.148 188.766 102.494 186.482 102.494ZM203.165 102V75.8182H211.501V102H203.165ZM207.342 72.767C206.171 72.767 205.165 72.3807 204.325 71.608C203.484 70.8239 203.063 69.8807 203.063 68.7784C203.063 67.6875 203.484 66.7557 204.325 65.983C205.165 65.1989 206.171 64.8068 207.342 64.8068C208.523 64.8068 209.529 65.1989 210.359 65.983C211.2 66.7557 211.62 67.6875 211.62 68.7784C211.62 69.8807 211.2 70.8239 210.359 71.608C209.529 72.3807 208.523 72.767 207.342 72.767ZM216.806 102V75.8182H224.903V80.5909H225.175C225.653 78.8636 226.431 77.5795 227.511 76.7386C228.59 75.8864 229.846 75.4602 231.278 75.4602C231.664 75.4602 232.062 75.4886 232.471 75.5455C232.88 75.5909 233.261 75.6648 233.613 75.767V83.0114C233.215 82.875 232.692 82.767 232.045 82.6875C231.408 82.608 230.84 82.5682 230.34 82.5682C229.352 82.5682 228.46 82.7898 227.664 83.233C226.88 83.6648 226.261 84.2727 225.806 85.0568C225.363 85.8295 225.141 86.7386 225.141 87.7841V102H216.806ZM247.871 102.494C245.121 102.494 242.758 101.932 240.781 100.807C238.815 99.6705 237.298 98.0909 236.229 96.0682C235.173 94.0341 234.644 91.6761 234.644 88.9943C234.644 86.3011 235.173 83.9432 236.229 81.9205C237.298 79.8864 238.815 78.3068 240.781 77.1818C242.758 76.0455 245.121 75.4773 247.871 75.4773C250.621 75.4773 252.979 76.0455 254.945 77.1818C256.923 78.3068 258.44 79.8864 259.496 81.9205C260.565 83.9432 261.099 86.3011 261.099 88.9943C261.099 91.6761 260.565 94.0341 259.496 96.0682C258.44 98.0909 256.923 99.6705 254.945 100.807C252.979 101.932 250.621 102.494 247.871 102.494ZM247.923 96.2045C248.923 96.2045 249.769 95.8977 250.462 95.2841C251.156 94.6705 251.684 93.8182 252.048 92.7273C252.423 91.6364 252.61 90.375 252.61 88.9432C252.61 87.4886 252.423 86.2159 252.048 85.125C251.684 84.0341 251.156 83.1818 250.462 82.5682C249.769 81.9545 248.923 81.6477 247.923 81.6477C246.888 81.6477 246.013 81.9545 245.298 82.5682C244.593 83.1818 244.053 84.0341 243.678 85.125C243.315 86.2159 243.133 87.4886 243.133 88.9432C243.133 90.375 243.315 91.6364 243.678 92.7273C244.053 93.8182 244.593 94.6705 245.298 95.2841C246.013 95.8977 246.888 96.2045 247.923 96.2045Z" fill="black"/>
</svg>
