<svg width="275" height="170" viewBox="0 0 275 170" fill="none" xmlns="http://www.w3.org/2000/svg">
<rect width="275" height="170" fill="white"/>
<path d="M16.5822 74.6364V95H12.8933V74.6364H16.5822ZM37.3113 74.6364V95H34.03L24.4348 81.1293H24.2658V95H20.5769V74.6364H23.878L33.4632 88.517H33.6422V74.6364H37.3113ZM41.3308 95V74.6364H54.3762V77.7287H45.0197V83.2571H53.4814V86.3494H45.0197V95H41.3308ZM57.737 95V74.6364H65.3734C66.9378 74.6364 68.2503 74.9081 69.3109 75.4517C70.3781 75.9953 71.1835 76.7576 71.7271 77.7386C72.2773 78.7131 72.5524 79.8499 72.5524 81.1491C72.5524 82.455 72.274 83.5885 71.7172 84.5497C71.167 85.5043 70.3549 86.2434 69.2811 86.767C68.2072 87.2841 66.8881 87.5426 65.3237 87.5426H59.8848V84.4801H64.8265C65.7413 84.4801 66.4904 84.3542 67.0737 84.1023C67.657 83.8437 68.0879 83.4692 68.3663 82.9787C68.6513 82.4815 68.7939 81.8717 68.7939 81.1491C68.7939 80.4266 68.6513 79.8101 68.3663 79.2997C68.0813 78.7827 67.6471 78.3916 67.0637 78.1264C66.4804 77.8546 65.728 77.7188 64.8066 77.7188H61.426V95H57.737ZM68.2569 85.7727L73.2981 95H69.1816L64.2299 85.7727H68.2569ZM78.563 95H74.6255L81.7946 74.6364H86.3485L93.5275 95H89.59L84.1511 78.8125H83.992L78.563 95ZM78.6923 87.0156H89.4309V89.9787H78.6923V87.0156ZM96.2097 95V74.6364H109.454V77.7287H99.8986V83.2571H108.768V86.3494H99.8986V91.9077H109.534V95H96.2097ZM124.284 80.2344C124.191 79.366 123.8 78.6899 123.111 78.206C122.428 77.7221 121.54 77.4801 120.446 77.4801C119.677 77.4801 119.018 77.5961 118.468 77.8281C117.917 78.0601 117.496 78.375 117.205 78.7727C116.913 79.1705 116.764 79.6245 116.757 80.1349C116.757 80.5592 116.853 80.9271 117.046 81.2386C117.244 81.5502 117.513 81.8153 117.851 82.0341C118.189 82.2462 118.564 82.4252 118.975 82.571C119.386 82.7169 119.8 82.8395 120.218 82.9389L122.127 83.4162C122.896 83.5952 123.635 83.8371 124.344 84.142C125.06 84.447 125.7 84.8314 126.263 85.2955C126.833 85.7595 127.284 86.3196 127.615 86.9759C127.947 87.6321 128.112 88.401 128.112 89.2827C128.112 90.4759 127.807 91.5265 127.198 92.4347C126.588 93.3362 125.706 94.0421 124.553 94.5526C123.406 95.0563 122.017 95.3082 120.387 95.3082C118.802 95.3082 117.427 95.063 116.26 94.5724C115.1 94.0819 114.192 93.366 113.536 92.4247C112.886 91.4834 112.535 90.3366 112.482 88.9844H116.111C116.164 89.6937 116.383 90.2836 116.767 90.7543C117.152 91.2249 117.652 91.5762 118.269 91.8082C118.892 92.0402 119.588 92.1562 120.357 92.1562C121.159 92.1562 121.861 92.0369 122.465 91.7983C123.075 91.553 123.552 91.215 123.896 90.7841C124.241 90.3466 124.417 89.8362 124.423 89.2528C124.417 88.7225 124.261 88.285 123.956 87.9403C123.651 87.589 123.224 87.2973 122.673 87.0653C122.13 86.8267 121.494 86.6146 120.764 86.429L118.448 85.8324C116.771 85.4015 115.445 84.7486 114.47 83.8736C113.503 82.992 113.019 81.822 113.019 80.3636C113.019 79.1638 113.343 78.1132 113.993 77.2116C114.649 76.3101 115.541 75.6108 116.668 75.1136C117.795 74.6098 119.071 74.358 120.496 74.358C121.941 74.358 123.207 74.6098 124.294 75.1136C125.388 75.6108 126.246 76.3035 126.869 77.1918C127.493 78.0734 127.814 79.0876 127.834 80.2344H124.284ZM130.506 77.7287V74.6364H146.753V77.7287H140.459V95H136.8V77.7287H130.506ZM149.885 95V74.6364H157.522C159.086 74.6364 160.399 74.9081 161.459 75.4517C162.527 75.9953 163.332 76.7576 163.876 77.7386C164.426 78.7131 164.701 79.8499 164.701 81.1491C164.701 82.455 164.422 83.5885 163.866 84.5497C163.315 85.5043 162.503 86.2434 161.43 86.767C160.356 87.2841 159.037 87.5426 157.472 87.5426H152.033V84.4801H156.975C157.89 84.4801 158.639 84.3542 159.222 84.1023C159.805 83.8437 160.236 83.4692 160.515 82.9787C160.8 82.4815 160.942 81.8717 160.942 81.1491C160.942 80.4266 160.8 79.8101 160.515 79.2997C160.23 78.7827 159.796 78.3916 159.212 78.1264C158.629 77.8546 157.876 77.7188 156.955 77.7188H153.574V95H149.885ZM160.405 85.7727L165.447 95H161.33L156.378 85.7727H160.405ZM180.933 74.6364H184.622V87.9403C184.622 89.3987 184.277 90.6813 183.588 91.7884C182.905 92.8954 181.944 93.7604 180.704 94.3835C179.465 95 178.016 95.3082 176.359 95.3082C174.695 95.3082 173.244 95 172.004 94.3835C170.765 93.7604 169.803 92.8954 169.121 91.7884C168.438 90.6813 168.096 89.3987 168.096 87.9403V74.6364H171.785V87.6321C171.785 88.4806 171.971 89.2363 172.342 89.8991C172.72 90.562 173.25 91.0824 173.933 91.4602C174.616 91.8314 175.425 92.017 176.359 92.017C177.294 92.017 178.103 91.8314 178.785 91.4602C179.475 91.0824 180.005 90.562 180.376 89.8991C180.747 89.2363 180.933 88.4806 180.933 87.6321V74.6364ZM187.737 77.7287V74.6364H203.984V77.7287H197.69V95H194.031V77.7287H187.737ZM219.953 74.6364H223.642V87.9403C223.642 89.3987 223.297 90.6813 222.607 91.7884C221.925 92.8954 220.963 93.7604 219.724 94.3835C218.484 95 217.036 95.3082 215.379 95.3082C213.715 95.3082 212.263 95 211.024 94.3835C209.784 93.7604 208.823 92.8954 208.14 91.7884C207.457 90.6813 207.116 89.3987 207.116 87.9403V74.6364H210.805V87.6321C210.805 88.4806 210.99 89.2363 211.362 89.8991C211.74 90.562 212.27 91.0824 212.953 91.4602C213.635 91.8314 214.444 92.017 215.379 92.017C216.313 92.017 217.122 91.8314 217.805 91.4602C218.494 91.0824 219.025 90.562 219.396 89.8991C219.767 89.2363 219.953 88.4806 219.953 87.6321V74.6364ZM227.651 95V74.6364H235.287C236.852 74.6364 238.164 74.9081 239.225 75.4517C240.292 75.9953 241.098 76.7576 241.641 77.7386C242.191 78.7131 242.466 79.8499 242.466 81.1491C242.466 82.455 242.188 83.5885 241.631 84.5497C241.081 85.5043 240.269 86.2434 239.195 86.767C238.121 87.2841 236.802 87.5426 235.238 87.5426H229.799V84.4801H234.741C235.655 84.4801 236.404 84.3542 236.988 84.1023C237.571 83.8437 238.002 83.4692 238.28 82.9787C238.565 82.4815 238.708 81.8717 238.708 81.1491C238.708 80.4266 238.565 79.8101 238.28 79.2997C237.995 78.7827 237.561 78.3916 236.978 78.1264C236.394 77.8546 235.642 77.7188 234.721 77.7188H231.34V95H227.651ZM238.171 85.7727L243.212 95H239.096L234.144 85.7727H238.171ZM248.477 95H244.54L251.709 74.6364H256.263L263.442 95H259.504L254.065 78.8125H253.906L248.477 95ZM248.606 87.0156H259.345V89.9787H248.606V87.0156Z" fill="black"/>
</svg>
