<svg width="275" height="170" viewBox="0 0 275 170" fill="none" xmlns="http://www.w3.org/2000/svg">
<rect width="275" height="170" fill="white"/>
<path d="M14.9963 74.6364V95H10.0744V74.6364H14.9963ZM35.4171 74.6364V95H31.2409L23.1373 83.2472H23.008V95H18.0861V74.6364H22.3219L30.3361 86.3693H30.5051V74.6364H35.4171ZM38.5119 95V74.6364H52.4125V78.6335H43.4338V82.8097H51.5275V86.8168H43.4338V95H38.5119ZM54.8908 95V74.6364H63.3027C64.8274 74.6364 66.1432 74.9115 67.2502 75.4616C68.3638 76.0052 69.2222 76.7874 69.8255 77.8082C70.4287 78.8224 70.7303 80.0256 70.7303 81.4176C70.7303 82.8295 70.4221 84.0294 69.8056 85.017C69.1891 85.9981 68.3141 86.7472 67.1806 87.2642C66.0471 87.7746 64.7047 88.0298 63.1536 88.0298H57.834V84.152H62.2388C62.9812 84.152 63.601 84.0559 64.0982 83.8636C64.602 83.6648 64.9831 83.3665 65.2417 82.9688C65.5002 82.5644 65.6294 82.0473 65.6294 81.4176C65.6294 80.7879 65.5002 80.2675 65.2417 79.8565C64.9831 79.4389 64.602 79.1274 64.0982 78.9219C63.5944 78.7098 62.9746 78.6037 62.2388 78.6037H59.8127V95H54.8908ZM66.3553 85.6932L71.4263 95H66.057L61.0854 85.6932H66.3553ZM77.8347 95H72.5449L79.4157 74.6364H85.9682L92.839 95H87.5492L82.7665 79.767H82.6074L77.8347 95ZM77.1287 86.9858H88.1855V90.7244H77.1287V86.9858ZM95.0314 95V74.6364H109.23V78.6335H99.9533V82.8097H108.504V86.8168H99.9533V91.0028H109.23V95H95.0314ZM123.32 80.7415C123.253 80.0123 122.959 79.4455 122.435 79.0412C121.918 78.6302 121.179 78.4247 120.218 78.4247C119.581 78.4247 119.051 78.5076 118.627 78.6733C118.202 78.839 117.884 79.0677 117.672 79.3594C117.46 79.6444 117.351 79.9725 117.344 80.3438C117.331 80.6487 117.39 80.9171 117.523 81.1491C117.662 81.3812 117.861 81.5866 118.119 81.7656C118.385 81.938 118.703 82.0904 119.074 82.223C119.445 82.3556 119.863 82.4716 120.327 82.571L122.077 82.9688C123.084 83.1875 123.973 83.4792 124.742 83.8438C125.517 84.2083 126.167 84.6425 126.691 85.1463C127.221 85.6501 127.622 86.2301 127.894 86.8864C128.165 87.5426 128.305 88.2784 128.311 89.0938C128.305 90.3797 127.98 91.4834 127.337 92.4048C126.694 93.3262 125.769 94.0322 124.563 94.5227C123.363 95.0133 121.914 95.2585 120.218 95.2585C118.514 95.2585 117.029 95.0033 115.763 94.4929C114.497 93.9825 113.512 93.2069 112.81 92.1662C112.107 91.1255 111.746 89.8097 111.726 88.2188H116.439C116.479 88.875 116.655 89.4219 116.966 89.8594C117.278 90.2969 117.705 90.6283 118.249 90.8537C118.799 91.0791 119.435 91.1918 120.158 91.1918C120.821 91.1918 121.384 91.1023 121.848 90.9233C122.319 90.7443 122.68 90.4957 122.932 90.1776C123.184 89.8594 123.313 89.4948 123.32 89.0838C123.313 88.6993 123.194 88.3712 122.962 88.0994C122.73 87.821 122.372 87.5824 121.888 87.3835C121.411 87.178 120.801 86.9891 120.058 86.8168L117.931 86.3196C116.167 85.9152 114.779 85.2623 113.764 84.3608C112.75 83.4527 112.246 82.2263 112.253 80.6818C112.246 79.4223 112.584 78.3187 113.267 77.3707C113.95 76.4228 114.895 75.6837 116.101 75.1534C117.307 74.6231 118.683 74.358 120.227 74.358C121.805 74.358 123.174 74.6264 124.334 75.1634C125.501 75.6937 126.405 76.4394 127.048 77.4006C127.691 78.3617 128.02 79.4754 128.033 80.7415H123.32ZM130.131 78.6335V74.6364H147.343V78.6335H141.168V95H136.316V78.6335H130.131ZM149.746 95V74.6364H158.158C159.683 74.6364 160.999 74.9115 162.106 75.4616C163.219 76.0052 164.078 76.7874 164.681 77.8082C165.284 78.8224 165.586 80.0256 165.586 81.4176C165.586 82.8295 165.278 84.0294 164.661 85.017C164.045 85.9981 163.17 86.7472 162.036 87.2642C160.903 87.7746 159.56 88.0298 158.009 88.0298H152.689V84.152H157.094C157.837 84.152 158.456 84.0559 158.954 83.8636C159.457 83.6648 159.839 83.3665 160.097 82.9688C160.356 82.5644 160.485 82.0473 160.485 81.4176C160.485 80.7879 160.356 80.2675 160.097 79.8565C159.839 79.4389 159.457 79.1274 158.954 78.9219C158.45 78.7098 157.83 78.6037 157.094 78.6037H154.668V95H149.746ZM161.211 85.6932L166.282 95H160.912L155.941 85.6932H161.211ZM180.605 74.6364H185.517V87.7713C185.517 89.2893 185.156 90.6117 184.433 91.7386C183.711 92.8589 182.703 93.7273 181.41 94.3438C180.118 94.9536 178.616 95.2585 176.906 95.2585C175.176 95.2585 173.665 94.9536 172.372 94.3438C171.079 93.7273 170.075 92.8589 169.359 91.7386C168.643 90.6117 168.285 89.2893 168.285 87.7713V74.6364H173.207V87.3438C173.207 88.0464 173.36 88.6728 173.665 89.223C173.976 89.7732 174.41 90.2041 174.967 90.5156C175.524 90.8272 176.17 90.983 176.906 90.983C177.642 90.983 178.285 90.8272 178.835 90.5156C179.392 90.2041 179.826 89.7732 180.138 89.223C180.449 88.6728 180.605 88.0464 180.605 87.3438V74.6364ZM187.936 78.6335V74.6364H205.147V78.6335H198.972V95H194.12V78.6335H187.936ZM219.871 74.6364H224.782V87.7713C224.782 89.2893 224.421 90.6117 223.699 91.7386C222.976 92.8589 221.969 93.7273 220.676 94.3438C219.383 94.9536 217.882 95.2585 216.172 95.2585C214.442 95.2585 212.93 94.9536 211.638 94.3438C210.345 93.7273 209.341 92.8589 208.625 91.7386C207.909 90.6117 207.551 89.2893 207.551 87.7713V74.6364H212.473V87.3438C212.473 88.0464 212.625 88.6728 212.93 89.223C213.242 89.7732 213.676 90.2041 214.233 90.5156C214.79 90.8272 215.436 90.983 216.172 90.983C216.907 90.983 217.55 90.8272 218.101 90.5156C218.657 90.2041 219.092 89.7732 219.403 89.223C219.715 88.6728 219.871 88.0464 219.871 87.3438V74.6364ZM227.867 95V74.6364H236.279C237.804 74.6364 239.12 74.9115 240.227 75.4616C241.34 76.0052 242.199 76.7874 242.802 77.8082C243.405 78.8224 243.707 80.0256 243.707 81.4176C243.707 82.8295 243.399 84.0294 242.782 85.017C242.166 85.9981 241.291 86.7472 240.157 87.2642C239.024 87.7746 237.681 88.0298 236.13 88.0298H230.811V84.152H235.215C235.958 84.152 236.578 84.0559 237.075 83.8636C237.579 83.6648 237.96 83.3665 238.218 82.9688C238.477 82.5644 238.606 82.0473 238.606 81.4176C238.606 80.7879 238.477 80.2675 238.218 79.8565C237.96 79.4389 237.579 79.1274 237.075 78.9219C236.571 78.7098 235.951 78.6037 235.215 78.6037H232.789V95H227.867ZM239.332 85.6932L244.403 95H239.034L234.062 85.6932H239.332ZM250.811 95H245.521L252.392 74.6364H258.945L265.816 95H260.526L255.743 79.767H255.584L250.811 95ZM250.105 86.9858H261.162V90.7244H250.105V86.9858Z" fill="black"/>
</svg>
