<svg width="275" height="170" viewBox="0 0 275 170" fill="none" xmlns="http://www.w3.org/2000/svg">
<rect width="275" height="170" fill="white"/>
<path d="M105.958 95V74.6364H109.647V91.9077H118.615V95H105.958ZM125.506 74.6364V95H121.817V74.6364H125.506ZM129.501 74.6364H134.015L140.06 89.392H140.299L146.344 74.6364H150.859V95H147.319V81.0099H147.13L141.502 94.9403H138.857L133.229 80.9801H133.04V95H129.501V74.6364ZM165.942 80.2344C165.85 79.366 165.459 78.6899 164.769 78.206C164.086 77.7221 163.198 77.4801 162.104 77.4801C161.335 77.4801 160.676 77.5961 160.126 77.8281C159.576 78.0601 159.155 78.375 158.863 78.7727C158.571 79.1705 158.422 79.6245 158.415 80.1349C158.415 80.5592 158.512 80.9271 158.704 81.2386C158.903 81.5502 159.171 81.8153 159.509 82.0341C159.847 82.2462 160.222 82.4252 160.633 82.571C161.044 82.7169 161.458 82.8395 161.876 82.9389L163.785 83.4162C164.554 83.5952 165.293 83.8371 166.002 84.142C166.718 84.447 167.358 84.8314 167.921 85.2955C168.491 85.7595 168.942 86.3196 169.273 86.9759C169.605 87.6321 169.771 88.401 169.771 89.2827C169.771 90.4759 169.466 91.5265 168.856 92.4347C168.246 93.3362 167.364 94.0421 166.211 94.5526C165.064 95.0563 163.675 95.3082 162.045 95.3082C160.46 95.3082 159.085 95.063 157.918 94.5724C156.758 94.0819 155.85 93.366 155.194 92.4247C154.544 91.4834 154.193 90.3366 154.14 88.9844H157.769C157.822 89.6937 158.041 90.2836 158.425 90.7543C158.81 91.2249 159.31 91.5762 159.927 91.8082C160.55 92.0402 161.246 92.1562 162.015 92.1562C162.817 92.1562 163.52 92.0369 164.123 91.7983C164.733 91.553 165.21 91.215 165.555 90.7841C165.899 90.3466 166.075 89.8362 166.082 89.2528C166.075 88.7225 165.919 88.285 165.614 87.9403C165.309 87.589 164.882 87.2973 164.332 87.0653C163.788 86.8267 163.152 86.6146 162.423 86.429L160.106 85.8324C158.429 85.4015 157.103 84.7486 156.129 83.8736C155.161 82.992 154.677 81.822 154.677 80.3636C154.677 79.1638 155.002 78.1132 155.651 77.2116C156.308 76.3101 157.199 75.6108 158.326 75.1136C159.453 74.6098 160.729 74.358 162.154 74.358C163.599 74.358 164.865 74.6098 165.952 75.1136C167.046 75.6108 167.905 76.3035 168.528 77.1918C169.151 78.0734 169.472 79.0876 169.492 80.2344H165.942Z" fill="black"/>
</svg>
