<svg width="275" height="170" viewBox="0 0 275 170" fill="none" xmlns="http://www.w3.org/2000/svg">
<rect width="275" height="170" fill="white"/>
<path d="M97.9173 97.5V72.7727H103.894V92.6463H114.181V97.5H97.9173ZM123.251 72.7727V97.5H117.275V72.7727H123.251ZM127.003 72.7727H134.405L140.683 88.0824H140.973L147.251 72.7727H154.652V97.5H148.833V82.3111H148.628L142.687 97.343H138.968L133.028 82.2266H132.823V97.5H127.003V72.7727ZM171.746 80.1861C171.666 79.3007 171.307 78.6125 170.671 78.1214C170.044 77.6224 169.146 77.3729 167.979 77.3729C167.206 77.3729 166.562 77.4735 166.047 77.6747C165.532 77.8759 165.146 78.1536 164.888 78.5078C164.63 78.8539 164.498 79.2524 164.49 79.7031C164.474 80.0734 164.546 80.3994 164.707 80.6811C164.876 80.9628 165.117 81.2124 165.431 81.4297C165.753 81.639 166.14 81.8241 166.59 81.9851C167.041 82.1461 167.548 82.2869 168.112 82.4077L170.237 82.8906C171.46 83.1562 172.539 83.5104 173.473 83.9531C174.414 84.3958 175.203 84.9231 175.839 85.5348C176.483 86.1465 176.97 86.8509 177.3 87.6477C177.63 88.4446 177.799 89.3381 177.807 90.3281C177.799 91.8897 177.405 93.2299 176.624 94.3487C175.843 95.4676 174.72 96.3248 173.255 96.9205C171.798 97.5161 170.04 97.8139 167.979 97.8139C165.91 97.8139 164.107 97.504 162.57 96.8842C161.032 96.2644 159.837 95.3227 158.984 94.0589C158.131 92.7952 157.692 91.1974 157.668 89.2656H163.391C163.439 90.0625 163.652 90.7266 164.031 91.2578C164.409 91.7891 164.928 92.1915 165.588 92.4652C166.256 92.7389 167.029 92.8757 167.907 92.8757C168.711 92.8757 169.396 92.767 169.959 92.5497C170.531 92.3324 170.969 92.0305 171.275 91.6442C171.581 91.2578 171.738 90.8151 171.746 90.3161C171.738 89.8492 171.593 89.4508 171.311 89.1207C171.03 88.7827 170.595 88.4929 170.007 88.2514C169.428 88.0019 168.687 87.7725 167.786 87.5632L165.202 86.9595C163.061 86.4685 161.375 85.6757 160.143 84.581C158.911 83.4782 158.3 81.9891 158.308 80.1136C158.3 78.5843 158.71 77.2441 159.539 76.093C160.368 74.942 161.515 74.0445 162.98 73.4006C164.445 72.7566 166.116 72.4347 167.991 72.4347C169.907 72.4347 171.569 72.7607 172.978 73.4126C174.394 74.0566 175.493 74.9621 176.274 76.1293C177.054 77.2964 177.453 78.6487 177.469 80.1861H171.746Z" fill="black"/>
</svg>
