<svg width="275" height="170" viewBox="0 0 275 170" fill="none" xmlns="http://www.w3.org/2000/svg">
<rect width="275" height="170" fill="white"/>
<path d="M33.5085 74.6364H38.0227L44.0682 89.392H44.3068L50.3523 74.6364H54.8665V95H51.3267V81.0099H51.1378L45.5099 94.9403H42.8651L37.2372 80.9801H37.0483V95H33.5085V74.6364ZM61.4986 95H57.5611L64.7301 74.6364H69.2841L76.4631 95H72.5256L67.0866 78.8125H66.9276L61.4986 95ZM61.6278 87.0156H72.3665V89.9787H61.6278V87.0156ZM95.8796 74.6364V95H92.5984L83.0032 81.1293H82.8342V95H79.1452V74.6364H82.4464L92.0316 88.517H92.2106V74.6364H95.8796ZM112.736 74.6364H116.425V87.9403C116.425 89.3987 116.08 90.6813 115.391 91.7884C114.708 92.8954 113.747 93.7604 112.507 94.3835C111.268 95 109.819 95.3082 108.162 95.3082C106.498 95.3082 105.046 95 103.807 94.3835C102.567 93.7604 101.606 92.8954 100.923 91.7884C100.241 90.6813 99.8991 89.3987 99.8991 87.9403V74.6364H103.588V87.6321C103.588 88.4806 103.774 89.2363 104.145 89.8991C104.523 90.562 105.053 91.0824 105.736 91.4602C106.419 91.8314 107.227 92.017 108.162 92.017C109.097 92.017 109.905 91.8314 110.588 91.4602C111.277 91.0824 111.808 90.562 112.179 89.8991C112.55 89.2363 112.736 88.4806 112.736 87.6321V74.6364ZM119.539 77.7287V74.6364H135.787V77.7287H129.493V95H125.833V77.7287H119.539ZM138.919 95V74.6364H152.163V77.7287H142.608V83.2571H151.477V86.3494H142.608V91.9077H152.243V95H138.919ZM172.661 74.6364V95H169.38L159.784 81.1293H159.615V95H155.926V74.6364H159.228L168.813 88.517H168.992V74.6364H172.661ZM194.111 81.5071H190.392C190.286 80.8973 190.09 80.357 189.805 79.8864C189.52 79.4091 189.166 79.0047 188.741 78.6733C188.317 78.3419 187.833 78.0933 187.29 77.9276C186.753 77.7552 186.173 77.669 185.55 77.669C184.443 77.669 183.462 77.9474 182.607 78.5043C181.751 79.0544 181.082 79.8632 180.598 80.9304C180.114 81.991 179.872 83.2869 179.872 84.8182C179.872 86.3759 180.114 87.6884 180.598 88.7557C181.089 89.8163 181.758 90.6184 182.607 91.1619C183.462 91.6989 184.439 91.9673 185.54 91.9673C186.15 91.9673 186.72 91.8878 187.25 91.7287C187.787 91.563 188.268 91.321 188.692 91.0028C189.123 90.6847 189.484 90.2936 189.776 89.8295C190.074 89.3655 190.279 88.8352 190.392 88.2386L194.111 88.2585C193.972 89.2263 193.67 90.1345 193.206 90.983C192.749 91.8314 192.149 92.5805 191.406 93.2301C190.664 93.8731 189.795 94.3769 188.801 94.7415C187.807 95.0994 186.703 95.2784 185.49 95.2784C183.7 95.2784 182.103 94.8641 180.697 94.0355C179.292 93.2069 178.185 92.0104 177.376 90.446C176.568 88.8816 176.163 87.0057 176.163 84.8182C176.163 82.6241 176.571 80.7481 177.386 79.1903C178.202 77.6259 179.312 76.4295 180.717 75.6009C182.123 74.7723 183.714 74.358 185.49 74.358C186.624 74.358 187.678 74.517 188.652 74.8352C189.626 75.1534 190.495 75.6207 191.257 76.2372C192.019 76.8471 192.646 77.5961 193.136 78.4844C193.634 79.366 193.958 80.3736 194.111 81.5071ZM184.446 94.9801H186.395L186.236 95.8253C186.859 95.9181 187.386 96.1567 187.817 96.5412C188.254 96.9323 188.473 97.4924 188.473 98.2216C188.48 99.1629 188.059 99.9186 187.21 100.489C186.362 101.059 185.152 101.344 183.581 101.344L183.541 99.5739C184.304 99.5739 184.91 99.4711 185.361 99.2656C185.812 99.0668 186.04 98.7486 186.047 98.3111C186.06 97.8868 185.901 97.5753 185.57 97.3764C185.245 97.1842 184.728 97.0516 184.018 96.9787L184.446 94.9801ZM199.858 95H195.92L203.089 74.6364H207.643L214.822 95H210.885L205.446 78.8125H205.287L199.858 95ZM199.987 87.0156H210.726V89.9787H199.987V87.0156ZM202.453 72.6278L200.266 72.5781C200.266 71.3982 200.571 70.4735 201.18 69.804C201.797 69.1345 202.549 68.7997 203.438 68.7997C203.868 68.7997 204.243 68.8726 204.561 69.0185C204.886 69.1577 205.181 69.3201 205.446 69.5057C205.711 69.6913 205.973 69.857 206.232 70.0028C206.49 70.142 206.775 70.2116 207.087 70.2116C207.464 70.2116 207.763 70.0691 207.982 69.7841C208.207 69.4991 208.323 69.1345 208.33 68.6903L210.467 68.7798C210.461 69.9664 210.152 70.8878 209.543 71.544C208.933 72.1937 208.187 72.5218 207.305 72.5284C206.821 72.5284 206.417 72.4588 206.092 72.3196C205.768 72.1738 205.482 72.008 205.237 71.8224C204.999 71.6368 204.757 71.4744 204.511 71.3352C204.266 71.1894 203.978 71.1165 203.646 71.1165C203.295 71.1165 203.007 71.2557 202.781 71.5341C202.562 71.8125 202.453 72.1771 202.453 72.6278ZM234.744 84.8182C234.744 87.0123 234.333 88.8916 233.511 90.456C232.695 92.0137 231.582 93.2069 230.17 94.0355C228.764 94.8641 227.17 95.2784 225.387 95.2784C223.604 95.2784 222.006 94.8641 220.594 94.0355C219.189 93.2003 218.076 92.0038 217.254 90.446C216.438 88.8816 216.031 87.0057 216.031 84.8182C216.031 82.6241 216.438 80.7481 217.254 79.1903C218.076 77.6259 219.189 76.4295 220.594 75.6009C222.006 74.7723 223.604 74.358 225.387 74.358C227.17 74.358 228.764 74.7723 230.17 75.6009C231.582 76.4295 232.695 77.6259 233.511 79.1903C234.333 80.7481 234.744 82.6241 234.744 84.8182ZM231.035 84.8182C231.035 83.2737 230.793 81.9711 230.309 80.9105C229.832 79.8433 229.169 79.0379 228.32 78.4943C227.472 77.9441 226.494 77.669 225.387 77.669C224.28 77.669 223.302 77.9441 222.454 78.4943C221.605 79.0379 220.939 79.8433 220.455 80.9105C219.978 81.9711 219.739 83.2737 219.739 84.8182C219.739 86.3627 219.978 87.6686 220.455 88.7358C220.939 89.7964 221.605 90.6018 222.454 91.152C223.302 91.6955 224.28 91.9673 225.387 91.9673C226.494 91.9673 227.472 91.6955 228.32 91.152C229.169 90.6018 229.832 89.7964 230.309 88.7358C230.793 87.6686 231.035 86.3627 231.035 84.8182Z" fill="black"/>
</svg>
