<svg width="275" height="170" viewBox="0 0 275 170" fill="none" xmlns="http://www.w3.org/2000/svg">
<rect width="275" height="170" fill="white"/>
<path d="M34.8615 74.6364H40.9567L46.1271 87.2443H46.3658L51.5362 74.6364H57.6314V95H52.8388V82.4915H52.6697L47.7777 94.8707H44.7152L39.8232 82.4219H39.6541V95H34.8615V74.6364ZM65.1062 95H59.8164L66.6871 74.6364H73.2397L80.1104 95H74.8207L70.038 79.767H69.8789L65.1062 95ZM64.4002 86.9858H75.457V90.7244H64.4002V86.9858ZM99.6339 74.6364V95H95.4577L87.354 83.2472H87.2248V95H82.3029V74.6364H86.5387L94.5529 86.3693H94.7219V74.6364H99.6339ZM115.048 74.6364H119.96V87.7713C119.96 89.2893 119.599 90.6117 118.876 91.7386C118.154 92.8589 117.146 93.7273 115.854 94.3438C114.561 94.9536 113.06 95.2585 111.349 95.2585C109.619 95.2585 108.108 94.9536 106.815 94.3438C105.523 93.7273 104.518 92.8589 103.803 91.7386C103.087 90.6117 102.729 89.2893 102.729 87.7713V74.6364H107.651V87.3438C107.651 88.0464 107.803 88.6728 108.108 89.223C108.42 89.7732 108.854 90.2041 109.411 90.5156C109.967 90.8272 110.614 90.983 111.349 90.983C112.085 90.983 112.728 90.8272 113.278 90.5156C113.835 90.2041 114.269 89.7732 114.581 89.223C114.893 88.6728 115.048 88.0464 115.048 87.3438V74.6364ZM122.379 78.6335V74.6364H139.591V78.6335H133.416V95H128.564V78.6335H122.379ZM141.994 95V74.6364H156.193V78.6335H146.916V82.8097H155.467V86.8168H146.916V91.0028H156.193V95H141.994ZM176.607 74.6364V95H172.43L164.327 83.2472H164.197V95H159.276V74.6364H163.511L171.526 86.3693H171.695V74.6364H176.607ZM198.186 82.0142H193.214C193.148 81.5038 193.012 81.0431 192.806 80.6321C192.601 80.2211 192.329 79.8698 191.991 79.5781C191.653 79.2865 191.252 79.0644 190.788 78.9119C190.331 78.7528 189.824 78.6733 189.267 78.6733C188.279 78.6733 187.427 78.9152 186.711 79.3991C186.002 79.883 185.455 80.5824 185.071 81.4972C184.693 82.4119 184.504 83.5189 184.504 84.8182C184.504 86.1705 184.696 87.304 185.081 88.2188C185.472 89.1269 186.019 89.813 186.721 90.277C187.431 90.7344 188.269 90.9631 189.237 90.9631C189.78 90.9631 190.274 90.8935 190.718 90.7543C191.169 90.6151 191.564 90.4129 191.902 90.1477C192.246 89.8759 192.528 89.5478 192.747 89.1634C192.972 88.7723 193.128 88.3314 193.214 87.8409L198.186 87.8707C198.1 88.7723 197.838 89.6605 197.4 90.5355C196.969 91.4105 196.376 92.2093 195.62 92.9318C194.865 93.6477 193.943 94.2178 192.856 94.642C191.776 95.0663 190.536 95.2784 189.137 95.2784C187.295 95.2784 185.644 94.8741 184.186 94.0653C182.734 93.25 181.587 92.0634 180.745 90.5057C179.904 88.9479 179.483 87.0521 179.483 84.8182C179.483 82.5777 179.91 80.6785 180.765 79.1207C181.62 77.563 182.777 76.3797 184.235 75.571C185.694 74.7623 187.328 74.358 189.137 74.358C190.37 74.358 191.511 74.5303 192.558 74.875C193.605 75.2131 194.527 75.7102 195.322 76.3665C196.118 77.0161 196.764 77.8149 197.261 78.7628C197.758 79.7107 198.066 80.7945 198.186 82.0142ZM188.074 94.8906H190.022L189.863 95.7855C190.592 95.8916 191.176 96.1534 191.613 96.571C192.051 96.9953 192.273 97.5455 192.279 98.2216C192.286 99.2557 191.792 100.071 190.798 100.668C189.81 101.271 188.435 101.572 186.672 101.572L186.652 99.5739C187.56 99.5739 188.262 99.4711 188.76 99.2656C189.257 99.0601 189.515 98.7486 189.535 98.331C189.555 97.9465 189.406 97.6383 189.088 97.4062C188.77 97.1809 188.276 97.0251 187.606 96.9389L188.074 94.8906ZM204.887 95H199.598L206.468 74.6364H213.021L219.892 95H214.602L209.819 79.767H209.66L204.887 95ZM204.181 86.9858H215.238V90.7244H204.181V86.9858ZM206.966 72.6378L204.44 72.6278C204.44 71.2756 204.758 70.2547 205.395 69.5653C206.038 68.8759 206.823 68.5312 207.751 68.5312C208.235 68.5312 208.649 68.6108 208.994 68.7699C209.345 68.9223 209.657 69.1013 209.929 69.3068C210.2 69.5123 210.452 69.6946 210.684 69.8537C210.916 70.0062 211.165 70.0824 211.43 70.0824C211.815 70.0824 212.096 69.9432 212.275 69.6648C212.461 69.3864 212.557 69.0118 212.564 68.5412L215.049 68.571C215.036 69.9034 214.708 70.9209 214.065 71.6236C213.429 72.3196 212.653 72.6742 211.738 72.6875C211.234 72.6941 210.807 72.6179 210.456 72.4588C210.111 72.2997 209.809 72.1174 209.551 71.9119C209.299 71.7064 209.057 71.5241 208.825 71.3651C208.593 71.206 208.338 71.1264 208.059 71.1264C207.728 71.1264 207.463 71.259 207.264 71.5241C207.065 71.7893 206.966 72.1605 206.966 72.6378ZM240.347 84.8182C240.347 87.0587 239.916 88.9579 239.055 90.5156C238.193 92.0734 237.026 93.2566 235.555 94.0653C234.09 94.8741 232.446 95.2784 230.623 95.2784C228.793 95.2784 227.146 94.8707 225.681 94.0554C224.216 93.2401 223.053 92.0568 222.191 90.5057C221.336 88.9479 220.908 87.0521 220.908 84.8182C220.908 82.5777 221.336 80.6785 222.191 79.1207C223.053 77.563 224.216 76.3797 225.681 75.571C227.146 74.7623 228.793 74.358 230.623 74.358C232.446 74.358 234.09 74.7623 235.555 75.571C237.026 76.3797 238.193 77.563 239.055 79.1207C239.916 80.6785 240.347 82.5777 240.347 84.8182ZM235.316 84.8182C235.316 83.4924 235.127 82.3722 234.749 81.4574C234.378 80.5426 233.841 79.8499 233.138 79.3793C232.442 78.9086 231.604 78.6733 230.623 78.6733C229.648 78.6733 228.81 78.9086 228.107 79.3793C227.405 79.8499 226.864 80.5426 226.487 81.4574C226.115 82.3722 225.93 83.4924 225.93 84.8182C225.93 86.1439 226.115 87.2642 226.487 88.179C226.864 89.0937 227.405 89.7865 228.107 90.2571C228.81 90.7277 229.648 90.9631 230.623 90.9631C231.604 90.9631 232.442 90.7277 233.138 90.2571C233.841 89.7865 234.378 89.0937 234.749 88.179C235.127 87.2642 235.316 86.1439 235.316 84.8182Z" fill="black"/>
</svg>
