<svg width="275" height="170" viewBox="0 0 275 170" fill="none" xmlns="http://www.w3.org/2000/svg">
<rect width="275" height="170" fill="white"/>
<path d="M85.573 74.6364H90.0872L96.1326 89.392H96.3713L102.417 74.6364H106.931V95H103.391V81.0099H103.202L97.5744 94.9403H94.9295L89.3017 80.9801H89.1127V95H85.573V74.6364ZM109.556 74.6364H113.722L118.704 83.6449H118.903L123.884 74.6364H128.05L120.643 87.4034V95H116.964V87.4034L109.556 74.6364ZM137.563 95H130.663V74.6364H137.703C139.724 74.6364 141.461 75.044 142.913 75.8594C144.371 76.6681 145.491 77.8314 146.274 79.3494C147.056 80.8674 147.447 82.6837 147.447 84.7983C147.447 86.9195 147.052 88.7424 146.264 90.267C145.481 91.7917 144.351 92.9616 142.873 93.777C141.401 94.5923 139.632 95 137.563 95ZM134.352 91.8082H137.384C138.803 91.8082 139.986 91.5497 140.934 91.0327C141.882 90.509 142.595 89.7301 143.072 88.696C143.549 87.6553 143.788 86.3561 143.788 84.7983C143.788 83.2405 143.549 81.9479 143.072 80.9205C142.595 79.8864 141.889 79.1141 140.954 78.6037C140.026 78.0866 138.873 77.8281 137.494 77.8281H134.352V91.8082ZM169.148 84.8182C169.148 87.0123 168.737 88.8916 167.915 90.456C167.1 92.0137 165.986 93.2069 164.574 94.0355C163.169 94.8641 161.575 95.2784 159.791 95.2784C158.008 95.2784 156.411 94.8641 154.999 94.0355C153.593 93.2003 152.48 92.0038 151.658 90.446C150.843 88.8816 150.435 87.0057 150.435 84.8182C150.435 82.6241 150.843 80.7481 151.658 79.1903C152.48 77.6259 153.593 76.4295 154.999 75.6009C156.411 74.7723 158.008 74.358 159.791 74.358C161.575 74.358 163.169 74.7723 164.574 75.6009C165.986 76.4295 167.1 77.6259 167.915 79.1903C168.737 80.7481 169.148 82.6241 169.148 84.8182ZM165.439 84.8182C165.439 83.2737 165.197 81.9711 164.713 80.9105C164.236 79.8433 163.573 79.0379 162.725 78.4943C161.876 77.9441 160.898 77.669 159.791 77.669C158.684 77.669 157.707 77.9441 156.858 78.4943C156.01 79.0379 155.343 79.8433 154.86 80.9105C154.382 81.9711 154.144 83.2737 154.144 84.8182C154.144 86.3627 154.382 87.6686 154.86 88.7358C155.343 89.7964 156.01 90.6018 156.858 91.152C157.707 91.6955 158.684 91.9673 159.791 91.9673C160.898 91.9673 161.876 91.6955 162.725 91.152C163.573 90.6018 164.236 89.7964 164.713 88.7358C165.197 87.6686 165.439 86.3627 165.439 84.8182ZM190.066 81.5071H186.347C186.241 80.8973 186.046 80.357 185.76 79.8864C185.475 79.4091 185.121 79.0047 184.697 78.6733C184.272 78.3419 183.788 78.0933 183.245 77.9276C182.708 77.7552 182.128 77.669 181.505 77.669C180.398 77.669 179.417 77.9474 178.562 78.5043C177.706 79.0544 177.037 79.8632 176.553 80.9304C176.069 81.991 175.827 83.2869 175.827 84.8182C175.827 86.3759 176.069 87.6884 176.553 88.7557C177.044 89.8163 177.713 90.6184 178.562 91.1619C179.417 91.6989 180.394 91.9673 181.495 91.9673C182.105 91.9673 182.675 91.8878 183.205 91.7287C183.742 91.563 184.223 91.321 184.647 91.0028C185.078 90.6847 185.439 90.2936 185.731 89.8295C186.029 89.3655 186.234 88.8352 186.347 88.2386L190.066 88.2585C189.927 89.2263 189.625 90.1345 189.161 90.983C188.704 91.8314 188.104 92.5805 187.361 93.2301C186.619 93.8731 185.751 94.3769 184.756 94.7415C183.762 95.0994 182.658 95.2784 181.445 95.2784C179.655 95.2784 178.058 94.8641 176.653 94.0355C175.247 93.2069 174.14 92.0104 173.331 90.446C172.523 88.8816 172.118 87.0057 172.118 84.8182C172.118 82.6241 172.526 80.7481 173.341 79.1903C174.157 77.6259 175.267 76.4295 176.672 75.6009C178.078 74.7723 179.669 74.358 181.445 74.358C182.579 74.358 183.633 74.517 184.607 74.8352C185.581 75.1534 186.45 75.6207 187.212 76.2372C187.974 76.8471 188.601 77.5961 189.091 78.4844C189.589 79.366 189.913 80.3736 190.066 81.5071Z" fill="black"/>
</svg>
