<svg width="275" height="170" viewBox="0 0 275 170" fill="none" xmlns="http://www.w3.org/2000/svg">
<rect width="275" height="170" fill="white"/>
<path d="M76.1051 73.2273H83.071L88.9801 87.6364H89.2528L95.1619 73.2273H102.128V96.5H96.6506V82.2045H96.4574L90.8665 96.3523H87.3665L81.7756 82.125H81.5824V96.5H76.1051V73.2273ZM104.477 73.2273H110.761L115.682 82.9659H115.886L120.807 73.2273H127.091L118.58 88.7273V96.5H112.989V88.7273L104.477 73.2273ZM138.051 96.5H129.449V73.2273H138.04C140.411 73.2273 142.453 73.6932 144.165 74.625C145.884 75.5492 147.21 76.8826 148.142 78.625C149.074 80.3598 149.54 82.4356 149.54 84.8523C149.54 87.2765 149.074 89.3598 148.142 91.1023C147.218 92.8447 145.896 94.1818 144.176 95.1136C142.456 96.0379 140.415 96.5 138.051 96.5ZM135.074 91.7045H137.835C139.138 91.7045 140.241 91.4848 141.142 91.0455C142.051 90.5985 142.737 89.875 143.199 88.875C143.669 87.8674 143.903 86.5265 143.903 84.8523C143.903 83.178 143.669 81.8447 143.199 80.8523C142.729 79.8523 142.036 79.1326 141.119 78.6932C140.21 78.2462 139.089 78.0227 137.756 78.0227H135.074V91.7045ZM174.79 84.8636C174.79 87.4242 174.297 89.5947 173.312 91.375C172.328 93.1553 170.994 94.5076 169.312 95.4318C167.638 96.3561 165.759 96.8182 163.676 96.8182C161.585 96.8182 159.703 96.3523 158.028 95.4205C156.354 94.4886 155.025 93.1364 154.04 91.3636C153.062 89.5833 152.574 87.4167 152.574 84.8636C152.574 82.303 153.062 80.1326 154.04 78.3523C155.025 76.572 156.354 75.2197 158.028 74.2955C159.703 73.3712 161.585 72.9091 163.676 72.9091C165.759 72.9091 167.638 73.3712 169.312 74.2955C170.994 75.2197 172.328 76.572 173.312 78.3523C174.297 80.1326 174.79 82.303 174.79 84.8636ZM169.04 84.8636C169.04 83.3485 168.824 82.0682 168.392 81.0227C167.968 79.9773 167.354 79.1856 166.551 78.6477C165.756 78.1098 164.797 77.8409 163.676 77.8409C162.563 77.8409 161.604 78.1098 160.801 78.6477C159.998 79.1856 159.381 79.9773 158.949 81.0227C158.525 82.0682 158.312 83.3485 158.312 84.8636C158.312 86.3788 158.525 87.6591 158.949 88.7045C159.381 89.75 159.998 90.5417 160.801 91.0795C161.604 91.6174 162.563 91.8864 163.676 91.8864C164.797 91.8864 165.756 91.6174 166.551 91.0795C167.354 90.5417 167.968 89.75 168.392 88.7045C168.824 87.6591 169.04 86.3788 169.04 84.8636ZM199.199 81.6591H193.517C193.441 81.0758 193.286 80.5492 193.051 80.0795C192.816 79.6098 192.506 79.2083 192.119 78.875C191.733 78.5417 191.275 78.2879 190.744 78.1136C190.222 77.9318 189.642 77.8409 189.006 77.8409C187.877 77.8409 186.903 78.1174 186.085 78.6705C185.275 79.2235 184.65 80.0227 184.21 81.0682C183.778 82.1136 183.562 83.3788 183.562 84.8636C183.562 86.4091 183.782 87.7045 184.222 88.75C184.669 89.7879 185.294 90.572 186.097 91.1023C186.907 91.625 187.866 91.8864 188.972 91.8864C189.593 91.8864 190.157 91.8068 190.665 91.6477C191.18 91.4886 191.631 91.2576 192.017 90.9545C192.411 90.6439 192.733 90.2689 192.983 89.8295C193.241 89.3826 193.419 88.8788 193.517 88.3182L199.199 88.3523C199.1 89.3826 198.801 90.3977 198.301 91.3977C197.809 92.3977 197.131 93.3106 196.267 94.1364C195.403 94.9545 194.35 95.6061 193.108 96.0909C191.873 96.5758 190.456 96.8182 188.858 96.8182C186.752 96.8182 184.866 96.3561 183.199 95.4318C181.54 94.5 180.229 93.1439 179.267 91.3636C178.305 89.5833 177.824 87.4167 177.824 84.8636C177.824 82.303 178.312 80.1326 179.29 78.3523C180.267 76.572 181.589 75.2197 183.256 74.2955C184.922 73.3712 186.79 72.9091 188.858 72.9091C190.267 72.9091 191.57 73.1061 192.767 73.5C193.964 73.8864 195.017 74.4545 195.926 75.2045C196.835 75.947 197.574 76.8598 198.142 77.9432C198.71 79.0265 199.062 80.2652 199.199 81.6591Z" fill="black"/>
</svg>
