<svg width="275" height="170" viewBox="0 0 275 170" fill="none" xmlns="http://www.w3.org/2000/svg">
<rect width="275" height="170" fill="white"/>
<path d="M109.225 74.6364H113.74L119.785 89.392H120.024L126.069 74.6364H130.583V95H127.044V81.0099H126.855L121.227 94.9403H118.582L112.954 80.9801H112.765V95H109.225V74.6364ZM134.6 95V74.6364H147.845V77.7287H138.289V83.2571H147.159V86.3494H138.289V91.9077H147.924V95H134.6ZM162.675 80.2344C162.582 79.366 162.191 78.6899 161.502 78.206C160.819 77.7221 159.931 77.4801 158.837 77.4801C158.068 77.4801 157.408 77.5961 156.858 77.8281C156.308 78.0601 155.887 78.375 155.595 78.7727C155.304 79.1705 155.155 79.6245 155.148 80.1349C155.148 80.5592 155.244 80.9271 155.436 81.2386C155.635 81.5502 155.904 81.8153 156.242 82.0341C156.58 82.2462 156.954 82.4252 157.365 82.571C157.776 82.7169 158.191 82.8395 158.608 82.9389L160.517 83.4162C161.286 83.5952 162.025 83.8371 162.735 84.142C163.45 84.447 164.09 84.8314 164.654 85.2955C165.224 85.7595 165.674 86.3196 166.006 86.9759C166.337 87.6321 166.503 88.401 166.503 89.2827C166.503 90.4759 166.198 91.5265 165.588 92.4347C164.978 93.3362 164.097 94.0421 162.943 94.5526C161.797 95.0563 160.408 95.3082 158.777 95.3082C157.193 95.3082 155.817 95.063 154.651 94.5724C153.491 94.0819 152.583 93.366 151.926 92.4247C151.277 91.4834 150.925 90.3366 150.872 88.9844H154.502C154.555 89.6937 154.773 90.2836 155.158 90.7543C155.542 91.2249 156.043 91.5762 156.659 91.8082C157.282 92.0402 157.978 92.1562 158.747 92.1562C159.549 92.1562 160.252 92.0369 160.855 91.7983C161.465 91.553 161.942 91.215 162.287 90.7841C162.632 90.3466 162.807 89.8362 162.814 89.2528C162.807 88.7225 162.652 88.285 162.347 87.9403C162.042 87.589 161.614 87.2973 161.064 87.0653C160.521 86.8267 159.884 86.6146 159.155 86.429L156.838 85.8324C155.161 85.4015 153.835 84.7486 152.861 83.8736C151.893 82.992 151.409 81.822 151.409 80.3636C151.409 79.1638 151.734 78.1132 152.384 77.2116C153.04 76.3101 153.932 75.6108 155.058 75.1136C156.185 74.6098 157.461 74.358 158.887 74.358C160.332 74.358 161.598 74.6098 162.685 75.1136C163.779 75.6108 164.637 76.3035 165.26 77.1918C165.883 78.0734 166.205 79.0876 166.225 80.2344H162.675Z" fill="black"/>
</svg>
