<svg width="275" height="170" viewBox="0 0 275 170" fill="none" xmlns="http://www.w3.org/2000/svg">
<rect width="275" height="170" fill="white"/>
<path d="M104.058 73.2273H111.024L116.933 87.6364H117.206L123.115 73.2273H130.081V96.5H124.604V82.2045H124.411L118.82 96.3523H115.32L109.729 82.125H109.536V96.5H104.058V73.2273ZM133.589 96.5V73.2273H149.817V77.7955H139.214V82.5682H148.987V87.1477H139.214V91.9318H149.817V96.5H133.589ZM165.919 80.2045C165.843 79.3712 165.506 78.7235 164.908 78.2614C164.317 77.7917 163.472 77.5568 162.374 77.5568C161.646 77.5568 161.04 77.6515 160.555 77.8409C160.071 78.0303 159.707 78.2917 159.464 78.625C159.222 78.9508 159.097 79.3258 159.089 79.75C159.074 80.0985 159.143 80.4053 159.294 80.6705C159.453 80.9356 159.68 81.1705 159.976 81.375C160.279 81.572 160.643 81.7462 161.067 81.8977C161.491 82.0492 161.968 82.1818 162.499 82.2955L164.499 82.75C165.65 83 166.665 83.3333 167.544 83.75C168.43 84.1667 169.173 84.6629 169.771 85.2386C170.377 85.8144 170.836 86.4773 171.146 87.2273C171.457 87.9773 171.616 88.8182 171.624 89.75C171.616 91.2197 171.245 92.4811 170.51 93.5341C169.775 94.5871 168.718 95.3939 167.339 95.9545C165.968 96.5152 164.313 96.7955 162.374 96.7955C160.427 96.7955 158.73 96.5038 157.283 95.9205C155.836 95.3371 154.711 94.4508 153.908 93.2614C153.105 92.072 152.692 90.5682 152.669 88.75H158.055C158.101 89.5 158.302 90.125 158.658 90.625C159.014 91.125 159.502 91.5038 160.124 91.7614C160.752 92.0189 161.48 92.1477 162.305 92.1477C163.063 92.1477 163.707 92.0455 164.237 91.8409C164.775 91.6364 165.188 91.3523 165.476 90.9886C165.764 90.625 165.911 90.2083 165.919 89.7386C165.911 89.2992 165.775 88.9242 165.51 88.6136C165.245 88.2955 164.836 88.0227 164.283 87.7955C163.737 87.5606 163.04 87.3447 162.192 87.1477L159.76 86.5795C157.745 86.1174 156.158 85.3712 154.999 84.3409C153.839 83.303 153.264 81.9015 153.271 80.1364C153.264 78.697 153.65 77.4356 154.43 76.3523C155.211 75.2689 156.29 74.4242 157.669 73.8182C159.048 73.2121 160.62 72.9091 162.385 72.9091C164.188 72.9091 165.752 73.2159 167.078 73.8295C168.411 74.4356 169.446 75.2879 170.18 76.3864C170.915 77.4848 171.29 78.7576 171.305 80.2045H165.919Z" fill="black"/>
</svg>
