<svg width="275" height="170" viewBox="0 0 275 170" fill="none" xmlns="http://www.w3.org/2000/svg">
<rect width="275" height="170" fill="white"/>
<path d="M84.0895 96.5V79.0455H89.3736V82.25H89.5668C89.9304 81.1894 90.544 80.3523 91.4077 79.7386C92.2713 79.125 93.3016 78.8182 94.4986 78.8182C95.7107 78.8182 96.7486 79.1288 97.6122 79.75C98.4759 80.3712 99.0251 81.2045 99.2599 82.25H99.4418C99.7675 81.2121 100.404 80.3826 101.351 79.7614C102.298 79.1326 103.415 78.8182 104.703 78.8182C106.355 78.8182 107.696 79.3485 108.726 80.4091C109.756 81.4621 110.271 82.9091 110.271 84.75V96.5H104.714V86.0227C104.714 85.1515 104.491 84.4886 104.044 84.0341C103.597 83.572 103.018 83.3409 102.305 83.3409C101.54 83.3409 100.938 83.5909 100.499 84.0909C100.067 84.5833 99.8509 85.2462 99.8509 86.0795V96.5H94.5099V85.9659C94.5099 85.1553 94.2902 84.5152 93.8509 84.0455C93.4115 83.5758 92.8319 83.3409 92.1122 83.3409C91.6274 83.3409 91.1993 83.4583 90.8281 83.6932C90.4569 83.9205 90.1652 84.2462 89.9531 84.6705C89.7486 85.0947 89.6463 85.5947 89.6463 86.1705V96.5H84.0895ZM116.487 103.045C115.821 103.045 115.192 102.992 114.601 102.886C114.01 102.788 113.502 102.655 113.078 102.489L114.305 98.4545C114.851 98.6364 115.343 98.7424 115.783 98.7727C116.23 98.803 116.612 98.7311 116.93 98.5568C117.256 98.3902 117.506 98.0909 117.68 97.6591L117.896 97.1364L111.692 79.0455H117.51L120.726 91.5H120.908L124.169 79.0455H130.021L123.442 98.1705C123.124 99.125 122.673 99.9659 122.089 100.693C121.514 101.428 120.768 102.004 119.851 102.42C118.942 102.837 117.821 103.045 116.487 103.045ZM140.754 96.5H132.152V73.2273H140.743C143.114 73.2273 145.156 73.6932 146.868 74.625C148.588 75.5492 149.913 76.8826 150.845 78.625C151.777 80.3598 152.243 82.4356 152.243 84.8523C152.243 87.2765 151.777 89.3598 150.845 91.1023C149.921 92.8447 148.599 94.1818 146.879 95.1136C145.16 96.0379 143.118 96.5 140.754 96.5ZM137.777 91.7045H140.538C141.841 91.7045 142.944 91.4848 143.845 91.0455C144.754 90.5985 145.44 89.875 145.902 88.875C146.372 87.8674 146.607 86.5265 146.607 84.8523C146.607 83.178 146.372 81.8447 145.902 80.8523C145.432 79.8523 144.739 79.1326 143.822 78.6932C142.913 78.2462 141.792 78.0227 140.459 78.0227H137.777V91.7045ZM163.675 96.8295C161.841 96.8295 160.266 96.4545 158.947 95.7045C157.637 94.947 156.625 93.8939 155.913 92.5455C155.209 91.1894 154.857 89.6174 154.857 87.8295C154.857 86.0341 155.209 84.4621 155.913 83.1136C156.625 81.7576 157.637 80.7045 158.947 79.9545C160.266 79.197 161.841 78.8182 163.675 78.8182C165.508 78.8182 167.08 79.197 168.391 79.9545C169.709 80.7045 170.72 81.7576 171.425 83.1136C172.137 84.4621 172.493 86.0341 172.493 87.8295C172.493 89.6174 172.137 91.1894 171.425 92.5455C170.72 93.8939 169.709 94.947 168.391 95.7045C167.08 96.4545 165.508 96.8295 163.675 96.8295ZM163.709 92.6364C164.375 92.6364 164.94 92.4318 165.402 92.0227C165.864 91.6136 166.216 91.0455 166.459 90.3182C166.709 89.5909 166.834 88.75 166.834 87.7955C166.834 86.8258 166.709 85.9773 166.459 85.25C166.216 84.5227 165.864 83.9545 165.402 83.5455C164.94 83.1364 164.375 82.9318 163.709 82.9318C163.019 82.9318 162.436 83.1364 161.959 83.5455C161.489 83.9545 161.129 84.5227 160.879 85.25C160.637 85.9773 160.516 86.8258 160.516 87.7955C160.516 88.75 160.637 89.5909 160.879 90.3182C161.129 91.0455 161.489 91.6136 161.959 92.0227C162.436 92.4318 163.019 92.6364 163.709 92.6364ZM183.487 96.8295C181.646 96.8295 180.067 96.4508 178.749 95.6932C177.438 94.9356 176.43 93.8826 175.726 92.5341C175.021 91.178 174.669 89.6098 174.669 87.8295C174.669 86.0417 175.021 84.4735 175.726 83.125C176.438 81.7689 177.449 80.7121 178.76 79.9545C180.078 79.197 181.65 78.8182 183.476 78.8182C185.089 78.8182 186.495 79.1098 187.692 79.6932C188.896 80.2765 189.836 81.1023 190.51 82.1705C191.192 83.2311 191.552 84.4773 191.589 85.9091H186.396C186.29 85.0152 185.987 84.3144 185.487 83.8068C184.995 83.2992 184.351 83.0455 183.555 83.0455C182.911 83.0455 182.347 83.2273 181.862 83.5909C181.377 83.947 180.999 84.4773 180.726 85.1818C180.461 85.8788 180.328 86.7424 180.328 87.7727C180.328 88.803 180.461 89.6742 180.726 90.3864C180.999 91.0909 181.377 91.625 181.862 91.9886C182.347 92.3447 182.911 92.5227 183.555 92.5227C184.071 92.5227 184.525 92.4129 184.919 92.1932C185.321 91.9735 185.65 91.6515 185.908 91.2273C186.165 90.7955 186.328 90.2727 186.396 89.6591H191.589C191.536 91.0985 191.177 92.3561 190.51 93.4318C189.851 94.5076 188.923 95.3447 187.726 95.9432C186.536 96.5341 185.124 96.8295 183.487 96.8295Z" fill="black"/>
</svg>
