<svg width="275" height="170" viewBox="0 0 275 170" fill="none" xmlns="http://www.w3.org/2000/svg">
<rect width="275" height="170" fill="white"/>
<path d="M92.8675 85.1364C92.8675 87.857 92.3443 90.1631 91.2979 92.0547C90.2515 93.9463 88.8348 95.383 87.0479 96.3651C85.269 97.3471 83.2728 97.8381 81.0592 97.8381C78.8376 97.8381 76.8374 97.343 75.0585 96.353C73.2796 95.3629 71.867 93.9261 70.8206 92.0426C69.7822 90.151 69.2631 87.849 69.2631 85.1364C69.2631 82.4157 69.7822 80.1096 70.8206 78.218C71.867 76.3265 73.2796 74.8897 75.0585 73.9077C76.8374 72.9257 78.8376 72.4347 81.0592 72.4347C83.2728 72.4347 85.269 72.9257 87.0479 73.9077C88.8348 74.8897 90.2515 76.3265 91.2979 78.218C92.3443 80.1096 92.8675 82.4157 92.8675 85.1364ZM86.7581 85.1364C86.7581 83.5265 86.5287 82.1662 86.0699 81.0554C85.6191 79.9446 84.9671 79.1035 84.1139 78.532C83.2687 77.9605 82.2505 77.6747 81.0592 77.6747C79.876 77.6747 78.8577 77.9605 78.0045 78.532C77.1513 79.1035 76.4953 79.9446 76.0365 81.0554C75.5857 82.1662 75.3604 83.5265 75.3604 85.1364C75.3604 86.7462 75.5857 88.1065 76.0365 89.2173C76.4953 90.3281 77.1513 91.1693 78.0045 91.7408C78.8577 92.3123 79.876 92.598 81.0592 92.598C82.2505 92.598 83.2687 92.3123 84.1139 91.7408C84.9671 91.1693 85.6191 90.3281 86.0699 89.2173C86.5287 88.1065 86.7581 86.7462 86.7581 85.1364ZM117.402 72.7727V97.5H112.331L102.49 83.2287H102.333V97.5H96.3568V72.7727H101.5L111.232 87.0199H111.437V72.7727H117.402ZM121.16 97.5V72.7727H138.401V77.6264H127.136V82.6974H137.52V87.5632H127.136V92.6463H138.401V97.5H121.16ZM142.144 97.5V72.7727H152.358C154.21 72.7727 155.807 73.1349 157.152 73.8594C158.504 74.5758 159.546 75.5779 160.279 76.8658C161.011 78.1456 161.378 79.6347 161.378 81.3331C161.378 83.0395 161.003 84.5327 160.255 85.8125C159.514 87.0843 158.456 88.0703 157.079 88.7706C155.703 89.4709 154.069 89.821 152.177 89.821H145.875V85.1122H151.066C151.968 85.1122 152.721 84.9553 153.324 84.6413C153.936 84.3274 154.399 83.8887 154.713 83.3253C155.027 82.7538 155.184 82.0897 155.184 81.3331C155.184 80.5684 155.027 79.9084 154.713 79.353C154.399 78.7895 153.936 78.3549 153.324 78.049C152.713 77.7431 151.96 77.5902 151.066 77.5902H148.12V97.5H142.144ZM177.689 80.1861C177.609 79.3007 177.251 78.6125 176.615 78.1214C175.987 77.6224 175.089 77.3729 173.922 77.3729C173.15 77.3729 172.506 77.4735 171.991 77.6747C171.475 77.8759 171.089 78.1536 170.831 78.5078C170.574 78.8539 170.441 79.2524 170.433 79.7031C170.417 80.0734 170.489 80.3994 170.65 80.6811C170.819 80.9628 171.061 81.2124 171.375 81.4297C171.697 81.639 172.083 81.8241 172.534 81.9851C172.985 82.1461 173.492 82.2869 174.055 82.4077L176.18 82.8906C177.404 83.1562 178.482 83.5104 179.416 83.9531C180.358 84.3958 181.147 84.9231 181.782 85.5348C182.426 86.1465 182.913 86.8509 183.243 87.6477C183.573 88.4446 183.742 89.3381 183.75 90.3281C183.742 91.8897 183.348 93.2299 182.567 94.3487C181.786 95.4676 180.664 96.3248 179.199 96.9205C177.742 97.5161 175.983 97.8139 173.922 97.8139C171.854 97.8139 170.051 97.504 168.513 96.8842C166.976 96.2644 165.781 95.3227 164.927 94.0589C164.074 92.7952 163.635 91.1974 163.611 89.2656H169.334C169.383 90.0625 169.596 90.7266 169.974 91.2578C170.352 91.7891 170.872 92.1915 171.532 92.4652C172.2 92.7389 172.973 92.8757 173.85 92.8757C174.655 92.8757 175.339 92.767 175.902 92.5497C176.474 92.3324 176.913 92.0305 177.218 91.6442C177.524 91.2578 177.681 90.8151 177.689 90.3161C177.681 89.8492 177.536 89.4508 177.255 89.1207C176.973 88.7827 176.538 88.4929 175.951 88.2514C175.371 88.0019 174.631 87.7725 173.729 87.5632L171.145 86.9595C169.004 86.4685 167.318 85.6757 166.086 84.581C164.855 83.4782 164.243 81.9891 164.251 80.1136C164.243 78.5843 164.654 77.2441 165.483 76.093C166.312 74.942 167.459 74.0445 168.924 73.4006C170.389 72.7566 172.059 72.4347 173.934 72.4347C175.85 72.4347 177.512 72.7607 178.921 73.4126C180.338 74.0566 181.436 74.9621 182.217 76.1293C182.998 77.2964 183.396 78.6487 183.412 80.1861H177.689ZM200.135 80.1861C200.054 79.3007 199.696 78.6125 199.06 78.1214C198.432 77.6224 197.535 77.3729 196.368 77.3729C195.595 77.3729 194.951 77.4735 194.436 77.6747C193.921 77.8759 193.534 78.1536 193.277 78.5078C193.019 78.8539 192.886 79.2524 192.878 79.7031C192.862 80.0734 192.935 80.3994 193.096 80.6811C193.265 80.9628 193.506 81.2124 193.82 81.4297C194.142 81.639 194.528 81.8241 194.979 81.9851C195.43 82.1461 195.937 82.2869 196.5 82.4077L198.625 82.8906C199.849 83.1562 200.928 83.5104 201.861 83.9531C202.803 84.3958 203.592 84.9231 204.228 85.5348C204.872 86.1465 205.359 86.8509 205.689 87.6477C206.019 88.4446 206.188 89.3381 206.196 90.3281C206.188 91.8897 205.793 93.2299 205.013 94.3487C204.232 95.4676 203.109 96.3248 201.644 96.9205C200.187 97.5161 198.428 97.8139 196.368 97.8139C194.299 97.8139 192.496 97.504 190.959 96.8842C189.421 96.2644 188.226 95.3227 187.373 94.0589C186.519 92.7952 186.081 91.1974 186.057 89.2656H191.78C191.828 90.0625 192.041 90.7266 192.419 91.2578C192.798 91.7891 193.317 92.1915 193.977 92.4652C194.645 92.7389 195.418 92.8757 196.295 92.8757C197.1 92.8757 197.784 92.767 198.348 92.5497C198.919 92.3324 199.358 92.0305 199.664 91.6442C199.97 91.2578 200.127 90.8151 200.135 90.3161C200.127 89.8492 199.982 89.4508 199.7 89.1207C199.418 88.7827 198.984 88.4929 198.396 88.2514C197.816 88.0019 197.076 87.7725 196.174 87.5632L193.591 86.9595C191.45 86.4685 189.763 85.6757 188.532 84.581C187.3 83.4782 186.688 81.9891 186.696 80.1136C186.688 78.5843 187.099 77.2441 187.928 76.093C188.757 74.942 189.904 74.0445 191.369 73.4006C192.834 72.7566 194.504 72.4347 196.38 72.4347C198.295 72.4347 199.958 72.7607 201.366 73.4126C202.783 74.0566 203.882 74.9621 204.662 76.1293C205.443 77.2964 205.842 78.6487 205.858 80.1861H200.135Z" fill="black"/>
</svg>
