<svg width="275" height="170" viewBox="0 0 275 170" fill="none" xmlns="http://www.w3.org/2000/svg">
<rect width="275" height="170" fill="white"/>
<path d="M100.789 84.8182C100.789 87.0123 100.378 88.8916 99.5556 90.456C98.7402 92.0137 97.6266 93.2069 96.2147 94.0355C94.8094 94.8641 93.2151 95.2784 91.432 95.2784C89.6489 95.2784 88.0513 94.8641 86.6394 94.0355C85.2341 93.2003 84.1204 92.0038 83.2985 90.446C82.4831 88.8816 82.0755 87.0057 82.0755 84.8182C82.0755 82.6241 82.4831 80.7481 83.2985 79.1903C84.1204 77.6259 85.2341 76.4295 86.6394 75.6009C88.0513 74.7723 89.6489 74.358 91.432 74.358C93.2151 74.358 94.8094 74.7723 96.2147 75.6009C97.6266 76.4295 98.7402 77.6259 99.5556 79.1903C100.378 80.7481 100.789 82.6241 100.789 84.8182ZM97.0797 84.8182C97.0797 83.2737 96.8378 81.9711 96.3539 80.9105C95.8766 79.8433 95.2137 79.0379 94.3652 78.4943C93.5167 77.9441 92.539 77.669 91.432 77.669C90.325 77.669 89.3472 77.9441 88.4988 78.4943C87.6503 79.0379 86.9841 79.8433 86.5002 80.9105C86.0229 81.9711 85.7843 83.2737 85.7843 84.8182C85.7843 86.3627 86.0229 87.6686 86.5002 88.7358C86.9841 89.7964 87.6503 90.6018 88.4988 91.152C89.3472 91.6955 90.325 91.9673 91.432 91.9673C92.539 91.9673 93.5167 91.6955 94.3652 91.152C95.2137 90.6018 95.8766 89.7964 96.3539 88.7358C96.8378 87.6686 97.0797 86.3627 97.0797 84.8182ZM121.01 74.6364V95H117.729L108.134 81.1293H107.965V95H104.276V74.6364H107.577L117.162 88.517H117.341V74.6364H121.01ZM125.03 95V74.6364H138.274V77.7287H128.719V83.2571H137.588V86.3494H128.719V91.9077H138.354V95H125.03ZM142.038 95V74.6364H149.674C151.239 74.6364 152.551 74.928 153.612 75.5114C154.679 76.0947 155.484 76.8968 156.028 77.9176C156.578 78.9318 156.853 80.0852 156.853 81.3778C156.853 82.6837 156.578 83.8437 156.028 84.858C155.478 85.8722 154.666 86.6709 153.592 87.2543C152.518 87.831 151.195 88.1193 149.624 88.1193H144.563V85.0866H149.127C150.042 85.0866 150.791 84.9276 151.374 84.6094C151.958 84.2912 152.389 83.8537 152.667 83.2969C152.952 82.7401 153.095 82.1004 153.095 81.3778C153.095 80.6553 152.952 80.0189 152.667 79.4688C152.389 78.9186 151.954 78.491 151.365 78.1861C150.781 77.8745 150.029 77.7188 149.107 77.7188H145.727V95H142.038ZM171.124 80.2344C171.031 79.366 170.64 78.6899 169.951 78.206C169.268 77.7221 168.38 77.4801 167.286 77.4801C166.517 77.4801 165.858 77.5961 165.307 77.8281C164.757 78.0601 164.336 78.375 164.045 78.7727C163.753 79.1705 163.604 79.6245 163.597 80.1349C163.597 80.5592 163.693 80.9271 163.885 81.2386C164.084 81.5502 164.353 81.8153 164.691 82.0341C165.029 82.2462 165.403 82.4252 165.814 82.571C166.225 82.7169 166.64 82.8395 167.057 82.9389L168.966 83.4162C169.735 83.5952 170.474 83.8371 171.184 84.142C171.9 84.447 172.539 84.8314 173.103 85.2955C173.673 85.7595 174.124 86.3196 174.455 86.9759C174.787 87.6321 174.952 88.401 174.952 89.2827C174.952 90.4759 174.647 91.5265 174.037 92.4347C173.428 93.3362 172.546 94.0421 171.393 94.5526C170.246 95.0563 168.857 95.3082 167.226 95.3082C165.642 95.3082 164.267 95.063 163.1 94.5724C161.94 94.0819 161.032 93.366 160.376 92.4247C159.726 91.4834 159.375 90.3366 159.322 88.9844H162.951C163.004 89.6937 163.223 90.2836 163.607 90.7543C163.992 91.2249 164.492 91.5762 165.108 91.8082C165.732 92.0402 166.428 92.1562 167.197 92.1562C167.999 92.1562 168.701 92.0369 169.305 91.7983C169.914 91.553 170.392 91.215 170.736 90.7841C171.081 90.3466 171.257 89.8362 171.263 89.2528C171.257 88.7225 171.101 88.285 170.796 87.9403C170.491 87.589 170.064 87.2973 169.513 87.0653C168.97 86.8267 168.333 86.6146 167.604 86.429L165.287 85.8324C163.61 85.4015 162.285 84.7486 161.31 83.8736C160.342 82.992 159.858 81.822 159.858 80.3636C159.858 79.1638 160.183 78.1132 160.833 77.2116C161.489 76.3101 162.381 75.6108 163.508 75.1136C164.635 74.6098 165.911 74.358 167.336 74.358C168.781 74.358 170.047 74.6098 171.134 75.1136C172.228 75.6108 173.086 76.3035 173.709 77.1918C174.332 78.0734 174.654 79.0876 174.674 80.2344H171.124ZM189.308 80.2344C189.215 79.366 188.824 78.6899 188.134 78.206C187.452 77.7221 186.563 77.4801 185.47 77.4801C184.701 77.4801 184.041 77.5961 183.491 77.8281C182.941 78.0601 182.52 78.375 182.228 78.7727C181.936 79.1705 181.787 79.6245 181.781 80.1349C181.781 80.5592 181.877 80.9271 182.069 81.2386C182.268 81.5502 182.536 81.8153 182.874 82.0341C183.213 82.2462 183.587 82.4252 183.998 82.571C184.409 82.7169 184.823 82.8395 185.241 82.9389L187.15 83.4162C187.919 83.5952 188.658 83.8371 189.367 84.142C190.083 84.447 190.723 84.8314 191.286 85.2955C191.856 85.7595 192.307 86.3196 192.639 86.9759C192.97 87.6321 193.136 88.401 193.136 89.2827C193.136 90.4759 192.831 91.5265 192.221 92.4347C191.611 93.3362 190.73 94.0421 189.576 94.5526C188.429 95.0563 187.041 95.3082 185.41 95.3082C183.826 95.3082 182.45 95.063 181.284 94.5724C180.124 94.0819 179.215 93.366 178.559 92.4247C177.91 91.4834 177.558 90.3366 177.505 88.9844H181.134C181.187 89.6937 181.406 90.2836 181.791 90.7543C182.175 91.2249 182.676 91.5762 183.292 91.8082C183.915 92.0402 184.611 92.1562 185.38 92.1562C186.182 92.1562 186.885 92.0369 187.488 91.7983C188.098 91.553 188.575 91.215 188.92 90.7841C189.265 90.3466 189.44 89.8362 189.447 89.2528C189.44 88.7225 189.285 88.285 188.98 87.9403C188.675 87.589 188.247 87.2973 187.697 87.0653C187.153 86.8267 186.517 86.6146 185.788 86.429L183.471 85.8324C181.794 85.4015 180.468 84.7486 179.494 83.8736C178.526 82.992 178.042 81.822 178.042 80.3636C178.042 79.1638 178.367 78.1132 179.017 77.2116C179.673 76.3101 180.564 75.6108 181.691 75.1136C182.818 74.6098 184.094 74.358 185.519 74.358C186.964 74.358 188.231 74.6098 189.318 75.1136C190.411 75.6108 191.27 76.3035 191.893 77.1918C192.516 78.0734 192.838 79.0876 192.857 80.2344H189.308Z" fill="black"/>
</svg>
