<svg width="275" height="170" viewBox="0 0 275 170" fill="none" xmlns="http://www.w3.org/2000/svg">
<rect width="275" height="170" fill="white"/>
<path d="M60.345 85.1364C60.345 87.857 59.8218 90.1631 58.7754 92.0547C57.729 93.9463 56.3123 95.383 54.5254 96.3651C52.7465 97.3471 50.7503 97.8381 48.5368 97.8381C46.3152 97.8381 44.3149 97.343 42.536 96.353C40.7572 95.3629 39.3445 93.9261 38.2981 92.0426C37.2598 90.151 36.7406 87.849 36.7406 85.1364C36.7406 82.4157 37.2598 80.1096 38.2981 78.218C39.3445 76.3265 40.7572 74.8897 42.536 73.9077C44.3149 72.9257 46.3152 72.4347 48.5368 72.4347C50.7503 72.4347 52.7465 72.9257 54.5254 73.9077C56.3123 74.8897 57.729 76.3265 58.7754 78.218C59.8218 80.1096 60.345 82.4157 60.345 85.1364ZM54.2356 85.1364C54.2356 83.5265 54.0062 82.1662 53.5474 81.0554C53.0967 79.9446 52.4447 79.1035 51.5914 78.532C50.7463 77.9605 49.728 77.6747 48.5368 77.6747C47.3535 77.6747 46.3353 77.9605 45.4821 78.532C44.6288 79.1035 43.9728 79.9446 43.514 81.0554C43.0633 82.1662 42.8379 83.5265 42.8379 85.1364C42.8379 86.7462 43.0633 88.1065 43.514 89.2173C43.9728 90.3281 44.6288 91.1693 45.4821 91.7408C46.3353 92.3123 47.3535 92.598 48.5368 92.598C49.728 92.598 50.7463 92.3123 51.5914 91.7408C52.4447 91.1693 53.0967 90.3281 53.5474 89.2173C54.0062 88.1065 54.2356 86.7462 54.2356 85.1364ZM63.8343 104.455V78.9545H69.6781V82.13H69.8592C70.1007 81.5665 70.4428 81.0232 70.8855 80.5C71.3362 79.9768 71.9077 79.5502 72.6 79.2202C73.3002 78.8821 74.1374 78.7131 75.1113 78.7131C76.3992 78.7131 77.6026 79.0511 78.7214 79.7273C79.8483 80.4034 80.7579 81.4458 81.4501 82.8544C82.1423 84.263 82.4885 86.058 82.4885 88.2393C82.4885 90.3402 82.1544 92.099 81.4863 93.5156C80.8263 94.9323 79.9328 95.9948 78.8059 96.7031C77.6871 97.4115 76.4435 97.7656 75.0751 97.7656C74.1414 97.7656 73.3324 97.6127 72.6483 97.3068C71.9641 97.0009 71.3886 96.5985 70.9217 96.0994C70.4629 95.6004 70.1087 95.0651 69.8592 94.4936H69.7385V104.455H63.8343ZM69.6177 88.2273C69.6177 89.2254 69.7505 90.0947 70.0162 90.8352C70.2898 91.5758 70.6802 92.1513 71.1873 92.5618C71.7025 92.9643 72.3182 93.1655 73.0346 93.1655C73.7591 93.1655 74.3748 92.9643 74.8819 92.5618C75.389 92.1513 75.7714 91.5758 76.0289 90.8352C76.2946 90.0947 76.4274 89.2254 76.4274 88.2273C76.4274 87.2292 76.2946 86.3639 76.0289 85.6314C75.7714 84.8989 75.389 84.3314 74.8819 83.929C74.3829 83.5265 73.7671 83.3253 73.0346 83.3253C72.3102 83.3253 71.6944 83.5225 71.1873 83.9169C70.6802 84.3113 70.2898 84.8748 70.0162 85.6072C69.7505 86.3397 69.6177 87.2131 69.6177 88.2273ZM94.2514 97.8501C92.3116 97.8501 90.6373 97.4678 89.2287 96.7031C87.8281 95.9304 86.7495 94.8317 85.9929 93.407C85.2443 91.9742 84.87 90.2718 84.87 88.2997C84.87 86.384 85.2483 84.7098 86.005 83.277C86.7616 81.8362 87.8281 80.7173 89.2045 79.9205C90.581 79.1155 92.2029 78.7131 94.0703 78.7131C95.3904 78.7131 96.5978 78.9183 97.6925 79.3288C98.7872 79.7393 99.733 80.3471 100.53 81.152C101.327 81.9569 101.946 82.951 102.389 84.1342C102.832 85.3094 103.053 86.6577 103.053 88.179V89.652H86.9347V86.223H97.5597C97.5516 85.5952 97.4027 85.0357 97.1129 84.5447C96.8232 84.0537 96.4247 83.6714 95.9176 83.3977C95.4186 83.116 94.843 82.9751 94.1911 82.9751C93.531 82.9751 92.9394 83.1241 92.4162 83.4219C91.893 83.7116 91.4785 84.1101 91.1726 84.6172C90.8667 85.1162 90.7057 85.6837 90.6896 86.3196V89.8089C90.6896 90.5656 90.8385 91.2296 91.1364 91.8011C91.4342 92.3646 91.8568 92.8033 92.4041 93.1172C92.9515 93.4311 93.6035 93.5881 94.3601 93.5881C94.8833 93.5881 95.3582 93.5156 95.7848 93.3707C96.2114 93.2259 96.5777 93.0125 96.8835 92.7308C97.1894 92.4491 97.4188 92.103 97.5717 91.6925L102.993 91.8494C102.768 93.0649 102.272 94.1233 101.508 95.0249C100.751 95.9183 99.7571 96.6146 98.5256 97.1136C97.294 97.6046 95.8693 97.8501 94.2514 97.8501ZM106.069 97.5V78.9545H111.804V82.3352H111.997C112.335 81.1117 112.886 80.2022 113.651 79.6065C114.416 79.0028 115.305 78.701 116.319 78.701C116.593 78.701 116.875 78.7211 117.165 78.7614C117.454 78.7936 117.724 78.8459 117.974 78.9183V84.0497C117.692 83.9531 117.322 83.8767 116.863 83.8203C116.412 83.764 116.01 83.7358 115.655 83.7358C114.955 83.7358 114.323 83.8928 113.76 84.2067C113.204 84.5125 112.766 84.9432 112.444 85.4986C112.13 86.0459 111.973 86.6899 111.973 87.4304V97.5H106.069ZM124.91 97.8139C123.727 97.8139 122.676 97.6167 121.759 97.2223C120.849 96.8198 120.129 96.2161 119.597 95.4112C119.074 94.5982 118.813 93.58 118.813 92.3565C118.813 91.3262 118.994 90.4569 119.356 89.7486C119.718 89.0402 120.217 88.4647 120.853 88.022C121.489 87.5793 122.222 87.2453 123.051 87.0199C123.88 86.7865 124.765 86.6295 125.707 86.549C126.761 86.4524 127.611 86.3518 128.254 86.2472C128.898 86.1345 129.365 85.9775 129.655 85.7763C129.953 85.567 130.102 85.2732 130.102 84.8949V84.8345C130.102 84.2147 129.888 83.7358 129.462 83.3977C129.035 83.0597 128.46 82.8906 127.735 82.8906C126.954 82.8906 126.327 83.0597 125.852 83.3977C125.377 83.7358 125.075 84.2027 124.946 84.7983L119.501 84.6051C119.662 83.4782 120.076 82.4721 120.744 81.5866C121.421 80.6932 122.346 79.9929 123.521 79.4858C124.705 78.9706 126.125 78.7131 127.784 78.7131C128.967 78.7131 130.057 78.8539 131.056 79.1357C132.054 79.4093 132.923 79.8118 133.664 80.343C134.404 80.8662 134.976 81.5102 135.378 82.2749C135.789 83.0395 135.994 83.9129 135.994 84.8949V97.5H130.44V94.9162H130.295C129.965 95.544 129.542 96.0753 129.027 96.5099C128.52 96.9446 127.92 97.2706 127.228 97.4879C126.544 97.7053 125.771 97.8139 124.91 97.8139ZM126.733 93.9503C127.369 93.9503 127.941 93.8215 128.448 93.5639C128.963 93.3063 129.373 92.9522 129.679 92.5014C129.985 92.0426 130.138 91.5114 130.138 90.9077V89.1449C129.969 89.2334 129.764 89.3139 129.522 89.3864C129.289 89.4588 129.031 89.5272 128.749 89.5916C128.468 89.656 128.178 89.7124 127.88 89.7607C127.582 89.8089 127.297 89.8532 127.023 89.8935C126.468 89.982 125.993 90.1188 125.598 90.304C125.212 90.4891 124.914 90.7306 124.705 91.0284C124.503 91.3182 124.403 91.6643 124.403 92.0668C124.403 92.6785 124.62 93.1454 125.055 93.4673C125.498 93.7893 126.057 93.9503 126.733 93.9503ZM148.261 97.8501C146.305 97.8501 144.627 97.4477 143.226 96.6428C141.834 95.8378 140.763 94.719 140.014 93.2862C139.266 91.8454 138.892 90.1792 138.892 88.2876C138.892 86.388 139.266 84.7218 140.014 83.2891C140.771 81.8482 141.846 80.7254 143.238 79.9205C144.639 79.1155 146.309 78.7131 148.249 78.7131C149.963 78.7131 151.456 79.023 152.728 79.6428C154.008 80.2625 155.006 81.1399 155.722 82.2749C156.447 83.4018 156.829 84.7259 156.869 86.2472H151.352C151.239 85.2973 150.917 84.5528 150.386 84.0135C149.863 83.4742 149.178 83.2045 148.333 83.2045C147.649 83.2045 147.049 83.3977 146.534 83.7841C146.019 84.1624 145.617 84.7259 145.327 85.4744C145.045 86.215 144.904 87.1326 144.904 88.2273C144.904 89.322 145.045 90.2476 145.327 91.0043C145.617 91.7528 146.019 92.3203 146.534 92.7067C147.049 93.085 147.649 93.2741 148.333 93.2741C148.881 93.2741 149.364 93.1574 149.782 92.924C150.209 92.6906 150.559 92.3485 150.833 91.8977C151.106 91.4389 151.279 90.8835 151.352 90.2315H156.869C156.813 91.7609 156.431 93.0971 155.722 94.2401C155.022 95.383 154.036 96.2725 152.764 96.9084C151.501 97.5362 149.999 97.8501 148.261 97.8501ZM159.891 97.5V78.9545H165.795V97.5H159.891ZM162.849 76.7933C162.02 76.7933 161.308 76.5196 160.712 75.9723C160.116 75.4169 159.819 74.7488 159.819 73.968C159.819 73.1953 160.116 72.5353 160.712 71.9879C161.308 71.4325 162.02 71.1548 162.849 71.1548C163.686 71.1548 164.399 71.4325 164.986 71.9879C165.582 72.5353 165.88 73.1953 165.88 73.968C165.88 74.7488 165.582 75.4169 164.986 75.9723C164.399 76.5196 163.686 76.7933 162.849 76.7933ZM178.21 97.8501C176.262 97.8501 174.588 97.4517 173.187 96.6548C171.795 95.8499 170.72 94.7311 169.964 93.2983C169.215 91.8575 168.841 90.1873 168.841 88.2876C168.841 86.38 169.215 84.7098 169.964 83.277C170.72 81.8362 171.795 80.7173 173.187 79.9205C174.588 79.1155 176.262 78.7131 178.21 78.7131C180.158 78.7131 181.828 79.1155 183.221 79.9205C184.621 80.7173 185.696 81.8362 186.444 83.277C187.201 84.7098 187.579 86.38 187.579 88.2876C187.579 90.1873 187.201 91.8575 186.444 93.2983C185.696 94.7311 184.621 95.8499 183.221 96.6548C181.828 97.4517 180.158 97.8501 178.21 97.8501ZM178.246 93.3949C178.955 93.3949 179.554 93.1776 180.045 92.7429C180.536 92.3082 180.911 91.7045 181.168 90.9318C181.434 90.1591 181.567 89.2656 181.567 88.2514C181.567 87.2211 181.434 86.3196 181.168 85.5469C180.911 84.7741 180.536 84.1705 180.045 83.7358C179.554 83.3011 178.955 83.0838 178.246 83.0838C177.514 83.0838 176.894 83.3011 176.387 83.7358C175.888 84.1705 175.506 84.7741 175.24 85.5469C174.982 86.3196 174.854 87.2211 174.854 88.2514C174.854 89.2656 174.982 90.1591 175.24 90.9318C175.506 91.7045 175.888 92.3082 176.387 92.7429C176.894 93.1776 177.514 93.3949 178.246 93.3949ZM196.508 86.9233V97.5H190.604V78.9545H196.218V82.3594H196.423C196.834 81.2244 197.534 80.335 198.524 79.6911C199.514 79.0391 200.694 78.7131 202.062 78.7131C203.366 78.7131 204.497 79.0069 205.455 79.5945C206.421 80.174 207.169 80.987 207.7 82.0334C208.24 83.0717 208.505 84.2872 208.497 85.6797V97.5H202.593V86.8388C202.601 85.8085 202.34 85.0036 201.808 84.424C201.285 83.8445 200.557 83.5547 199.623 83.5547C199.003 83.5547 198.456 83.6915 197.981 83.9652C197.514 84.2308 197.152 84.6132 196.894 85.1122C196.645 85.6113 196.516 86.215 196.508 86.9233ZM217.381 97.8139C216.197 97.8139 215.147 97.6167 214.229 97.2223C213.32 96.8198 212.599 96.2161 212.068 95.4112C211.545 94.5982 211.283 93.58 211.283 92.3565C211.283 91.3262 211.464 90.4569 211.827 89.7486C212.189 89.0402 212.688 88.4647 213.324 88.022C213.96 87.5793 214.692 87.2453 215.521 87.0199C216.35 86.7865 217.236 86.6295 218.178 86.549C219.232 86.4524 220.081 86.3518 220.725 86.2472C221.369 86.1345 221.836 85.9775 222.126 85.7763C222.424 85.567 222.572 85.2732 222.572 84.8949V84.8345C222.572 84.2147 222.359 83.7358 221.933 83.3977C221.506 83.0597 220.93 82.8906 220.206 82.8906C219.425 82.8906 218.797 83.0597 218.322 83.3977C217.848 83.7358 217.546 84.2027 217.417 84.7983L211.972 84.6051C212.133 83.4782 212.547 82.4721 213.215 81.5866C213.891 80.6932 214.817 79.9929 215.992 79.4858C217.175 78.9706 218.596 78.7131 220.254 78.7131C221.438 78.7131 222.528 78.8539 223.526 79.1357C224.524 79.4093 225.394 79.8118 226.134 80.343C226.875 80.8662 227.446 81.5102 227.849 82.2749C228.259 83.0395 228.464 83.9129 228.464 84.8949V97.5H222.911V94.9162H222.766C222.436 95.544 222.013 96.0753 221.498 96.5099C220.991 96.9446 220.391 97.2706 219.699 97.4879C219.015 97.7053 218.242 97.8139 217.381 97.8139ZM219.204 93.9503C219.84 93.9503 220.411 93.8215 220.918 93.5639C221.433 93.3063 221.844 92.9522 222.15 92.5014C222.456 92.0426 222.609 91.5114 222.609 90.9077V89.1449C222.44 89.2334 222.234 89.3139 221.993 89.3864C221.759 89.4588 221.502 89.5272 221.22 89.5916C220.938 89.656 220.649 89.7124 220.351 89.7607C220.053 89.8089 219.767 89.8532 219.494 89.8935C218.938 89.982 218.463 90.1188 218.069 90.304C217.683 90.4891 217.385 90.7306 217.175 91.0284C216.974 91.3182 216.874 91.6643 216.874 92.0668C216.874 92.6785 217.091 93.1454 217.526 93.4673C217.968 93.7893 218.528 93.9503 219.204 93.9503ZM237.979 72.7727V97.5H232.075V72.7727H237.979Z" fill="black"/>
</svg>
