<svg width="275" height="170" viewBox="0 0 275 170" fill="none" xmlns="http://www.w3.org/2000/svg">
<rect width="275" height="170" fill="white"/>
<path d="M115.399 97.5V72.7727H125.613C127.465 72.7727 129.062 73.1068 130.407 73.7749C131.759 74.4349 132.801 75.3847 133.534 76.6243C134.266 77.8558 134.632 79.3168 134.632 81.0071C134.632 82.7216 134.258 84.1785 133.51 85.3778C132.761 86.5691 131.699 87.4787 130.322 88.1065C128.946 88.7263 127.316 89.0362 125.432 89.0362H118.973V84.3274H124.321C125.223 84.3274 125.975 84.2107 126.579 83.9773C127.191 83.7358 127.654 83.3736 127.968 82.8906C128.282 82.3996 128.439 81.7718 128.439 81.0071C128.439 80.2424 128.282 79.6106 127.968 79.1115C127.654 78.6044 127.191 78.2261 126.579 77.9766C125.967 77.719 125.215 77.5902 124.321 77.5902H121.375V97.5H115.399ZM129.32 86.1989L135.478 97.5H128.958L122.921 86.1989H129.32ZM137.911 97.5V72.7727H143.887V82.6974H153.631V72.7727H159.595V97.5H153.631V87.5632H143.887V97.5H137.911Z" fill="black"/>
</svg>
