<svg width="275" height="170" viewBox="0 0 275 170" fill="none" xmlns="http://www.w3.org/2000/svg">
<rect width="275" height="170" fill="white"/>
<path d="M119.637 91.5V71.1364H127.671C129.209 71.1364 130.522 71.4115 131.609 71.9616C132.702 72.5052 133.534 73.2775 134.104 74.2784C134.681 75.2727 134.969 76.4427 134.969 77.7884C134.969 79.1406 134.678 80.304 134.094 81.2784C133.511 82.2462 132.666 82.9886 131.559 83.5057C130.459 84.0227 129.126 84.2812 127.562 84.2812H122.183V80.821H126.866C127.688 80.821 128.371 80.7083 128.914 80.483C129.458 80.2576 129.862 79.9195 130.127 79.4688C130.399 79.018 130.535 78.4579 130.535 77.7884C130.535 77.1122 130.399 76.5421 130.127 76.0781C129.862 75.6141 129.454 75.2628 128.904 75.0241C128.361 74.7789 127.674 74.6562 126.846 74.6562H123.942V91.5H119.637ZM130.634 82.233L135.695 91.5H130.942L125.991 82.233H130.634ZM138.012 91.5V71.1364H142.317V79.5384H151.058V71.1364H155.353V91.5H151.058V83.0881H142.317V91.5H138.012Z" fill="black"/>
</svg>
