<svg width="275" height="170" viewBox="0 0 275 170" fill="none" xmlns="http://www.w3.org/2000/svg">
<rect width="275" height="170" fill="white"/>
<path d="M75.0966 120V50.1818H103.938C109.165 50.1818 113.676 51.125 117.472 53.0114C121.29 54.875 124.233 57.5568 126.301 61.0568C128.369 64.5341 129.403 68.6591 129.403 73.4318C129.403 78.2727 128.347 82.3864 126.233 85.7727C124.119 89.1364 121.119 91.7045 117.233 93.4773C113.347 95.2273 108.744 96.1023 103.426 96.1023H85.1875V82.8068H100.29C102.835 82.8068 104.96 82.4773 106.665 81.8182C108.392 81.1364 109.699 80.1136 110.585 78.75C111.472 77.3636 111.915 75.5909 111.915 73.4318C111.915 71.2727 111.472 69.4886 110.585 68.0795C109.699 66.6477 108.392 65.5795 106.665 64.875C104.938 64.1477 102.813 63.7841 100.29 63.7841H91.9716V120H75.0966ZM114.403 88.0909L131.79 120H113.381L96.3352 88.0909H114.403ZM138.659 120V50.1818H155.534V78.2045H183.045V50.1818H199.886V120H183.045V91.9432H155.534V120H138.659Z" fill="black"/>
</svg>
