<svg width="275" height="170" viewBox="0 0 275 170" fill="none" xmlns="http://www.w3.org/2000/svg">
<rect width="275" height="170" fill="white"/>
<path d="M96.1222 60.7045C96.0464 59.8712 95.7093 59.2235 95.1108 58.7614C94.5199 58.2917 93.6752 58.0568 92.5767 58.0568C91.8494 58.0568 91.2434 58.1515 90.7585 58.3409C90.2737 58.5303 89.91 58.7917 89.6676 59.125C89.4252 59.4508 89.3002 59.8258 89.2926 60.25C89.2775 60.5985 89.3456 60.9053 89.4972 61.1705C89.6563 61.4356 89.8835 61.6705 90.179 61.875C90.482 62.072 90.8456 62.2462 91.2699 62.3977C91.6941 62.5492 92.1714 62.6818 92.7017 62.7955L94.7017 63.25C95.8532 63.5 96.8684 63.8333 97.7472 64.25C98.6335 64.6667 99.3759 65.1629 99.9744 65.7386C100.58 66.3144 101.039 66.9773 101.349 67.7273C101.66 68.4773 101.819 69.3182 101.827 70.25C101.819 71.7197 101.448 72.9811 100.713 74.0341C99.9782 75.0871 98.9214 75.8939 97.5426 76.4545C96.1714 77.0152 94.5161 77.2955 92.5767 77.2955C90.6297 77.2955 88.9328 77.0038 87.4858 76.4205C86.0388 75.8371 84.9138 74.9508 84.1108 73.7614C83.3078 72.572 82.8949 71.0682 82.8722 69.25H88.2585C88.304 70 88.5047 70.625 88.8608 71.125C89.2169 71.625 89.7055 72.0038 90.3267 72.2614C90.9555 72.5189 91.6828 72.6477 92.5085 72.6477C93.2661 72.6477 93.91 72.5455 94.4403 72.3409C94.9782 72.1364 95.3911 71.8523 95.679 71.4886C95.9669 71.125 96.1146 70.7083 96.1222 70.2386C96.1146 69.7992 95.9782 69.4242 95.7131 69.1136C95.4479 68.7955 95.0388 68.5227 94.4858 68.2955C93.9403 68.0606 93.2434 67.8447 92.3949 67.6477L89.9631 67.0795C87.9479 66.6174 86.3608 65.8712 85.2017 64.8409C84.0426 63.803 83.4669 62.4015 83.4744 60.6364C83.4669 59.197 83.8532 57.9356 84.6335 56.8523C85.4138 55.7689 86.4934 54.9242 87.8722 54.3182C89.2509 53.7121 90.8229 53.4091 92.5881 53.4091C94.3911 53.4091 95.9555 53.7159 97.2812 54.3295C98.6146 54.9356 99.6487 55.7879 100.384 56.8864C101.118 57.9848 101.493 59.2576 101.509 60.7045H96.1222ZM108.983 77H102.938L110.79 53.7273H118.278L126.131 77H120.085L114.619 59.5909H114.438L108.983 77ZM108.176 67.8409H120.812V72.1136H108.176V67.8409ZM142.716 53.7273H148.33V68.7386C148.33 70.4735 147.917 71.9848 147.091 73.2727C146.265 74.553 145.114 75.5455 143.636 76.25C142.159 76.947 140.443 77.2955 138.489 77.2955C136.511 77.2955 134.784 76.947 133.307 76.25C131.83 75.5455 130.682 74.553 129.864 73.2727C129.045 71.9848 128.636 70.4735 128.636 68.7386V53.7273H134.261V68.25C134.261 69.053 134.436 69.7689 134.784 70.3977C135.14 71.0265 135.636 71.5189 136.273 71.875C136.909 72.2311 137.648 72.4091 138.489 72.4091C139.33 72.4091 140.064 72.2311 140.693 71.875C141.33 71.5189 141.826 71.0265 142.182 70.3977C142.538 69.7689 142.716 69.053 142.716 68.25V53.7273ZM136.568 51.5114L138.864 46.3864H143.784L140.352 51.5114H136.568ZM160.457 77H151.855V53.7273H160.446C162.817 53.7273 164.859 54.1932 166.571 55.125C168.291 56.0492 169.616 57.3826 170.548 59.125C171.48 60.8598 171.946 62.9356 171.946 65.3523C171.946 67.7765 171.48 69.8598 170.548 71.6023C169.624 73.3447 168.302 74.6818 166.582 75.6136C164.863 76.5379 162.821 77 160.457 77ZM157.48 72.2045H160.241C161.545 72.2045 162.647 71.9848 163.548 71.5455C164.457 71.0985 165.143 70.375 165.605 69.375C166.075 68.3674 166.31 67.0265 166.31 65.3523C166.31 63.678 166.075 62.3447 165.605 61.3523C165.135 60.3523 164.442 59.6326 163.526 59.1932C162.616 58.7462 161.495 58.5227 160.162 58.5227H157.48V72.2045ZM175.23 77V53.7273H191.457V58.2955H180.855V63.0682H190.628V67.6477H180.855V72.4318H191.457V77H175.23ZM41.4929 104.364C41.4929 106.924 41.0005 109.095 40.0156 110.875C39.0308 112.655 37.6974 114.008 36.0156 114.932C34.3414 115.856 32.4626 116.318 30.3793 116.318C28.2884 116.318 26.4058 115.852 24.7315 114.92C23.0573 113.989 21.7277 112.636 20.7429 110.864C19.7656 109.083 19.277 106.917 19.277 104.364C19.277 101.803 19.7656 99.6326 20.7429 97.8523C21.7277 96.072 23.0573 94.7197 24.7315 93.7955C26.4058 92.8712 28.2884 92.4091 30.3793 92.4091C32.4626 92.4091 34.3414 92.8712 36.0156 93.7955C37.6974 94.7197 39.0308 96.072 40.0156 97.8523C41.0005 99.6326 41.4929 101.803 41.4929 104.364ZM35.7429 104.364C35.7429 102.848 35.527 101.568 35.0952 100.523C34.6709 99.4773 34.0573 98.6856 33.2543 98.1477C32.4588 97.6098 31.5005 97.3409 30.3793 97.3409C29.2656 97.3409 28.3073 97.6098 27.5043 98.1477C26.7012 98.6856 26.0838 99.4773 25.652 100.523C25.2277 101.568 25.0156 102.848 25.0156 104.364C25.0156 105.879 25.2277 107.159 25.652 108.205C26.0838 109.25 26.7012 110.042 27.5043 110.58C28.3073 111.117 29.2656 111.386 30.3793 111.386C31.5005 111.386 32.4588 111.117 33.2543 110.58C34.0573 110.042 34.6709 109.25 35.0952 108.205C35.527 107.159 35.7429 105.879 35.7429 104.364ZM65.902 101.159H60.2202C60.1444 100.576 59.9891 100.049 59.7543 99.5795C59.5194 99.1098 59.2088 98.7083 58.8224 98.375C58.4361 98.0417 57.9777 97.7879 57.4474 97.6136C56.9247 97.4318 56.3452 97.3409 55.7088 97.3409C54.58 97.3409 53.6065 97.6174 52.7884 98.1705C51.9777 98.7235 51.3527 99.5227 50.9134 100.568C50.4815 101.614 50.2656 102.879 50.2656 104.364C50.2656 105.909 50.4853 107.205 50.9247 108.25C51.3717 109.288 51.9967 110.072 52.7997 110.602C53.6103 111.125 54.5687 111.386 55.6747 111.386C56.2959 111.386 56.8603 111.307 57.3679 111.148C57.883 110.989 58.3338 110.758 58.7202 110.455C59.1141 110.144 59.4361 109.769 59.6861 109.33C59.9437 108.883 60.1217 108.379 60.2202 107.818L65.902 107.852C65.8035 108.883 65.5043 109.898 65.0043 110.898C64.5118 111.898 63.8338 112.811 62.9702 113.636C62.1065 114.455 61.0535 115.106 59.8111 115.591C58.5762 116.076 57.1596 116.318 55.5611 116.318C53.455 116.318 51.5687 115.856 49.902 114.932C48.2429 114 46.9323 112.644 45.9702 110.864C45.008 109.083 44.527 106.917 44.527 104.364C44.527 101.803 45.0156 99.6326 45.9929 97.8523C46.9702 96.072 48.2921 94.7197 49.9588 93.7955C51.6255 92.8712 53.4929 92.4091 55.5611 92.4091C56.9702 92.4091 58.2732 92.6061 59.4702 93C60.6671 93.3864 61.7202 93.9545 62.6293 94.7045C63.5384 95.447 64.277 96.3598 64.8452 97.4432C65.4134 98.5265 65.7656 99.7652 65.902 101.159ZM83.2003 92.7273H88.8139V107.739C88.8139 109.473 88.401 110.985 87.5753 112.273C86.7495 113.553 85.598 114.545 84.1207 115.25C82.6435 115.947 80.9276 116.295 78.973 116.295C76.9957 116.295 75.2685 115.947 73.7912 115.25C72.3139 114.545 71.1662 113.553 70.348 112.273C69.5298 110.985 69.1207 109.473 69.1207 107.739V92.7273H74.7457V107.25C74.7457 108.053 74.92 108.769 75.2685 109.398C75.6245 110.027 76.1207 110.519 76.7571 110.875C77.3935 111.231 78.1321 111.409 78.973 111.409C79.8139 111.409 80.5488 111.231 81.1776 110.875C81.8139 110.519 82.3101 110.027 82.6662 109.398C83.0223 108.769 83.2003 108.053 83.2003 107.25V92.7273ZM92.3395 116V92.7273H101.953C103.696 92.7273 105.199 93.0682 106.464 93.75C107.737 94.4242 108.718 95.3674 109.408 96.5795C110.097 97.7841 110.442 99.1856 110.442 100.784C110.442 102.39 110.089 103.795 109.385 105C108.688 106.197 107.692 107.125 106.396 107.784C105.101 108.443 103.563 108.773 101.783 108.773H95.8509V104.341H100.737C101.586 104.341 102.294 104.193 102.862 103.898C103.438 103.602 103.874 103.189 104.169 102.659C104.464 102.121 104.612 101.496 104.612 100.784C104.612 100.064 104.464 99.4432 104.169 98.9205C103.874 98.3902 103.438 97.9811 102.862 97.6932C102.286 97.4053 101.578 97.2614 100.737 97.2614H97.9645V116H92.3395ZM115.436 116H109.391L117.243 92.7273H124.732L132.584 116H126.538L121.072 98.5909H120.891L115.436 116ZM114.629 106.841H127.266V111.114H114.629V106.841ZM155.121 101.159H149.439C149.363 100.576 149.208 100.049 148.973 99.5795C148.738 99.1098 148.428 98.7083 148.041 98.375C147.655 98.0417 147.196 97.7879 146.666 97.6136C146.143 97.4318 145.564 97.3409 144.928 97.3409C143.799 97.3409 142.825 97.6174 142.007 98.1705C141.196 98.7235 140.571 99.5227 140.132 100.568C139.7 101.614 139.484 102.879 139.484 104.364C139.484 105.909 139.704 107.205 140.143 108.25C140.59 109.288 141.215 110.072 142.018 110.602C142.829 111.125 143.787 111.386 144.893 111.386C145.515 111.386 146.079 111.307 146.587 111.148C147.102 110.989 147.553 110.758 147.939 110.455C148.333 110.144 148.655 109.769 148.905 109.33C149.162 108.883 149.34 108.379 149.439 107.818L155.121 107.852C155.022 108.883 154.723 109.898 154.223 110.898C153.731 111.898 153.053 112.811 152.189 113.636C151.325 114.455 150.272 115.106 149.03 115.591C147.795 116.076 146.378 116.318 144.78 116.318C142.674 116.318 140.787 115.856 139.121 114.932C137.462 114 136.151 112.644 135.189 110.864C134.227 109.083 133.746 106.917 133.746 104.364C133.746 101.803 134.234 99.6326 135.212 97.8523C136.189 96.072 137.511 94.7197 139.178 93.7955C140.844 92.8712 142.712 92.4091 144.78 92.4091C146.189 92.4091 147.492 92.6061 148.689 93C149.886 93.3864 150.939 93.9545 151.848 94.7045C152.757 95.447 153.496 96.3598 154.064 97.4432C154.632 98.5265 154.984 99.7652 155.121 101.159ZM163.964 92.7273V116H158.339V92.7273H163.964ZM189.462 104.364C189.462 106.924 188.969 109.095 187.984 110.875C187 112.655 185.666 114.008 183.984 114.932C182.31 115.856 180.431 116.318 178.348 116.318C176.257 116.318 174.375 115.852 172.7 114.92C171.026 113.989 169.696 112.636 168.712 110.864C167.734 109.083 167.246 106.917 167.246 104.364C167.246 101.803 167.734 99.6326 168.712 97.8523C169.696 96.072 171.026 94.7197 172.7 93.7955C174.375 92.8712 176.257 92.4091 178.348 92.4091C180.431 92.4091 182.31 92.8712 183.984 93.7955C185.666 94.7197 187 96.072 187.984 97.8523C188.969 99.6326 189.462 101.803 189.462 104.364ZM183.712 104.364C183.712 102.848 183.496 101.568 183.064 100.523C182.64 99.4773 182.026 98.6856 181.223 98.1477C180.428 97.6098 179.469 97.3409 178.348 97.3409C177.234 97.3409 176.276 97.6098 175.473 98.1477C174.67 98.6856 174.053 99.4773 173.621 100.523C173.196 101.568 172.984 102.848 172.984 104.364C172.984 105.879 173.196 107.159 173.621 108.205C174.053 109.25 174.67 110.042 175.473 110.58C176.276 111.117 177.234 111.386 178.348 111.386C179.469 111.386 180.428 111.117 181.223 110.58C182.026 110.042 182.64 109.25 183.064 108.205C183.496 107.159 183.712 105.879 183.712 104.364ZM212.553 92.7273V116H207.78L198.518 102.568H198.371V116H192.746V92.7273H197.587L206.746 106.136H206.939V92.7273H212.553ZM221.124 116H215.078L222.93 92.7273H230.419L238.271 116H232.226L226.76 98.5909H226.578L221.124 116ZM220.317 106.841H232.953V111.114H220.317V106.841ZM240.777 116V92.7273H246.402V111.432H256.084V116H240.777Z" fill="black"/>
</svg>
