<svg width="275" height="170" viewBox="0 0 275 170" fill="none" xmlns="http://www.w3.org/2000/svg">
<rect width="275" height="170" fill="white"/>
<path d="M45.0753 63.2344C44.9825 62.366 44.5914 61.6899 43.902 61.206C43.2192 60.7221 42.331 60.4801 41.2372 60.4801C40.4683 60.4801 39.8087 60.5961 39.2585 60.8281C38.7083 61.0601 38.2874 61.375 37.9957 61.7727C37.7041 62.1705 37.5549 62.6245 37.5483 63.1349C37.5483 63.5592 37.6444 63.9271 37.8366 64.2386C38.0355 64.5502 38.304 64.8153 38.642 65.0341C38.9801 65.2462 39.3546 65.4252 39.7656 65.571C40.1766 65.7169 40.5909 65.8395 41.0085 65.9389L42.9176 66.4162C43.6866 66.5952 44.4257 66.8371 45.1349 67.142C45.8509 67.447 46.4905 67.8314 47.054 68.2955C47.6241 68.7595 48.0748 69.3196 48.4062 69.9759C48.7377 70.6321 48.9034 71.401 48.9034 72.2827C48.9034 73.4759 48.5985 74.5265 47.9886 75.4347C47.3788 76.3362 46.4972 77.0421 45.3438 77.5526C44.197 78.0563 42.8082 78.3082 41.1776 78.3082C39.5933 78.3082 38.2178 78.063 37.0511 77.5724C35.8911 77.0819 34.983 76.366 34.3267 75.4247C33.6771 74.4834 33.3258 73.3366 33.2727 71.9844H36.902C36.955 72.6937 37.1738 73.2836 37.5582 73.7543C37.9427 74.2249 38.4432 74.5762 39.0597 74.8082C39.6828 75.0402 40.3788 75.1562 41.1477 75.1562C41.9498 75.1562 42.6525 75.0369 43.2557 74.7983C43.8655 74.553 44.3428 74.215 44.6875 73.7841C45.0322 73.3466 45.2079 72.8362 45.2145 72.2528C45.2079 71.7225 45.0521 71.285 44.7472 70.9403C44.4422 70.589 44.0147 70.2973 43.4645 70.0653C42.9209 69.8267 42.2846 69.6146 41.5554 69.429L39.2386 68.8324C37.5616 68.4015 36.2358 67.7486 35.2614 66.8736C34.2936 65.992 33.8097 64.822 33.8097 63.3636C33.8097 62.1638 34.1345 61.1132 34.7841 60.2116C35.4403 59.3101 36.3319 58.6108 37.4588 58.1136C38.5857 57.6098 39.8617 57.358 41.2869 57.358C42.732 57.358 43.9981 57.6098 45.0852 58.1136C46.179 58.6108 47.0374 59.3035 47.6605 60.1918C48.2836 61.0734 48.6051 62.0876 48.625 63.2344H45.0753ZM54.479 78H50.5415L57.7106 57.6364H62.2646L69.4435 78H65.506L60.0671 61.8125H59.908L54.479 78ZM54.6083 70.0156H65.3469V72.9787H54.6083V70.0156ZM84.9624 57.6364H88.6513V70.9403C88.6513 72.3987 88.3066 73.6813 87.6172 74.7884C86.9344 75.8954 85.9732 76.7604 84.7337 77.3835C83.4941 78 82.0457 78.3082 80.3885 78.3082C78.7247 78.3082 77.273 78 76.0334 77.3835C74.7938 76.7604 73.8326 75.8954 73.1499 74.7884C72.4671 73.6813 72.1257 72.3987 72.1257 70.9403V57.6364H75.8146V70.6321C75.8146 71.4806 76.0002 72.2363 76.3714 72.8991C76.7493 73.562 77.2796 74.0824 77.9624 74.4602C78.6451 74.8314 79.4538 75.017 80.3885 75.017C81.3232 75.017 82.1319 74.8314 82.8146 74.4602C83.504 74.0824 84.0343 73.562 84.4055 72.8991C84.7768 72.2363 84.9624 71.4806 84.9624 70.6321V57.6364ZM79.0064 55.6278L81.2337 51.0838H84.7536L81.701 55.6278H79.0064ZM99.5614 78H92.6609V57.6364H99.7006C101.722 57.6364 103.459 58.044 104.911 58.8594C106.369 59.6681 107.489 60.8314 108.272 62.3494C109.054 63.8674 109.445 65.6837 109.445 67.7983C109.445 69.9195 109.051 71.7424 108.262 73.267C107.48 74.7917 106.349 75.9616 104.871 76.777C103.4 77.5923 101.63 78 99.5614 78ZM96.3498 74.8082H99.3825C100.801 74.8082 101.984 74.5497 102.932 74.0327C103.88 73.509 104.593 72.7301 105.07 71.696C105.547 70.6553 105.786 69.3561 105.786 67.7983C105.786 66.2405 105.547 64.9479 105.07 63.9205C104.593 62.8864 103.887 62.1141 102.952 61.6037C102.024 61.0866 100.871 60.8281 99.4918 60.8281H96.3498V74.8082ZM112.95 78V57.6364H126.194V60.7287H116.639V66.2571H125.508V69.3494H116.639V74.9077H126.274V78H112.95ZM52.2045 101.818C52.2045 104.012 51.7936 105.892 50.9716 107.456C50.1563 109.014 49.0426 110.207 47.6307 111.036C46.2254 111.864 44.6312 112.278 42.848 112.278C41.0649 112.278 39.4673 111.864 38.0554 111.036C36.6501 110.2 35.5365 109.004 34.7145 107.446C33.8991 105.882 33.4915 104.006 33.4915 101.818C33.4915 99.6241 33.8991 97.7481 34.7145 96.1903C35.5365 94.6259 36.6501 93.4295 38.0554 92.6009C39.4673 91.7723 41.0649 91.358 42.848 91.358C44.6312 91.358 46.2254 91.7723 47.6307 92.6009C49.0426 93.4295 50.1563 94.6259 50.9716 96.1903C51.7936 97.7481 52.2045 99.6241 52.2045 101.818ZM48.4957 101.818C48.4957 100.274 48.2538 98.9711 47.7699 97.9105C47.2926 96.8433 46.6297 96.0379 45.7812 95.4943C44.9328 94.9441 43.955 94.669 42.848 94.669C41.741 94.669 40.7633 94.9441 39.9148 95.4943C39.0663 96.0379 38.4001 96.8433 37.9162 97.9105C37.4389 98.9711 37.2003 100.274 37.2003 101.818C37.2003 103.363 37.4389 104.669 37.9162 105.736C38.4001 106.796 39.0663 107.602 39.9148 108.152C40.7633 108.696 41.741 108.967 42.848 108.967C43.955 108.967 44.9328 108.696 45.7812 108.152C46.6297 107.602 47.2926 106.796 47.7699 105.736C48.2538 104.669 48.4957 103.363 48.4957 101.818ZM73.1225 98.5071H69.4038C69.2977 97.8973 69.1022 97.357 68.8171 96.8864C68.5321 96.4091 68.1774 96.0047 67.7532 95.6733C67.329 95.3419 66.8451 95.0933 66.3015 94.9276C65.7646 94.7552 65.1845 94.669 64.5614 94.669C63.4544 94.669 62.4734 94.9474 61.6183 95.5043C60.7631 96.0544 60.0936 96.8632 59.6097 97.9304C59.1258 98.991 58.8839 100.287 58.8839 101.818C58.8839 103.376 59.1258 104.688 59.6097 105.756C60.1003 106.816 60.7698 107.618 61.6183 108.162C62.4734 108.699 63.4511 108.967 64.5515 108.967C65.1613 108.967 65.7314 108.888 66.2617 108.729C66.7987 108.563 67.2792 108.321 67.7035 108.003C68.1344 107.685 68.4956 107.294 68.7873 106.83C69.0856 106.366 69.2911 105.835 69.4038 105.239L73.1225 105.259C72.9833 106.226 72.6817 107.134 72.2177 107.983C71.7603 108.831 71.1604 109.58 70.418 110.23C69.6755 110.873 68.8072 111.377 67.8129 111.741C66.8185 112.099 65.7148 112.278 64.5018 112.278C62.712 112.278 61.1145 111.864 59.7092 111.036C58.3039 110.207 57.1969 109.01 56.3881 107.446C55.5794 105.882 55.1751 104.006 55.1751 101.818C55.1751 99.6241 55.5827 97.7481 56.3981 96.1903C57.2134 94.6259 58.3237 93.4295 59.729 92.6009C61.1344 91.7723 62.7253 91.358 64.5018 91.358C65.6353 91.358 66.6893 91.517 67.6637 91.8352C68.6381 92.1534 69.5065 92.6207 70.2688 93.2372C71.0311 93.8471 71.6576 94.5961 72.1481 95.4844C72.6452 96.366 72.9701 97.3736 73.1225 98.5071ZM89.3374 91.6364H93.0263V104.94C93.0263 106.399 92.6816 107.681 91.9922 108.788C91.3094 109.895 90.3482 110.76 89.1087 111.384C87.8691 112 86.4207 112.308 84.7635 112.308C83.0997 112.308 81.648 112 80.4084 111.384C79.1688 110.76 78.2076 109.895 77.5249 108.788C76.8421 107.681 76.5007 106.399 76.5007 104.94V91.6364H80.1896V104.632C80.1896 105.481 80.3752 106.236 80.7464 106.899C81.1243 107.562 81.6546 108.082 82.3374 108.46C83.0201 108.831 83.8288 109.017 84.7635 109.017C85.6982 109.017 86.5069 108.831 87.1896 108.46C87.879 108.082 88.4093 107.562 88.7805 106.899C89.1518 106.236 89.3374 105.481 89.3374 104.632V91.6364ZM97.0359 112V91.6364H104.672C106.237 91.6364 107.549 91.928 108.61 92.5114C109.677 93.0947 110.482 93.8968 111.026 94.9176C111.576 95.9318 111.851 97.0852 111.851 98.3778C111.851 99.6837 111.576 100.844 111.026 101.858C110.476 102.872 109.664 103.671 108.59 104.254C107.516 104.831 106.194 105.119 104.623 105.119H99.5614V102.087H104.125C105.04 102.087 105.789 101.928 106.373 101.609C106.956 101.291 107.387 100.854 107.665 100.297C107.95 99.7401 108.093 99.1004 108.093 98.3778C108.093 97.6553 107.95 97.0189 107.665 96.4688C107.387 95.9186 106.953 95.491 106.363 95.1861C105.779 94.8745 105.027 94.7188 104.105 94.7188H100.725V112H97.0359ZM115.401 112H111.463L118.632 91.6364H123.186L130.365 112H126.428L120.989 95.8125H120.83L115.401 112ZM115.53 104.016H126.269V106.979H115.53V104.016ZM149.521 98.5071H145.802C145.696 97.8973 145.501 97.357 145.216 96.8864C144.931 96.4091 144.576 96.0047 144.152 95.6733C143.727 95.3419 143.243 95.0933 142.7 94.9276C142.163 94.7552 141.583 94.669 140.96 94.669C139.853 94.669 138.872 94.9474 138.017 95.5043C137.162 96.0544 136.492 96.8632 136.008 97.9304C135.524 98.991 135.282 100.287 135.282 101.818C135.282 103.376 135.524 104.688 136.008 105.756C136.499 106.816 137.168 107.618 138.017 108.162C138.872 108.699 139.85 108.967 140.95 108.967C141.56 108.967 142.13 108.888 142.66 108.729C143.197 108.563 143.678 108.321 144.102 108.003C144.533 107.685 144.894 107.294 145.186 106.83C145.484 106.366 145.69 105.835 145.802 105.239L149.521 105.259C149.382 106.226 149.08 107.134 148.616 107.983C148.159 108.831 147.559 109.58 146.816 110.23C146.074 110.873 145.206 111.377 144.211 111.741C143.217 112.099 142.113 112.278 140.9 112.278C139.11 112.278 137.513 111.864 136.108 111.036C134.702 110.207 133.595 109.01 132.787 107.446C131.978 105.882 131.574 104.006 131.574 101.818C131.574 99.6241 131.981 97.7481 132.797 96.1903C133.612 94.6259 134.722 93.4295 136.127 92.6009C137.533 91.7723 139.124 91.358 140.9 91.358C142.034 91.358 143.088 91.517 144.062 91.8352C145.037 92.1534 145.905 92.6207 146.667 93.2372C147.43 93.8471 148.056 94.5961 148.547 95.4844C149.044 96.366 149.368 97.3736 149.521 98.5071ZM156.588 91.6364V112H152.899V91.6364H156.588ZM178.779 101.818C178.779 104.012 178.368 105.892 177.546 107.456C176.73 109.014 175.617 110.207 174.205 111.036C172.8 111.864 171.205 112.278 169.422 112.278C167.639 112.278 166.042 111.864 164.63 111.036C163.224 110.2 162.111 109.004 161.289 107.446C160.473 105.882 160.066 104.006 160.066 101.818C160.066 99.6241 160.473 97.7481 161.289 96.1903C162.111 94.6259 163.224 93.4295 164.63 92.6009C166.042 91.7723 167.639 91.358 169.422 91.358C171.205 91.358 172.8 91.7723 174.205 92.6009C175.617 93.4295 176.73 94.6259 177.546 96.1903C178.368 97.7481 178.779 99.6241 178.779 101.818ZM175.07 101.818C175.07 100.274 174.828 98.9711 174.344 97.9105C173.867 96.8433 173.204 96.0379 172.355 95.4943C171.507 94.9441 170.529 94.669 169.422 94.669C168.315 94.669 167.337 94.9441 166.489 95.4943C165.641 96.0379 164.974 96.8433 164.49 97.9105C164.013 98.9711 163.775 100.274 163.775 101.818C163.775 103.363 164.013 104.669 164.49 105.736C164.974 106.796 165.641 107.602 166.489 108.152C167.337 108.696 168.315 108.967 169.422 108.967C170.529 108.967 171.507 108.696 172.355 108.152C173.204 107.602 173.867 106.796 174.344 105.736C174.828 104.669 175.07 103.363 175.07 101.818ZM199.001 91.6364V112H195.719L186.124 98.1293H185.955V112H182.266V91.6364H185.567L195.153 105.517H195.332V91.6364H199.001ZM205.635 112H201.698L208.867 91.6364H213.421L220.6 112H216.662L211.223 95.8125H211.064L205.635 112ZM205.765 104.016H216.503V106.979H205.765V104.016ZM223.282 112V91.6364H226.971V108.908H235.94V112H223.282Z" fill="black"/>
</svg>
