<svg width="275" height="170" viewBox="0 0 275 170" fill="none" xmlns="http://www.w3.org/2000/svg">
<rect width="275" height="170" fill="white"/>
<path d="M26.8409 60.7045C26.7652 59.8712 26.428 59.2235 25.8295 58.7614C25.2386 58.2917 24.3939 58.0568 23.2955 58.0568C22.5682 58.0568 21.9621 58.1515 21.4773 58.3409C20.9924 58.5303 20.6288 58.7917 20.3864 59.125C20.1439 59.4508 20.0189 59.8258 20.0114 60.25C19.9962 60.5985 20.0644 60.9053 20.2159 61.1705C20.375 61.4356 20.6023 61.6705 20.8977 61.875C21.2008 62.072 21.5644 62.2462 21.9886 62.3977C22.4129 62.5492 22.8902 62.6818 23.4205 62.7955L25.4205 63.25C26.572 63.5 27.5871 63.8333 28.4659 64.25C29.3523 64.6667 30.0947 65.1629 30.6932 65.7386C31.2992 66.3144 31.7576 66.9773 32.0682 67.7273C32.3788 68.4773 32.5379 69.3182 32.5455 70.25C32.5379 71.7197 32.1667 72.9811 31.4318 74.0341C30.697 75.0871 29.6402 75.8939 28.2614 76.4545C26.8902 77.0152 25.2348 77.2955 23.2955 77.2955C21.3485 77.2955 19.6515 77.0038 18.2045 76.4205C16.7576 75.8371 15.6326 74.9508 14.8295 73.7614C14.0265 72.572 13.6136 71.0682 13.5909 69.25H18.9773C19.0227 70 19.2235 70.625 19.5795 71.125C19.9356 71.625 20.4242 72.0038 21.0455 72.2614C21.6742 72.5189 22.4015 72.6477 23.2273 72.6477C23.9848 72.6477 24.6288 72.5455 25.1591 72.3409C25.697 72.1364 26.1098 71.8523 26.3977 71.4886C26.6856 71.125 26.8333 70.7083 26.8409 70.2386C26.8333 69.7992 26.697 69.4242 26.4318 69.1136C26.1667 68.7955 25.7576 68.5227 25.2045 68.2955C24.6591 68.0606 23.9621 67.8447 23.1136 67.6477L20.6818 67.0795C18.6667 66.6174 17.0795 65.8712 15.9205 64.8409C14.7614 63.803 14.1856 62.4015 14.1932 60.6364C14.1856 59.197 14.572 57.9356 15.3523 56.8523C16.1326 55.7689 17.2121 54.9242 18.5909 54.3182C19.9697 53.7121 21.5417 53.4091 23.3068 53.4091C25.1098 53.4091 26.6742 53.7159 28 54.3295C29.3333 54.9356 30.3674 55.7879 31.1023 56.8864C31.8371 57.9848 32.2121 59.2576 32.2273 60.7045H26.8409ZM39.7017 77H33.6562L41.5085 53.7273H48.9972L56.8494 77H50.804L45.3381 59.5909H45.1562L39.7017 77ZM38.8949 67.8409H51.5312V72.1136H38.8949V67.8409ZM73.4347 53.7273H79.0483V68.7386C79.0483 70.4735 78.6354 71.9848 77.8097 73.2727C76.9839 74.553 75.8324 75.5455 74.3551 76.25C72.8778 76.947 71.1619 77.2955 69.2074 77.2955C67.2301 77.2955 65.5028 76.947 64.0256 76.25C62.5483 75.5455 61.4006 74.553 60.5824 73.2727C59.7642 71.9848 59.3551 70.4735 59.3551 68.7386V53.7273H64.9801V68.25C64.9801 69.053 65.1544 69.7689 65.5028 70.3977C65.8589 71.0265 66.3551 71.5189 66.9915 71.875C67.6278 72.2311 68.3665 72.4091 69.2074 72.4091C70.0483 72.4091 70.7831 72.2311 71.4119 71.875C72.0483 71.5189 72.5445 71.0265 72.9006 70.3977C73.2566 69.7689 73.4347 69.053 73.4347 68.25V53.7273ZM67.2869 51.5114L69.5824 46.3864H74.5028L71.071 51.5114H67.2869ZM91.1761 77H82.5739V53.7273H91.1648C93.536 53.7273 95.5777 54.1932 97.2898 55.125C99.0095 56.0492 100.335 57.3826 101.267 59.125C102.199 60.8598 102.665 62.9356 102.665 65.3523C102.665 67.7765 102.199 69.8598 101.267 71.6023C100.343 73.3447 99.0208 74.6818 97.3011 75.6136C95.5814 76.5379 93.5398 77 91.1761 77ZM88.1989 72.2045H90.9602C92.2633 72.2045 93.3655 71.9848 94.267 71.5455C95.1761 71.0985 95.8617 70.375 96.3239 69.375C96.7936 68.3674 97.0284 67.0265 97.0284 65.3523C97.0284 63.678 96.7936 62.3447 96.3239 61.3523C95.8542 60.3523 95.161 59.6326 94.2443 59.1932C93.3352 58.7462 92.214 58.5227 90.8807 58.5227H88.1989V72.2045ZM105.949 77V53.7273H122.176V58.2955H111.574V63.0682H121.347V67.6477H111.574V72.4318H122.176V77H105.949ZM36.2273 104.364C36.2273 106.924 35.7348 109.095 34.75 110.875C33.7652 112.655 32.4318 114.008 30.75 114.932C29.0758 115.856 27.197 116.318 25.1136 116.318C23.0227 116.318 21.1402 115.852 19.4659 114.92C17.7917 113.989 16.4621 112.636 15.4773 110.864C14.5 109.083 14.0114 106.917 14.0114 104.364C14.0114 101.803 14.5 99.6326 15.4773 97.8523C16.4621 96.072 17.7917 94.7197 19.4659 93.7955C21.1402 92.8712 23.0227 92.4091 25.1136 92.4091C27.197 92.4091 29.0758 92.8712 30.75 93.7955C32.4318 94.7197 33.7652 96.072 34.75 97.8523C35.7348 99.6326 36.2273 101.803 36.2273 104.364ZM30.4773 104.364C30.4773 102.848 30.2614 101.568 29.8295 100.523C29.4053 99.4773 28.7917 98.6856 27.9886 98.1477C27.1932 97.6098 26.2348 97.3409 25.1136 97.3409C24 97.3409 23.0417 97.6098 22.2386 98.1477C21.4356 98.6856 20.8182 99.4773 20.3864 100.523C19.9621 101.568 19.75 102.848 19.75 104.364C19.75 105.879 19.9621 107.159 20.3864 108.205C20.8182 109.25 21.4356 110.042 22.2386 110.58C23.0417 111.117 24 111.386 25.1136 111.386C26.2348 111.386 27.1932 111.117 27.9886 110.58C28.7917 110.042 29.4053 109.25 29.8295 108.205C30.2614 107.159 30.4773 105.879 30.4773 104.364ZM60.6364 101.159H54.9545C54.8788 100.576 54.7235 100.049 54.4886 99.5795C54.2538 99.1098 53.9432 98.7083 53.5568 98.375C53.1705 98.0417 52.7121 97.7879 52.1818 97.6136C51.6591 97.4318 51.0795 97.3409 50.4432 97.3409C49.3144 97.3409 48.3409 97.6174 47.5227 98.1705C46.7121 98.7235 46.0871 99.5227 45.6477 100.568C45.2159 101.614 45 102.879 45 104.364C45 105.909 45.2197 107.205 45.6591 108.25C46.1061 109.288 46.7311 110.072 47.5341 110.602C48.3447 111.125 49.303 111.386 50.4091 111.386C51.0303 111.386 51.5947 111.307 52.1023 111.148C52.6174 110.989 53.0682 110.758 53.4545 110.455C53.8485 110.144 54.1705 109.769 54.4205 109.33C54.678 108.883 54.8561 108.379 54.9545 107.818L60.6364 107.852C60.5379 108.883 60.2386 109.898 59.7386 110.898C59.2462 111.898 58.5682 112.811 57.7045 113.636C56.8409 114.455 55.7879 115.106 54.5455 115.591C53.3106 116.076 51.8939 116.318 50.2955 116.318C48.1894 116.318 46.303 115.856 44.6364 114.932C42.9773 114 41.6667 112.644 40.7045 110.864C39.7424 109.083 39.2614 106.917 39.2614 104.364C39.2614 101.803 39.75 99.6326 40.7273 97.8523C41.7045 96.072 43.0265 94.7197 44.6932 93.7955C46.3598 92.8712 48.2273 92.4091 50.2955 92.4091C51.7045 92.4091 53.0076 92.6061 54.2045 93C55.4015 93.3864 56.4545 93.9545 57.3636 94.7045C58.2727 95.447 59.0114 96.3598 59.5795 97.4432C60.1477 98.5265 60.5 99.7652 60.6364 101.159ZM77.9347 92.7273H83.5483V107.739C83.5483 109.473 83.1354 110.985 82.3097 112.273C81.4839 113.553 80.3324 114.545 78.8551 115.25C77.3778 115.947 75.6619 116.295 73.7074 116.295C71.7301 116.295 70.0028 115.947 68.5256 115.25C67.0483 114.545 65.9006 113.553 65.0824 112.273C64.2642 110.985 63.8551 109.473 63.8551 107.739V92.7273H69.4801V107.25C69.4801 108.053 69.6544 108.769 70.0028 109.398C70.3589 110.027 70.8551 110.519 71.4915 110.875C72.1278 111.231 72.8665 111.409 73.7074 111.409C74.5483 111.409 75.2831 111.231 75.9119 110.875C76.5483 110.519 77.0445 110.027 77.4006 109.398C77.7566 108.769 77.9347 108.053 77.9347 107.25V92.7273ZM87.0739 116V92.7273H96.6875C98.4299 92.7273 99.9337 93.0682 101.199 93.75C102.472 94.4242 103.453 95.3674 104.142 96.5795C104.831 97.7841 105.176 99.1856 105.176 100.784C105.176 102.39 104.824 103.795 104.119 105C103.422 106.197 102.426 107.125 101.131 107.784C99.8352 108.443 98.2973 108.773 96.517 108.773H90.5852V104.341H95.4716C96.3201 104.341 97.0284 104.193 97.5966 103.898C98.1723 103.602 98.608 103.189 98.9034 102.659C99.1989 102.121 99.3466 101.496 99.3466 100.784C99.3466 100.064 99.1989 99.4432 98.9034 98.9205C98.608 98.3902 98.1723 97.9811 97.5966 97.6932C97.0208 97.4053 96.3125 97.2614 95.4716 97.2614H92.6989V116H87.0739ZM110.17 116H104.125L111.977 92.7273H119.466L127.318 116H121.273L115.807 98.5909H115.625L110.17 116ZM109.364 106.841H122V111.114H109.364V106.841ZM149.855 101.159H144.173C144.098 100.576 143.942 100.049 143.707 99.5795C143.473 99.1098 143.162 98.7083 142.776 98.375C142.389 98.0417 141.931 97.7879 141.401 97.6136C140.878 97.4318 140.298 97.3409 139.662 97.3409C138.533 97.3409 137.56 97.6174 136.741 98.1705C135.931 98.7235 135.306 99.5227 134.866 100.568C134.435 101.614 134.219 102.879 134.219 104.364C134.219 105.909 134.438 107.205 134.878 108.25C135.325 109.288 135.95 110.072 136.753 110.602C137.563 111.125 138.522 111.386 139.628 111.386C140.249 111.386 140.813 111.307 141.321 111.148C141.836 110.989 142.287 110.758 142.673 110.455C143.067 110.144 143.389 109.769 143.639 109.33C143.897 108.883 144.075 108.379 144.173 107.818L149.855 107.852C149.757 108.883 149.457 109.898 148.957 110.898C148.465 111.898 147.787 112.811 146.923 113.636C146.06 114.455 145.007 115.106 143.764 115.591C142.529 116.076 141.113 116.318 139.514 116.318C137.408 116.318 135.522 115.856 133.855 114.932C132.196 114 130.885 112.644 129.923 110.864C128.961 109.083 128.48 106.917 128.48 104.364C128.48 101.803 128.969 99.6326 129.946 97.8523C130.923 96.072 132.245 94.7197 133.912 93.7955C135.579 92.8712 137.446 92.4091 139.514 92.4091C140.923 92.4091 142.226 92.6061 143.423 93C144.62 93.3864 145.673 93.9545 146.582 94.7045C147.491 95.447 148.23 96.3598 148.798 97.4432C149.366 98.5265 149.719 99.7652 149.855 101.159ZM158.699 92.7273V116H153.074V92.7273H158.699ZM184.196 104.364C184.196 106.924 183.704 109.095 182.719 110.875C181.734 112.655 180.401 114.008 178.719 114.932C177.045 115.856 175.166 116.318 173.082 116.318C170.991 116.318 169.109 115.852 167.435 114.92C165.76 113.989 164.431 112.636 163.446 110.864C162.469 109.083 161.98 106.917 161.98 104.364C161.98 101.803 162.469 99.6326 163.446 97.8523C164.431 96.072 165.76 94.7197 167.435 93.7955C169.109 92.8712 170.991 92.4091 173.082 92.4091C175.166 92.4091 177.045 92.8712 178.719 93.7955C180.401 94.7197 181.734 96.072 182.719 97.8523C183.704 99.6326 184.196 101.803 184.196 104.364ZM178.446 104.364C178.446 102.848 178.23 101.568 177.798 100.523C177.374 99.4773 176.76 98.6856 175.957 98.1477C175.162 97.6098 174.204 97.3409 173.082 97.3409C171.969 97.3409 171.01 97.6098 170.207 98.1477C169.404 98.6856 168.787 99.4773 168.355 100.523C167.931 101.568 167.719 102.848 167.719 104.364C167.719 105.879 167.931 107.159 168.355 108.205C168.787 109.25 169.404 110.042 170.207 110.58C171.01 111.117 171.969 111.386 173.082 111.386C174.204 111.386 175.162 111.117 175.957 110.58C176.76 110.042 177.374 109.25 177.798 108.205C178.23 107.159 178.446 105.879 178.446 104.364ZM207.287 92.7273V116H202.514L193.253 102.568H193.105V116H187.48V92.7273H192.321L201.48 106.136H201.673V92.7273H207.287ZM215.858 116H209.812L217.665 92.7273H225.153L233.006 116H226.96L221.494 98.5909H221.312L215.858 116ZM215.051 106.841H227.688V111.114H215.051V106.841ZM235.511 116V92.7273H241.136V111.432H250.818V116H235.511Z" fill="black"/>
</svg>
