<svg width="275" height="170" viewBox="0 0 275 170" fill="none" xmlns="http://www.w3.org/2000/svg">
<rect width="275" height="170" fill="white"/>
<path d="M61.5753 63.2344C61.4825 62.366 61.0914 61.6899 60.402 61.206C59.7192 60.7221 58.831 60.4801 57.7372 60.4801C56.9683 60.4801 56.3087 60.5961 55.7585 60.8281C55.2083 61.0601 54.7874 61.375 54.4957 61.7727C54.2041 62.1705 54.0549 62.6245 54.0483 63.1349C54.0483 63.5592 54.1444 63.9271 54.3366 64.2386C54.5355 64.5502 54.804 64.8153 55.142 65.0341C55.4801 65.2462 55.8546 65.4252 56.2656 65.571C56.6766 65.7169 57.0909 65.8395 57.5085 65.9389L59.4176 66.4162C60.1866 66.5952 60.9257 66.8371 61.6349 67.142C62.3509 67.447 62.9905 67.8314 63.554 68.2955C64.1241 68.7595 64.5748 69.3196 64.9062 69.9759C65.2377 70.6321 65.4034 71.401 65.4034 72.2827C65.4034 73.4759 65.0985 74.5265 64.4886 75.4347C63.8788 76.3362 62.9972 77.0421 61.8438 77.5526C60.697 78.0563 59.3082 78.3082 57.6776 78.3082C56.0933 78.3082 54.7178 78.063 53.5511 77.5724C52.3911 77.0819 51.483 76.366 50.8267 75.4247C50.1771 74.4834 49.8258 73.3366 49.7727 71.9844H53.402C53.455 72.6937 53.6738 73.2836 54.0582 73.7543C54.4427 74.2249 54.9432 74.5762 55.5597 74.8082C56.1828 75.0402 56.8788 75.1562 57.6477 75.1562C58.4498 75.1562 59.1525 75.0369 59.7557 74.7983C60.3655 74.553 60.8428 74.215 61.1875 73.7841C61.5322 73.3466 61.7079 72.8362 61.7145 72.2528C61.7079 71.7225 61.5521 71.285 61.2472 70.9403C60.9422 70.589 60.5147 70.2973 59.9645 70.0653C59.4209 69.8267 58.7846 69.6146 58.0554 69.429L55.7386 68.8324C54.0616 68.4015 52.7358 67.7486 51.7614 66.8736C50.7936 65.992 50.3097 64.822 50.3097 63.3636C50.3097 62.1638 50.6345 61.1132 51.2841 60.2116C51.9403 59.3101 52.8319 58.6108 53.9588 58.1136C55.0857 57.6098 56.3617 57.358 57.7869 57.358C59.232 57.358 60.4981 57.6098 61.5852 58.1136C62.679 58.6108 63.5374 59.3035 64.1605 60.1918C64.7836 61.0734 65.1051 62.0876 65.125 63.2344H61.5753ZM68.6921 78V57.6364H81.9364V60.7287H72.381V66.2571H81.2504V69.3494H72.381V74.9077H82.016V78H68.6921ZM99.342 64.1392C99.1763 63.6023 98.9476 63.1217 98.6559 62.6974C98.3709 62.2666 98.0262 61.8987 97.6218 61.5938C97.2241 61.2888 96.7667 61.0601 96.2496 60.9077C95.7326 60.7486 95.1692 60.669 94.5593 60.669C93.4656 60.669 92.4911 60.9441 91.636 61.4943C90.7809 62.0445 90.1081 62.8532 89.6175 63.9205C89.1336 64.9811 88.8917 66.2737 88.8917 67.7983C88.8917 69.3362 89.1336 70.6387 89.6175 71.706C90.1014 72.7732 90.7743 73.5852 91.636 74.142C92.4978 74.6922 93.4987 74.9673 94.6388 74.9673C95.6729 74.9673 96.5678 74.7685 97.3235 74.3707C98.0858 73.973 98.6725 73.4096 99.0835 72.6804C99.4944 71.9446 99.6999 71.0829 99.6999 70.0952L100.535 70.2244H95.0067V67.3409H103.27V69.7869C103.27 71.5303 102.898 73.0384 102.156 74.3111C101.413 75.5838 100.393 76.5649 99.0934 77.2543C97.7942 77.937 96.3027 78.2784 94.619 78.2784C92.743 78.2784 91.0958 77.8575 89.6772 77.0156C88.2653 76.1671 87.1616 74.964 86.3661 73.4062C85.5773 71.8419 85.1829 69.9858 85.1829 67.8381C85.1829 66.1941 85.4149 64.7259 85.8789 63.4332C86.3496 62.1406 87.0058 61.0436 87.8477 60.142C88.6895 59.2339 89.6772 58.5445 90.8107 58.0739C91.9442 57.5966 93.1772 57.358 94.5096 57.358C95.6365 57.358 96.6871 57.5237 97.6616 57.8551C98.636 58.1799 99.5011 58.6439 100.257 59.2472C101.019 59.8504 101.645 60.5663 102.136 61.3949C102.627 62.2235 102.948 63.1383 103.1 64.1392H99.342ZM119.673 57.6364H123.362V70.9403C123.362 72.3987 123.018 73.6813 122.328 74.7884C121.645 75.8954 120.684 76.7604 119.445 77.3835C118.205 78 116.757 78.3082 115.099 78.3082C113.436 78.3082 111.984 78 110.744 77.3835C109.505 76.7604 108.544 75.8954 107.861 74.7884C107.178 73.6813 106.837 72.3987 106.837 70.9403V57.6364H110.526V70.6321C110.526 71.4806 110.711 72.2363 111.082 72.8991C111.46 73.562 111.991 74.0824 112.673 74.4602C113.356 74.8314 114.165 75.017 115.099 75.017C116.034 75.017 116.843 74.8314 117.526 74.4602C118.215 74.0824 118.745 73.562 119.116 72.8991C119.488 72.2363 119.673 71.4806 119.673 70.6321V57.6364ZM127.372 78V57.6364H135.008C136.573 57.6364 137.885 57.9081 138.946 58.4517C140.013 58.9953 140.818 59.7576 141.362 60.7386C141.912 61.7131 142.187 62.8499 142.187 64.1491C142.187 65.455 141.909 66.5885 141.352 67.5497C140.802 68.5043 139.99 69.2434 138.916 69.767C137.842 70.2841 136.523 70.5426 134.958 70.5426H129.52V67.4801H134.461C135.376 67.4801 136.125 67.3542 136.708 67.1023C137.292 66.8437 137.723 66.4692 138.001 65.9787C138.286 65.4815 138.429 64.8717 138.429 64.1491C138.429 63.4266 138.286 62.8101 138.001 62.2997C137.716 61.7827 137.282 61.3916 136.699 61.1264C136.115 60.8546 135.363 60.7188 134.441 60.7188H131.061V78H127.372ZM137.892 68.7727L142.933 78H138.816L133.865 68.7727H137.892ZM148.198 78H144.26L151.429 57.6364H155.983L163.162 78H159.225L153.786 61.8125H153.627L148.198 78ZM148.327 70.0156H159.066V72.9787H148.327V70.0156ZM182.579 57.6364V78H179.298L169.702 64.1293H169.533V78H165.844V57.6364H169.146L178.731 71.517H178.91V57.6364H182.579ZM204.029 64.5071H200.31C200.204 63.8973 200.008 63.357 199.723 62.8864C199.438 62.4091 199.084 62.0047 198.659 61.6733C198.235 61.3419 197.751 61.0933 197.208 60.9276C196.671 60.7552 196.091 60.669 195.468 60.669C194.361 60.669 193.38 60.9474 192.525 61.5043C191.669 62.0544 191 62.8632 190.516 63.9304C190.032 64.991 189.79 66.2869 189.79 67.8182C189.79 69.3759 190.032 70.6884 190.516 71.7557C191.007 72.8163 191.676 73.6184 192.525 74.1619C193.38 74.6989 194.357 74.9673 195.458 74.9673C196.068 74.9673 196.638 74.8878 197.168 74.7287C197.705 74.563 198.185 74.321 198.61 74.0028C199.041 73.6847 199.402 73.2936 199.694 72.8295C199.992 72.3655 200.197 71.8352 200.31 71.2386L204.029 71.2585C203.89 72.2263 203.588 73.1345 203.124 73.983C202.667 74.8314 202.067 75.5805 201.324 76.2301C200.582 76.8731 199.713 77.3769 198.719 77.7415C197.725 78.0994 196.621 78.2784 195.408 78.2784C193.618 78.2784 192.021 77.8641 190.615 77.0355C189.21 76.2069 188.103 75.0104 187.294 73.446C186.486 71.8816 186.081 70.0057 186.081 67.8182C186.081 65.6241 186.489 63.7481 187.304 62.1903C188.12 60.6259 189.23 59.4295 190.635 58.6009C192.041 57.7723 193.632 57.358 195.408 57.358C196.542 57.358 197.596 57.517 198.57 57.8352C199.544 58.1534 200.413 58.6207 201.175 59.2372C201.937 59.8471 202.564 60.5961 203.054 61.4844C203.551 62.366 203.876 63.3736 204.029 64.5071ZM194.364 77.9801H196.313L196.154 78.8253C196.777 78.9181 197.304 79.1567 197.735 79.5412C198.172 79.9323 198.391 80.4924 198.391 81.2216C198.398 82.1629 197.977 82.9186 197.128 83.4886C196.28 84.0587 195.07 84.3438 193.499 84.3438L193.459 82.5739C194.221 82.5739 194.828 82.4711 195.279 82.2656C195.73 82.0668 195.958 81.7486 195.965 81.3111C195.978 80.8868 195.819 80.5753 195.488 80.3764C195.163 80.1842 194.646 80.0516 193.936 79.9787L194.364 77.9801ZM209.776 78H205.838L213.007 57.6364H217.561L224.74 78H220.803L215.364 61.8125H215.205L209.776 78ZM209.905 70.0156H220.644V72.9787H209.905V70.0156ZM54.1974 91.6364V112H50.5085V91.6364H54.1974ZM74.9265 91.6364V112H71.6452L62.0501 98.1293H61.881V112H58.1921V91.6364H61.4933L71.0785 105.517H71.2575V91.6364H74.9265ZM85.8466 112H78.946V91.6364H85.9858C88.0076 91.6364 89.7443 92.044 91.196 92.8594C92.6544 93.6681 93.7746 94.8314 94.5568 96.3494C95.339 97.8674 95.7301 99.6837 95.7301 101.798C95.7301 103.92 95.3357 105.742 94.5469 107.267C93.7647 108.792 92.6345 109.962 91.1562 110.777C89.6847 111.592 87.9148 112 85.8466 112ZM82.6349 108.808H85.6676C87.0862 108.808 88.2694 108.55 89.2173 108.033C90.1652 107.509 90.8778 106.73 91.3551 105.696C91.8324 104.655 92.071 103.356 92.071 101.798C92.071 100.241 91.8324 98.9479 91.3551 97.9205C90.8778 96.8864 90.1719 96.1141 89.2372 95.6037C88.3092 95.0866 87.1558 94.8281 85.777 94.8281H82.6349V108.808ZM112.072 91.6364H115.761V104.94C115.761 106.399 115.416 107.681 114.727 108.788C114.044 109.895 113.083 110.76 111.843 111.384C110.603 112 109.155 112.308 107.498 112.308C105.834 112.308 104.382 112 103.143 111.384C101.903 110.76 100.942 109.895 100.259 108.788C99.5765 107.681 99.2351 106.399 99.2351 104.94V91.6364H102.924V104.632C102.924 105.481 103.11 106.236 103.481 106.899C103.859 107.562 104.389 108.082 105.072 108.46C105.754 108.831 106.563 109.017 107.498 109.017C108.433 109.017 109.241 108.831 109.924 108.46C110.613 108.082 111.144 107.562 111.515 106.899C111.886 106.236 112.072 105.481 112.072 104.632V91.6364ZM130.837 97.2344C130.744 96.366 130.353 95.6899 129.664 95.206C128.981 94.7221 128.093 94.4801 126.999 94.4801C126.23 94.4801 125.57 94.5961 125.02 94.8281C124.47 95.0601 124.049 95.375 123.757 95.7727C123.466 96.1705 123.317 96.6245 123.31 97.1349C123.31 97.5592 123.406 97.9271 123.598 98.2386C123.797 98.5502 124.066 98.8153 124.404 99.0341C124.742 99.2462 125.116 99.4252 125.527 99.571C125.938 99.7169 126.353 99.8395 126.77 99.9389L128.679 100.416C129.448 100.595 130.187 100.837 130.897 101.142C131.613 101.447 132.252 101.831 132.816 102.295C133.386 102.759 133.837 103.32 134.168 103.976C134.499 104.632 134.665 105.401 134.665 106.283C134.665 107.476 134.36 108.527 133.75 109.435C133.141 110.336 132.259 111.042 131.105 111.553C129.959 112.056 128.57 112.308 126.939 112.308C125.355 112.308 123.98 112.063 122.813 111.572C121.653 111.082 120.745 110.366 120.088 109.425C119.439 108.483 119.087 107.337 119.034 105.984H122.664C122.717 106.694 122.935 107.284 123.32 107.754C123.704 108.225 124.205 108.576 124.821 108.808C125.444 109.04 126.141 109.156 126.909 109.156C127.712 109.156 128.414 109.037 129.017 108.798C129.627 108.553 130.105 108.215 130.449 107.784C130.794 107.347 130.97 106.836 130.976 106.253C130.97 105.723 130.814 105.285 130.509 104.94C130.204 104.589 129.776 104.297 129.226 104.065C128.683 103.827 128.046 103.615 127.317 103.429L125 102.832C123.323 102.402 121.998 101.749 121.023 100.874C120.055 99.992 119.571 98.822 119.571 97.3636C119.571 96.1638 119.896 95.1132 120.546 94.2116C121.202 93.3101 122.094 92.6108 123.221 92.1136C124.347 91.6098 125.623 91.358 127.049 91.358C128.494 91.358 129.76 91.6098 130.847 92.1136C131.941 92.6108 132.799 93.3035 133.422 94.1918C134.045 95.0734 134.367 96.0876 134.387 97.2344H130.837ZM137.059 94.7287V91.6364H153.306V94.7287H147.012V112H143.353V94.7287H137.059ZM156.438 112V91.6364H164.075C165.639 91.6364 166.951 91.9081 168.012 92.4517C169.079 92.9953 169.885 93.7576 170.428 94.7386C170.978 95.7131 171.254 96.8499 171.254 98.1491C171.254 99.455 170.975 100.589 170.418 101.55C169.868 102.504 169.056 103.243 167.982 103.767C166.908 104.284 165.589 104.543 164.025 104.543H158.586V101.48H163.528C164.442 101.48 165.192 101.354 165.775 101.102C166.358 100.844 166.789 100.469 167.067 99.9787C167.353 99.4815 167.495 98.8717 167.495 98.1491C167.495 97.4266 167.353 96.8101 167.067 96.2997C166.782 95.7827 166.348 95.3916 165.765 95.1264C165.182 94.8546 164.429 94.7188 163.508 94.7188H160.127V112H156.438ZM166.958 102.773L171.999 112H167.883L162.931 102.773H166.958ZM178.338 91.6364V112H174.649V91.6364H178.338ZM184.948 112H181.01L188.179 91.6364H192.733L199.912 112H195.975L190.536 95.8125H190.377L184.948 112ZM185.077 104.016H195.816V106.979H185.077V104.016ZM202.594 112V91.6364H206.283V108.908H215.252V112H202.594Z" fill="black"/>
</svg>
