<svg width="275" height="170" viewBox="0 0 275 170" fill="none" xmlns="http://www.w3.org/2000/svg">
<rect width="275" height="170" fill="white"/>
<path d="M48.7003 60.7045C48.6245 59.8712 48.2874 59.2235 47.6889 58.7614C47.098 58.2917 46.2533 58.0568 45.1548 58.0568C44.4276 58.0568 43.8215 58.1515 43.3366 58.3409C42.8518 58.5303 42.4882 58.7917 42.2457 59.125C42.0033 59.4508 41.8783 59.8258 41.8707 60.25C41.8556 60.5985 41.9238 60.9053 42.0753 61.1705C42.2344 61.4356 42.4616 61.6705 42.7571 61.875C43.0601 62.072 43.4238 62.2462 43.848 62.3977C44.2723 62.5492 44.7495 62.6818 45.2798 62.7955L47.2798 63.25C48.4313 63.5 49.4465 63.8333 50.3253 64.25C51.2116 64.6667 51.9541 65.1629 52.5526 65.7386C53.1586 66.3144 53.617 66.9773 53.9276 67.7273C54.2382 68.4773 54.3973 69.3182 54.4048 70.25C54.3973 71.7197 54.026 72.9811 53.2912 74.0341C52.5563 75.0871 51.4995 75.8939 50.1207 76.4545C48.7495 77.0152 47.0942 77.2955 45.1548 77.2955C43.2079 77.2955 41.5109 77.0038 40.0639 76.4205C38.617 75.8371 37.492 74.9508 36.6889 73.7614C35.8859 72.572 35.473 71.0682 35.4503 69.25H40.8366C40.8821 70 41.0829 70.625 41.4389 71.125C41.795 71.625 42.2836 72.0038 42.9048 72.2614C43.5336 72.5189 44.2609 72.6477 45.0866 72.6477C45.8442 72.6477 46.4882 72.5455 47.0185 72.3409C47.5563 72.1364 47.9692 71.8523 48.2571 71.4886C48.545 71.125 48.6927 70.7083 48.7003 70.2386C48.6927 69.7992 48.5563 69.4242 48.2912 69.1136C48.026 68.7955 47.617 68.5227 47.0639 68.2955C46.5185 68.0606 45.8215 67.8447 44.973 67.6477L42.5412 67.0795C40.526 66.6174 38.9389 65.8712 37.7798 64.8409C36.6207 63.803 36.045 62.4015 36.0526 60.6364C36.045 59.197 36.4313 57.9356 37.2116 56.8523C37.992 55.7689 39.0715 54.9242 40.4503 54.3182C41.8291 53.7121 43.401 53.4091 45.1662 53.4091C46.9692 53.4091 48.5336 53.7159 49.8594 54.3295C51.1927 54.9356 52.2268 55.7879 52.9616 56.8864C53.6965 57.9848 54.0715 59.2576 54.0866 60.7045H48.7003ZM57.2457 77V53.7273H73.473V58.2955H62.8707V63.0682H72.6435V67.6477H62.8707V72.4318H73.473V77H57.2457ZM92.2685 61.3295C92.1397 60.8523 91.9503 60.4318 91.7003 60.0682C91.4503 59.697 91.1435 59.3826 90.7798 59.125C90.4162 58.8674 89.9995 58.6742 89.5298 58.5455C89.0601 58.4091 88.545 58.3409 87.9844 58.3409C86.8556 58.3409 85.8783 58.6136 85.0526 59.1591C84.2344 59.7045 83.6018 60.5 83.1548 61.5455C82.7079 62.5833 82.4844 63.8447 82.4844 65.3295C82.4844 66.822 82.7003 68.0947 83.1321 69.1477C83.5639 70.2008 84.1889 71.0038 85.0071 71.5568C85.8253 72.1098 86.8177 72.3864 87.9844 72.3864C89.0147 72.3864 89.8859 72.2197 90.598 71.8864C91.3177 71.5455 91.8632 71.0644 92.2344 70.4432C92.6056 69.822 92.7912 69.0909 92.7912 68.25L93.8366 68.375H88.1776V64.2727H98.2116V67.3523C98.2116 69.4356 97.7685 71.2197 96.8821 72.7045C96.0033 74.1894 94.7912 75.3295 93.2457 76.125C91.7079 76.9205 89.9389 77.3182 87.9389 77.3182C85.7192 77.3182 83.7685 76.8371 82.0866 75.875C80.4048 74.9129 79.0942 73.5417 78.1548 71.7614C77.2154 69.9735 76.7457 67.8523 76.7457 65.3977C76.7457 63.4886 77.0298 61.7955 77.598 60.3182C78.1662 58.8333 78.9579 57.5758 79.973 56.5455C80.9957 55.5152 82.1776 54.7348 83.5185 54.2045C84.867 53.6742 86.3177 53.4091 87.8707 53.4091C89.2192 53.4091 90.473 53.6023 91.6321 53.9886C92.7988 54.375 93.8291 54.9205 94.723 55.625C95.6245 56.3295 96.3556 57.1667 96.9162 58.1364C97.4768 59.1061 97.8253 60.1705 97.9616 61.3295H92.2685ZM115.607 53.7273H121.22V68.7386C121.22 70.4735 120.807 71.9848 119.982 73.2727C119.156 74.553 118.004 75.5455 116.527 76.25C115.05 76.947 113.334 77.2955 111.379 77.2955C109.402 77.2955 107.675 76.947 106.197 76.25C104.72 75.5455 103.572 74.553 102.754 73.2727C101.936 71.9848 101.527 70.4735 101.527 68.7386V53.7273H107.152V68.25C107.152 69.053 107.326 69.7689 107.675 70.3977C108.031 71.0265 108.527 71.5189 109.163 71.875C109.8 72.2311 110.538 72.4091 111.379 72.4091C112.22 72.4091 112.955 72.2311 113.584 71.875C114.22 71.5189 114.716 71.0265 115.072 70.3977C115.429 69.7689 115.607 69.053 115.607 68.25V53.7273ZM124.746 77V53.7273H134.359C136.102 53.7273 137.606 54.0417 138.871 54.6705C140.143 55.2917 141.125 56.1856 141.814 57.3523C142.503 58.5114 142.848 59.8864 142.848 61.4773C142.848 63.0909 142.496 64.4621 141.791 65.5909C141.087 66.7121 140.087 67.5682 138.791 68.1591C137.496 68.7424 135.962 69.0341 134.189 69.0341H128.109V64.6023H133.143C133.992 64.6023 134.7 64.4924 135.268 64.2727C135.844 64.0455 136.28 63.7045 136.575 63.25C136.871 62.7879 137.018 62.197 137.018 61.4773C137.018 60.7576 136.871 60.1629 136.575 59.6932C136.28 59.2159 135.844 58.8598 135.268 58.625C134.693 58.3826 133.984 58.2614 133.143 58.2614H130.371V77H124.746ZM137.848 66.3636L143.643 77H137.507L131.825 66.3636H137.848ZM150.967 77H144.922L152.774 53.7273H160.263L168.115 77H162.07L156.604 59.5909H156.422L150.967 77ZM150.161 67.8409H162.797V72.1136H150.161V67.8409ZM190.428 53.7273V77H185.655L176.393 63.5682H176.246V77H170.621V53.7273H175.462L184.621 67.1364H184.814V53.7273H190.428ZM215.089 62.1591H209.408C209.332 61.5758 209.177 61.0492 208.942 60.5795C208.707 60.1098 208.396 59.7083 208.01 59.375C207.624 59.0417 207.165 58.7879 206.635 58.6136C206.112 58.4318 205.533 58.3409 204.896 58.3409C203.768 58.3409 202.794 58.6174 201.976 59.1705C201.165 59.7235 200.54 60.5227 200.101 61.5682C199.669 62.6136 199.453 63.8788 199.453 65.3636C199.453 66.9091 199.673 68.2045 200.112 69.25C200.559 70.2879 201.184 71.072 201.987 71.6023C202.798 72.125 203.756 72.3864 204.862 72.3864C205.483 72.3864 206.048 72.3068 206.555 72.1477C207.071 71.9886 207.521 71.7576 207.908 71.4545C208.302 71.1439 208.624 70.7689 208.874 70.3295C209.131 69.8826 209.309 69.3788 209.408 68.8182L215.089 68.8523C214.991 69.8826 214.692 70.8977 214.192 71.8977C213.699 72.8977 213.021 73.8106 212.158 74.6364C211.294 75.4545 210.241 76.1061 208.999 76.5909C207.764 77.0758 206.347 77.3182 204.749 77.3182C202.643 77.3182 200.756 76.8561 199.089 75.9318C197.43 75 196.12 73.6439 195.158 71.8636C194.196 70.0833 193.714 67.9167 193.714 65.3636C193.714 62.803 194.203 60.6326 195.18 58.8523C196.158 57.072 197.48 55.7197 199.146 54.7955C200.813 53.8712 202.68 53.4091 204.749 53.4091C206.158 53.4091 207.461 53.6061 208.658 54C209.855 54.3864 210.908 54.9545 211.817 55.7045C212.726 56.447 213.464 57.3598 214.033 58.4432C214.601 59.5265 214.953 60.7652 215.089 62.1591ZM203.533 76.875H205.76L205.578 77.8977C206.411 78.0189 207.078 78.3182 207.578 78.7955C208.078 79.2803 208.332 79.9091 208.339 80.6818C208.347 81.8636 207.783 82.7955 206.646 83.4773C205.518 84.1667 203.946 84.5114 201.93 84.5114L201.908 82.2273C202.946 82.2273 203.749 82.1098 204.317 81.875C204.885 81.6402 205.18 81.2841 205.203 80.8068C205.226 80.3674 205.055 80.0152 204.692 79.75C204.328 79.4924 203.764 79.3144 202.999 79.2159L203.533 76.875ZM222.749 77H216.703L224.555 53.7273H232.044L239.896 77H233.851L228.385 59.5909H228.203L222.749 77ZM221.942 67.8409H234.578V72.1136H221.942V67.8409ZM47.3239 92.7273V116H41.6989V92.7273H47.3239ZM70.6619 92.7273V116H65.8892L56.6278 102.568H56.4801V116H50.8551V92.7273H55.696L64.8551 106.136H65.0483V92.7273H70.6619ZM82.8011 116H74.1989V92.7273H82.7898C85.161 92.7273 87.2027 93.1932 88.9148 94.125C90.6345 95.0492 91.9602 96.3826 92.892 98.125C93.8239 99.8598 94.2898 101.936 94.2898 104.352C94.2898 106.777 93.8239 108.86 92.892 110.602C91.9678 112.345 90.6458 113.682 88.9261 114.614C87.2064 115.538 85.1648 116 82.8011 116ZM79.8239 111.205H82.5852C83.8883 111.205 84.9905 110.985 85.892 110.545C86.8011 110.098 87.4867 109.375 87.9489 108.375C88.4186 107.367 88.6534 106.027 88.6534 104.352C88.6534 102.678 88.4186 101.345 87.9489 100.352C87.4792 99.3523 86.786 98.6326 85.8693 98.1932C84.9602 97.7462 83.839 97.5227 82.5057 97.5227H79.8239V111.205ZM111.653 92.7273H117.267V107.739C117.267 109.473 116.854 110.985 116.028 112.273C115.203 113.553 114.051 114.545 112.574 115.25C111.097 115.947 109.381 116.295 107.426 116.295C105.449 116.295 103.722 115.947 102.244 115.25C100.767 114.545 99.6193 113.553 98.8011 112.273C97.983 110.985 97.5739 109.473 97.5739 107.739V92.7273H103.199V107.25C103.199 108.053 103.373 108.769 103.722 109.398C104.078 110.027 104.574 110.519 105.21 110.875C105.847 111.231 106.585 111.409 107.426 111.409C108.267 111.409 109.002 111.231 109.631 110.875C110.267 110.519 110.763 110.027 111.119 109.398C111.475 108.769 111.653 108.053 111.653 107.25V92.7273ZM133.372 99.7045C133.296 98.8712 132.959 98.2235 132.361 97.7614C131.77 97.2917 130.925 97.0568 129.827 97.0568C129.099 97.0568 128.493 97.1515 128.009 97.3409C127.524 97.5303 127.16 97.7917 126.918 98.125C126.675 98.4508 126.55 98.8258 126.543 99.25C126.527 99.5985 126.596 99.9053 126.747 100.17C126.906 100.436 127.134 100.67 127.429 100.875C127.732 101.072 128.096 101.246 128.52 101.398C128.944 101.549 129.421 101.682 129.952 101.795L131.952 102.25C133.103 102.5 134.118 102.833 134.997 103.25C135.884 103.667 136.626 104.163 137.224 104.739C137.83 105.314 138.289 105.977 138.599 106.727C138.91 107.477 139.069 108.318 139.077 109.25C139.069 110.72 138.698 111.981 137.963 113.034C137.228 114.087 136.171 114.894 134.793 115.455C133.421 116.015 131.766 116.295 129.827 116.295C127.88 116.295 126.183 116.004 124.736 115.42C123.289 114.837 122.164 113.951 121.361 112.761C120.558 111.572 120.145 110.068 120.122 108.25H125.509C125.554 109 125.755 109.625 126.111 110.125C126.467 110.625 126.955 111.004 127.577 111.261C128.205 111.519 128.933 111.648 129.759 111.648C130.516 111.648 131.16 111.545 131.69 111.341C132.228 111.136 132.641 110.852 132.929 110.489C133.217 110.125 133.365 109.708 133.372 109.239C133.365 108.799 133.228 108.424 132.963 108.114C132.698 107.795 132.289 107.523 131.736 107.295C131.19 107.061 130.493 106.845 129.645 106.648L127.213 106.08C125.198 105.617 123.611 104.871 122.452 103.841C121.293 102.803 120.717 101.402 120.724 99.6364C120.717 98.197 121.103 96.9356 121.884 95.8523C122.664 94.7689 123.743 93.9242 125.122 93.3182C126.501 92.7121 128.073 92.4091 129.838 92.4091C131.641 92.4091 133.205 92.7159 134.531 93.3295C135.865 93.9356 136.899 94.7879 137.634 95.8864C138.368 96.9848 138.743 98.2576 138.759 99.7045H133.372ZM141.156 97.2955V92.7273H160.827V97.2955H153.77V116H148.224V97.2955H141.156ZM163.574 116V92.7273H173.188C174.93 92.7273 176.434 93.0417 177.699 93.6705C178.972 94.2917 179.953 95.1856 180.642 96.3523C181.331 97.5114 181.676 98.8864 181.676 100.477C181.676 102.091 181.324 103.462 180.619 104.591C179.915 105.712 178.915 106.568 177.619 107.159C176.324 107.742 174.79 108.034 173.017 108.034H166.938V103.602H171.972C172.82 103.602 173.528 103.492 174.097 103.273C174.672 103.045 175.108 102.705 175.403 102.25C175.699 101.788 175.847 101.197 175.847 100.477C175.847 99.7576 175.699 99.1629 175.403 98.6932C175.108 98.2159 174.672 97.8598 174.097 97.625C173.521 97.3826 172.813 97.2614 171.972 97.2614H169.199V116H163.574ZM176.676 105.364L182.472 116H176.335L170.653 105.364H176.676ZM190.386 92.7273V116H184.761V92.7273H190.386ZM198.952 116H192.906L200.759 92.7273H208.247L216.099 116H210.054L204.588 98.5909H204.406L198.952 116ZM198.145 106.841H210.781V111.114H198.145V106.841ZM218.605 116V92.7273H224.23V111.432H233.912V116H218.605Z" fill="black"/>
</svg>
