<svg width="275" height="170" viewBox="0 0 275 170" fill="none" xmlns="http://www.w3.org/2000/svg">
<rect width="275" height="170" fill="white"/>
<path d="M42.7784 60.7045C42.7027 59.8712 42.3655 59.2235 41.767 58.7614C41.1761 58.2917 40.3314 58.0568 39.233 58.0568C38.5057 58.0568 37.8996 58.1515 37.4148 58.3409C36.9299 58.5303 36.5663 58.7917 36.3239 59.125C36.0814 59.4508 35.9564 59.8258 35.9489 60.25C35.9337 60.5985 36.0019 60.9053 36.1534 61.1705C36.3125 61.4356 36.5398 61.6705 36.8352 61.875C37.1383 62.072 37.5019 62.2462 37.9261 62.3977C38.3504 62.5492 38.8277 62.6818 39.358 62.7955L41.358 63.25C42.5095 63.5 43.5246 63.8333 44.4034 64.25C45.2898 64.6667 46.0322 65.1629 46.6307 65.7386C47.2367 66.3144 47.6951 66.9773 48.0057 67.7273C48.3163 68.4773 48.4754 69.3182 48.483 70.25C48.4754 71.7197 48.1042 72.9811 47.3693 74.0341C46.6345 75.0871 45.5777 75.8939 44.1989 76.4545C42.8277 77.0152 41.1723 77.2955 39.233 77.2955C37.286 77.2955 35.589 77.0038 34.142 76.4205C32.6951 75.8371 31.5701 74.9508 30.767 73.7614C29.964 72.572 29.5511 71.0682 29.5284 69.25H34.9148C34.9602 70 35.161 70.625 35.517 71.125C35.8731 71.625 36.3617 72.0038 36.983 72.2614C37.6117 72.5189 38.339 72.6477 39.1648 72.6477C39.9223 72.6477 40.5663 72.5455 41.0966 72.3409C41.6345 72.1364 42.0473 71.8523 42.3352 71.4886C42.6231 71.125 42.7708 70.7083 42.7784 70.2386C42.7708 69.7992 42.6345 69.4242 42.3693 69.1136C42.1042 68.7955 41.6951 68.5227 41.142 68.2955C40.5966 68.0606 39.8996 67.8447 39.0511 67.6477L36.6193 67.0795C34.6042 66.6174 33.017 65.8712 31.858 64.8409C30.6989 63.803 30.1231 62.4015 30.1307 60.6364C30.1231 59.197 30.5095 57.9356 31.2898 56.8523C32.0701 55.7689 33.1496 54.9242 34.5284 54.3182C35.9072 53.7121 37.4792 53.4091 39.2443 53.4091C41.0473 53.4091 42.6117 53.7159 43.9375 54.3295C45.2708 54.9356 46.3049 55.7879 47.0398 56.8864C47.7746 57.9848 48.1496 59.2576 48.1648 60.7045H42.7784ZM59.483 77.3295C57.6572 77.3295 56.0814 76.9697 54.7557 76.25C53.4375 75.5227 52.4223 74.4886 51.7102 73.1477C51.0057 71.7992 50.6534 70.197 50.6534 68.3409C50.6534 66.5379 51.0095 64.9621 51.7216 63.6136C52.4337 62.2576 53.4375 61.2045 54.733 60.4545C56.0284 59.697 57.5549 59.3182 59.3125 59.3182C60.5549 59.3182 61.6913 59.5114 62.7216 59.8977C63.7519 60.2841 64.642 60.8561 65.392 61.6136C66.142 62.3712 66.7254 63.3068 67.142 64.4205C67.5587 65.5265 67.767 66.7955 67.767 68.2273V69.6136H52.5966V66.3864H62.5966C62.589 65.7955 62.4489 65.2689 62.1761 64.8068C61.9034 64.3447 61.5284 63.9848 61.0511 63.7273C60.5814 63.4621 60.0398 63.3295 59.4261 63.3295C58.8049 63.3295 58.2481 63.4697 57.7557 63.75C57.2633 64.0227 56.8731 64.3977 56.5852 64.875C56.2973 65.3447 56.1458 65.8788 56.1307 66.4773V69.7614C56.1307 70.4735 56.2708 71.0985 56.5511 71.6364C56.8314 72.1667 57.2292 72.5795 57.7443 72.875C58.2595 73.1705 58.8731 73.3182 59.5852 73.3182C60.0777 73.3182 60.5246 73.25 60.9261 73.1136C61.3277 72.9773 61.6723 72.7765 61.9602 72.5114C62.2481 72.2462 62.464 71.9205 62.608 71.5341L67.7102 71.6818C67.4981 72.8258 67.0322 73.822 66.3125 74.6705C65.6004 75.5114 64.6648 76.1667 63.5057 76.6364C62.3466 77.0985 61.0057 77.3295 59.483 77.3295ZM78.7415 83.9091C77.0824 83.9091 75.6619 83.678 74.4801 83.2159C73.2983 82.7538 72.3703 82.1212 71.696 81.3182C71.0218 80.5152 70.6165 79.6061 70.4801 78.5909L75.7415 78.2955C75.84 78.6515 76.0218 78.9621 76.2869 79.2273C76.5597 79.4924 76.9119 79.697 77.3438 79.8409C77.7831 79.9848 78.2983 80.0568 78.8892 80.0568C79.821 80.0568 80.59 79.8295 81.196 79.375C81.8097 78.928 82.1165 78.1439 82.1165 77.0227V73.9545H81.9233C81.7036 74.4924 81.3703 74.9735 80.9233 75.3977C80.4763 75.822 79.9195 76.1553 79.2528 76.3977C78.5938 76.6402 77.8362 76.7614 76.9801 76.7614C75.7074 76.7614 74.5407 76.4659 73.4801 75.875C72.4271 75.2765 71.5824 74.3523 70.946 73.1023C70.3172 71.8447 70.0028 70.2273 70.0028 68.25C70.0028 66.2121 70.3286 64.5341 70.9801 63.2159C71.6316 61.8902 72.4839 60.9091 73.5369 60.2727C74.5975 59.6364 75.7377 59.3182 76.9574 59.3182C77.8741 59.3182 78.6581 59.4773 79.3097 59.7955C79.9688 60.1061 80.5104 60.5076 80.9347 61C81.3589 61.4924 81.6809 62.0038 81.9006 62.5341H82.0597V59.5455H87.5938V77.0682C87.5938 78.5455 87.2225 79.7917 86.4801 80.8068C85.7377 81.822 84.6998 82.5909 83.3665 83.1136C82.0331 83.6439 80.4915 83.9091 78.7415 83.9091ZM78.9119 72.7159C79.5862 72.7159 80.1619 72.5379 80.6392 72.1818C81.1165 71.8258 81.4839 71.3144 81.7415 70.6477C81.9991 69.9811 82.1278 69.1818 82.1278 68.25C82.1278 67.303 81.9991 66.4886 81.7415 65.8068C81.4915 65.1174 81.1241 64.5871 80.6392 64.2159C80.1619 63.8447 79.5862 63.6591 78.9119 63.6591C78.2225 63.6591 77.6392 63.8485 77.1619 64.2273C76.6847 64.6061 76.321 65.1402 76.071 65.8295C75.8286 66.5114 75.7074 67.3182 75.7074 68.25C75.7074 69.1818 75.8324 69.9811 76.0824 70.6477C76.3324 71.3144 76.6922 71.8258 77.1619 72.1818C77.6392 72.5379 78.2225 72.7159 78.9119 72.7159ZM102.398 69.4659V59.5455H107.943V77H102.648V73.75H102.466C102.08 74.8182 101.42 75.6667 100.489 76.2955C99.5644 76.9167 98.447 77.2273 97.1364 77.2273C95.947 77.2273 94.9015 76.9545 94 76.4091C93.0985 75.8636 92.3977 75.1023 91.8977 74.125C91.3977 73.1402 91.1439 71.9886 91.1364 70.6705V59.5455H96.6932V69.5795C96.7008 70.5265 96.9508 71.2727 97.4432 71.8182C97.9356 72.3636 98.6061 72.6364 99.4545 72.6364C100.008 72.6364 100.504 72.5152 100.943 72.2727C101.39 72.0227 101.742 71.6629 102 71.1932C102.265 70.7159 102.398 70.1402 102.398 69.4659ZM111.48 77V59.5455H116.878V62.7273H117.06C117.378 61.5758 117.897 60.7197 118.616 60.1591C119.336 59.5909 120.173 59.3068 121.128 59.3068C121.385 59.3068 121.651 59.3258 121.923 59.3636C122.196 59.3939 122.45 59.4432 122.685 59.5114V64.3409C122.42 64.25 122.071 64.178 121.639 64.125C121.215 64.072 120.836 64.0455 120.503 64.0455C119.844 64.0455 119.249 64.1932 118.719 64.4886C118.196 64.7765 117.783 65.1818 117.48 65.7045C117.185 66.2197 117.037 66.8258 117.037 67.5227V77H111.48ZM129.213 77.2955C128.099 77.2955 127.111 77.1098 126.247 76.7386C125.391 76.3598 124.713 75.7917 124.213 75.0341C123.721 74.2689 123.474 73.3106 123.474 72.1591C123.474 71.1894 123.645 70.3712 123.986 69.7045C124.327 69.0379 124.796 68.4962 125.395 68.0795C125.993 67.6629 126.683 67.3485 127.463 67.1364C128.243 66.9167 129.077 66.7689 129.963 66.6932C130.955 66.6023 131.755 66.5076 132.361 66.4091C132.967 66.303 133.406 66.1553 133.679 65.9659C133.959 65.7689 134.099 65.4924 134.099 65.1364V65.0795C134.099 64.4962 133.899 64.0455 133.497 63.7273C133.096 63.4091 132.554 63.25 131.872 63.25C131.137 63.25 130.546 63.4091 130.099 63.7273C129.652 64.0455 129.368 64.4848 129.247 65.0455L124.122 64.8636C124.274 63.803 124.664 62.8561 125.293 62.0227C125.929 61.1818 126.8 60.5227 127.906 60.0455C129.02 59.5606 130.357 59.3182 131.918 59.3182C133.031 59.3182 134.058 59.4508 134.997 59.7159C135.937 59.9735 136.755 60.3523 137.452 60.8523C138.149 61.3447 138.687 61.9508 139.065 62.6705C139.452 63.3902 139.645 64.2121 139.645 65.1364V77H134.418V74.5682H134.281C133.971 75.1591 133.573 75.6591 133.088 76.0682C132.611 76.4773 132.046 76.7841 131.395 76.9886C130.751 77.1932 130.024 77.2955 129.213 77.2955ZM130.929 73.6591C131.527 73.6591 132.065 73.5379 132.543 73.2955C133.027 73.053 133.414 72.7197 133.702 72.2955C133.99 71.8636 134.134 71.3636 134.134 70.7955V69.1364C133.974 69.2197 133.781 69.2955 133.554 69.3636C133.334 69.4318 133.092 69.4962 132.827 69.5568C132.562 69.6174 132.289 69.6705 132.009 69.7159C131.728 69.7614 131.459 69.803 131.202 69.8409C130.679 69.9242 130.232 70.053 129.861 70.2273C129.497 70.4015 129.217 70.6288 129.02 70.9091C128.83 71.1818 128.736 71.5076 128.736 71.8864C128.736 72.4621 128.94 72.9015 129.349 73.2045C129.766 73.5076 130.293 73.6591 130.929 73.6591ZM148.599 67.0455V77H143.043V59.5455H148.327V62.75H148.52C148.906 61.6818 149.565 60.8447 150.497 60.2386C151.429 59.625 152.539 59.3182 153.827 59.3182C155.054 59.3182 156.118 59.5947 157.02 60.1477C157.929 60.6932 158.634 61.4583 159.134 62.4432C159.641 63.4205 159.891 64.5644 159.884 65.875V77H154.327V66.9659C154.334 65.9962 154.088 65.2386 153.588 64.6932C153.096 64.1477 152.41 63.875 151.531 63.875C150.948 63.875 150.433 64.0038 149.986 64.2614C149.546 64.5114 149.205 64.8712 148.963 65.3409C148.728 65.8106 148.607 66.3788 148.599 67.0455ZM171.472 77.3295C169.631 77.3295 168.051 76.9508 166.733 76.1932C165.422 75.4356 164.415 74.3826 163.71 73.0341C163.006 71.678 162.653 70.1098 162.653 68.3295C162.653 66.5417 163.006 64.9735 163.71 63.625C164.422 62.2689 165.434 61.2121 166.744 60.4545C168.063 59.697 169.634 59.3182 171.46 59.3182C173.074 59.3182 174.479 59.6098 175.676 60.1932C176.881 60.7765 177.82 61.6023 178.494 62.6705C179.176 63.7311 179.536 64.9773 179.574 66.4091H174.381C174.275 65.5152 173.972 64.8144 173.472 64.3068C172.979 63.7992 172.335 63.5455 171.54 63.5455C170.896 63.5455 170.331 63.7273 169.847 64.0909C169.362 64.447 168.983 64.9773 168.71 65.6818C168.445 66.3788 168.312 67.2424 168.312 68.2727C168.312 69.303 168.445 70.1742 168.71 70.8864C168.983 71.5909 169.362 72.125 169.847 72.4886C170.331 72.8447 170.896 73.0227 171.54 73.0227C172.055 73.0227 172.509 72.9129 172.903 72.6932C173.305 72.4735 173.634 72.1515 173.892 71.7273C174.15 71.2955 174.312 70.7727 174.381 70.1591H179.574C179.521 71.5985 179.161 72.8561 178.494 73.9318C177.835 75.0076 176.907 75.8447 175.71 76.4432C174.521 77.0341 173.108 77.3295 171.472 77.3295ZM170.381 76.9091H172.608L172.426 77.9318C173.259 78.053 173.926 78.3523 174.426 78.8295C174.926 79.3144 175.18 79.9432 175.188 80.7159C175.195 81.8977 174.631 82.8295 173.494 83.5114C172.366 84.2008 170.794 84.5455 168.778 84.5455L168.756 82.2614C169.794 82.2614 170.597 82.1439 171.165 81.9091C171.733 81.6742 172.028 81.3182 172.051 80.8409C172.074 80.4015 171.903 80.0492 171.54 79.7841C171.176 79.5265 170.612 79.3485 169.847 79.25L170.381 76.9091ZM187.338 77.2955C186.224 77.2955 185.236 77.1098 184.372 76.7386C183.516 76.3598 182.838 75.7917 182.338 75.0341C181.846 74.2689 181.599 73.3106 181.599 72.1591C181.599 71.1894 181.77 70.3712 182.111 69.7045C182.452 69.0379 182.921 68.4962 183.52 68.0795C184.118 67.6629 184.808 67.3485 185.588 67.1364C186.368 66.9167 187.202 66.7689 188.088 66.6932C189.08 66.6023 189.88 66.5076 190.486 66.4091C191.092 66.303 191.531 66.1553 191.804 65.9659C192.084 65.7689 192.224 65.4924 192.224 65.1364V65.0795C192.224 64.4962 192.024 64.0455 191.622 63.7273C191.221 63.4091 190.679 63.25 189.997 63.25C189.262 63.25 188.671 63.4091 188.224 63.7273C187.777 64.0455 187.493 64.4848 187.372 65.0455L182.247 64.8636C182.399 63.803 182.789 62.8561 183.418 62.0227C184.054 61.1818 184.925 60.5227 186.031 60.0455C187.145 59.5606 188.482 59.3182 190.043 59.3182C191.156 59.3182 192.183 59.4508 193.122 59.7159C194.062 59.9735 194.88 60.3523 195.577 60.8523C196.274 61.3447 196.812 61.9508 197.19 62.6705C197.577 63.3902 197.77 64.2121 197.77 65.1364V77H192.543V74.5682H192.406C192.096 75.1591 191.698 75.6591 191.213 76.0682C190.736 76.4773 190.171 76.7841 189.52 76.9886C188.876 77.1932 188.149 77.2955 187.338 77.2955ZM189.054 73.6591C189.652 73.6591 190.19 73.5379 190.668 73.2955C191.152 73.053 191.539 72.7197 191.827 72.2955C192.115 71.8636 192.259 71.3636 192.259 70.7955V69.1364C192.099 69.2197 191.906 69.2955 191.679 69.3636C191.459 69.4318 191.217 69.4962 190.952 69.5568C190.687 69.6174 190.414 69.6705 190.134 69.7159C189.853 69.7614 189.584 69.803 189.327 69.8409C188.804 69.9242 188.357 70.053 187.986 70.2273C187.622 70.4015 187.342 70.6288 187.145 70.9091C186.955 71.1818 186.861 71.5076 186.861 71.8864C186.861 72.4621 187.065 72.9015 187.474 73.2045C187.891 73.5076 188.418 73.6591 189.054 73.6591ZM214.418 77.25C213.13 77.25 211.959 76.9167 210.906 76.25C209.853 75.5833 209.012 74.5833 208.384 73.25C207.755 71.9167 207.44 70.2614 207.44 68.2841C207.44 66.2311 207.766 64.5417 208.418 63.2159C209.069 61.8902 209.921 60.9091 210.974 60.2727C212.035 59.6364 213.175 59.3182 214.395 59.3182C215.312 59.3182 216.096 59.4773 216.747 59.7955C217.399 60.1061 217.937 60.5076 218.361 61C218.785 61.4924 219.107 62.0038 219.327 62.5341H219.44V53.7273H224.997V77H219.497V74.1705H219.327C219.092 74.7083 218.759 75.2121 218.327 75.6818C217.895 76.1515 217.353 76.5303 216.702 76.8182C216.058 77.1061 215.296 77.25 214.418 77.25ZM216.349 72.9205C217.024 72.9205 217.599 72.7311 218.077 72.3523C218.554 71.9659 218.921 71.4242 219.179 70.7273C219.437 70.0303 219.565 69.2121 219.565 68.2727C219.565 67.3182 219.437 66.4962 219.179 65.8068C218.929 65.1174 218.562 64.5871 218.077 64.2159C217.599 63.8447 217.024 63.6591 216.349 63.6591C215.66 63.6591 215.077 63.8485 214.599 64.2273C214.122 64.6061 213.759 65.1402 213.509 65.8295C213.266 66.5189 213.145 67.3333 213.145 68.2727C213.145 69.2121 213.27 70.0303 213.52 70.7273C213.77 71.4242 214.13 71.9659 214.599 72.3523C215.077 72.7311 215.66 72.9205 216.349 72.9205ZM236.659 77.3295C234.826 77.3295 233.25 76.9545 231.932 76.2045C230.621 75.447 229.61 74.3939 228.898 73.0455C228.193 71.6894 227.841 70.1174 227.841 68.3295C227.841 66.5341 228.193 64.9621 228.898 63.6136C229.61 62.2576 230.621 61.2045 231.932 60.4545C233.25 59.697 234.826 59.3182 236.659 59.3182C238.492 59.3182 240.064 59.697 241.375 60.4545C242.693 61.2045 243.705 62.2576 244.409 63.6136C245.121 64.9621 245.477 66.5341 245.477 68.3295C245.477 70.1174 245.121 71.6894 244.409 73.0455C243.705 74.3939 242.693 75.447 241.375 76.2045C240.064 76.9545 238.492 77.3295 236.659 77.3295ZM236.693 73.1364C237.36 73.1364 237.924 72.9318 238.386 72.5227C238.848 72.1136 239.201 71.5455 239.443 70.8182C239.693 70.0909 239.818 69.25 239.818 68.2955C239.818 67.3258 239.693 66.4773 239.443 65.75C239.201 65.0227 238.848 64.4545 238.386 64.0455C237.924 63.6364 237.36 63.4318 236.693 63.4318C236.004 63.4318 235.42 63.6364 234.943 64.0455C234.473 64.4545 234.114 65.0227 233.864 65.75C233.621 66.4773 233.5 67.3258 233.5 68.2955C233.5 69.25 233.621 70.0909 233.864 70.8182C234.114 71.5455 234.473 72.1136 234.943 72.5227C235.42 72.9318 236.004 73.1364 236.693 73.1364ZM68.5625 97.2955V92.7273H88.233V97.2955H81.1761V116H75.6307V97.2955H68.5625ZM89.1676 116V98.5455H94.5653V101.727H94.7472C95.0653 100.576 95.5843 99.7197 96.304 99.1591C97.0237 98.5909 97.8608 98.3068 98.8153 98.3068C99.0729 98.3068 99.3381 98.3258 99.6108 98.3636C99.8835 98.3939 100.137 98.4432 100.372 98.5114V103.341C100.107 103.25 99.7585 103.178 99.3267 103.125C98.9025 103.072 98.5237 103.045 98.1903 103.045C97.5313 103.045 96.9366 103.193 96.4062 103.489C95.8835 103.777 95.4706 104.182 95.1676 104.705C94.8722 105.22 94.7244 105.826 94.7244 106.523V116H89.1676ZM106.901 116.295C105.787 116.295 104.798 116.11 103.935 115.739C103.079 115.36 102.401 114.792 101.901 114.034C101.408 113.269 101.162 112.311 101.162 111.159C101.162 110.189 101.332 109.371 101.673 108.705C102.014 108.038 102.484 107.496 103.082 107.08C103.681 106.663 104.37 106.348 105.151 106.136C105.931 105.917 106.764 105.769 107.651 105.693C108.643 105.602 109.442 105.508 110.048 105.409C110.654 105.303 111.094 105.155 111.366 104.966C111.647 104.769 111.787 104.492 111.787 104.136V104.08C111.787 103.496 111.586 103.045 111.185 102.727C110.783 102.409 110.241 102.25 109.56 102.25C108.825 102.25 108.234 102.409 107.787 102.727C107.34 103.045 107.056 103.485 106.935 104.045L101.81 103.864C101.961 102.803 102.351 101.856 102.98 101.023C103.616 100.182 104.488 99.5227 105.594 99.0455C106.707 98.5606 108.045 98.3182 109.605 98.3182C110.719 98.3182 111.745 98.4508 112.685 98.7159C113.624 98.9735 114.442 99.3523 115.139 99.8523C115.836 100.345 116.374 100.951 116.753 101.67C117.139 102.39 117.332 103.212 117.332 104.136V116H112.105V113.568H111.969C111.658 114.159 111.26 114.659 110.776 115.068C110.298 115.477 109.734 115.784 109.082 115.989C108.438 116.193 107.711 116.295 106.901 116.295ZM108.616 112.659C109.215 112.659 109.753 112.538 110.23 112.295C110.715 112.053 111.101 111.72 111.389 111.295C111.677 110.864 111.821 110.364 111.821 109.795V108.136C111.662 108.22 111.469 108.295 111.241 108.364C111.022 108.432 110.779 108.496 110.514 108.557C110.249 108.617 109.976 108.67 109.696 108.716C109.416 108.761 109.147 108.803 108.889 108.841C108.366 108.924 107.92 109.053 107.548 109.227C107.185 109.402 106.904 109.629 106.707 109.909C106.518 110.182 106.423 110.508 106.423 110.886C106.423 111.462 106.628 111.902 107.037 112.205C107.454 112.508 107.98 112.659 108.616 112.659ZM120.73 116V92.7273H126.287V101.534H126.401C126.628 101.004 126.95 100.492 127.366 100C127.791 99.5076 128.329 99.1061 128.98 98.7955C129.639 98.4773 130.427 98.3182 131.344 98.3182C132.556 98.3182 133.688 98.6364 134.741 99.2727C135.802 99.9091 136.658 100.89 137.31 102.216C137.961 103.542 138.287 105.231 138.287 107.284C138.287 109.261 137.973 110.917 137.344 112.25C136.723 113.583 135.882 114.583 134.821 115.25C133.768 115.917 132.598 116.25 131.31 116.25C130.431 116.25 129.67 116.106 129.026 115.818C128.382 115.53 127.84 115.152 127.401 114.682C126.969 114.212 126.635 113.708 126.401 113.17H126.23V116H120.73ZM126.173 107.273C126.173 108.212 126.298 109.03 126.548 109.727C126.806 110.424 127.173 110.966 127.651 111.352C128.135 111.731 128.715 111.92 129.389 111.92C130.071 111.92 130.651 111.731 131.128 111.352C131.605 110.966 131.965 110.424 132.207 109.727C132.457 109.03 132.582 108.212 132.582 107.273C132.582 106.333 132.457 105.519 132.207 104.83C131.965 104.14 131.605 103.606 131.128 103.227C130.658 102.848 130.079 102.659 129.389 102.659C128.707 102.659 128.128 102.845 127.651 103.216C127.173 103.587 126.806 104.117 126.548 104.807C126.298 105.496 126.173 106.318 126.173 107.273ZM146.119 116.295C145.006 116.295 144.017 116.11 143.153 115.739C142.297 115.36 141.619 114.792 141.119 114.034C140.627 113.269 140.381 112.311 140.381 111.159C140.381 110.189 140.551 109.371 140.892 108.705C141.233 108.038 141.703 107.496 142.301 107.08C142.9 106.663 143.589 106.348 144.369 106.136C145.15 105.917 145.983 105.769 146.869 105.693C147.862 105.602 148.661 105.508 149.267 105.409C149.873 105.303 150.313 105.155 150.585 104.966C150.866 104.769 151.006 104.492 151.006 104.136V104.08C151.006 103.496 150.805 103.045 150.403 102.727C150.002 102.409 149.46 102.25 148.778 102.25C148.044 102.25 147.453 102.409 147.006 102.727C146.559 103.045 146.275 103.485 146.153 104.045L141.028 103.864C141.18 102.803 141.57 101.856 142.199 101.023C142.835 100.182 143.706 99.5227 144.812 99.0455C145.926 98.5606 147.263 98.3182 148.824 98.3182C149.938 98.3182 150.964 98.4508 151.903 98.7159C152.843 98.9735 153.661 99.3523 154.358 99.8523C155.055 100.345 155.593 100.951 155.972 101.67C156.358 102.39 156.551 103.212 156.551 104.136V116H151.324V113.568H151.188C150.877 114.159 150.479 114.659 149.994 115.068C149.517 115.477 148.953 115.784 148.301 115.989C147.657 116.193 146.93 116.295 146.119 116.295ZM147.835 112.659C148.434 112.659 148.972 112.538 149.449 112.295C149.934 112.053 150.32 111.72 150.608 111.295C150.896 110.864 151.04 110.364 151.04 109.795V108.136C150.881 108.22 150.688 108.295 150.46 108.364C150.241 108.432 149.998 108.496 149.733 108.557C149.468 108.617 149.195 108.67 148.915 108.716C148.634 108.761 148.366 108.803 148.108 108.841C147.585 108.924 147.138 109.053 146.767 109.227C146.403 109.402 146.123 109.629 145.926 109.909C145.737 110.182 145.642 110.508 145.642 110.886C145.642 111.462 145.847 111.902 146.256 112.205C146.672 112.508 147.199 112.659 147.835 112.659ZM165.506 92.7273V116H159.949V92.7273H165.506ZM174.599 106.045V116H169.043V92.7273H174.418V101.75H174.611C175.005 100.674 175.649 99.8333 176.543 99.2273C177.444 98.6212 178.546 98.3182 179.849 98.3182C181.077 98.3182 182.145 98.5909 183.054 99.1364C183.963 99.6742 184.668 100.436 185.168 101.42C185.675 102.405 185.925 103.557 185.918 104.875V116H180.361V105.966C180.368 104.996 180.126 104.239 179.634 103.693C179.141 103.148 178.448 102.875 177.554 102.875C176.971 102.875 176.455 103.004 176.009 103.261C175.569 103.511 175.224 103.871 174.974 104.341C174.732 104.811 174.607 105.379 174.599 106.045ZM197.534 116.33C195.701 116.33 194.125 115.955 192.807 115.205C191.496 114.447 190.485 113.394 189.773 112.045C189.068 110.689 188.716 109.117 188.716 107.33C188.716 105.534 189.068 103.962 189.773 102.614C190.485 101.258 191.496 100.205 192.807 99.4545C194.125 98.697 195.701 98.3182 197.534 98.3182C199.367 98.3182 200.939 98.697 202.25 99.4545C203.568 100.205 204.58 101.258 205.284 102.614C205.996 103.962 206.352 105.534 206.352 107.33C206.352 109.117 205.996 110.689 205.284 112.045C204.58 113.394 203.568 114.447 202.25 115.205C200.939 115.955 199.367 116.33 197.534 116.33ZM197.568 112.136C198.235 112.136 198.799 111.932 199.261 111.523C199.723 111.114 200.076 110.545 200.318 109.818C200.568 109.091 200.693 108.25 200.693 107.295C200.693 106.326 200.568 105.477 200.318 104.75C200.076 104.023 199.723 103.455 199.261 103.045C198.799 102.636 198.235 102.432 197.568 102.432C196.879 102.432 196.295 102.636 195.818 103.045C195.348 103.455 194.989 104.023 194.739 104.75C194.496 105.477 194.375 106.326 194.375 107.295C194.375 108.25 194.496 109.091 194.739 109.818C194.989 110.545 195.348 111.114 195.818 111.523C196.295 111.932 196.879 112.136 197.568 112.136Z" fill="black"/>
</svg>
