<svg width="275" height="170" viewBox="0 0 275 170" fill="none" xmlns="http://www.w3.org/2000/svg">
<rect width="275" height="170" fill="white"/>
<path d="M42.8409 60.7045C42.7652 59.8712 42.428 59.2235 41.8295 58.7614C41.2386 58.2917 40.3939 58.0568 39.2955 58.0568C38.5682 58.0568 37.9621 58.1515 37.4773 58.3409C36.9924 58.5303 36.6288 58.7917 36.3864 59.125C36.1439 59.4508 36.0189 59.8258 36.0114 60.25C35.9962 60.5985 36.0644 60.9053 36.2159 61.1705C36.375 61.4356 36.6023 61.6705 36.8977 61.875C37.2008 62.072 37.5644 62.2462 37.9886 62.3977C38.4129 62.5492 38.8902 62.6818 39.4205 62.7955L41.4205 63.25C42.572 63.5 43.5871 63.8333 44.4659 64.25C45.3523 64.6667 46.0947 65.1629 46.6932 65.7386C47.2992 66.3144 47.7576 66.9773 48.0682 67.7273C48.3788 68.4773 48.5379 69.3182 48.5455 70.25C48.5379 71.7197 48.1667 72.9811 47.4318 74.0341C46.697 75.0871 45.6402 75.8939 44.2614 76.4545C42.8902 77.0152 41.2348 77.2955 39.2955 77.2955C37.3485 77.2955 35.6515 77.0038 34.2045 76.4205C32.7576 75.8371 31.6326 74.9508 30.8295 73.7614C30.0265 72.572 29.6136 71.0682 29.5909 69.25H34.9773C35.0227 70 35.2235 70.625 35.5795 71.125C35.9356 71.625 36.4242 72.0038 37.0455 72.2614C37.6742 72.5189 38.4015 72.6477 39.2273 72.6477C39.9848 72.6477 40.6288 72.5455 41.1591 72.3409C41.697 72.1364 42.1098 71.8523 42.3977 71.4886C42.6856 71.125 42.8333 70.7083 42.8409 70.2386C42.8333 69.7992 42.697 69.4242 42.4318 69.1136C42.1667 68.7955 41.7576 68.5227 41.2045 68.2955C40.6591 68.0606 39.9621 67.8447 39.1136 67.6477L36.6818 67.0795C34.6667 66.6174 33.0795 65.8712 31.9205 64.8409C30.7614 63.803 30.1856 62.4015 30.1932 60.6364C30.1856 59.197 30.572 57.9356 31.3523 56.8523C32.1326 55.7689 33.2121 54.9242 34.5909 54.3182C35.9697 53.7121 37.5417 53.4091 39.3068 53.4091C41.1098 53.4091 42.6742 53.7159 44 54.3295C45.3333 54.9356 46.3674 55.7879 47.1023 56.8864C47.8371 57.9848 48.2121 59.2576 48.2273 60.7045H42.8409ZM51.3864 77V53.7273H67.6136V58.2955H57.0114V63.0682H66.7841V67.6477H57.0114V72.4318H67.6136V77H51.3864ZM86.4091 61.3295C86.2803 60.8523 86.0909 60.4318 85.8409 60.0682C85.5909 59.697 85.2841 59.3826 84.9205 59.125C84.5568 58.8674 84.1402 58.6742 83.6705 58.5455C83.2008 58.4091 82.6856 58.3409 82.125 58.3409C80.9962 58.3409 80.0189 58.6136 79.1932 59.1591C78.375 59.7045 77.7424 60.5 77.2955 61.5455C76.8485 62.5833 76.625 63.8447 76.625 65.3295C76.625 66.822 76.8409 68.0947 77.2727 69.1477C77.7045 70.2008 78.3295 71.0038 79.1477 71.5568C79.9659 72.1098 80.9583 72.3864 82.125 72.3864C83.1553 72.3864 84.0265 72.2197 84.7386 71.8864C85.4583 71.5455 86.0038 71.0644 86.375 70.4432C86.7462 69.822 86.9318 69.0909 86.9318 68.25L87.9773 68.375H82.3182V64.2727H92.3523V67.3523C92.3523 69.4356 91.9091 71.2197 91.0227 72.7045C90.1439 74.1894 88.9318 75.3295 87.3864 76.125C85.8485 76.9205 84.0795 77.3182 82.0795 77.3182C79.8598 77.3182 77.9091 76.8371 76.2273 75.875C74.5455 74.9129 73.2348 73.5417 72.2955 71.7614C71.3561 69.9735 70.8864 67.8523 70.8864 65.3977C70.8864 63.4886 71.1705 61.7955 71.7386 60.3182C72.3068 58.8333 73.0985 57.5758 74.1136 56.5455C75.1364 55.5152 76.3182 54.7348 77.6591 54.2045C79.0076 53.6742 80.4583 53.4091 82.0114 53.4091C83.3598 53.4091 84.6136 53.6023 85.7727 53.9886C86.9394 54.375 87.9697 54.9205 88.8636 55.625C89.7652 56.3295 90.4962 57.1667 91.0568 58.1364C91.6174 59.1061 91.9659 60.1705 92.1023 61.3295H86.4091ZM109.747 53.7273H115.361V68.7386C115.361 70.4735 114.948 71.9848 114.122 73.2727C113.296 74.553 112.145 75.5455 110.668 76.25C109.19 76.947 107.474 77.2955 105.52 77.2955C103.543 77.2955 101.815 76.947 100.338 76.25C98.8608 75.5455 97.7131 74.553 96.8949 73.2727C96.0767 71.9848 95.6676 70.4735 95.6676 68.7386V53.7273H101.293V68.25C101.293 69.053 101.467 69.7689 101.815 70.3977C102.171 71.0265 102.668 71.5189 103.304 71.875C103.94 72.2311 104.679 72.4091 105.52 72.4091C106.361 72.4091 107.096 72.2311 107.724 71.875C108.361 71.5189 108.857 71.0265 109.213 70.3977C109.569 69.7689 109.747 69.053 109.747 68.25V53.7273ZM118.886 77V53.7273H128.5C130.242 53.7273 131.746 54.0417 133.011 54.6705C134.284 55.2917 135.265 56.1856 135.955 57.3523C136.644 58.5114 136.989 59.8864 136.989 61.4773C136.989 63.0909 136.636 64.4621 135.932 65.5909C135.227 66.7121 134.227 67.5682 132.932 68.1591C131.636 68.7424 130.102 69.0341 128.33 69.0341H122.25V64.6023H127.284C128.133 64.6023 128.841 64.4924 129.409 64.2727C129.985 64.0455 130.42 63.7045 130.716 63.25C131.011 62.7879 131.159 62.197 131.159 61.4773C131.159 60.7576 131.011 60.1629 130.716 59.6932C130.42 59.2159 129.985 58.8598 129.409 58.625C128.833 58.3826 128.125 58.2614 127.284 58.2614H124.511V77H118.886ZM131.989 66.3636L137.784 77H131.648L125.966 66.3636H131.989ZM145.108 77H139.062L146.915 53.7273H154.403L162.256 77H156.21L150.744 59.5909H150.562L145.108 77ZM144.301 67.8409H156.938V72.1136H144.301V67.8409ZM184.568 53.7273V77H179.795L170.534 63.5682H170.386V77H164.761V53.7273H169.602L178.761 67.1364H178.955V53.7273H184.568ZM209.23 62.1591H203.548C203.473 61.5758 203.317 61.0492 203.082 60.5795C202.848 60.1098 202.537 59.7083 202.151 59.375C201.764 59.0417 201.306 58.7879 200.776 58.6136C200.253 58.4318 199.673 58.3409 199.037 58.3409C197.908 58.3409 196.935 58.6174 196.116 59.1705C195.306 59.7235 194.681 60.5227 194.241 61.5682C193.81 62.6136 193.594 63.8788 193.594 65.3636C193.594 66.9091 193.813 68.2045 194.253 69.25C194.7 70.2879 195.325 71.072 196.128 71.6023C196.938 72.125 197.897 72.3864 199.003 72.3864C199.624 72.3864 200.188 72.3068 200.696 72.1477C201.211 71.9886 201.662 71.7576 202.048 71.4545C202.442 71.1439 202.764 70.7689 203.014 70.3295C203.272 69.8826 203.45 69.3788 203.548 68.8182L209.23 68.8523C209.132 69.8826 208.832 70.8977 208.332 71.8977C207.84 72.8977 207.162 73.8106 206.298 74.6364C205.435 75.4545 204.382 76.1061 203.139 76.5909C201.904 77.0758 200.488 77.3182 198.889 77.3182C196.783 77.3182 194.897 76.8561 193.23 75.9318C191.571 75 190.26 73.6439 189.298 71.8636C188.336 70.0833 187.855 67.9167 187.855 65.3636C187.855 62.803 188.344 60.6326 189.321 58.8523C190.298 57.072 191.62 55.7197 193.287 54.7955C194.954 53.8712 196.821 53.4091 198.889 53.4091C200.298 53.4091 201.601 53.6061 202.798 54C203.995 54.3864 205.048 54.9545 205.957 55.7045C206.866 56.447 207.605 57.3598 208.173 58.4432C208.741 59.5265 209.094 60.7652 209.23 62.1591ZM197.673 76.875H199.901L199.719 77.8977C200.552 78.0189 201.219 78.3182 201.719 78.7955C202.219 79.2803 202.473 79.9091 202.48 80.6818C202.488 81.8636 201.923 82.7955 200.787 83.4773C199.658 84.1667 198.086 84.5114 196.071 84.5114L196.048 82.2273C197.086 82.2273 197.889 82.1098 198.457 81.875C199.026 81.6402 199.321 81.2841 199.344 80.8068C199.366 80.3674 199.196 80.0152 198.832 79.75C198.469 79.4924 197.904 79.3144 197.139 79.2159L197.673 76.875ZM216.889 77H210.844L218.696 53.7273H226.185L234.037 77H227.991L222.526 59.5909H222.344L216.889 77ZM216.082 67.8409H228.719V72.1136H216.082V67.8409ZM35.8864 92.7273V116H30.2614V92.7273H35.8864ZM59.2244 92.7273V116H54.4517L45.1903 102.568H45.0426V116H39.4176V92.7273H44.2585L53.4176 106.136H53.6108V92.7273H59.2244ZM71.3636 116H62.7614V92.7273H71.3523C73.7235 92.7273 75.7652 93.1932 77.4773 94.125C79.197 95.0492 80.5227 96.3826 81.4545 98.125C82.3864 99.8598 82.8523 101.936 82.8523 104.352C82.8523 106.777 82.3864 108.86 81.4545 110.602C80.5303 112.345 79.2083 113.682 77.4886 114.614C75.7689 115.538 73.7273 116 71.3636 116ZM68.3864 111.205H71.1477C72.4508 111.205 73.553 110.985 74.4545 110.545C75.3636 110.098 76.0492 109.375 76.5114 108.375C76.9811 107.367 77.2159 106.027 77.2159 104.352C77.2159 102.678 76.9811 101.345 76.5114 100.352C76.0417 99.3523 75.3485 98.6326 74.4318 98.1932C73.5227 97.7462 72.4015 97.5227 71.0682 97.5227H68.3864V111.205ZM100.216 92.7273H105.83V107.739C105.83 109.473 105.417 110.985 104.591 112.273C103.765 113.553 102.614 114.545 101.136 115.25C99.6591 115.947 97.9432 116.295 95.9886 116.295C94.0114 116.295 92.2841 115.947 90.8068 115.25C89.3295 114.545 88.1818 113.553 87.3636 112.273C86.5455 110.985 86.1364 109.473 86.1364 107.739V92.7273H91.7614V107.25C91.7614 108.053 91.9356 108.769 92.2841 109.398C92.6402 110.027 93.1364 110.519 93.7727 110.875C94.4091 111.231 95.1477 111.409 95.9886 111.409C96.8295 111.409 97.5644 111.231 98.1932 110.875C98.8295 110.519 99.3258 110.027 99.6818 109.398C100.038 108.769 100.216 108.053 100.216 107.25V92.7273ZM121.935 99.7045C121.859 98.8712 121.522 98.2235 120.923 97.7614C120.332 97.2917 119.488 97.0568 118.389 97.0568C117.662 97.0568 117.056 97.1515 116.571 97.3409C116.086 97.5303 115.723 97.7917 115.48 98.125C115.238 98.4508 115.113 98.8258 115.105 99.25C115.09 99.5985 115.158 99.9053 115.31 100.17C115.469 100.436 115.696 100.67 115.991 100.875C116.295 101.072 116.658 101.246 117.082 101.398C117.507 101.549 117.984 101.682 118.514 101.795L120.514 102.25C121.666 102.5 122.681 102.833 123.56 103.25C124.446 103.667 125.188 104.163 125.787 104.739C126.393 105.314 126.851 105.977 127.162 106.727C127.473 107.477 127.632 108.318 127.639 109.25C127.632 110.72 127.26 111.981 126.526 113.034C125.791 114.087 124.734 114.894 123.355 115.455C121.984 116.015 120.329 116.295 118.389 116.295C116.442 116.295 114.745 116.004 113.298 115.42C111.851 114.837 110.726 113.951 109.923 112.761C109.12 111.572 108.707 110.068 108.685 108.25H114.071C114.116 109 114.317 109.625 114.673 110.125C115.029 110.625 115.518 111.004 116.139 111.261C116.768 111.519 117.495 111.648 118.321 111.648C119.079 111.648 119.723 111.545 120.253 111.341C120.791 111.136 121.204 110.852 121.491 110.489C121.779 110.125 121.927 109.708 121.935 109.239C121.927 108.799 121.791 108.424 121.526 108.114C121.26 107.795 120.851 107.523 120.298 107.295C119.753 107.061 119.056 106.845 118.207 106.648L115.776 106.08C113.76 105.617 112.173 104.871 111.014 103.841C109.855 102.803 109.279 101.402 109.287 99.6364C109.279 98.197 109.666 96.9356 110.446 95.8523C111.226 94.7689 112.306 93.9242 113.685 93.3182C115.063 92.7121 116.635 92.4091 118.401 92.4091C120.204 92.4091 121.768 92.7159 123.094 93.3295C124.427 93.9356 125.461 94.7879 126.196 95.8864C126.931 96.9848 127.306 98.2576 127.321 99.7045H121.935ZM129.719 97.2955V92.7273H149.389V97.2955H142.332V116H136.787V97.2955H129.719ZM152.136 116V92.7273H161.75C163.492 92.7273 164.996 93.0417 166.261 93.6705C167.534 94.2917 168.515 95.1856 169.205 96.3523C169.894 97.5114 170.239 98.8864 170.239 100.477C170.239 102.091 169.886 103.462 169.182 104.591C168.477 105.712 167.477 106.568 166.182 107.159C164.886 107.742 163.352 108.034 161.58 108.034H155.5V103.602H160.534C161.383 103.602 162.091 103.492 162.659 103.273C163.235 103.045 163.67 102.705 163.966 102.25C164.261 101.788 164.409 101.197 164.409 100.477C164.409 99.7576 164.261 99.1629 163.966 98.6932C163.67 98.2159 163.235 97.8598 162.659 97.625C162.083 97.3826 161.375 97.2614 160.534 97.2614H157.761V116H152.136ZM165.239 105.364L171.034 116H164.898L159.216 105.364H165.239ZM178.949 92.7273V116H173.324V92.7273H178.949ZM187.514 116H181.469L189.321 92.7273H196.81L204.662 116H198.616L193.151 98.5909H192.969L187.514 116ZM186.707 106.841H199.344V111.114H186.707V106.841ZM207.168 116V92.7273H212.793V111.432H222.474V116H207.168Z" fill="black"/>
</svg>
