<svg width="275" height="170" viewBox="0 0 275 170" fill="none" xmlns="http://www.w3.org/2000/svg">
<rect width="275" height="170" fill="white"/>
<path d="M56.5753 63.2344C56.4825 62.366 56.0914 61.6899 55.402 61.206C54.7192 60.7221 53.831 60.4801 52.7372 60.4801C51.9683 60.4801 51.3087 60.5961 50.7585 60.8281C50.2083 61.0601 49.7874 61.375 49.4957 61.7727C49.2041 62.1705 49.0549 62.6245 49.0483 63.1349C49.0483 63.5592 49.1444 63.9271 49.3366 64.2386C49.5355 64.5502 49.804 64.8153 50.142 65.0341C50.4801 65.2462 50.8546 65.4252 51.2656 65.571C51.6766 65.7169 52.0909 65.8395 52.5085 65.9389L54.4176 66.4162C55.1866 66.5952 55.9257 66.8371 56.6349 67.142C57.3509 67.447 57.9905 67.8314 58.554 68.2955C59.1241 68.7595 59.5748 69.3196 59.9062 69.9759C60.2377 70.6321 60.4034 71.401 60.4034 72.2827C60.4034 73.4759 60.0985 74.5265 59.4886 75.4347C58.8788 76.3362 57.9972 77.0421 56.8438 77.5526C55.697 78.0563 54.3082 78.3082 52.6776 78.3082C51.0933 78.3082 49.7178 78.063 48.5511 77.5724C47.3911 77.0819 46.483 76.366 45.8267 75.4247C45.1771 74.4834 44.8258 73.3366 44.7727 71.9844H48.402C48.455 72.6937 48.6738 73.2836 49.0582 73.7543C49.4427 74.2249 49.9432 74.5762 50.5597 74.8082C51.1828 75.0402 51.8788 75.1562 52.6477 75.1562C53.4498 75.1562 54.1525 75.0369 54.7557 74.7983C55.3655 74.553 55.8428 74.215 56.1875 73.7841C56.5322 73.3466 56.7079 72.8362 56.7145 72.2528C56.7079 71.7225 56.5521 71.285 56.2472 70.9403C55.9422 70.589 55.5147 70.2973 54.9645 70.0653C54.4209 69.8267 53.7846 69.6146 53.0554 69.429L50.7386 68.8324C49.0616 68.4015 47.7358 67.7486 46.7614 66.8736C45.7936 65.992 45.3097 64.822 45.3097 63.3636C45.3097 62.1638 45.6345 61.1132 46.2841 60.2116C46.9403 59.3101 47.8319 58.6108 48.9588 58.1136C50.0857 57.6098 51.3617 57.358 52.7869 57.358C54.232 57.358 55.4981 57.6098 56.5852 58.1136C57.679 58.6108 58.5374 59.3035 59.1605 60.1918C59.7836 61.0734 60.1051 62.0876 60.125 63.2344H56.5753ZM63.6921 78V57.6364H76.9364V60.7287H67.381V66.2571H76.2504V69.3494H67.381V74.9077H77.016V78H63.6921ZM94.342 64.1392C94.1763 63.6023 93.9476 63.1217 93.6559 62.6974C93.3709 62.2666 93.0262 61.8987 92.6218 61.5938C92.2241 61.2888 91.7667 61.0601 91.2496 60.9077C90.7326 60.7486 90.1692 60.669 89.5593 60.669C88.4656 60.669 87.4911 60.9441 86.636 61.4943C85.7809 62.0445 85.1081 62.8532 84.6175 63.9205C84.1336 64.9811 83.8917 66.2737 83.8917 67.7983C83.8917 69.3362 84.1336 70.6387 84.6175 71.706C85.1014 72.7732 85.7743 73.5852 86.636 74.142C87.4978 74.6922 88.4987 74.9673 89.6388 74.9673C90.6729 74.9673 91.5678 74.7685 92.3235 74.3707C93.0858 73.973 93.6725 73.4096 94.0835 72.6804C94.4944 71.9446 94.6999 71.0829 94.6999 70.0952L95.5352 70.2244H90.0067V67.3409H98.2695V69.7869C98.2695 71.5303 97.8983 73.0384 97.1559 74.3111C96.4135 75.5838 95.3926 76.5649 94.0934 77.2543C92.7942 77.937 91.3027 78.2784 89.619 78.2784C87.743 78.2784 86.0958 77.8575 84.6772 77.0156C83.2653 76.1671 82.1616 74.964 81.3661 73.4062C80.5773 71.8419 80.1829 69.9858 80.1829 67.8381C80.1829 66.1941 80.4149 64.7259 80.8789 63.4332C81.3496 62.1406 82.0058 61.0436 82.8477 60.142C83.6895 59.2339 84.6772 58.5445 85.8107 58.0739C86.9442 57.5966 88.1772 57.358 89.5096 57.358C90.6365 57.358 91.6871 57.5237 92.6616 57.8551C93.636 58.1799 94.5011 58.6439 95.2567 59.2472C96.0191 59.8504 96.6455 60.5663 97.136 61.3949C97.6265 62.2235 97.948 63.1383 98.1005 64.1392H94.342ZM114.673 57.6364H118.362V70.9403C118.362 72.3987 118.018 73.6813 117.328 74.7884C116.645 75.8954 115.684 76.7604 114.445 77.3835C113.205 78 111.757 78.3082 110.099 78.3082C108.436 78.3082 106.984 78 105.744 77.3835C104.505 76.7604 103.544 75.8954 102.861 74.7884C102.178 73.6813 101.837 72.3987 101.837 70.9403V57.6364H105.526V70.6321C105.526 71.4806 105.711 72.2363 106.082 72.8991C106.46 73.562 106.991 74.0824 107.673 74.4602C108.356 74.8314 109.165 75.017 110.099 75.017C111.034 75.017 111.843 74.8314 112.526 74.4602C113.215 74.0824 113.745 73.562 114.116 72.8991C114.488 72.2363 114.673 71.4806 114.673 70.6321V57.6364ZM122.372 78V57.6364H130.008C131.573 57.6364 132.885 57.9081 133.946 58.4517C135.013 58.9953 135.818 59.7576 136.362 60.7386C136.912 61.7131 137.187 62.8499 137.187 64.1491C137.187 65.455 136.909 66.5885 136.352 67.5497C135.802 68.5043 134.99 69.2434 133.916 69.767C132.842 70.2841 131.523 70.5426 129.958 70.5426H124.52V67.4801H129.461C130.376 67.4801 131.125 67.3542 131.708 67.1023C132.292 66.8437 132.723 66.4692 133.001 65.9787C133.286 65.4815 133.429 64.8717 133.429 64.1491C133.429 63.4266 133.286 62.8101 133.001 62.2997C132.716 61.7827 132.282 61.3916 131.699 61.1264C131.115 60.8546 130.363 60.7188 129.441 60.7188H126.061V78H122.372ZM132.892 68.7727L137.933 78H133.816L128.865 68.7727H132.892ZM143.198 78H139.26L146.429 57.6364H150.983L158.162 78H154.225L148.786 61.8125H148.627L143.198 78ZM143.327 70.0156H154.066V72.9787H143.327V70.0156ZM177.579 57.6364V78H174.298L164.702 64.1293H164.533V78H160.844V57.6364H164.146L173.731 71.517H173.91V57.6364H177.579ZM199.029 64.5071H195.31C195.204 63.8973 195.008 63.357 194.723 62.8864C194.438 62.4091 194.084 62.0047 193.659 61.6733C193.235 61.3419 192.751 61.0933 192.208 60.9276C191.671 60.7552 191.091 60.669 190.468 60.669C189.361 60.669 188.38 60.9474 187.525 61.5043C186.669 62.0544 186 62.8632 185.516 63.9304C185.032 64.991 184.79 66.2869 184.79 67.8182C184.79 69.3759 185.032 70.6884 185.516 71.7557C186.007 72.8163 186.676 73.6184 187.525 74.1619C188.38 74.6989 189.357 74.9673 190.458 74.9673C191.068 74.9673 191.638 74.8878 192.168 74.7287C192.705 74.563 193.185 74.321 193.61 74.0028C194.041 73.6847 194.402 73.2936 194.694 72.8295C194.992 72.3655 195.197 71.8352 195.31 71.2386L199.029 71.2585C198.89 72.2263 198.588 73.1345 198.124 73.983C197.667 74.8314 197.067 75.5805 196.324 76.2301C195.582 76.8731 194.713 77.3769 193.719 77.7415C192.725 78.0994 191.621 78.2784 190.408 78.2784C188.618 78.2784 187.021 77.8641 185.615 77.0355C184.21 76.2069 183.103 75.0104 182.294 73.446C181.486 71.8816 181.081 70.0057 181.081 67.8182C181.081 65.6241 181.489 63.7481 182.304 62.1903C183.12 60.6259 184.23 59.4295 185.635 58.6009C187.041 57.7723 188.632 57.358 190.408 57.358C191.542 57.358 192.596 57.517 193.57 57.8352C194.544 58.1534 195.413 58.6207 196.175 59.2372C196.937 59.8471 197.564 60.5961 198.054 61.4844C198.551 62.366 198.876 63.3736 199.029 64.5071ZM189.364 77.9801H191.313L191.154 78.8253C191.777 78.9181 192.304 79.1567 192.735 79.5412C193.172 79.9323 193.391 80.4924 193.391 81.2216C193.398 82.1629 192.977 82.9186 192.128 83.4886C191.28 84.0587 190.07 84.3438 188.499 84.3438L188.459 82.5739C189.221 82.5739 189.828 82.4711 190.279 82.2656C190.73 82.0668 190.958 81.7486 190.965 81.3111C190.978 80.8868 190.819 80.5753 190.488 80.3764C190.163 80.1842 189.646 80.0516 188.936 79.9787L189.364 77.9801ZM204.776 78H200.838L208.007 57.6364H212.561L219.74 78H215.803L210.364 61.8125H210.205L204.776 78ZM204.905 70.0156H215.644V72.9787H204.905V70.0156ZM49.1974 91.6364V112H45.5085V91.6364H49.1974ZM69.9265 91.6364V112H66.6452L57.0501 98.1293H56.881V112H53.1921V91.6364H56.4933L66.0785 105.517H66.2575V91.6364H69.9265ZM80.8466 112H73.946V91.6364H80.9858C83.0076 91.6364 84.7443 92.044 86.196 92.8594C87.6544 93.6681 88.7746 94.8314 89.5568 96.3494C90.339 97.8674 90.7301 99.6837 90.7301 101.798C90.7301 103.92 90.3357 105.742 89.5469 107.267C88.7647 108.792 87.6345 109.962 86.1562 110.777C84.6847 111.592 82.9148 112 80.8466 112ZM77.6349 108.808H80.6676C82.0862 108.808 83.2694 108.55 84.2173 108.033C85.1652 107.509 85.8778 106.73 86.3551 105.696C86.8324 104.655 87.071 103.356 87.071 101.798C87.071 100.241 86.8324 98.9479 86.3551 97.9205C85.8778 96.8864 85.1719 96.1141 84.2372 95.6037C83.3092 95.0866 82.1558 94.8281 80.777 94.8281H77.6349V108.808ZM107.072 91.6364H110.761V104.94C110.761 106.399 110.416 107.681 109.727 108.788C109.044 109.895 108.083 110.76 106.843 111.384C105.603 112 104.155 112.308 102.498 112.308C100.834 112.308 99.3823 112 98.1428 111.384C96.9032 110.76 95.942 109.895 95.2592 108.788C94.5765 107.681 94.2351 106.399 94.2351 104.94V91.6364H97.924V104.632C97.924 105.481 98.1096 106.236 98.4808 106.899C98.8587 107.562 99.389 108.082 100.072 108.46C100.754 108.831 101.563 109.017 102.498 109.017C103.433 109.017 104.241 108.831 104.924 108.46C105.613 108.082 106.144 107.562 106.515 106.899C106.886 106.236 107.072 105.481 107.072 104.632V91.6364ZM125.837 97.2344C125.744 96.366 125.353 95.6899 124.664 95.206C123.981 94.7221 123.093 94.4801 121.999 94.4801C121.23 94.4801 120.57 94.5961 120.02 94.8281C119.47 95.0601 119.049 95.375 118.757 95.7727C118.466 96.1705 118.317 96.6245 118.31 97.1349C118.31 97.5592 118.406 97.9271 118.598 98.2386C118.797 98.5502 119.066 98.8153 119.404 99.0341C119.742 99.2462 120.116 99.4252 120.527 99.571C120.938 99.7169 121.353 99.8395 121.77 99.9389L123.679 100.416C124.448 100.595 125.187 100.837 125.897 101.142C126.613 101.447 127.252 101.831 127.816 102.295C128.386 102.759 128.837 103.32 129.168 103.976C129.499 104.632 129.665 105.401 129.665 106.283C129.665 107.476 129.36 108.527 128.75 109.435C128.141 110.336 127.259 111.042 126.105 111.553C124.959 112.056 123.57 112.308 121.939 112.308C120.355 112.308 118.98 112.063 117.813 111.572C116.653 111.082 115.745 110.366 115.088 109.425C114.439 108.483 114.087 107.337 114.034 105.984H117.664C117.717 106.694 117.935 107.284 118.32 107.754C118.704 108.225 119.205 108.576 119.821 108.808C120.444 109.04 121.141 109.156 121.909 109.156C122.712 109.156 123.414 109.037 124.017 108.798C124.627 108.553 125.105 108.215 125.449 107.784C125.794 107.347 125.97 106.836 125.976 106.253C125.97 105.723 125.814 105.285 125.509 104.94C125.204 104.589 124.776 104.297 124.226 104.065C123.683 103.827 123.046 103.615 122.317 103.429L120 102.832C118.323 102.402 116.998 101.749 116.023 100.874C115.055 99.992 114.571 98.822 114.571 97.3636C114.571 96.1638 114.896 95.1132 115.546 94.2116C116.202 93.3101 117.094 92.6108 118.221 92.1136C119.347 91.6098 120.623 91.358 122.049 91.358C123.494 91.358 124.76 91.6098 125.847 92.1136C126.941 92.6108 127.799 93.3035 128.422 94.1918C129.045 95.0734 129.367 96.0876 129.387 97.2344H125.837ZM132.059 94.7287V91.6364H148.306V94.7287H142.012V112H138.353V94.7287H132.059ZM151.438 112V91.6364H159.075C160.639 91.6364 161.951 91.9081 163.012 92.4517C164.079 92.9953 164.885 93.7576 165.428 94.7386C165.978 95.7131 166.254 96.8499 166.254 98.1491C166.254 99.455 165.975 100.589 165.418 101.55C164.868 102.504 164.056 103.243 162.982 103.767C161.908 104.284 160.589 104.543 159.025 104.543H153.586V101.48H158.528C159.442 101.48 160.192 101.354 160.775 101.102C161.358 100.844 161.789 100.469 162.067 99.9787C162.353 99.4815 162.495 98.8717 162.495 98.1491C162.495 97.4266 162.353 96.8101 162.067 96.2997C161.782 95.7827 161.348 95.3916 160.765 95.1264C160.182 94.8546 159.429 94.7188 158.508 94.7188H155.127V112H151.438ZM161.958 102.773L166.999 112H162.883L157.931 102.773H161.958ZM173.338 91.6364V112H169.649V91.6364H173.338ZM179.948 112H176.01L183.179 91.6364H187.733L194.912 112H190.975L185.536 95.8125H185.377L179.948 112ZM180.077 104.016H190.816V106.979H180.077V104.016ZM197.594 112V91.6364H201.283V108.908H210.252V112H197.594Z" fill="black"/>
</svg>
