<svg width="275" height="170" viewBox="0 0 275 170" fill="none" xmlns="http://www.w3.org/2000/svg">
<rect width="275" height="170" fill="white"/>
<path d="M23.0885 80.0508C22.9977 79.201 22.6149 78.5394 21.9403 78.0658C21.2722 77.5923 20.403 77.3555 19.3326 77.3555C18.5802 77.3555 17.9347 77.4691 17.3963 77.6961C16.8579 77.9231 16.446 78.2312 16.1606 78.6205C15.8752 79.0097 15.7293 79.454 15.7228 79.9535C15.7228 80.3686 15.8168 80.7286 16.0049 81.0335C16.1995 81.3384 16.4623 81.5979 16.7931 81.8119C17.1239 82.0195 17.4904 82.1946 17.8926 82.3374C18.2948 82.4801 18.7002 82.6001 19.1088 82.6974L20.977 83.1644C21.7295 83.3396 22.4528 83.5763 23.1468 83.8747C23.8474 84.1731 24.4734 84.5493 25.0248 85.0034C25.5826 85.4575 26.0237 86.0056 26.3481 86.6478C26.6724 87.29 26.8346 88.0424 26.8346 88.9052C26.8346 90.0728 26.5362 91.1009 25.9394 91.9896C25.3426 92.8718 24.4799 93.5627 23.3512 94.0621C22.229 94.5551 20.87 94.8016 19.2743 94.8016C17.7239 94.8016 16.3779 94.5616 15.2363 94.0816C14.1011 93.6016 13.2124 92.901 12.5702 91.9799C11.9345 91.0588 11.5907 89.9366 11.5388 88.6133H15.0903C15.1422 89.3074 15.3563 89.8847 15.7325 90.3452C16.1087 90.8058 16.5985 91.1496 17.2017 91.3766C17.8115 91.6037 18.4926 91.7172 19.2451 91.7172C20.03 91.7172 20.7176 91.6004 21.3079 91.3669C21.9046 91.1269 22.3717 90.7961 22.709 90.3744C23.0463 89.9463 23.2182 89.4468 23.2247 88.876C23.2182 88.3571 23.0658 87.9289 22.7674 87.5916C22.469 87.2478 22.0506 86.9624 21.5122 86.7354C20.9803 86.5018 20.3575 86.2943 19.644 86.1126L17.3769 85.5288C15.7357 85.1072 14.4384 84.4683 13.4848 83.612C12.5378 82.7493 12.0642 81.6044 12.0642 80.1773C12.0642 79.0032 12.3821 77.975 13.0178 77.0928C13.66 76.2106 14.5325 75.5263 15.6352 75.0398C16.7379 74.5468 17.9866 74.3003 19.3813 74.3003C20.7954 74.3003 22.0344 74.5468 23.0982 75.0398C24.1685 75.5263 25.0085 76.2041 25.6183 77.0734C26.228 77.9361 26.5427 78.9286 26.5621 80.0508H23.0885ZM30.0528 94.5V74.5727H33.6627V83.0087H42.8965V74.5727H46.5161V94.5H42.8965V86.0348H33.6627V94.5H30.0528ZM54.0521 74.5727V94.5H50.4422V74.5727H54.0521ZM57.9612 94.5V74.5727H70.7271V77.5988H61.5711V83.0087H69.8514V86.0348H61.5711V94.5H57.9612ZM73.1402 77.5988V74.5727H89.0392V77.5988H82.88V94.5H79.2993V77.5988H73.1402ZM108.278 81.2962H104.639C104.535 80.6995 104.344 80.1708 104.065 79.7102C103.786 79.2432 103.439 78.8475 103.024 78.5232C102.609 78.1988 102.135 77.9556 101.603 77.7934C101.078 77.6247 100.51 77.5404 99.9004 77.5404C98.8171 77.5404 97.8571 77.8129 97.0203 78.3577C96.1835 78.8961 95.5283 79.6875 95.0548 80.7319C94.5813 81.7698 94.3445 83.0379 94.3445 84.5364C94.3445 86.0607 94.5813 87.3451 95.0548 88.3895C95.5348 89.4274 96.19 90.2123 97.0203 90.7442C97.8571 91.2696 98.8139 91.5323 99.8907 91.5323C100.487 91.5323 101.045 91.4545 101.564 91.2988C102.09 91.1366 102.56 90.8999 102.975 90.5885C103.397 90.2771 103.75 89.8944 104.036 89.4403C104.328 88.9863 104.529 88.4673 104.639 87.8835L108.278 87.903C108.142 88.85 107.847 89.7387 107.393 90.569C106.945 91.3993 106.358 92.1323 105.631 92.768C104.905 93.3973 104.055 93.8902 103.082 94.247C102.109 94.5973 101.029 94.7724 99.842 94.7724C98.0906 94.7724 96.5273 94.367 95.1521 93.5562C93.7769 92.7453 92.6936 91.5745 91.9023 90.0436C91.1109 88.5127 90.7152 86.677 90.7152 84.5364C90.7152 82.3893 91.1141 80.5535 91.912 79.0291C92.7099 77.4982 93.7964 76.3274 95.1716 75.5165C96.5468 74.7057 98.1036 74.3003 99.842 74.3003C100.951 74.3003 101.983 74.456 102.936 74.7673C103.89 75.0787 104.74 75.536 105.485 76.1393C106.231 76.7361 106.844 77.4691 107.324 78.3383C107.811 79.201 108.129 80.187 108.278 81.2962ZM129.39 84.5364C129.39 86.6835 128.988 88.5225 128.183 90.0533C127.386 91.5777 126.296 92.7453 124.914 93.5562C123.539 94.367 121.979 94.7724 120.234 94.7724C118.489 94.7724 116.926 94.367 115.544 93.5562C114.169 92.7388 113.079 91.568 112.275 90.0436C111.477 88.5127 111.078 86.677 111.078 84.5364C111.078 82.3893 111.477 80.5535 112.275 79.0291C113.079 77.4982 114.169 76.3274 115.544 75.5165C116.926 74.7057 118.489 74.3003 120.234 74.3003C121.979 74.3003 123.539 74.7057 124.914 75.5165C126.296 76.3274 127.386 77.4982 128.183 79.0291C128.988 80.5535 129.39 82.3893 129.39 84.5364ZM125.761 84.5364C125.761 83.025 125.524 81.7503 125.05 80.7124C124.583 79.6681 123.935 78.8799 123.104 78.348C122.274 77.8096 121.317 77.5404 120.234 77.5404C119.151 77.5404 118.194 77.8096 117.364 78.348C116.533 78.8799 115.881 79.6681 115.408 80.7124C114.941 81.7503 114.707 83.025 114.707 84.5364C114.707 86.0478 114.941 87.3257 115.408 88.37C115.881 89.4079 116.533 90.196 117.364 90.7344C118.194 91.2664 119.151 91.5323 120.234 91.5323C121.317 91.5323 122.274 91.2664 123.104 90.7344C123.935 90.196 124.583 89.4079 125.05 88.37C125.524 87.3257 125.761 86.0478 125.761 84.5364ZM149.179 74.5727V94.5H145.968L136.578 80.9265H136.413V94.5H132.803V74.5727H136.033L145.413 88.156H145.588V74.5727H149.179ZM169.488 74.5727V94.5H166.277L156.887 80.9265H156.722V94.5H153.112V74.5727H156.342L165.722 88.156H165.897V74.5727H169.488ZM173.421 94.5V74.5727H186.382V77.5988H177.031V83.0087H185.71V86.0348H177.031V91.4739H186.46V94.5H173.421ZM207.121 81.2962H203.482C203.379 80.6995 203.187 80.1708 202.908 79.7102C202.629 79.2432 202.282 78.8475 201.867 78.5232C201.452 78.1988 200.978 77.9556 200.447 77.7934C199.921 77.6247 199.354 77.5404 198.744 77.5404C197.66 77.5404 196.7 77.8129 195.864 78.3577C195.027 78.8961 194.372 79.6875 193.898 80.7319C193.425 81.7698 193.188 83.0379 193.188 84.5364C193.188 86.0607 193.425 87.3451 193.898 88.3895C194.378 89.4274 195.033 90.2123 195.864 90.7442C196.7 91.2696 197.657 91.5323 198.734 91.5323C199.331 91.5323 199.889 91.4545 200.408 91.2988C200.933 91.1366 201.403 90.8999 201.818 90.5885C202.24 90.2771 202.594 89.8944 202.879 89.4403C203.171 88.9863 203.372 88.4673 203.482 87.8835L207.121 87.903C206.985 88.85 206.69 89.7387 206.236 90.569C205.788 91.3993 205.201 92.1323 204.475 92.768C203.748 93.3973 202.899 93.8902 201.926 94.247C200.953 94.5973 199.872 94.7724 198.685 94.7724C196.934 94.7724 195.371 94.367 193.995 93.5562C192.62 92.7453 191.537 91.5745 190.746 90.0436C189.954 88.5127 189.559 86.677 189.559 84.5364C189.559 82.3893 189.957 80.5535 190.755 79.0291C191.553 77.4982 192.64 76.3274 194.015 75.5165C195.39 74.7057 196.947 74.3003 198.685 74.3003C199.795 74.3003 200.826 74.456 201.78 74.7673C202.733 75.0787 203.583 75.536 204.329 76.1393C205.075 76.7361 205.688 77.4691 206.168 78.3383C206.654 79.201 206.972 80.187 207.121 81.2962ZM209.551 77.5988V74.5727H225.45V77.5988H219.291V94.5H215.711V77.5988H209.551ZM245.439 84.5364C245.439 86.6835 245.036 88.5225 244.232 90.0533C243.434 91.5777 242.344 92.7453 240.963 93.5562C239.588 94.367 238.027 94.7724 236.283 94.7724C234.538 94.7724 232.974 94.367 231.593 93.5562C230.217 92.7388 229.128 91.568 228.323 90.0436C227.525 88.5127 227.127 86.677 227.127 84.5364C227.127 82.3893 227.525 80.5535 228.323 79.0291C229.128 77.4982 230.217 76.3274 231.593 75.5165C232.974 74.7057 234.538 74.3003 236.283 74.3003C238.027 74.3003 239.588 74.7057 240.963 75.5165C242.344 76.3274 243.434 77.4982 244.232 79.0291C245.036 80.5535 245.439 82.3893 245.439 84.5364ZM241.809 84.5364C241.809 83.025 241.572 81.7503 241.099 80.7124C240.632 79.6681 239.983 78.8799 239.153 78.348C238.323 77.8096 237.366 77.5404 236.283 77.5404C235.199 77.5404 234.242 77.8096 233.412 78.348C232.582 78.8799 231.93 79.6681 231.456 80.7124C230.989 81.7503 230.756 83.025 230.756 84.5364C230.756 86.0478 230.989 87.3257 231.456 88.37C231.93 89.4079 232.582 90.196 233.412 90.7344C234.242 91.2664 235.199 91.5323 236.283 91.5323C237.366 91.5323 238.323 91.2664 239.153 90.7344C239.983 90.196 240.632 89.4079 241.099 88.37C241.572 87.3257 241.809 86.0478 241.809 84.5364ZM248.851 94.5V74.5727H256.324C257.855 74.5727 259.139 74.8387 260.177 75.3706C261.222 75.9025 262.01 76.6485 262.542 77.6085C263.08 78.5621 263.349 79.6746 263.349 80.946C263.349 82.2238 263.077 83.3331 262.532 84.2737C261.994 85.2077 261.199 85.931 260.148 86.4435C259.097 86.9494 257.806 87.2024 256.276 87.2024H250.953V84.2055H255.789C256.684 84.2055 257.417 84.0823 257.988 83.8358C258.559 83.5828 258.98 83.2163 259.253 82.7363C259.532 82.2498 259.671 81.653 259.671 80.946C259.671 80.2389 259.532 79.6356 259.253 79.1362C258.974 78.6302 258.549 78.2475 257.978 77.988C257.407 77.722 256.671 77.5891 255.77 77.5891H252.461V94.5H248.851ZM259.146 85.4705L264.079 94.5H260.051L255.205 85.4705H259.146Z" fill="black"/>
</svg>
