<svg width="275" height="170" viewBox="0 0 275 170" fill="none" xmlns="http://www.w3.org/2000/svg">
<rect width="275" height="170" fill="white"/>
<path d="M26.8961 81.2599C26.8346 80.5829 26.5607 80.0566 26.0744 79.6811C25.5943 79.2995 24.908 79.1087 24.0154 79.1087C23.4245 79.1087 22.9321 79.1856 22.5382 79.3395C22.1442 79.4934 21.8488 79.7057 21.6518 79.9766C21.4548 80.2412 21.3533 80.5459 21.3471 80.8906C21.3348 81.1738 21.3902 81.4231 21.5133 81.6385C21.6426 81.8539 21.8272 82.0447 22.0673 82.2109C22.3135 82.371 22.609 82.5125 22.9537 82.6357C23.2984 82.7588 23.6861 82.8665 24.117 82.9588L25.742 83.3281C26.6776 83.5312 27.5024 83.8021 28.2164 84.1406C28.9366 84.4792 29.5398 84.8823 30.0261 85.3501C30.5185 85.8179 30.8909 86.3565 31.1433 86.9659C31.3957 87.5753 31.5249 88.2585 31.5311 89.0156C31.5249 90.2098 31.2233 91.2346 30.6262 92.0902C30.0292 92.9458 29.1705 93.6013 28.0502 94.0568C26.9361 94.5123 25.5912 94.7401 24.0154 94.7401C22.4335 94.7401 21.0547 94.5031 19.8791 94.0291C18.7034 93.5552 17.7894 92.835 17.1369 91.8686C16.4844 90.9022 16.149 89.6804 16.1305 88.2031H20.5069C20.5439 88.8125 20.707 89.3203 20.9963 89.7266C21.2856 90.1328 21.6826 90.4406 22.1873 90.6499C22.6982 90.8591 23.2891 90.9638 23.96 90.9638C24.5756 90.9638 25.0988 90.8807 25.5297 90.7145C25.9667 90.5483 26.3021 90.3175 26.536 90.022C26.7699 89.7266 26.89 89.388 26.8961 89.0064C26.89 88.6494 26.7792 88.3447 26.5637 88.0923C26.3483 87.8338 26.0159 87.6122 25.5666 87.4276C25.1234 87.2367 24.5571 87.0613 23.8677 86.9013L21.8919 86.4396C20.2546 86.0642 18.965 85.4579 18.0233 84.6207C17.0815 83.7775 16.6137 82.6387 16.6199 81.2045C16.6137 80.035 16.9276 79.0102 17.5616 78.13C18.1956 77.2498 19.0727 76.5634 20.193 76.071C21.3133 75.5786 22.5905 75.3324 24.0247 75.3324C25.4896 75.3324 26.7607 75.5817 27.8379 76.0803C28.9212 76.5727 29.7614 77.2652 30.3585 78.1577C30.9556 79.0502 31.2602 80.0843 31.2726 81.2599H26.8961ZM33.8393 94.5V75.5909H38.4096V83.1804H45.8606V75.5909H50.4217V94.5H45.8606V86.9013H38.4096V94.5H33.8393ZM57.8588 75.5909V94.5H53.2885V75.5909H57.8588ZM60.728 94.5V75.5909H73.6357V79.3026H65.2983V83.1804H72.8139V86.9013H65.2983V94.5H60.728ZM75.3184 79.3026V75.5909H91.3006V79.3026H85.5669V94.5H81.0613V79.3026H75.3184ZM109.833 82.4418H105.217C105.155 81.9678 105.029 81.54 104.838 81.1584C104.648 80.7768 104.395 80.4505 104.081 80.1797C103.767 79.9089 103.395 79.7027 102.964 79.5611C102.539 79.4134 102.069 79.3395 101.551 79.3395C100.634 79.3395 99.8434 79.5642 99.1786 80.0135C98.52 80.4628 98.0122 81.1122 97.6552 81.9616C97.3043 82.8111 97.1289 83.839 97.1289 85.0455C97.1289 86.3011 97.3074 87.3537 97.6644 88.2031C98.0276 89.0464 98.5354 89.6835 99.1879 90.1143C99.8465 90.5391 100.625 90.7514 101.524 90.7514C102.029 90.7514 102.487 90.6868 102.9 90.5575C103.318 90.4283 103.684 90.2405 103.998 89.9943C104.318 89.742 104.58 89.4373 104.783 89.0803C104.992 88.7171 105.137 88.3078 105.217 87.8523L109.833 87.88C109.753 88.7171 109.51 89.5419 109.104 90.3544C108.704 91.1669 108.153 91.9086 107.451 92.5795C106.75 93.2443 105.894 93.7737 104.885 94.1676C103.881 94.5616 102.73 94.7585 101.431 94.7585C99.7203 94.7585 98.1876 94.383 96.8335 93.6321C95.4854 92.875 94.4206 91.7732 93.6388 90.3267C92.8571 88.8802 92.4663 87.1198 92.4663 85.0455C92.4663 82.965 92.8633 81.2015 93.6573 79.755C94.4513 78.3085 95.5254 77.2098 96.8796 76.4588C98.2338 75.7079 99.7511 75.3324 101.431 75.3324C102.576 75.3324 103.635 75.4924 104.608 75.8125C105.58 76.1264 106.436 76.5881 107.174 77.1974C107.913 77.8007 108.513 78.5424 108.975 79.4226C109.436 80.3028 109.723 81.3092 109.833 82.4418ZM130.296 85.0455C130.296 87.1259 129.896 88.8894 129.096 90.3359C128.296 91.7824 127.212 92.8812 125.846 93.6321C124.485 94.383 122.959 94.7585 121.266 94.7585C119.567 94.7585 118.038 94.38 116.677 93.6229C115.317 92.8658 114.237 91.767 113.437 90.3267C112.643 88.8802 112.246 87.1198 112.246 85.0455C112.246 82.965 112.643 81.2015 113.437 79.755C114.237 78.3085 115.317 77.2098 116.677 76.4588C118.038 75.7079 119.567 75.3324 121.266 75.3324C122.959 75.3324 124.485 75.7079 125.846 76.4588C127.212 77.2098 128.296 78.3085 129.096 79.755C129.896 81.2015 130.296 82.965 130.296 85.0455ZM125.624 85.0455C125.624 83.8144 125.449 82.7741 125.098 81.9247C124.753 81.0753 124.255 80.4321 123.602 79.995C122.956 79.558 122.177 79.3395 121.266 79.3395C120.361 79.3395 119.583 79.558 118.93 79.995C118.278 80.4321 117.776 81.0753 117.425 81.9247C117.081 82.7741 116.908 83.8144 116.908 85.0455C116.908 86.2765 117.081 87.3168 117.425 88.1662C117.776 89.0156 118.278 89.6589 118.93 90.0959C119.583 90.5329 120.361 90.7514 121.266 90.7514C122.177 90.7514 122.956 90.5329 123.602 90.0959C124.255 89.6589 124.753 89.0156 125.098 88.1662C125.449 87.3168 125.624 86.2765 125.624 85.0455ZM149.057 75.5909V94.5H145.18L137.655 83.5866H137.535V94.5H132.964V75.5909H136.898L144.339 86.4858H144.496V75.5909H149.057ZM168.024 75.5909V94.5H164.146L156.621 83.5866H156.501V94.5H151.931V75.5909H155.864L163.306 86.4858H163.463V75.5909H168.024ZM170.898 94.5V75.5909H184.083V79.3026H175.468V83.1804H183.409V86.9013H175.468V90.7884H184.083V94.5H170.898ZM204.109 82.4418H199.492C199.431 81.9678 199.305 81.54 199.114 81.1584C198.923 80.7768 198.671 80.4505 198.357 80.1797C198.043 79.9089 197.67 79.7027 197.24 79.5611C196.815 79.4134 196.344 79.3395 195.827 79.3395C194.91 79.3395 194.119 79.5642 193.454 80.0135C192.795 80.4628 192.288 81.1122 191.931 81.9616C191.58 82.8111 191.404 83.839 191.404 85.0455C191.404 86.3011 191.583 87.3537 191.94 88.2031C192.303 89.0464 192.811 89.6835 193.463 90.1143C194.122 90.5391 194.901 90.7514 195.799 90.7514C196.304 90.7514 196.762 90.6868 197.175 90.5575C197.593 90.4283 197.96 90.2405 198.274 89.9943C198.594 89.742 198.855 89.4373 199.058 89.0803C199.268 88.7171 199.412 88.3078 199.492 87.8523L204.109 87.88C204.029 88.7171 203.786 89.5419 203.379 90.3544C202.979 91.1669 202.428 91.9086 201.727 92.5795C201.025 93.2443 200.169 93.7737 199.16 94.1676C198.157 94.5616 197.006 94.7585 195.707 94.7585C193.996 94.7585 192.463 94.383 191.109 93.6321C189.761 92.875 188.696 91.7732 187.914 90.3267C187.133 88.8802 186.742 87.1198 186.742 85.0455C186.742 82.965 187.139 81.2015 187.933 79.755C188.727 78.3085 189.801 77.2098 191.155 76.4588C192.509 75.7079 194.026 75.3324 195.707 75.3324C196.852 75.3324 197.91 75.4924 198.883 75.8125C199.856 76.1264 200.711 76.5881 201.45 77.1974C202.188 77.8007 202.789 78.5424 203.25 79.4226C203.712 80.3028 203.998 81.3092 204.109 82.4418ZM206.105 79.3026V75.5909H222.088V79.3026H216.354V94.5H211.848V79.3026H206.105ZM241.304 85.0455C241.304 87.1259 240.904 88.8894 240.104 90.3359C239.303 91.7824 238.22 92.8812 236.854 93.6321C235.493 94.383 233.967 94.7585 232.274 94.7585C230.575 94.7585 229.046 94.38 227.685 93.6229C226.325 92.8658 225.245 91.767 224.444 90.3267C223.65 88.8802 223.253 87.1198 223.253 85.0455C223.253 82.965 223.65 81.2015 224.444 79.755C225.245 78.3085 226.325 77.2098 227.685 76.4588C229.046 75.7079 230.575 75.3324 232.274 75.3324C233.967 75.3324 235.493 75.7079 236.854 76.4588C238.22 77.2098 239.303 78.3085 240.104 79.755C240.904 81.2015 241.304 82.965 241.304 85.0455ZM236.632 85.0455C236.632 83.8144 236.456 82.7741 236.106 81.9247C235.761 81.0753 235.262 80.4321 234.61 79.995C233.964 79.558 233.185 79.3395 232.274 79.3395C231.369 79.3395 230.59 79.558 229.938 79.995C229.286 80.4321 228.784 81.0753 228.433 81.9247C228.088 82.7741 227.916 83.8144 227.916 85.0455C227.916 86.2765 228.088 87.3168 228.433 88.1662C228.784 89.0156 229.286 89.6589 229.938 90.0959C230.59 90.5329 231.369 90.7514 232.274 90.7514C233.185 90.7514 233.964 90.5329 234.61 90.0959C235.262 89.6589 235.761 89.0156 236.106 88.1662C236.456 87.3168 236.632 86.2765 236.632 85.0455ZM243.972 94.5V75.5909H251.783C253.199 75.5909 254.421 75.8464 255.449 76.3572C256.483 76.862 257.28 77.5883 257.84 78.5362C258.4 79.478 258.68 80.5952 258.68 81.8878C258.68 83.1989 258.394 84.313 257.822 85.2301C257.249 86.1411 256.437 86.8366 255.384 87.3168C254.331 87.7907 253.085 88.0277 251.645 88.0277H246.705V84.4268H250.795C251.485 84.4268 252.06 84.3376 252.522 84.1591C252.99 83.9744 253.344 83.6974 253.584 83.3281C253.824 82.9527 253.944 82.4725 253.944 81.8878C253.944 81.303 253.824 80.8198 253.584 80.4382C253.344 80.0504 252.99 79.7611 252.522 79.5703C252.054 79.3733 251.479 79.2749 250.795 79.2749H248.542V94.5H243.972ZM254.618 85.858L259.327 94.5H254.341L249.724 85.858H254.618Z" fill="black"/>
</svg>
