<svg width="275" height="170" viewBox="0 0 275 170" fill="none" xmlns="http://www.w3.org/2000/svg">
<rect width="275" height="170" fill="white"/>
<path d="M29.4815 80.2045C29.4058 79.3712 29.0687 78.7235 28.4702 78.2614C27.8793 77.7917 27.0346 77.5568 25.9361 77.5568C25.2088 77.5568 24.6027 77.6515 24.1179 77.8409C23.633 78.0303 23.2694 78.2917 23.027 78.625C22.7846 78.9508 22.6596 79.3258 22.652 79.75C22.6368 80.0985 22.705 80.4053 22.8565 80.6705C23.0156 80.9356 23.2429 81.1705 23.5384 81.375C23.8414 81.572 24.205 81.7462 24.6293 81.8977C25.0535 82.0492 25.5308 82.1818 26.0611 82.2955L28.0611 82.75C29.2126 83 30.2277 83.3333 31.1065 83.75C31.9929 84.1667 32.7353 84.6629 33.3338 85.2386C33.9399 85.8144 34.3982 86.4773 34.7088 87.2273C35.0194 87.9773 35.1785 88.8182 35.1861 89.75C35.1785 91.2197 34.8073 92.4811 34.0724 93.5341C33.3376 94.5871 32.2808 95.3939 30.902 95.9545C29.5308 96.5152 27.8755 96.7955 25.9361 96.7955C23.9891 96.7955 22.2921 96.5038 20.8452 95.9205C19.3982 95.3371 18.2732 94.4508 17.4702 93.2614C16.6671 92.072 16.2543 90.5682 16.2315 88.75H21.6179C21.6634 89.5 21.8641 90.125 22.2202 90.625C22.5762 91.125 23.0649 91.5038 23.6861 91.7614C24.3149 92.0189 25.0421 92.1477 25.8679 92.1477C26.6255 92.1477 27.2694 92.0455 27.7997 91.8409C28.3376 91.6364 28.7505 91.3523 29.0384 90.9886C29.3262 90.625 29.474 90.2083 29.4815 89.7386C29.474 89.2992 29.3376 88.9242 29.0724 88.6136C28.8073 88.2955 28.3982 88.0227 27.8452 87.7955C27.2997 87.5606 26.6027 87.3447 25.7543 87.1477L23.3224 86.5795C21.3073 86.1174 19.7202 85.3712 18.5611 84.3409C17.402 83.303 16.8262 81.9015 16.8338 80.1364C16.8262 78.697 17.2126 77.4356 17.9929 76.3523C18.7732 75.2689 19.8527 74.4242 21.2315 73.8182C22.6103 73.2121 24.1823 72.9091 25.9474 72.9091C27.7505 72.9091 29.3149 73.2159 30.6406 73.8295C31.974 74.4356 33.008 75.2879 33.7429 76.3864C34.4777 77.4848 34.8527 78.7576 34.8679 80.2045H29.4815ZM43.5838 86.5455V96.5H38.027V73.2273H43.402V82.25H43.5952C43.9891 81.1742 44.633 80.3333 45.527 79.7273C46.4285 79.1212 47.5308 78.8182 48.8338 78.8182C50.0611 78.8182 51.1293 79.0909 52.0384 79.6364C52.9474 80.1742 53.652 80.9356 54.152 81.9205C54.6596 82.9053 54.9096 84.0568 54.902 85.375V96.5H49.3452V86.4659C49.3527 85.4962 49.1103 84.7386 48.6179 84.1932C48.1255 83.6477 47.4323 83.375 46.5384 83.375C45.955 83.375 45.4399 83.5038 44.9929 83.7614C44.5535 84.0114 44.2088 84.3712 43.9588 84.8409C43.7164 85.3106 43.5914 85.8788 43.5838 86.5455ZM58.3707 96.5V79.0455H63.9276V96.5H58.3707ZM61.1548 77.0114C60.3745 77.0114 59.7041 76.7538 59.1435 76.2386C58.5829 75.7159 58.3026 75.0871 58.3026 74.3523C58.3026 73.625 58.5829 73.0038 59.1435 72.4886C59.7041 71.9659 60.3745 71.7045 61.1548 71.7045C61.9427 71.7045 62.6132 71.9659 63.1662 72.4886C63.7268 73.0038 64.0071 73.625 64.0071 74.3523C64.0071 75.0871 63.7268 75.7159 63.1662 76.2386C62.6132 76.7538 61.9427 77.0114 61.1548 77.0114ZM77.3849 79.0455V83.1364H66.1577V79.0455H77.3849ZM68.4986 96.5V78.1591C68.4986 76.8106 68.7524 75.6932 69.2599 74.8068C69.7675 73.9129 70.4721 73.2462 71.3736 72.8068C72.2751 72.3598 73.3168 72.1364 74.4986 72.1364C75.2713 72.1364 75.9986 72.197 76.6804 72.3182C77.3698 72.4318 77.8812 72.5341 78.2145 72.625L77.3281 76.6932C77.1236 76.625 76.8736 76.5682 76.5781 76.5227C76.2902 76.4773 76.0175 76.4545 75.7599 76.4545C75.1084 76.4545 74.6615 76.5985 74.419 76.8864C74.1766 77.1742 74.0554 77.5682 74.0554 78.0682V96.5H68.4986ZM89.9105 79.0455V83.1364H78.8991V79.0455H89.9105ZM81.206 74.8636H86.7628V91.0114C86.7628 91.3523 86.8158 91.6288 86.9219 91.8409C87.0355 92.0455 87.1984 92.1932 87.4105 92.2841C87.6226 92.3674 87.8764 92.4091 88.1719 92.4091C88.384 92.4091 88.6075 92.3902 88.8423 92.3523C89.0848 92.3068 89.2666 92.2689 89.3878 92.2386L90.2287 96.25C89.9635 96.3258 89.5885 96.4205 89.1037 96.5341C88.6264 96.6477 88.0545 96.7197 87.3878 96.75C86.0848 96.8106 84.9673 96.6591 84.0355 96.2955C83.1113 95.9242 82.4029 95.3485 81.9105 94.5682C81.4257 93.7879 81.1908 92.8068 81.206 91.625V74.8636ZM113.871 81.6591H108.189C108.113 81.0758 107.958 80.5492 107.723 80.0795C107.488 79.6098 107.178 79.2083 106.791 78.875C106.405 78.5417 105.946 78.2879 105.416 78.1136C104.893 77.9318 104.314 77.8409 103.678 77.8409C102.549 77.8409 101.575 78.1174 100.757 78.6705C99.9465 79.2235 99.3215 80.0227 98.8821 81.0682C98.4503 82.1136 98.2344 83.3788 98.2344 84.8636C98.2344 86.4091 98.4541 87.7045 98.8935 88.75C99.3404 89.7879 99.9654 90.572 100.768 91.1023C101.579 91.625 102.537 91.8864 103.643 91.8864C104.265 91.8864 104.829 91.8068 105.337 91.6477C105.852 91.4886 106.303 91.2576 106.689 90.9545C107.083 90.6439 107.405 90.2689 107.655 89.8295C107.912 89.3826 108.09 88.8788 108.189 88.3182L113.871 88.3523C113.772 89.3826 113.473 90.3977 112.973 91.3977C112.481 92.3977 111.803 93.3106 110.939 94.1364C110.075 94.9545 109.022 95.6061 107.78 96.0909C106.545 96.5758 105.128 96.8182 103.53 96.8182C101.424 96.8182 99.5374 96.3561 97.8707 95.4318C96.2116 94.5 94.901 93.1439 93.9389 91.3636C92.9768 89.5833 92.4957 87.4167 92.4957 84.8636C92.4957 82.303 92.9844 80.1326 93.9616 78.3523C94.9389 76.572 96.2609 75.2197 97.9276 74.2955C99.5942 73.3712 101.462 72.9091 103.53 72.9091C104.939 72.9091 106.242 73.1061 107.439 73.5C108.636 73.8864 109.689 74.4545 110.598 75.2045C111.507 75.947 112.246 76.8598 112.814 77.9432C113.382 79.0265 113.734 80.2652 113.871 81.6591ZM125.237 96.8295C123.404 96.8295 121.828 96.4545 120.51 95.7045C119.199 94.947 118.188 93.8939 117.476 92.5455C116.771 91.1894 116.419 89.6174 116.419 87.8295C116.419 86.0341 116.771 84.4621 117.476 83.1136C118.188 81.7576 119.199 80.7045 120.51 79.9545C121.828 79.197 123.404 78.8182 125.237 78.8182C127.071 78.8182 128.643 79.197 129.953 79.9545C131.271 80.7045 132.283 81.7576 132.987 83.1136C133.699 84.4621 134.055 86.0341 134.055 87.8295C134.055 89.6174 133.699 91.1894 132.987 92.5455C132.283 93.8939 131.271 94.947 129.953 95.7045C128.643 96.4545 127.071 96.8295 125.237 96.8295ZM125.271 92.6364C125.938 92.6364 126.502 92.4318 126.964 92.0227C127.427 91.6136 127.779 91.0455 128.021 90.3182C128.271 89.5909 128.396 88.75 128.396 87.7955C128.396 86.8258 128.271 85.9773 128.021 85.25C127.779 84.5227 127.427 83.9545 126.964 83.5455C126.502 83.1364 125.938 82.9318 125.271 82.9318C124.582 82.9318 123.999 83.1364 123.521 83.5455C123.052 83.9545 122.692 84.5227 122.442 85.25C122.199 85.9773 122.078 86.8258 122.078 87.7955C122.078 88.75 122.199 89.5909 122.442 90.3182C122.692 91.0455 123.052 91.6136 123.521 92.0227C123.999 92.4318 124.582 92.6364 125.271 92.6364ZM142.459 86.5455V96.5H136.902V79.0455H142.186V82.25H142.379C142.766 81.1818 143.425 80.3447 144.357 79.7386C145.288 79.125 146.398 78.8182 147.686 78.8182C148.913 78.8182 149.978 79.0947 150.879 79.6477C151.788 80.1932 152.493 80.9583 152.993 81.9432C153.5 82.9205 153.75 84.0644 153.743 85.375V96.5H148.186V86.4659C148.194 85.4962 147.947 84.7386 147.447 84.1932C146.955 83.6477 146.269 83.375 145.391 83.375C144.807 83.375 144.292 83.5038 143.845 83.7614C143.406 84.0114 143.065 84.3712 142.822 84.8409C142.588 85.3106 142.466 85.8788 142.459 86.5455ZM162.74 86.5455V96.5H157.183V79.0455H162.467V82.25H162.661C163.047 81.1818 163.706 80.3447 164.638 79.7386C165.57 79.125 166.679 78.8182 167.967 78.8182C169.195 78.8182 170.259 79.0947 171.161 79.6477C172.07 80.1932 172.774 80.9583 173.274 81.9432C173.782 82.9205 174.032 84.0644 174.024 85.375V96.5H168.467V86.4659C168.475 85.4962 168.229 84.7386 167.729 84.1932C167.236 83.6477 166.551 83.375 165.672 83.375C165.089 83.375 164.573 83.5038 164.126 83.7614C163.687 84.0114 163.346 84.3712 163.104 84.8409C162.869 85.3106 162.748 85.8788 162.74 86.5455ZM185.624 96.8295C183.798 96.8295 182.222 96.4697 180.896 95.75C179.578 95.0227 178.563 93.9886 177.851 92.6477C177.146 91.2992 176.794 89.697 176.794 87.8409C176.794 86.0379 177.15 84.4621 177.862 83.1136C178.574 81.7576 179.578 80.7045 180.874 79.9545C182.169 79.197 183.696 78.8182 185.453 78.8182C186.696 78.8182 187.832 79.0114 188.862 79.3977C189.893 79.7841 190.783 80.3561 191.533 81.1136C192.283 81.8712 192.866 82.8068 193.283 83.9205C193.699 85.0265 193.908 86.2955 193.908 87.7273V89.1136H178.737V85.8864H188.737C188.73 85.2955 188.589 84.7689 188.317 84.3068C188.044 83.8447 187.669 83.4848 187.192 83.2273C186.722 82.9621 186.18 82.8295 185.567 82.8295C184.946 82.8295 184.389 82.9697 183.896 83.25C183.404 83.5227 183.014 83.8977 182.726 84.375C182.438 84.8447 182.286 85.3788 182.271 85.9773V89.2614C182.271 89.9735 182.411 90.5985 182.692 91.1364C182.972 91.6667 183.37 92.0795 183.885 92.375C184.4 92.6705 185.014 92.8182 185.726 92.8182C186.218 92.8182 186.665 92.75 187.067 92.6136C187.468 92.4773 187.813 92.2765 188.101 92.0114C188.389 91.7462 188.605 91.4205 188.749 91.0341L193.851 91.1818C193.639 92.3258 193.173 93.322 192.453 94.1705C191.741 95.0114 190.805 95.6667 189.646 96.1364C188.487 96.5985 187.146 96.8295 185.624 96.8295ZM204.893 96.8295C203.053 96.8295 201.473 96.4508 200.155 95.6932C198.844 94.9356 197.837 93.8826 197.132 92.5341C196.428 91.178 196.075 89.6098 196.075 87.8295C196.075 86.0417 196.428 84.4735 197.132 83.125C197.844 81.7689 198.856 80.7121 200.166 79.9545C201.484 79.197 203.056 78.8182 204.882 78.8182C206.496 78.8182 207.901 79.1098 209.098 79.6932C210.303 80.2765 211.242 81.1023 211.916 82.1705C212.598 83.2311 212.958 84.4773 212.996 85.9091H207.803C207.696 85.0152 207.393 84.3144 206.893 83.8068C206.401 83.2992 205.757 83.0455 204.962 83.0455C204.318 83.0455 203.753 83.2273 203.268 83.5909C202.784 83.947 202.405 84.4773 202.132 85.1818C201.867 85.8788 201.734 86.7424 201.734 87.7727C201.734 88.803 201.867 89.6742 202.132 90.3864C202.405 91.0909 202.784 91.625 203.268 91.9886C203.753 92.3447 204.318 92.5227 204.962 92.5227C205.477 92.5227 205.931 92.4129 206.325 92.1932C206.727 91.9735 207.056 91.6515 207.314 91.2273C207.571 90.7955 207.734 90.2727 207.803 89.6591H212.996C212.943 91.0985 212.583 92.3561 211.916 93.4318C211.257 94.5076 210.329 95.3447 209.132 95.9432C207.943 96.5341 206.53 96.8295 204.893 96.8295ZM225.692 79.0455V83.1364H214.68V79.0455H225.692ZM216.987 74.8636H222.544V91.0114C222.544 91.3523 222.597 91.6288 222.703 91.8409C222.817 92.0455 222.98 92.1932 223.192 92.2841C223.404 92.3674 223.658 92.4091 223.953 92.4091C224.165 92.4091 224.389 92.3902 224.624 92.3523C224.866 92.3068 225.048 92.2689 225.169 92.2386L226.01 96.25C225.745 96.3258 225.37 96.4205 224.885 96.5341C224.408 96.6477 223.836 96.7197 223.169 96.75C221.866 96.8106 220.749 96.6591 219.817 96.2955C218.893 95.9242 218.184 95.3485 217.692 94.5682C217.207 93.7879 216.972 92.8068 216.987 91.625V74.8636ZM236.487 96.8295C234.654 96.8295 233.078 96.4545 231.76 95.7045C230.449 94.947 229.438 93.8939 228.726 92.5455C228.021 91.1894 227.669 89.6174 227.669 87.8295C227.669 86.0341 228.021 84.4621 228.726 83.1136C229.438 81.7576 230.449 80.7045 231.76 79.9545C233.078 79.197 234.654 78.8182 236.487 78.8182C238.321 78.8182 239.893 79.197 241.203 79.9545C242.521 80.7045 243.533 81.7576 244.237 83.1136C244.949 84.4621 245.305 86.0341 245.305 87.8295C245.305 89.6174 244.949 91.1894 244.237 92.5455C243.533 93.8939 242.521 94.947 241.203 95.7045C239.893 96.4545 238.321 96.8295 236.487 96.8295ZM236.521 92.6364C237.188 92.6364 237.752 92.4318 238.214 92.0227C238.677 91.6136 239.029 91.0455 239.271 90.3182C239.521 89.5909 239.646 88.75 239.646 87.7955C239.646 86.8258 239.521 85.9773 239.271 85.25C239.029 84.5227 238.677 83.9545 238.214 83.5455C237.752 83.1364 237.188 82.9318 236.521 82.9318C235.832 82.9318 235.249 83.1364 234.771 83.5455C234.302 83.9545 233.942 84.5227 233.692 85.25C233.449 85.9773 233.328 86.8258 233.328 87.7955C233.328 88.75 233.449 89.5909 233.692 90.3182C233.942 91.0455 234.302 91.6136 234.771 92.0227C235.249 92.4318 235.832 92.6364 236.521 92.6364ZM248.152 96.5V79.0455H253.55V82.2273H253.732C254.05 81.0758 254.569 80.2197 255.288 79.6591C256.008 79.0909 256.845 78.8068 257.8 78.8068C258.057 78.8068 258.322 78.8258 258.595 78.8636C258.868 78.8939 259.122 78.9432 259.357 79.0114V83.8409C259.091 83.75 258.743 83.678 258.311 83.625C257.887 83.572 257.508 83.5455 257.175 83.5455C256.516 83.5455 255.921 83.6932 255.391 83.9886C254.868 84.2765 254.455 84.6818 254.152 85.2045C253.857 85.7197 253.709 86.3258 253.709 87.0227V96.5H248.152Z" fill="black"/>
</svg>
