<svg width="275" height="170" viewBox="0 0 275 170" fill="none" xmlns="http://www.w3.org/2000/svg">
<rect width="275" height="170" fill="white"/>
<path d="M107.083 80.1861C107.002 79.3007 106.644 78.6125 106.008 78.1214C105.381 77.6224 104.483 77.3729 103.316 77.3729C102.543 77.3729 101.899 77.4735 101.384 77.6747C100.869 77.8759 100.483 78.1536 100.225 78.5078C99.9674 78.8539 99.8346 79.2524 99.8265 79.7031C99.8104 80.0734 99.8829 80.3994 100.044 80.6811C100.213 80.9628 100.454 81.2124 100.768 81.4297C101.09 81.639 101.477 81.8241 101.927 81.9851C102.378 82.1461 102.885 82.2869 103.449 82.4077L105.574 82.8906C106.797 83.1562 107.876 83.5104 108.809 83.9531C109.751 84.3958 110.54 84.9231 111.176 85.5348C111.82 86.1465 112.307 86.8509 112.637 87.6477C112.967 88.4446 113.136 89.3381 113.144 90.3281C113.136 91.8897 112.742 93.2299 111.961 94.3487C111.18 95.4676 110.057 96.3248 108.592 96.9205C107.135 97.5161 105.376 97.8139 103.316 97.8139C101.247 97.8139 99.4442 97.504 97.9068 96.8842C96.3694 96.2644 95.1741 95.3227 94.3208 94.0589C93.4676 92.7952 93.0289 91.1974 93.0048 89.2656H98.7278C98.7761 90.0625 98.9894 90.7266 99.3677 91.2578C99.746 91.7891 100.265 92.1915 100.925 92.4652C101.593 92.7389 102.366 92.8757 103.243 92.8757C104.048 92.8757 104.733 92.767 105.296 92.5497C105.867 92.3324 106.306 92.0305 106.612 91.6442C106.918 91.2578 107.075 90.8151 107.083 90.3161C107.075 89.8492 106.93 89.4508 106.648 89.1207C106.367 88.7827 105.932 88.4929 105.344 88.2514C104.765 88.0019 104.024 87.7725 103.123 87.5632L100.539 86.9595C98.3978 86.4685 96.7115 85.6757 95.4799 84.581C94.2484 83.4782 93.6367 81.9891 93.6447 80.1136C93.6367 78.5843 94.0472 77.2441 94.8762 76.093C95.7053 74.942 96.8523 74.0445 98.3173 73.4006C99.7823 72.7566 101.452 72.4347 103.328 72.4347C105.244 72.4347 106.906 72.7607 108.314 73.4126C109.731 74.0566 110.83 74.9621 111.611 76.1293C112.391 77.2964 112.79 78.6487 112.806 80.1861H107.083ZM129.528 80.1861C129.448 79.3007 129.09 78.6125 128.454 78.1214C127.826 77.6224 126.928 77.3729 125.761 77.3729C124.988 77.3729 124.345 77.4735 123.829 77.6747C123.314 77.8759 122.928 78.1536 122.67 78.5078C122.413 78.8539 122.28 79.2524 122.272 79.7031C122.256 80.0734 122.328 80.3994 122.489 80.6811C122.658 80.9628 122.9 81.2124 123.214 81.4297C123.536 81.639 123.922 81.8241 124.373 81.9851C124.823 82.1461 125.331 82.2869 125.894 82.4077L128.019 82.8906C129.242 83.1562 130.321 83.5104 131.255 83.9531C132.197 84.3958 132.985 84.9231 133.621 85.5348C134.265 86.1465 134.752 86.8509 135.082 87.6477C135.412 88.4446 135.581 89.3381 135.589 90.3281C135.581 91.8897 135.187 93.2299 134.406 94.3487C133.625 95.4676 132.502 96.3248 131.037 96.9205C129.581 97.5161 127.822 97.8139 125.761 97.8139C123.693 97.8139 121.89 97.504 120.352 96.8842C118.815 96.2644 117.619 95.3227 116.766 94.0589C115.913 92.7952 115.474 91.1974 115.45 89.2656H121.173C121.221 90.0625 121.435 90.7266 121.813 91.2578C122.191 91.7891 122.711 92.1915 123.371 92.4652C124.039 92.7389 124.811 92.8757 125.689 92.8757C126.494 92.8757 127.178 92.767 127.741 92.5497C128.313 92.3324 128.751 92.0305 129.057 91.6442C129.363 91.2578 129.52 90.8151 129.528 90.3161C129.52 89.8492 129.375 89.4508 129.094 89.1207C128.812 88.7827 128.377 88.4929 127.79 88.2514C127.21 88.0019 126.47 87.7725 125.568 87.5632L122.984 86.9595C120.843 86.4685 119.157 85.6757 117.925 84.581C116.694 83.4782 116.082 81.9891 116.09 80.1136C116.082 78.5843 116.492 77.2441 117.322 76.093C118.151 74.942 119.298 74.0445 120.763 73.4006C122.228 72.7566 123.898 72.4347 125.773 72.4347C127.689 72.4347 129.351 72.7607 130.76 73.4126C132.176 74.0566 133.275 74.9621 134.056 76.1293C134.837 77.2964 135.235 78.6487 135.251 80.1861H129.528ZM138.608 97.5V72.7727H144.584V82.6974H154.328V72.7727H160.292V97.5H154.328V87.5632H144.584V97.5H138.608ZM164.041 97.5V72.7727H181.283V77.6264H170.018V82.6974H180.401V87.5632H170.018V92.6463H181.283V97.5H164.041Z" fill="black"/>
</svg>
