<svg width="275" height="170" viewBox="0 0 275 170" fill="none" xmlns="http://www.w3.org/2000/svg">
<rect width="275" height="170" fill="white"/>
<path d="M113.47 80.2344C113.377 79.366 112.986 78.6899 112.297 78.206C111.614 77.7221 110.725 77.4801 109.632 77.4801C108.863 77.4801 108.203 77.5961 107.653 77.8281C107.103 78.0601 106.682 78.375 106.39 78.7727C106.099 79.1705 105.949 79.6245 105.943 80.1349C105.943 80.5592 106.039 80.9271 106.231 81.2386C106.43 81.5502 106.699 81.8153 107.037 82.0341C107.375 82.2462 107.749 82.4252 108.16 82.571C108.571 82.7169 108.985 82.8395 109.403 82.9389L111.312 83.4162C112.081 83.5952 112.82 83.8371 113.529 84.142C114.245 84.447 114.885 84.8314 115.449 85.2955C116.019 85.7595 116.469 86.3196 116.801 86.9759C117.132 87.6321 117.298 88.401 117.298 89.2827C117.298 90.4759 116.993 91.5265 116.383 92.4347C115.773 93.3362 114.892 94.0421 113.738 94.5526C112.592 95.0563 111.203 95.3082 109.572 95.3082C107.988 95.3082 106.612 95.063 105.446 94.5724C104.286 94.0819 103.377 93.366 102.721 92.4247C102.072 91.4834 101.72 90.3366 101.667 88.9844H105.297C105.35 89.6937 105.568 90.2836 105.953 90.7543C106.337 91.2249 106.838 91.5762 107.454 91.8082C108.077 92.0402 108.773 92.1562 109.542 92.1562C110.344 92.1562 111.047 92.0369 111.65 91.7983C112.26 91.553 112.737 91.215 113.082 90.7841C113.427 90.3466 113.602 89.8362 113.609 89.2528C113.602 88.7225 113.447 88.285 113.142 87.9403C112.837 87.589 112.409 87.2973 111.859 87.0653C111.315 86.8267 110.679 86.6146 109.95 86.429L107.633 85.8324C105.956 85.4015 104.63 84.7486 103.656 83.8736C102.688 82.992 102.204 81.822 102.204 80.3636C102.204 79.1638 102.529 78.1132 103.179 77.2116C103.835 76.3101 104.726 75.6108 105.853 75.1136C106.98 74.6098 108.256 74.358 109.681 74.358C111.127 74.358 112.393 74.6098 113.48 75.1136C114.574 75.6108 115.432 76.3035 116.055 77.1918C116.678 78.0734 117 79.0876 117.02 80.2344H113.47ZM131.653 80.2344C131.561 79.366 131.17 78.6899 130.48 78.206C129.797 77.7221 128.909 77.4801 127.815 77.4801C127.046 77.4801 126.387 77.5961 125.837 77.8281C125.286 78.0601 124.866 78.375 124.574 78.7727C124.282 79.1705 124.133 79.6245 124.126 80.1349C124.126 80.5592 124.223 80.9271 124.415 81.2386C124.614 81.5502 124.882 81.8153 125.22 82.0341C125.558 82.2462 125.933 82.4252 126.344 82.571C126.755 82.7169 127.169 82.8395 127.587 82.9389L129.496 83.4162C130.265 83.5952 131.004 83.8371 131.713 84.142C132.429 84.447 133.069 84.8314 133.632 85.2955C134.202 85.7595 134.653 86.3196 134.984 86.9759C135.316 87.6321 135.482 88.401 135.482 89.2827C135.482 90.4759 135.177 91.5265 134.567 92.4347C133.957 93.3362 133.075 94.0421 131.922 94.5526C130.775 95.0563 129.386 95.3082 127.756 95.3082C126.171 95.3082 124.796 95.063 123.629 94.5724C122.469 94.0819 121.561 93.366 120.905 92.4247C120.255 91.4834 119.904 90.3366 119.851 88.9844H123.48C123.533 89.6937 123.752 90.2836 124.136 90.7543C124.521 91.2249 125.021 91.5762 125.638 91.8082C126.261 92.0402 126.957 92.1562 127.726 92.1562C128.528 92.1562 129.231 92.0369 129.834 91.7983C130.444 91.553 130.921 91.215 131.266 90.7841C131.61 90.3466 131.786 89.8362 131.793 89.2528C131.786 88.7225 131.63 88.285 131.325 87.9403C131.02 87.589 130.593 87.2973 130.043 87.0653C129.499 86.8267 128.863 86.6146 128.134 86.429L125.817 85.8324C124.14 85.4015 122.814 84.7486 121.839 83.8736C120.872 82.992 120.388 81.822 120.388 80.3636C120.388 79.1638 120.713 78.1132 121.362 77.2116C122.018 76.3101 122.91 75.6108 124.037 75.1136C125.164 74.6098 126.44 74.358 127.865 74.358C129.31 74.358 130.576 74.6098 131.663 75.1136C132.757 75.6108 133.616 76.3035 134.239 77.1918C134.862 78.0734 135.183 79.0876 135.203 80.2344H131.653ZM138.77 95V74.6364H142.459V83.2571H151.895V74.6364H155.594V95H151.895V86.3494H142.459V95H138.77ZM159.606 95V74.6364H172.85V77.7287H163.295V83.2571H172.164V86.3494H163.295V91.9077H172.93V95H159.606Z" fill="black"/>
</svg>
