<svg width="147" height="38" viewBox="0 0 147 38" fill="none" xmlns="http://www.w3.org/2000/svg">
<rect width="146.011" height="37.9403" fill="white"/>
<path d="M26.0312 16.5625H21.7699C21.7131 16.125 21.5966 15.7301 21.4205 15.3778C21.2443 15.0256 21.0114 14.7244 20.7216 14.4744C20.4318 14.2244 20.0881 14.0341 19.6903 13.9034C19.2983 13.767 18.8636 13.6989 18.3864 13.6989C17.5398 13.6989 16.8097 13.9062 16.196 14.321C15.5881 14.7358 15.1193 15.3352 14.7898 16.1193C14.4659 16.9034 14.304 17.8523 14.304 18.9659C14.304 20.125 14.4688 21.0966 14.7983 21.8807C15.1335 22.6591 15.6023 23.2472 16.2045 23.6449C16.8125 24.0369 17.5313 24.233 18.3608 24.233C18.8267 24.233 19.25 24.1733 19.6307 24.054C20.017 23.9347 20.3551 23.7614 20.6449 23.5341C20.9403 23.3011 21.1818 23.0199 21.3693 22.6903C21.5625 22.3551 21.696 21.9773 21.7699 21.5568L26.0312 21.5824C25.9574 22.3551 25.733 23.1165 25.358 23.8665C24.9886 24.6165 24.4801 25.3011 23.8324 25.9205C23.1847 26.5341 22.3949 27.0227 21.4631 27.3864C20.5369 27.75 19.4744 27.9318 18.2756 27.9318C16.696 27.9318 15.2813 27.5852 14.0313 26.892C12.7869 26.1932 11.804 25.1761 11.0824 23.8409C10.3608 22.5057 10 20.8807 10 18.9659C10 17.0455 10.3665 15.4176 11.0994 14.0824C11.8324 12.7472 12.8239 11.733 14.0739 11.0398C15.3239 10.3466 16.7244 10 18.2756 10C19.3324 10 20.3097 10.1477 21.2074 10.4432C22.1051 10.733 22.8949 11.1591 23.5767 11.7216C24.2585 12.2784 24.8125 12.9631 25.2386 13.7756C25.6648 14.5881 25.929 15.517 26.0312 16.5625Z" fill="black"/>
<path d="M32.6129 20.2273V27.6932H28.4453V10.2386H32.4766V17.0057H32.6214C32.9169 16.1989 33.3999 15.5682 34.0703 15.1136C34.7464 14.6591 35.5732 14.4318 36.5504 14.4318C37.4709 14.4318 38.272 14.6364 38.9538 15.0455C39.6357 15.4489 40.1641 16.0199 40.5391 16.7585C40.9197 17.4972 41.1072 18.3608 41.1016 19.3494V27.6932H36.9339V20.1676C36.9396 19.4403 36.7578 18.8722 36.3885 18.4631C36.0192 18.054 35.4993 17.8494 34.8288 17.8494C34.3913 17.8494 34.005 17.946 33.6697 18.1392C33.3402 18.3267 33.0817 18.5966 32.8942 18.9489C32.7124 19.3011 32.6186 19.7273 32.6129 20.2273Z" fill="black"/>
<path d="M47.3935 27.9148C46.5582 27.9148 45.8168 27.7756 45.169 27.4972C44.527 27.2131 44.0185 26.7869 43.6435 26.2188C43.2741 25.6449 43.0895 24.9261 43.0895 24.0625C43.0895 23.3352 43.2173 22.7216 43.473 22.2216C43.7287 21.7216 44.081 21.3153 44.5298 21.0028C44.9787 20.6903 45.4957 20.4545 46.081 20.2955C46.6662 20.1307 47.2912 20.0199 47.956 19.9631C48.7003 19.8949 49.2997 19.8239 49.7543 19.75C50.2088 19.6705 50.5384 19.5597 50.7429 19.4176C50.9531 19.2699 51.0582 19.0625 51.0582 18.7955V18.7528C51.0582 18.3153 50.9077 17.9773 50.6065 17.7386C50.3054 17.5 49.8991 17.3807 49.3878 17.3807C48.8366 17.3807 48.3935 17.5 48.0582 17.7386C47.723 17.9773 47.5099 18.3068 47.419 18.7273L43.5753 18.5909C43.6889 17.7955 43.9815 17.0852 44.4531 16.4602C44.9304 15.8295 45.5838 15.3352 46.4134 14.9773C47.2486 14.6136 48.2514 14.4318 49.4219 14.4318C50.2571 14.4318 51.027 14.5313 51.7315 14.7301C52.4361 14.9233 53.0497 15.2074 53.5724 15.5824C54.0952 15.9517 54.4986 16.4063 54.7827 16.946C55.0724 17.4858 55.2173 18.1023 55.2173 18.7955V27.6932H51.2969V25.8693H51.1946C50.9616 26.3125 50.6634 26.6875 50.2997 26.9943C49.9418 27.3011 49.5185 27.5313 49.0298 27.6847C48.5469 27.8381 48.0014 27.9148 47.3935 27.9148ZM48.6804 25.1875C49.1293 25.1875 49.5327 25.0966 49.8906 24.9148C50.2543 24.733 50.544 24.483 50.7599 24.1648C50.9759 23.8409 51.0838 23.4659 51.0838 23.0398V21.7955C50.9645 21.858 50.8196 21.9148 50.6491 21.9659C50.4844 22.017 50.3026 22.0653 50.1037 22.1108C49.9048 22.1563 49.7003 22.196 49.4901 22.2301C49.2798 22.2642 49.0781 22.2955 48.8849 22.3239C48.4929 22.3864 48.1577 22.483 47.8793 22.6136C47.6065 22.7443 47.3963 22.9148 47.2486 23.125C47.1065 23.3295 47.0355 23.5739 47.0355 23.858C47.0355 24.2898 47.1889 24.6193 47.4957 24.8466C47.8082 25.0739 48.2031 25.1875 48.6804 25.1875Z" fill="black"/>
<path d="M57.7656 27.6932V14.6023H61.7287V17.0057H61.8736C62.1463 16.2102 62.6065 15.5824 63.2543 15.1222C63.902 14.6619 64.6747 14.4318 65.5724 14.4318C66.4815 14.4318 67.2599 14.6648 67.9077 15.1307C68.5554 15.5966 68.9673 16.2216 69.1435 17.0057H69.2798C69.5241 16.2273 70.0014 15.6051 70.7116 15.1392C71.4219 14.6676 72.2599 14.4318 73.2259 14.4318C74.4645 14.4318 75.4702 14.8295 76.2429 15.625C77.0156 16.4148 77.402 17.5 77.402 18.8807V27.6932H73.2344V19.8352C73.2344 19.1818 73.0668 18.6847 72.7315 18.3438C72.3963 17.9972 71.9616 17.8239 71.4276 17.8239C70.8537 17.8239 70.402 18.0114 70.0724 18.3864C69.7486 18.7557 69.5866 19.2528 69.5866 19.8778V27.6932H65.581V19.7926C65.581 19.1847 65.4162 18.7045 65.0866 18.3523C64.7571 18 64.3224 17.8239 63.7827 17.8239C63.419 17.8239 63.098 17.9119 62.8196 18.0881C62.5412 18.2585 62.3224 18.5028 62.1634 18.821C62.0099 19.1392 61.9332 19.5142 61.9332 19.946V27.6932H57.7656Z" fill="black"/>
<path d="M83.6747 27.9148C82.8395 27.9148 82.098 27.7756 81.4503 27.4972C80.8082 27.2131 80.2997 26.7869 79.9247 26.2188C79.5554 25.6449 79.3707 24.9261 79.3707 24.0625C79.3707 23.3352 79.4986 22.7216 79.7543 22.2216C80.0099 21.7216 80.3622 21.3153 80.8111 21.0028C81.2599 20.6903 81.777 20.4545 82.3622 20.2955C82.9474 20.1307 83.5724 20.0199 84.2372 19.9631C84.9815 19.8949 85.581 19.8239 86.0355 19.75C86.4901 19.6705 86.8196 19.5597 87.0241 19.4176C87.2344 19.2699 87.3395 19.0625 87.3395 18.7955V18.7528C87.3395 18.3153 87.1889 17.9773 86.8878 17.7386C86.5867 17.5 86.1804 17.3807 85.669 17.3807C85.1179 17.3807 84.6747 17.5 84.3395 17.7386C84.0043 17.9773 83.7912 18.3068 83.7003 18.7273L79.8565 18.5909C79.9702 17.7955 80.2628 17.0852 80.7344 16.4602C81.2116 15.8295 81.8651 15.3352 82.6946 14.9773C83.5298 14.6136 84.5327 14.4318 85.7031 14.4318C86.5384 14.4318 87.3082 14.5313 88.0128 14.7301C88.7173 14.9233 89.331 15.2074 89.8537 15.5824C90.3764 15.9517 90.7798 16.4063 91.0639 16.946C91.3537 17.4858 91.4986 18.1023 91.4986 18.7955V27.6932H87.5781V25.8693H87.4759C87.2429 26.3125 86.9446 26.6875 86.581 26.9943C86.223 27.3011 85.7997 27.5313 85.3111 27.6847C84.8281 27.8381 84.2827 27.9148 83.6747 27.9148ZM84.9616 25.1875C85.4105 25.1875 85.8139 25.0966 86.1719 24.9148C86.5355 24.733 86.8253 24.483 87.0412 24.1648C87.2571 23.8409 87.3651 23.4659 87.3651 23.0398V21.7955C87.2457 21.858 87.1009 21.9148 86.9304 21.9659C86.7656 22.017 86.5838 22.0653 86.3849 22.1108C86.1861 22.1563 85.9815 22.196 85.7713 22.2301C85.5611 22.2642 85.3594 22.2955 85.1662 22.3239C84.7741 22.3864 84.4389 22.483 84.1605 22.6136C83.8878 22.7443 83.6776 22.9148 83.5298 23.125C83.3878 23.3295 83.3168 23.5739 83.3168 23.858C83.3168 24.2898 83.4702 24.6193 83.777 24.8466C84.0895 25.0739 84.4844 25.1875 84.9616 25.1875Z" fill="black"/>
<path d="M98.8281 27.8807C97.8622 27.8807 96.9844 27.6307 96.1946 27.1307C95.4048 26.6307 94.7741 25.8807 94.3026 24.8807C93.831 23.8807 93.5952 22.6392 93.5952 21.1563C93.5952 19.6165 93.8395 18.3494 94.3281 17.3551C94.8168 16.3608 95.456 15.625 96.2457 15.1477C97.0412 14.6705 97.8963 14.4318 98.8111 14.4318C99.4986 14.4318 100.087 14.5511 100.575 14.7898C101.064 15.0227 101.467 15.3239 101.786 15.6932C102.104 16.0625 102.345 16.446 102.51 16.8438H102.595V10.2386H106.763V27.6932H102.638V25.571H102.51C102.334 25.9744 102.084 26.3523 101.76 26.7045C101.436 27.0568 101.03 27.3409 100.541 27.5568C100.058 27.7727 99.4872 27.8807 98.8281 27.8807ZM100.277 24.6335C100.783 24.6335 101.214 24.4915 101.572 24.2074C101.93 23.9176 102.206 23.5114 102.399 22.9886C102.592 22.4659 102.689 21.8523 102.689 21.1477C102.689 20.4318 102.592 19.8153 102.399 19.2983C102.212 18.7813 101.936 18.3835 101.572 18.1051C101.214 17.8267 100.783 17.6875 100.277 17.6875C99.7599 17.6875 99.3224 17.8295 98.9645 18.1136C98.6065 18.3977 98.3338 18.7983 98.1463 19.3153C97.9645 19.8324 97.8736 20.4432 97.8736 21.1477C97.8736 21.8523 97.9673 22.4659 98.1548 22.9886C98.3423 23.5114 98.6122 23.9176 98.9645 24.2074C99.3224 24.4915 99.7599 24.6335 100.277 24.6335Z" fill="black"/>
<path d="M115.509 27.9403C114.134 27.9403 112.952 27.6591 111.964 27.0966C110.981 26.5284 110.222 25.7386 109.688 24.7273C109.16 23.7102 108.896 22.5313 108.896 21.1903C108.896 19.8438 109.16 18.6648 109.688 17.6534C110.222 16.6364 110.981 15.8466 111.964 15.2841C112.952 14.7159 114.134 14.4318 115.509 14.4318C116.884 14.4318 118.063 14.7159 119.046 15.2841C120.035 15.8466 120.793 16.6364 121.322 17.6534C121.856 18.6648 122.123 19.8438 122.123 21.1903C122.123 22.5313 121.856 23.7102 121.322 24.7273C120.793 25.7386 120.035 26.5284 119.046 27.0966C118.063 27.6591 116.884 27.9403 115.509 27.9403ZM115.535 24.7955C116.035 24.7955 116.458 24.642 116.805 24.3352C117.151 24.0284 117.415 23.6023 117.597 23.0568C117.785 22.5114 117.879 21.8807 117.879 21.1648C117.879 20.4375 117.785 19.8011 117.597 19.2557C117.415 18.7102 117.151 18.2841 116.805 17.9773C116.458 17.6705 116.035 17.517 115.535 17.517C115.018 17.517 114.58 17.6705 114.222 17.9773C113.87 18.2841 113.6 18.7102 113.413 19.2557C113.231 19.8011 113.14 20.4375 113.14 21.1648C113.14 21.8807 113.231 22.5114 113.413 23.0568C113.6 23.6023 113.87 24.0284 114.222 24.3352C114.58 24.642 115.018 24.7955 115.535 24.7955Z" fill="black"/>
<path d="M135.687 18.5994L131.86 18.7017C131.82 18.429 131.712 18.1875 131.536 17.9773C131.36 17.7614 131.13 17.5938 130.846 17.4744C130.567 17.3494 130.244 17.2869 129.874 17.2869C129.391 17.2869 128.979 17.3835 128.638 17.5767C128.303 17.7699 128.138 18.0313 128.144 18.3608C128.138 18.6165 128.241 18.8381 128.451 19.0256C128.667 19.2131 129.05 19.3636 129.602 19.4773L132.124 19.9545C133.431 20.2045 134.403 20.6193 135.039 21.1989C135.681 21.7784 136.005 22.5455 136.011 23.5C136.005 24.3977 135.738 25.179 135.21 25.8438C134.687 26.5085 133.971 27.0256 133.062 27.3949C132.153 27.7585 131.113 27.9403 129.942 27.9403C128.073 27.9403 126.599 27.5568 125.519 26.7898C124.445 26.017 123.832 24.983 123.678 23.6875L127.795 23.5852C127.886 24.0625 128.121 24.4261 128.502 24.6761C128.883 24.9261 129.369 25.0511 129.96 25.0511C130.494 25.0511 130.928 24.9517 131.263 24.7528C131.599 24.554 131.769 24.2898 131.775 23.9602C131.769 23.6648 131.638 23.429 131.383 23.2528C131.127 23.071 130.727 22.929 130.181 22.8267L127.897 22.392C126.585 22.1534 125.607 21.7131 124.965 21.071C124.323 20.4233 124.005 19.5994 124.011 18.5994C124.005 17.7244 124.238 16.9773 124.71 16.358C125.181 15.733 125.852 15.2557 126.721 14.9261C127.59 14.5966 128.616 14.4318 129.798 14.4318C131.57 14.4318 132.968 14.804 133.991 15.5483C135.013 16.2869 135.579 17.304 135.687 18.5994Z" fill="black"/>
</svg>
