<svg width="262" height="49" viewBox="0 0 262 49" fill="none" xmlns="http://www.w3.org/2000/svg">
<path d="M24.048 48.704C20.72 48.704 17.6266 48.128 14.768 46.976C11.9093 45.7813 9.39196 44.1386 7.21596 42.048C5.03996 39.9146 3.33329 37.4613 2.09596 34.688C0.901288 31.872 0.303955 28.8426 0.303955 25.6C0.303955 22.3573 0.901288 19.3493 2.09596 16.576C3.33329 13.76 5.01862 11.3066 7.15196 9.21598C9.28529 7.08265 11.7813 5.43998 14.64 4.28798C17.5413 3.09331 20.6346 2.49598 23.92 2.49598C27.632 2.49598 31.1306 3.24265 34.416 4.73598C37.7013 6.18665 40.4106 8.23465 42.544 10.88L36.08 16.832C34.544 14.912 32.7306 13.4613 30.64 12.48C28.5493 11.4986 26.3093 11.008 23.92 11.008C21.9146 11.008 20.0586 11.392 18.352 12.16C16.6453 12.8853 15.152 13.9093 13.872 15.232C12.592 16.512 11.5893 18.048 10.864 19.84C10.1813 21.5893 9.83996 23.5093 9.83996 25.6C9.83996 27.6906 10.2026 29.632 10.928 31.424C11.6533 33.216 12.656 34.7733 13.936 36.096C15.2586 37.376 16.7733 38.4 18.48 39.168C20.2293 39.8933 22.128 40.256 24.176 40.256C26.3093 40.256 28.2293 39.872 29.936 39.104C31.6426 38.2933 33.072 37.184 34.224 35.776C35.4186 34.3253 36.208 32.704 36.592 30.912H23.344V22.848H46.512V25.664C46.512 28.992 45.936 32.064 44.784 34.88C43.6746 37.6533 42.1173 40.0853 40.112 42.176C38.1066 44.224 35.7386 45.824 33.008 46.976C30.2773 48.128 27.2906 48.704 24.048 48.704Z" fill="white"/>
<path d="M68.5245 48.64C65.1965 48.64 62.1885 47.872 59.5005 46.336C56.8125 44.8 54.6791 42.7306 53.1005 40.128C51.5218 37.5253 50.7325 34.6026 50.7325 31.36C50.7325 28.1173 51.5005 25.1946 53.0365 22.592C54.6151 19.9466 56.7485 17.856 59.4365 16.32C62.1671 14.784 65.1965 14.016 68.5245 14.016C71.8525 14.016 74.8605 14.784 77.5485 16.32C80.2791 17.856 82.4125 19.9466 83.9485 22.592C85.5271 25.1946 86.3165 28.1173 86.3165 31.36C86.3165 34.6026 85.5271 37.5253 83.9485 40.128C82.4125 42.7306 80.3005 44.8 77.6125 46.336C74.9245 47.872 71.8951 48.64 68.5245 48.64ZM68.5245 41.024C70.2738 41.024 71.8311 40.5973 73.1965 39.744C74.6045 38.8906 75.7138 37.7386 76.5245 36.288C77.3778 34.7946 77.8045 33.152 77.8045 31.36C77.8045 29.5253 77.3778 27.8826 76.5245 26.432C75.7138 24.9813 74.6045 23.8293 73.1965 22.976C71.8311 22.08 70.2738 21.632 68.5245 21.632C66.8178 21.632 65.2605 22.08 63.8525 22.976C62.4445 23.8293 61.3351 24.9813 60.5245 26.432C59.7138 27.8826 59.3085 29.5253 59.3085 31.36C59.3085 33.152 59.7138 34.7946 60.5245 36.288C61.3351 37.7386 62.4445 38.8906 63.8525 39.744C65.2605 40.5973 66.8178 41.024 68.5245 41.024Z" fill="white"/>
<path d="M105.157 48V3.19998H114.437V39.808H138.949V48H105.157Z" fill="white"/>
<path d="M144.768 48V14.656H153.536V48H144.768ZM149.12 10.688C147.755 10.688 146.582 10.1973 145.6 9.21598C144.619 8.23465 144.128 7.06131 144.128 5.69598C144.128 4.28798 144.619 3.11465 145.6 2.17598C146.582 1.19465 147.755 0.703979 149.12 0.703979C150.528 0.703979 151.702 1.19465 152.64 2.17598C153.622 3.11465 154.112 4.28798 154.112 5.69598C154.112 7.06131 153.622 8.23465 152.64 9.21598C151.702 10.1973 150.528 10.688 149.12 10.688Z" fill="white"/>
<path d="M160.393 48V14.656H169.161V17.408C171.679 15.1466 174.793 14.016 178.505 14.016C181.108 14.016 183.391 14.592 185.353 15.744C187.359 16.8533 188.916 18.4106 190.025 20.416C191.135 22.3786 191.689 24.6826 191.689 27.328V48H182.921V28.608C182.921 26.432 182.303 24.7253 181.065 23.488C179.828 22.208 178.143 21.568 176.009 21.568C174.516 21.568 173.193 21.8666 172.041 22.464C170.889 23.0186 169.929 23.8293 169.161 24.896V48H160.393Z" fill="white"/>
<path d="M198.331 48V3.19998L207.099 1.72798V28.672L221.499 14.656H231.419L215.675 29.952L232.379 48H221.179L207.099 32.768V48H198.331Z" fill="white"/>
<path d="M246.998 48.64C243.926 48.64 241.089 48.256 238.486 47.488C235.884 46.6773 233.622 45.5253 231.702 44.032L236.054 38.208C237.974 39.488 239.809 40.448 241.558 41.088C243.35 41.728 245.121 42.048 246.87 42.048C248.833 42.048 250.39 41.728 251.542 41.088C252.737 40.4053 253.334 39.5306 253.334 38.464C253.334 37.6106 252.993 36.928 252.31 36.416C251.67 35.904 250.625 35.5413 249.174 35.328L242.774 34.368C239.446 33.856 236.929 32.7893 235.222 31.168C233.516 29.504 232.662 27.328 232.662 24.64C232.662 22.464 233.217 20.608 234.326 19.072C235.478 17.4933 237.078 16.2773 239.126 15.424C241.217 14.528 243.692 14.08 246.55 14.08C248.982 14.08 251.35 14.4213 253.654 15.104C256.001 15.7866 258.198 16.832 260.246 18.24L256.022 23.936C254.188 22.784 252.438 21.952 250.774 21.44C249.11 20.928 247.425 20.672 245.718 20.672C244.14 20.672 242.86 20.9706 241.878 21.568C240.94 22.1653 240.47 22.9546 240.47 23.936C240.47 24.832 240.812 25.536 241.494 26.048C242.177 26.56 243.35 26.9226 245.014 27.136L251.35 28.096C254.678 28.5653 257.217 29.632 258.966 31.296C260.716 32.9173 261.59 35.0293 261.59 37.632C261.59 39.7653 260.95 41.664 259.67 43.328C258.39 44.9493 256.662 46.2506 254.486 47.232C252.31 48.1706 249.814 48.64 246.998 48.64Z" fill="white"/>
</svg>
