<svg width="311" height="90" viewBox="0 0 311 90" fill="none" xmlns="http://www.w3.org/2000/svg">
<g filter="url(#filter0_d_206_16)">
<path d="M41.3636 35.5781C40.9957 34.2992 40.4789 33.1693 39.8132 32.1882C39.1475 31.1896 38.3329 30.3487 37.3693 29.6655C36.4233 28.9647 35.3371 28.4304 34.1108 28.0625C32.902 27.6946 31.5618 27.5107 30.0902 27.5107C27.3397 27.5107 24.9221 28.1939 22.8374 29.5604C20.7701 30.9268 19.1584 32.9152 18.0021 35.5256C16.8459 38.1184 16.2678 41.2893 16.2678 45.0384C16.2678 48.7874 16.8371 51.9759 17.9759 54.6037C19.1146 57.2315 20.7263 59.2375 22.8111 60.6214C24.8958 61.9879 27.3572 62.6712 30.1953 62.6712C32.7706 62.6712 34.9692 62.2157 36.7912 61.3047C38.6307 60.3762 40.0322 59.071 40.9957 57.3892C41.9768 55.7074 42.4673 53.719 42.4673 51.424L44.7798 51.7656H30.9048V43.1989H53.4254V49.9787C53.4254 54.7088 52.4268 58.7732 50.4297 62.1719C48.4325 65.553 45.6821 68.1634 42.1783 70.0028C38.6745 71.8248 34.6626 72.7358 30.1428 72.7358C25.0973 72.7358 20.665 71.6233 16.8459 69.3984C13.0268 67.156 10.0485 63.9763 7.91122 59.8594C5.79143 55.7249 4.73153 50.8196 4.73153 45.1435C4.73153 40.7812 5.36222 36.892 6.62358 33.4758C7.90246 30.0421 9.68939 27.134 11.9844 24.7514C14.2794 22.3688 16.951 20.5556 19.9993 19.3118C23.0476 18.0679 26.3499 17.446 29.9062 17.446C32.9545 17.446 35.7926 17.8928 38.4205 18.7862C41.0483 19.6622 43.3783 20.906 45.4105 22.5178C47.4602 24.1295 49.1333 26.0478 50.4297 28.2727C51.7261 30.4801 52.5582 32.9152 52.9261 35.5781H41.3636ZM79.9995 72.7884C75.9176 72.7884 72.3875 71.9212 69.4093 70.1868C66.4486 68.4349 64.1623 65.9998 62.5506 62.8814C60.9389 59.7455 60.133 56.1103 60.133 51.9759C60.133 47.8063 60.9389 44.1624 62.5506 41.044C64.1623 37.9081 66.4486 35.473 69.4093 33.7386C72.3875 31.9867 75.9176 31.1108 79.9995 31.1108C84.0814 31.1108 87.6027 31.9867 90.5634 33.7386C93.5416 35.473 95.8366 37.9081 97.4483 41.044C99.0601 44.1624 99.8659 47.8063 99.8659 51.9759C99.8659 56.1103 99.0601 59.7455 97.4483 62.8814C95.8366 65.9998 93.5416 68.4349 90.5634 70.1868C87.6027 71.9212 84.0814 72.7884 79.9995 72.7884ZM80.052 64.1165C81.909 64.1165 83.4595 63.5909 84.7033 62.5398C85.9471 61.4711 86.8844 60.017 87.5151 58.1776C88.1633 56.3381 88.4874 54.2446 88.4874 51.897C88.4874 49.5495 88.1633 47.456 87.5151 45.6165C86.8844 43.777 85.9471 42.3229 84.7033 41.2543C83.4595 40.1856 81.909 39.6513 80.052 39.6513C78.1775 39.6513 76.6008 40.1856 75.3219 41.2543C74.0605 42.3229 73.1058 43.777 72.4576 45.6165C71.8269 47.456 71.5115 49.5495 71.5115 51.897C71.5115 54.2446 71.8269 56.3381 72.4576 58.1776C73.1058 60.017 74.0605 61.4711 75.3219 62.5398C76.6008 63.5909 78.1775 64.1165 80.052 64.1165Z" fill="#00BCFF"/>
<path d="M120.678 72V18.1818H132.056V62.6186H155.129V72H120.678ZM162.454 72V31.6364H173.648V72H162.454ZM168.077 26.4332C166.413 26.4332 164.985 25.8814 163.794 24.7777C162.62 23.6565 162.033 22.3163 162.033 20.7571C162.033 19.2154 162.62 17.8928 163.794 16.7891C164.985 15.6678 166.413 15.1072 168.077 15.1072C169.742 15.1072 171.161 15.6678 172.334 16.7891C173.526 17.8928 174.121 19.2154 174.121 20.7571C174.121 22.3163 173.526 23.6565 172.334 24.7777C171.161 25.8814 169.742 26.4332 168.077 26.4332ZM193.81 48.6648V72H182.616V31.6364H193.285V38.7578H193.758C194.651 36.4103 196.149 34.5533 198.251 33.1868C200.354 31.8028 202.903 31.1108 205.898 31.1108C208.701 31.1108 211.145 31.724 213.23 32.9503C215.315 34.1766 216.935 35.9285 218.092 38.206C219.248 40.4659 219.826 43.1638 219.826 46.2997V72H208.631V48.2969C208.649 45.8267 208.018 43.8996 206.739 42.5156C205.46 41.1141 203.7 40.4134 201.457 40.4134C199.951 40.4134 198.619 40.7375 197.463 41.3857C196.324 42.0339 195.431 42.9799 194.783 44.2237C194.152 45.45 193.828 46.9304 193.81 48.6648ZM238.792 60.3849L238.819 46.9567H240.448L253.377 31.6364H266.227L248.857 51.9233H246.203L238.792 60.3849ZM228.649 72V18.1818H239.844V72H228.649ZM253.876 72L241.998 54.4197L249.461 46.5099L266.989 72H253.876ZM305.303 43.1463L295.055 43.777C294.879 42.901 294.503 42.1127 293.925 41.4119C293.346 40.6937 292.584 40.1243 291.638 39.7038C290.71 39.2659 289.597 39.0469 288.301 39.0469C286.567 39.0469 285.104 39.4148 283.912 40.1506C282.721 40.8688 282.126 41.8324 282.126 43.0412C282.126 44.0047 282.511 44.8194 283.282 45.4851C284.053 46.1508 285.375 46.6851 287.25 47.0881L294.555 48.5597C298.479 49.3655 301.405 50.6619 303.332 52.4489C305.259 54.2358 306.223 56.5833 306.223 59.4915C306.223 62.1368 305.443 64.4581 303.884 66.4553C302.342 68.4524 300.223 70.0116 297.525 71.1328C294.844 72.2365 291.752 72.7884 288.248 72.7884C282.905 72.7884 278.648 71.6759 275.477 69.451C272.324 67.2086 270.475 64.1603 269.932 60.3061L280.943 59.728C281.276 61.3572 282.082 62.6011 283.361 63.4595C284.64 64.3004 286.278 64.7209 288.275 64.7209C290.237 64.7209 291.814 64.3442 293.005 63.5909C294.214 62.8201 294.827 61.8303 294.844 60.6214C294.827 59.6054 294.398 58.7732 293.557 58.125C292.716 57.4593 291.419 56.9512 289.667 56.6009L282.677 55.2081C278.736 54.4197 275.801 53.0533 273.874 51.1087C271.965 49.1641 271.01 46.6851 271.01 43.6719C271.01 41.0791 271.711 38.8454 273.112 36.9709C274.531 35.0964 276.519 33.651 279.077 32.6349C281.653 31.6188 284.666 31.1108 288.117 31.1108C293.215 31.1108 297.227 32.1882 300.153 34.343C303.096 36.4979 304.813 39.4323 305.303 43.1463Z" fill="#89D329"/>
</g>
<defs>
<filter id="filter0_d_206_16" x="0.731567" y="15.1073" width="309.491" height="65.681" filterUnits="userSpaceOnUse" color-interpolation-filters="sRGB">
<feFlood flood-opacity="0" result="BackgroundImageFix"/>
<feColorMatrix in="SourceAlpha" type="matrix" values="0 0 0 0 0 0 0 0 0 0 0 0 0 0 0 0 0 0 127 0" result="hardAlpha"/>
<feOffset dy="4"/>
<feGaussianBlur stdDeviation="2"/>
<feComposite in2="hardAlpha" operator="out"/>
<feColorMatrix type="matrix" values="0 0 0 0 0 0 0 0 0 0 0 0 0 0 0 0 0 0 0.25 0"/>
<feBlend mode="normal" in2="BackgroundImageFix" result="effect1_dropShadow_206_16"/>
<feBlend mode="normal" in="SourceGraphic" in2="effect1_dropShadow_206_16" result="shape"/>
</filter>
</defs>
</svg>
