<svg width="44" height="44" viewBox="0 0 44 44" fill="none" xmlns="http://www.w3.org/2000/svg">
<g clip-path="url(#clip0_23_54)">
<path d="M32.956 16.588C32.956 16.324 32.8533 16.1187 32.648 15.972L22.528 8.14C22.2347 7.90533 21.912 7.90533 21.56 8.14L11.792 15.972C11.616 16.1187 11.528 16.324 11.528 16.588V30.712C11.528 30.9469 11.6013 31.1373 11.748 31.284C11.8947 31.4307 12.0707 31.5042 12.276 31.5042H18.084C18.3187 31.5042 18.5093 31.4308 18.656 31.284C18.8027 31.1373 18.876 30.9469 18.876 30.712V22.0441H25.564V30.7119C25.564 30.9468 25.6373 31.1373 25.784 31.2839C25.9307 31.4306 26.1213 31.5041 26.356 31.5041H32.164C32.3987 31.5041 32.5893 31.4307 32.736 31.2839C32.8827 31.1371 32.956 30.9468 32.956 30.7119V16.588ZM22 0C25.0213 0 27.874 0.579333 30.558 1.738C33.242 2.89667 35.574 4.466 37.554 6.446C39.534 8.426 41.1033 10.758 42.262 13.442C43.4207 16.126 44 18.9787 44 22C44 24.024 43.736 25.9747 43.208 27.852C42.6798 29.7291 41.9393 31.4818 40.986 33.11C40.0327 34.738 38.8887 36.2193 37.554 37.554C36.2195 38.8887 34.738 40.0329 33.11 40.986C31.4819 41.9393 29.7293 42.68 27.8519 43.208C25.9747 43.736 24.024 44 22 44C19.976 44 18.0253 43.736 16.148 43.208C14.2707 42.6798 12.518 41.9393 10.89 40.986C9.262 40.0327 7.78067 38.8887 6.446 37.554C5.11133 36.2195 3.96733 34.738 3.014 33.11C2.06067 31.4819 1.32 29.7293 0.792 27.8519C0.264 25.9747 0 24.024 0 22C0 19.976 0.264 18.0253 0.792 16.148C1.32 14.2707 2.06067 12.518 3.014 10.89C3.96733 9.262 5.11133 7.78067 6.446 6.446C7.78067 5.11133 9.262 3.96733 10.89 3.014C12.518 2.06067 14.2707 1.32 16.148 0.792C18.0253 0.264 19.976 0 22 0Z" fill="white"/>
</g>
<defs>
<clipPath id="clip0_23_54">
<rect width="44" height="44" fill="white"/>
</clipPath>
</defs>
</svg>
