<svg width="134" height="21" viewBox="0 0 134 21" fill="none" xmlns="http://www.w3.org/2000/svg">
<path d="M17.0477 7.68171H12.5161C12.4557 7.1696 12.3318 6.70736 12.1445 6.29501C11.9572 5.88266 11.7095 5.53017 11.4014 5.23753C11.0932 4.94489 10.7277 4.72209 10.3047 4.56912C9.88783 4.4095 9.42561 4.32969 8.91808 4.32969C8.01781 4.32969 7.24141 4.57245 6.58886 5.05796C5.94236 5.54347 5.44389 6.24513 5.09346 7.16295C4.74906 8.08076 4.57686 9.19145 4.57686 10.495C4.57686 11.8518 4.75208 12.9891 5.10252 13.9069C5.459 14.8181 5.95747 15.5064 6.59793 15.972C7.24443 16.4309 8.00875 16.6603 8.89089 16.6603C9.38634 16.6603 9.83647 16.5905 10.2413 16.4508C10.6521 16.3112 11.0117 16.1083 11.3198 15.8423C11.634 15.5696 11.8908 15.2404 12.0902 14.8546C12.2956 14.4622 12.4376 14.02 12.5161 13.5278L17.0477 13.5577C16.9691 14.4622 16.7305 15.3534 16.3317 16.2314C15.9389 17.1093 15.3982 17.9107 14.7094 18.6356C14.0206 19.3539 13.1807 19.9259 12.1899 20.3515C11.205 20.7772 10.0751 20.99 8.80026 20.99C7.12057 20.99 5.61609 20.5843 4.28684 19.7729C2.96363 18.9549 1.91835 17.7644 1.15101 16.2014C0.383671 14.6385 0 12.7363 0 10.495C0 8.24703 0.389713 6.34157 1.16914 4.77862C1.94856 3.21568 3.0029 2.0285 4.33216 1.2171C5.66141 0.405701 7.15078 0 8.80026 0C9.92408 0 10.9633 0.172922 11.918 0.518766C12.8726 0.857957 13.7124 1.35677 14.4375 2.0152C15.1625 2.66698 15.7516 3.46841 16.2048 4.41948C16.658 5.37055 16.9389 6.45796 17.0477 7.68171Z" fill="white"/>
<path d="M24.0466 11.9715V20.7107H19.6148V0.279335H23.9016V8.20048H24.0557C24.3699 7.25606 24.8835 6.51781 25.5964 5.98575C26.3154 5.45368 27.1945 5.18765 28.2338 5.18765C29.2126 5.18765 30.0645 5.42708 30.7896 5.90594C31.5146 6.37815 32.0765 7.04656 32.4753 7.91116C32.8801 8.77577 33.0795 9.7867 33.0735 10.9439V20.7107H28.6416V11.9017C28.6477 11.0504 28.4543 10.3853 28.0616 9.90641C27.6688 9.42755 27.116 9.18812 26.403 9.18812C25.9378 9.18812 25.5269 9.30119 25.1705 9.52732C24.82 9.74679 24.5451 10.0627 24.3457 10.4751C24.1524 10.8874 24.0527 11.3862 24.0466 11.9715Z" fill="white"/>
<path d="M39.7643 20.9701C38.8761 20.9701 38.0876 20.8071 37.3988 20.4812C36.7161 20.1487 36.1753 19.6499 35.7765 18.9848C35.3838 18.3131 35.1874 17.4717 35.1874 16.4608C35.1874 15.6095 35.3234 14.8912 35.5953 14.3059C35.8672 13.7207 36.2418 13.2451 36.7191 12.8793C37.1964 12.5135 37.7462 12.2375 38.3686 12.0513C38.9909 11.8584 39.6555 11.7287 40.3625 11.6622C41.154 11.5824 41.7914 11.4993 42.2748 11.4128C42.7581 11.3197 43.1086 11.19 43.3261 11.0238C43.5496 10.8508 43.6614 10.6081 43.6614 10.2955V10.2456C43.6614 9.73349 43.5013 9.33777 43.1811 9.05843C42.8608 8.7791 42.4288 8.63943 41.8851 8.63943C41.299 8.63943 40.8277 8.7791 40.4712 9.05843C40.1147 9.33777 39.8882 9.72352 39.7915 10.2157L35.704 10.0561C35.8249 9.12494 36.136 8.29359 36.6375 7.562C37.1451 6.82375 37.8399 6.24513 38.722 5.82613C39.6102 5.40048 40.6766 5.18765 41.9213 5.18765C42.8095 5.18765 43.6282 5.30404 44.3774 5.53682C45.1266 5.76295 45.7792 6.09549 46.335 6.53444C46.8909 6.96675 47.3199 7.49881 47.622 8.13064C47.9301 8.76247 48.0842 9.48409 48.0842 10.2955V20.7107H43.9152V18.5758H43.8064C43.5587 19.0945 43.2415 19.5335 42.8548 19.8926C42.4742 20.2518 42.024 20.5211 41.5044 20.7007C40.9908 20.8803 40.4108 20.9701 39.7643 20.9701ZM41.1328 17.7777C41.6101 17.7777 42.0391 17.6713 42.4198 17.4584C42.8065 17.2456 43.1146 16.953 43.3442 16.5805C43.5738 16.2014 43.6886 15.7625 43.6886 15.2637V13.8071C43.5617 13.8803 43.4077 13.9468 43.2264 14.0067C43.0512 14.0665 42.8578 14.123 42.6464 14.1762C42.4349 14.2295 42.2174 14.276 41.9938 14.3159C41.7703 14.3558 41.5558 14.3924 41.3503 14.4257C40.9334 14.4988 40.5769 14.6119 40.2809 14.7648C39.9909 14.9178 39.7673 15.1173 39.6102 15.3634C39.4592 15.6029 39.3836 15.8888 39.3836 16.2214C39.3836 16.7268 39.5468 17.1126 39.8731 17.3786C40.2054 17.6447 40.6253 17.7777 41.1328 17.7777Z" fill="white"/>
<path d="M50.7941 20.7107V5.38717H55.0084V8.20048H55.1625C55.4525 7.26936 55.9419 6.53444 56.6307 5.99572C57.3195 5.45701 58.1412 5.18765 59.0959 5.18765C60.0626 5.18765 60.8903 5.46033 61.5791 6.0057C62.2679 6.55107 62.706 7.28266 62.8933 8.20048H63.0383C63.2981 7.28931 63.8056 6.56105 64.5609 6.01568C65.3162 5.46366 66.2074 5.18765 67.2345 5.18765C68.5517 5.18765 69.6211 5.65321 70.4428 6.58432C71.2646 7.50879 71.6754 8.7791 71.6754 10.3952V20.7107H67.2436V11.5126C67.2436 10.7477 67.0653 10.1658 66.7088 9.76675C66.3524 9.36105 65.8902 9.15819 65.3222 9.15819C64.712 9.15819 64.2316 9.37767 63.8812 9.81663C63.5368 10.2489 63.3646 10.8309 63.3646 11.5625V20.7107H59.1049V11.4627C59.1049 10.7511 58.9297 10.1891 58.5793 9.77672C58.2288 9.36437 57.7666 9.15819 57.1926 9.15819C56.8059 9.15819 56.4645 9.26128 56.1685 9.46746C55.8724 9.66698 55.6398 9.95297 55.4706 10.3254C55.3075 10.6979 55.2259 11.1368 55.2259 11.6423V20.7107H50.7941Z" fill="white"/>
<path d="M78.3459 20.9701C77.4577 20.9701 76.6692 20.8071 75.9804 20.4812C75.2976 20.1487 74.7569 19.6499 74.3581 18.9848C73.9654 18.3131 73.769 17.4717 73.769 16.4608C73.769 15.6095 73.9049 14.8912 74.1768 14.3059C74.4487 13.7207 74.8233 13.2451 75.3007 12.8793C75.778 12.5135 76.3278 12.2375 76.9501 12.0513C77.5725 11.8584 78.2371 11.7287 78.944 11.6622C79.7355 11.5824 80.373 11.4993 80.8563 11.4128C81.3397 11.3197 81.6901 11.19 81.9076 11.0238C82.1312 10.8508 82.243 10.6081 82.243 10.2955V10.2456C82.243 9.73349 82.0829 9.33777 81.7626 9.05843C81.4424 8.7791 81.0104 8.63943 80.4666 8.63943C79.8805 8.63943 79.4093 8.7791 79.0528 9.05843C78.6963 9.33777 78.4697 9.72352 78.373 10.2157L74.2856 10.0561C74.4064 9.12494 74.7176 8.29359 75.2191 7.562C75.7266 6.82375 76.4215 6.24513 77.3036 5.82613C78.1918 5.40048 79.2582 5.18765 80.5029 5.18765C81.3911 5.18765 82.2098 5.30404 82.959 5.53682C83.7082 5.76295 84.3607 6.09549 84.9166 6.53444C85.4725 6.96675 85.9014 7.49881 86.2035 8.13064C86.5117 8.76247 86.6658 9.48409 86.6658 10.2955V20.7107H82.4967V18.5758H82.388C82.1403 19.0945 81.8231 19.5335 81.4364 19.8926C81.0557 20.2518 80.6056 20.5211 80.086 20.7007C79.5724 20.8803 78.9924 20.9701 78.3459 20.9701ZM79.7144 17.7777C80.1917 17.7777 80.6207 17.6713 81.0013 17.4584C81.388 17.2456 81.6962 16.953 81.9258 16.5805C82.1554 16.2014 82.2702 15.7625 82.2702 15.2637V13.8071C82.1433 13.8803 81.9892 13.9468 81.808 14.0067C81.6327 14.0665 81.4394 14.123 81.2279 14.1762C81.0164 14.2295 80.7989 14.276 80.5754 14.3159C80.3518 14.3558 80.1373 14.3924 79.9319 14.4257C79.515 14.4988 79.1585 14.6119 78.8625 14.7648C78.5724 14.9178 78.3489 15.1173 78.1918 15.3634C78.0407 15.6029 77.9652 15.8888 77.9652 16.2214C77.9652 16.7268 78.1283 17.1126 78.4546 17.3786C78.7869 17.6447 79.2068 17.7777 79.7144 17.7777Z" fill="white"/>
<path d="M94.46 20.9302C93.4329 20.9302 92.4994 20.6375 91.6595 20.0523C90.8197 19.467 90.149 18.5891 89.6475 17.4185C89.146 16.248 88.8953 14.7948 88.8953 13.0589C88.8953 11.2565 89.1551 9.7734 89.6747 8.6095C90.1943 7.44561 90.8741 6.58432 91.7139 6.02565C92.5598 5.46698 93.4691 5.18765 94.4419 5.18765C95.173 5.18765 95.7983 5.32732 96.318 5.60665C96.8376 5.87934 97.2666 6.23183 97.6049 6.66413C97.9433 7.09644 98.2001 7.54537 98.3753 8.01093H98.4659V0.279335H102.898V20.7107H98.5112V18.2266H98.3753C98.188 18.6988 97.9221 19.1411 97.5777 19.5534C97.2333 19.9658 96.8013 20.2983 96.2817 20.5511C95.7681 20.8038 95.1609 20.9302 94.46 20.9302ZM96.0007 17.1292C96.5385 17.1292 96.9977 16.9629 97.3783 16.6304C97.759 16.2912 98.052 15.8157 98.2575 15.2038C98.4629 14.5919 98.5656 13.8736 98.5656 13.0489C98.5656 12.2109 98.4629 11.4893 98.2575 10.8841C98.0581 10.2789 97.765 9.8133 97.3783 9.48741C96.9977 9.16152 96.5385 8.99857 96.0007 8.99857C95.4509 8.99857 94.9857 9.16484 94.605 9.49739C94.2244 9.82993 93.9344 10.2988 93.735 10.904C93.5416 11.5093 93.445 12.2242 93.445 13.0489C93.445 13.8736 93.5447 14.5919 93.744 15.2038C93.9434 15.8157 94.2304 16.2912 94.605 16.6304C94.9857 16.9629 95.4509 17.1292 96.0007 17.1292Z" fill="white"/>
<path d="M112.199 21C110.737 21 109.48 20.6708 108.429 20.0124C107.383 19.3473 106.577 18.4228 106.009 17.239C105.447 16.0485 105.166 14.6684 105.166 13.0988C105.166 11.5226 105.447 10.1425 106.009 8.95867C106.577 7.76817 107.383 6.84371 108.429 6.18527C109.48 5.52019 110.737 5.18765 112.199 5.18765C113.661 5.18765 114.915 5.52019 115.96 6.18527C117.011 6.84371 117.818 7.76817 118.38 8.95867C118.948 10.1425 119.232 11.5226 119.232 13.0988C119.232 14.6684 118.948 16.0485 118.38 17.239C117.818 18.4228 117.011 19.3473 115.96 20.0124C114.915 20.6708 113.661 21 112.199 21ZM112.226 17.3188C112.758 17.3188 113.208 17.1392 113.576 16.78C113.945 16.4209 114.226 15.9221 114.419 15.2836C114.619 14.6451 114.718 13.9069 114.718 13.0689C114.718 12.2176 114.619 11.4727 114.419 10.8342C114.226 10.1957 113.945 9.69691 113.576 9.33777C113.208 8.97862 112.758 8.79905 112.226 8.79905C111.676 8.79905 111.211 8.97862 110.83 9.33777C110.456 9.69691 110.169 10.1957 109.969 10.8342C109.776 11.4727 109.679 12.2176 109.679 13.0689C109.679 13.9069 109.776 14.6451 109.969 15.2836C110.169 15.9221 110.456 16.4209 110.83 16.78C111.211 17.1392 111.676 17.3188 112.226 17.3188Z" fill="white"/>
<path d="M133.656 10.066L129.586 10.1857C129.544 9.86651 129.429 9.58385 129.242 9.33777C129.055 9.08504 128.81 8.88884 128.508 8.74917C128.212 8.60285 127.867 8.52969 127.475 8.52969C126.961 8.52969 126.523 8.64276 126.16 8.86888C125.804 9.09501 125.629 9.40095 125.635 9.7867C125.629 10.086 125.737 10.3454 125.961 10.5648C126.191 10.7843 126.598 10.9606 127.185 11.0936L129.867 11.6523C131.257 11.9449 132.29 12.4304 132.967 13.1088C133.65 13.7872 133.994 14.685 134 15.8024C133.994 16.8532 133.71 17.7677 133.148 18.5458C132.592 19.324 131.831 19.9292 130.864 20.3615C129.897 20.7872 128.792 21 127.547 21C125.559 21 123.991 20.5511 122.843 19.6532C121.701 18.7487 121.049 17.5382 120.886 16.0219L125.263 15.9021C125.36 16.4608 125.611 16.8865 126.015 17.1791C126.42 17.4717 126.937 17.6181 127.565 17.6181C128.133 17.6181 128.595 17.5017 128.952 17.2689C129.308 17.0361 129.49 16.7268 129.496 16.3411C129.49 15.9952 129.351 15.7192 129.079 15.5131C128.807 15.3002 128.381 15.134 127.801 15.0143L125.372 14.5055C123.976 14.2261 122.937 13.7107 122.254 12.9591C121.571 12.201 121.233 11.2366 121.239 10.066C121.233 9.04181 121.481 8.16722 121.982 7.44228C122.484 6.71069 123.197 6.15202 124.121 5.76627C125.046 5.38052 126.136 5.18765 127.393 5.18765C129.278 5.18765 130.764 5.62328 131.852 6.49454C132.94 7.35914 133.541 8.54964 133.656 10.066Z" fill="white"/>
</svg>
