<svg width="148" height="29" viewBox="0 0 148 29" fill="none" xmlns="http://www.w3.org/2000/svg">
<path d="M18.8288 10.6081H13.8238C13.757 9.90087 13.6202 9.26255 13.4134 8.69311C13.2065 8.12367 12.9329 7.6369 12.5926 7.23278C12.2522 6.82866 11.8485 6.52098 11.3813 6.30974C10.9209 6.08931 10.4104 5.9791 9.84982 5.9791C8.85549 5.9791 7.99797 6.31433 7.27725 6.9848C6.56321 7.65527 6.01266 8.62423 5.62561 9.89169C5.24523 11.1591 5.05504 12.693 5.05504 14.4931C5.05504 16.3667 5.24856 17.9373 5.63562 19.2048C6.02934 20.463 6.57989 21.4136 7.28726 22.0565C8.00131 22.6903 8.84548 23.0071 9.81979 23.0071C10.367 23.0071 10.8642 22.9107 11.3113 22.7178C11.7651 22.5249 12.1621 22.2448 12.5025 21.8774C12.8495 21.5009 13.1331 21.0462 13.3533 20.5135C13.5802 19.9717 13.737 19.3609 13.8238 18.6812L18.8288 18.7226C18.742 19.9717 18.4784 21.2024 18.038 22.4147C17.6042 23.6271 17.007 24.7338 16.2462 25.7349C15.4854 26.7268 14.5578 27.5167 13.4634 28.1045C12.3757 28.6923 11.1278 28.9862 9.71969 28.9862C7.86451 28.9862 6.20285 28.426 4.73472 27.3055C3.27326 26.1758 2.11878 24.5318 1.27127 22.3734C0.423756 20.215 0 17.5883 0 14.4931C0 11.3888 0.430429 8.7574 1.29129 6.59905C2.15215 4.4407 3.31664 2.80127 4.78477 1.68076C6.2529 0.560253 7.89787 0 9.71969 0C10.9609 0 12.1087 0.238797 13.1631 0.716391C14.2175 1.1848 15.1451 1.87363 15.9459 2.7829C16.7467 3.68298 17.3973 4.78971 17.8978 6.10309C18.3983 7.41647 18.7086 8.91813 18.8288 10.6081Z" fill="#D81F26"/>
<path d="M26.559 16.5321V28.6005H21.6641V0.385748H26.3988V11.3245H26.569C26.916 10.0203 27.4832 9.00079 28.2707 8.26603C29.0648 7.53128 30.0358 7.1639 31.1836 7.1639C32.2647 7.1639 33.2056 7.49454 34.0064 8.15582C34.8072 8.80792 35.4278 9.73096 35.8682 10.9249C36.3154 12.1189 36.5356 13.515 36.5289 15.1131V28.6005H31.634V16.4356C31.6407 15.26 31.4272 14.3416 30.9934 13.6803C30.5596 13.019 29.949 12.6884 29.1616 12.6884C28.6477 12.6884 28.1939 12.8445 27.8002 13.1568C27.4132 13.4599 27.1095 13.8961 26.8893 14.4656C26.6758 15.035 26.5656 15.7238 26.559 16.5321Z" fill="#D81F26"/>
<path d="M43.9188 28.9587C42.9378 28.9587 42.0669 28.7337 41.3062 28.2836C40.5521 27.8244 39.9548 27.1355 39.5144 26.2171C39.0806 25.2895 38.8637 24.1276 38.8637 22.7316C38.8637 21.556 39.0139 20.5641 39.3142 19.7558C39.6145 18.9476 40.0282 18.2909 40.5554 17.7857C41.0826 17.2806 41.6899 16.8994 42.3772 16.6423C43.0646 16.3759 43.7987 16.1968 44.5794 16.105C45.4536 15.9948 46.1577 15.88 46.6915 15.7606C47.2254 15.632 47.6125 15.4529 47.8527 15.2233C48.0996 14.9845 48.2231 14.6492 48.2231 14.2176V14.1487C48.2231 13.4415 48.0462 12.895 47.6925 12.5093C47.3388 12.1235 46.8617 11.9306 46.2611 11.9306C45.6138 11.9306 45.0933 12.1235 44.6996 12.5093C44.3058 12.895 44.0556 13.4277 43.9488 14.1074L39.4343 13.8869C39.5678 12.6011 39.9114 11.453 40.4653 10.4428C41.0259 9.42328 41.7933 8.62423 42.7676 8.04561C43.7486 7.4578 44.9264 7.1639 46.3011 7.1639C47.2821 7.1639 48.1864 7.32462 49.0138 7.64608C49.8413 7.95835 50.5621 8.41758 51.176 9.02375C51.79 9.62074 52.2638 10.3555 52.5974 11.228C52.9378 12.1006 53.1079 13.0971 53.1079 14.2176V28.6005H48.5033V25.6523H48.3832C48.1096 26.3686 47.7593 26.9748 47.3322 27.4708C46.9118 27.9667 46.4146 28.3387 45.8407 28.5867C45.2735 28.8347 44.6328 28.9587 43.9188 28.9587ZM45.4303 24.5501C45.9575 24.5501 46.4313 24.4032 46.8517 24.1093C47.2788 23.8154 47.6191 23.4112 47.8727 22.8969C48.1263 22.3734 48.2531 21.7672 48.2531 21.0784V19.067C48.113 19.168 47.9428 19.2599 47.7426 19.3425C47.5491 19.4252 47.3355 19.5032 47.1019 19.5767C46.8684 19.6502 46.6281 19.7145 46.3812 19.7696C46.1343 19.8247 45.8974 19.8752 45.6705 19.9211C45.2101 20.0222 44.8163 20.1783 44.4893 20.3895C44.169 20.6008 43.9221 20.8763 43.7486 21.2162C43.5818 21.5468 43.4984 21.9417 43.4984 22.401C43.4984 23.099 43.6785 23.6317 44.0389 23.999C44.4059 24.3664 44.8697 24.5501 45.4303 24.5501Z" fill="#D81F26"/>
<path d="M56.1009 28.6005V7.43943H60.7556V11.3245H60.9257C61.246 10.0386 61.7866 9.02375 62.5473 8.27981C63.3081 7.53587 64.2157 7.1639 65.2701 7.1639C66.3378 7.1639 67.252 7.54046 68.0128 8.29359C68.7735 9.04671 69.2574 10.057 69.4642 11.3245H69.6244C69.9113 10.0662 70.4719 9.06049 71.3061 8.30736C72.1402 7.54505 73.1245 7.1639 74.259 7.1639C75.7138 7.1639 76.895 7.80681 77.8025 9.09264C78.7101 10.3693 79.1639 12.1235 79.1639 14.3553V28.6005H74.269V15.8983C74.269 14.8421 74.0722 14.0385 73.6784 13.4874C73.2847 12.9272 72.7742 12.647 72.1469 12.647C71.4729 12.647 70.9424 12.9501 70.5553 13.5563C70.1749 14.1533 69.9848 14.9569 69.9848 15.9672V28.6005H65.2801V15.8295C65.2801 14.8467 65.0865 14.0706 64.6995 13.5012C64.3124 12.9318 63.8019 12.647 63.168 12.647C62.7409 12.647 62.3638 12.7894 62.0368 13.0741C61.7098 13.3496 61.4529 13.7446 61.2661 14.2589C61.0859 14.7732 60.9958 15.3794 60.9958 16.0774V28.6005H56.1009Z" fill="#D81F26"/>
<path d="M86.5312 28.9587C85.5503 28.9587 84.6794 28.7337 83.9186 28.2836C83.1646 27.8244 82.5673 27.1355 82.1268 26.2171C81.6931 25.2895 81.4762 24.1276 81.4762 22.7316C81.4762 21.556 81.6264 20.5641 81.9267 19.7558C82.227 18.9476 82.6407 18.2909 83.1679 17.7857C83.6951 17.2806 84.3024 16.8994 84.9897 16.6423C85.6771 16.3759 86.4111 16.1968 87.1919 16.105C88.0661 15.9948 88.7701 15.88 89.304 15.7606C89.8379 15.632 90.2249 15.4529 90.4652 15.2233C90.7121 14.9845 90.8355 14.6492 90.8355 14.2176V14.1487C90.8355 13.4415 90.6587 12.895 90.305 12.5093C89.9513 12.1235 89.4742 11.9306 88.8736 11.9306C88.2263 11.9306 87.7057 12.1235 87.312 12.5093C86.9183 12.895 86.668 13.4277 86.5613 14.1074L82.0468 13.8869C82.1802 12.6011 82.5239 11.453 83.0778 10.4428C83.6384 9.42328 84.4058 8.62423 85.3801 8.04561C86.3611 7.4578 87.5389 7.1639 88.9136 7.1639C89.8946 7.1639 90.7988 7.32462 91.6263 7.64608C92.4538 7.95835 93.1745 8.41758 93.7885 9.02375C94.4024 9.62074 94.8762 10.3555 95.2099 11.228C95.5502 12.1006 95.7204 13.0971 95.7204 14.2176V28.6005H91.1158V25.6523H90.9957C90.7221 26.3686 90.3717 26.9748 89.9446 27.4708C89.5242 27.9667 89.0271 28.3387 88.4532 28.5867C87.8859 28.8347 87.2453 28.9587 86.5312 28.9587ZM88.0427 24.5501C88.5699 24.5501 89.0437 24.4032 89.4642 24.1093C89.8913 23.8154 90.2316 23.4112 90.4852 22.8969C90.7388 22.3734 90.8656 21.7672 90.8656 21.0784V19.067C90.7254 19.168 90.5553 19.2599 90.3551 19.3425C90.1615 19.4252 89.948 19.5032 89.7144 19.5767C89.4808 19.6502 89.2406 19.7145 88.9937 19.7696C88.7468 19.8247 88.5099 19.8752 88.283 19.9211C87.8225 20.0222 87.4288 20.1783 87.1018 20.3895C86.7815 20.6008 86.5346 20.8763 86.3611 21.2162C86.1942 21.5468 86.1108 21.9417 86.1108 22.401C86.1108 23.099 86.291 23.6317 86.6514 23.999C87.0184 24.3664 87.4822 24.5501 88.0427 24.5501Z" fill="#D81F26"/>
<path d="M104.329 28.9036C103.195 28.9036 102.163 28.4994 101.236 27.6912C100.308 26.883 99.5676 25.6706 99.0137 24.0542C98.4598 22.4377 98.1829 20.4309 98.1829 18.0337C98.1829 15.5447 98.4698 13.4966 99.0437 11.8893C99.6176 10.282 100.368 9.09264 101.296 8.32114C102.23 7.54964 103.235 7.1639 104.309 7.1639C105.116 7.1639 105.807 7.35677 106.381 7.74252C106.955 8.11908 107.429 8.60586 107.802 9.20285C108.176 9.79984 108.46 10.4198 108.653 11.0627H108.753V0.385748H113.648V28.6005H108.803V25.1701H108.653C108.446 25.8222 108.153 26.4329 107.772 27.0024C107.392 27.5718 106.915 28.031 106.341 28.38C105.774 28.7291 105.103 28.9036 104.329 28.9036ZM106.031 23.6546C106.625 23.6546 107.132 23.425 107.552 22.9658C107.973 22.4974 108.296 21.8407 108.523 20.9957C108.75 20.1508 108.863 19.1588 108.863 18.02C108.863 16.8627 108.75 15.8662 108.523 15.0304C108.303 14.1946 107.979 13.5517 107.552 13.1017C107.132 12.6516 106.625 12.4266 106.031 12.4266C105.423 12.4266 104.91 12.6562 104.489 13.1154C104.069 13.5747 103.748 14.2222 103.528 15.058C103.315 15.8937 103.208 16.8811 103.208 18.02C103.208 19.1588 103.318 20.1508 103.538 20.9957C103.758 21.8407 104.075 22.4974 104.489 22.9658C104.91 23.425 105.423 23.6546 106.031 23.6546Z" fill="#D81F26"/>
<path d="M123.921 29C122.306 29 120.918 28.5454 119.757 27.6361C118.602 26.7177 117.711 25.441 117.084 23.8062C116.464 22.1622 116.153 20.2564 116.153 18.0888C116.153 15.9121 116.464 14.0063 117.084 12.3715C117.711 10.7275 118.602 9.45083 119.757 8.54157C120.918 7.62312 122.306 7.1639 123.921 7.1639C125.536 7.1639 126.921 7.62312 128.075 8.54157C129.236 9.45083 130.127 10.7275 130.748 12.3715C131.375 14.0063 131.689 15.9121 131.689 18.0888C131.689 20.2564 131.375 22.1622 130.748 23.8062C130.127 25.441 129.236 26.7177 128.075 27.6361C126.921 28.5454 125.536 29 123.921 29ZM123.951 23.9164C124.538 23.9164 125.035 23.6684 125.443 23.1724C125.85 22.6765 126.16 21.9876 126.373 21.1059C126.594 20.2242 126.704 19.2048 126.704 18.0475C126.704 16.8719 126.594 15.8432 126.373 14.9615C126.16 14.0798 125.85 13.391 125.443 12.895C125.035 12.3991 124.538 12.1511 123.951 12.1511C123.344 12.1511 122.83 12.3991 122.409 12.895C121.996 13.391 121.679 14.0798 121.459 14.9615C121.245 15.8432 121.138 16.8719 121.138 18.0475C121.138 19.2048 121.245 20.2242 121.459 21.1059C121.679 21.9876 121.996 22.6765 122.409 23.1724C122.83 23.6684 123.344 23.9164 123.951 23.9164Z" fill="#D81F26"/>
<path d="M147.62 13.9007L143.125 14.066C143.078 13.6252 142.952 13.2348 142.745 12.895C142.538 12.546 142.268 12.2751 141.934 12.0822C141.607 11.8801 141.227 11.7791 140.793 11.7791C140.226 11.7791 139.742 11.9352 139.341 12.2475C138.948 12.5598 138.754 12.9823 138.761 13.515C138.754 13.9283 138.874 14.2865 139.121 14.5895C139.375 14.8926 139.825 15.136 140.473 15.3197L143.435 16.0912C144.97 16.4953 146.111 17.1658 146.859 18.1026C147.613 19.0394 147.993 20.2793 148 21.8223C147.993 23.2735 147.68 24.5363 147.059 25.6109C146.445 26.6855 145.604 27.5213 144.537 28.1183C143.469 28.7061 142.248 29 140.873 29C138.677 29 136.946 28.38 135.678 27.1401C134.416 25.8911 133.696 24.2195 133.516 22.1254L138.35 21.9601C138.457 22.7316 138.734 23.3194 139.181 23.7235C139.628 24.1276 140.199 24.3297 140.893 24.3297C141.52 24.3297 142.031 24.169 142.424 23.8475C142.818 23.526 143.018 23.099 143.025 22.5663C143.018 22.0887 142.865 21.7075 142.565 21.4228C142.264 21.1289 141.794 20.8993 141.153 20.734L138.471 20.0314C136.929 19.6456 135.781 18.9338 135.027 17.896C134.273 16.8489 133.899 15.5172 133.906 13.9007C133.899 12.4863 134.173 11.2785 134.727 10.2774C135.281 9.26714 136.068 8.49565 137.089 7.96295C138.11 7.43025 139.315 7.1639 140.703 7.1639C142.785 7.1639 144.426 7.76548 145.628 8.96865C146.829 10.1626 147.493 11.8066 147.62 13.9007Z" fill="#D81F26"/>
</svg>
